<svg width="157" height="100" viewBox="0 0 157 100" fill="none" xmlns="http://www.w3.org/2000/svg">
<g clip-path="url(#clip0_719_1155)">
<path d="M79.2096 33.7124C84.8526 33.557 90.2243 31.3318 94.3444 27.4399C94.4229 27.3655 94.5238 27.325 94.6315 27.325C94.7481 27.325 94.8558 27.3723 94.9365 27.4579C95.0128 27.539 95.0531 27.6471 95.0509 27.7574C95.0487 27.87 95.0016 27.9736 94.9186 28.0502C90.6414 32.0908 85.0679 34.3993 79.2096 34.5525V33.7124Z" fill="#FFD9A1"/>
<path d="M94.6316 27.4376C94.7168 27.4376 94.7953 27.4714 94.8536 27.5345C94.9097 27.593 94.9388 27.6718 94.9366 27.7529C94.9343 27.834 94.9007 27.9106 94.8402 27.9669C90.6124 31.9624 85.1084 34.2552 79.3218 34.4354V33.8205C84.9536 33.6403 90.3073 31.4061 94.423 27.5187C94.479 27.4669 94.5531 27.4376 94.6316 27.4376ZM94.6316 27.2124C94.5015 27.2124 94.3714 27.2597 94.2682 27.3565C90.1301 31.2664 84.763 33.4736 79.0975 33.602V34.6673C85.0321 34.539 90.6595 32.2282 94.9949 28.1313C95.208 27.9309 95.2192 27.593 95.0173 27.3791C94.9142 27.2687 94.7729 27.2124 94.6316 27.2124Z" fill="#FFD9A1"/>
<path d="M81.6095 60.298C81.4862 59.5502 81.3202 58.8205 81.1139 58.1223C80.9883 57.6808 80.8402 57.2327 80.6765 56.7935C80.1898 55.4827 79.5506 54.2169 78.7768 53.03C78.5749 52.7214 78.3574 52.4106 78.1107 52.0795C76.9534 50.5232 75.5695 49.1583 74.0018 48.0232C73.681 47.7912 73.3917 47.5953 73.1158 47.4196C70.088 45.4759 66.5824 44.4489 62.9804 44.4489C61.6548 44.4489 60.3315 44.5885 59.0464 44.861V44.0052C60.3271 43.7417 61.6503 43.6088 62.9804 43.6088C66.7775 43.6088 70.467 44.6989 73.6519 46.7642C73.9793 46.9759 74.2642 47.1741 74.5221 47.3655C76.0517 48.4759 77.4131 49.798 78.5637 51.2912C78.7858 51.575 79.0056 51.8791 79.2186 52.1899C80.0059 53.334 80.672 54.5637 81.2013 55.8453C81.3651 56.2372 81.5131 56.6336 81.6432 57.0187C82.0043 58.075 82.2779 59.1786 82.4528 60.298H81.6095Z" fill="#FFD9A1"/>
<path d="M62.9825 43.7214C66.7572 43.7214 70.4266 44.807 73.5935 46.8588C73.9187 47.0705 74.2013 47.2664 74.4615 47.4579C75.9821 48.5615 77.3346 49.8745 78.4807 51.361C78.7005 51.6448 78.9203 51.9466 79.1333 52.2529C79.9161 53.3903 80.58 54.6133 81.1048 55.8881C81.2663 56.2777 81.4143 56.6696 81.5444 57.0547C81.8898 58.0637 82.1522 59.1155 82.3294 60.1854H81.7081C81.5848 59.4669 81.4233 58.7619 81.2259 58.0908C81.0981 57.6448 80.95 57.1944 80.7863 56.7529C80.2974 55.4331 79.6537 54.1606 78.8754 52.9669C78.6713 52.6561 78.4515 52.343 78.207 52.0097C77.043 50.4444 75.6524 49.0727 74.0734 47.9309C73.7505 47.6989 73.4589 47.4984 73.183 47.325C70.1372 45.37 66.6115 44.3363 62.987 44.3363C61.6996 44.3363 60.4144 44.4669 59.1652 44.7236V44.0975C60.4055 43.8475 61.6906 43.7214 62.9825 43.7214ZM62.9825 43.4962C61.5964 43.4962 60.244 43.6381 58.9364 43.9128V45.0007C60.2417 44.7124 61.5942 44.5615 62.9825 44.5615C66.6877 44.5615 70.144 45.6448 73.0574 47.5142C73.3557 47.7034 73.6495 47.9061 73.9366 48.1133C75.4954 49.2417 76.8725 50.602 78.0209 52.1448C78.2496 52.4534 78.4717 52.7687 78.6825 53.0908C79.4428 54.2552 80.0798 55.5074 80.571 56.8318C80.7325 57.2642 80.8783 57.7056 81.0061 58.1538C81.2214 58.8881 81.3896 59.6426 81.513 60.4106H82.5873C82.4101 59.2327 82.1298 58.084 81.753 56.9827C81.6184 56.584 81.4704 56.1921 81.3089 55.8025C80.7729 54.5029 80.1022 53.2709 79.315 52.1268C79.1042 51.8205 78.8844 51.5187 78.6556 51.2236C77.4983 49.7214 76.1279 48.3903 74.5915 47.2754C74.3067 47.0637 74.0129 46.8633 73.7146 46.6696C70.6194 44.6628 66.9344 43.4962 62.9825 43.4962Z" fill="#FFD9A1"/>
<path d="M77.9244 34.5525C72.0638 34.3971 66.4903 32.0908 62.2155 28.0502C62.0472 27.8926 62.0405 27.6268 62.1975 27.4579C62.2783 27.3723 62.3859 27.325 62.5048 27.325C62.6124 27.325 62.7134 27.3655 62.7919 27.4399C66.9097 31.334 72.2814 33.5592 77.9244 33.7124V34.5525Z" fill="#FFD9A1"/>
<path d="M62.5048 27.4376C62.5833 27.4376 62.6573 27.4669 62.7134 27.5209C66.8246 31.4083 72.1782 33.6403 77.8123 33.8205V34.4354C72.0235 34.2552 66.5195 31.9624 62.2917 27.9669C62.1684 27.852 62.1639 27.6561 62.2783 27.5345C62.3388 27.4736 62.4196 27.4376 62.5048 27.4376ZM62.5048 27.2124C62.3635 27.2124 62.2222 27.2687 62.1168 27.3791C61.9172 27.593 61.9261 27.9309 62.1392 28.1313C66.4724 32.2282 72.0997 34.539 78.0366 34.6673V33.602C72.3711 33.4736 67.004 31.2664 62.8681 27.3565C62.765 27.2597 62.6349 27.2124 62.5048 27.2124Z" fill="#FFD9A1"/>
<path d="M75.2173 60.298C74.6454 57.5255 73.2436 55.039 71.1555 53.102C70.8707 52.8385 70.5836 52.5908 70.2988 52.3678C67.9079 50.4962 65.046 49.5074 62.0204 49.5074C61.0156 49.5074 60.0153 49.6178 59.0486 49.8385V48.9782C60.0197 48.7709 61.0178 48.6673 62.0204 48.6673C65.1447 48.6673 68.1165 49.6651 70.6105 51.5502C70.9066 51.7732 71.1892 52.0052 71.4516 52.2372C73.2593 53.8318 74.6477 55.8655 75.4663 58.1155C75.7265 58.8318 75.9306 59.5637 76.0719 60.2957H75.2173V60.298Z" fill="#FFD9A1"/>
<path d="M62.0203 48.7822C65.12 48.7822 68.0671 49.7709 70.5432 51.6426C70.8348 51.8633 71.1151 52.093 71.3775 52.3227C73.1718 53.9061 74.5489 55.9218 75.3608 58.1561C75.6031 58.8227 75.796 59.5029 75.935 60.1854H75.3093C74.7216 57.4263 73.3154 54.9511 71.234 53.0209C70.9469 52.7552 70.6576 52.5052 70.3705 52.2799C67.9617 50.3948 65.0751 49.3971 62.0248 49.3971C61.0581 49.3971 60.0982 49.4984 59.1652 49.7011V49.0727C60.096 48.879 61.0559 48.7822 62.0203 48.7822ZM62.0203 48.557C60.9639 48.557 59.93 48.6718 58.9364 48.8903V49.9827C59.9277 49.7462 60.9595 49.6223 62.0203 49.6223C65.111 49.6223 67.9617 50.6831 70.2292 52.4579C70.523 52.6876 70.8056 52.9309 71.0792 53.1854C73.1113 55.0705 74.5624 57.5817 75.1253 60.4106H76.2064C76.0606 59.6088 75.8453 58.8295 75.5717 58.0795C74.7351 55.7754 73.3288 53.7439 71.5256 52.1538C71.2519 51.9128 70.9693 51.6831 70.6778 51.4624C68.2644 49.6381 65.268 48.557 62.0203 48.557Z" fill="#FFD9A1"/>
<path d="M87.9186 60.298C87.7616 57.7552 87.1875 55.2822 86.2118 52.9466C86.0862 52.6426 85.9427 52.3205 85.7767 51.9624C85.1285 50.5908 84.3368 49.2754 83.424 48.048C83.2333 47.7912 83.0225 47.5254 82.7646 47.2056C81.5758 45.7552 80.2077 44.4534 78.7005 43.334C78.4157 43.12 78.1151 42.9083 77.7832 42.6876C74.0398 40.1809 69.6797 38.8565 65.1716 38.8565C63.0925 38.8565 61.0313 39.1381 59.0486 39.6944V38.8227C61.038 38.2867 63.0969 38.0164 65.1716 38.0164C69.7313 38.0164 74.1587 39.3295 77.9761 41.8115L78.1488 41.9241V29.1448L78.0411 29.1426C72.7569 28.9827 67.724 26.8903 63.8707 23.2484C63.79 23.1718 63.7429 23.0682 63.7384 22.9556C63.7362 22.843 63.7765 22.7372 63.8528 22.6561C63.9335 22.5705 64.0412 22.5232 64.1578 22.5232C64.2632 22.5232 64.3664 22.5637 64.4427 22.6381C68.1389 26.1313 72.9655 28.1426 78.0344 28.3047L78.151 28.3092V23.5795L78.0433 23.5772C73.432 23.4331 69.0024 21.3903 65.8915 17.9714C65.7368 17.8002 65.748 17.5345 65.9185 17.379C65.997 17.307 66.0956 17.2687 66.2011 17.2687C66.3177 17.2687 66.4298 17.3182 66.5083 17.4061C69.4599 20.6516 73.663 22.593 78.0344 22.7349L78.151 22.7394V18.1043L78.0433 18.0998C74.1946 17.9691 70.5701 16.3881 67.8383 13.6538C67.7576 13.575 67.715 13.4691 67.715 13.3565C67.715 13.2439 67.7576 13.1403 67.8383 13.0615C67.9168 12.9804 68.0223 12.9376 68.1344 12.9376C68.2465 12.9376 68.3497 12.9804 68.4282 13.0592C71.0008 15.6358 74.4122 17.1268 78.0366 17.2597L78.1532 17.2642V12.8295L78.0478 12.8227C75.0267 12.6426 72.1872 11.1854 70.2629 8.825C70.1171 8.64707 70.1418 8.3813 70.3212 8.23265C70.3952 8.17184 70.4894 8.13806 70.5858 8.13806C70.7114 8.13806 70.8303 8.19437 70.9088 8.29121C72.6964 10.4827 75.2263 11.7912 78.0321 11.9781L78.151 11.9872V8.15608L78.0501 8.14707C75.5246 7.91734 73.4679 6.00067 73.0463 3.48716C73.0283 3.3768 73.053 3.26644 73.118 3.1741C73.1831 3.08175 73.2795 3.02319 73.3894 3.00518C73.4141 3.00067 73.4365 2.99842 73.4612 2.99842C73.6653 2.99842 73.838 3.14707 73.8716 3.34977C74.2238 5.43986 75.9328 7.06373 78.0299 7.29797L78.1555 7.31148V0.613289C78.1555 0.381307 78.3439 0.194374 78.5749 0.194374C78.8059 0.194374 78.9921 0.381307 78.9921 0.613289V7.31148L79.1154 7.29797C81.2103 7.06373 82.9216 5.43986 83.2737 3.34977C83.3073 3.14707 83.4823 2.99842 83.6864 2.99842C83.7088 2.99842 83.7335 3.00067 83.7581 3.00518C83.868 3.02319 83.9645 3.08401 84.0295 3.1741C84.0946 3.26644 84.1192 3.3768 84.1013 3.48716C83.6774 5.99842 81.6185 7.91509 79.0952 8.14932L78.9943 8.15833V11.9984L79.1109 11.9939C81.984 11.8813 84.68 10.5322 86.5056 8.29346C86.5841 8.19662 86.703 8.14031 86.8286 8.14031C86.9251 8.14031 87.0193 8.17409 87.0955 8.23491C87.2727 8.3813 87.2996 8.64707 87.1538 8.825C85.1644 11.2642 82.2308 12.7236 79.1042 12.834L78.9966 12.8385V17.2642L79.1132 17.2597C82.7354 17.129 86.149 15.6358 88.7238 13.0592C88.8023 12.9804 88.9077 12.9376 89.0176 12.9376C89.1298 12.9376 89.2352 12.9827 89.3137 13.0615C89.4774 13.2259 89.4774 13.4917 89.3137 13.6561C86.5797 16.3926 82.9552 17.9714 79.1065 18.102L78.9988 18.1065V22.7417L79.1154 22.7372C83.489 22.5953 87.6921 20.6516 90.6437 17.4083C90.7245 17.3205 90.8321 17.2709 90.951 17.2709C91.0564 17.2709 91.1573 17.3092 91.2358 17.3813C91.404 17.5367 91.4175 17.8025 91.2627 17.9736C88.1519 21.3926 83.7223 23.4354 79.1087 23.5795L79.001 23.5818V28.316L79.1154 28.3137C84.2875 28.2169 89.2083 26.2011 92.974 22.6403C93.0525 22.566 93.1535 22.5254 93.2589 22.5254C93.3755 22.5254 93.4832 22.5727 93.5639 22.6583C93.7209 22.8272 93.7142 23.093 93.546 23.2507C89.621 26.9601 84.4938 29.057 79.1087 29.1516L78.9988 29.1538V41.7687L78.9584 42.0232L79.1715 41.9016C83.0202 39.361 87.4947 38.0187 92.1128 38.0187C94.1022 38.0187 96.0714 38.2664 97.9689 38.7574V39.6245C96.0692 39.1178 94.1 38.8588 92.1128 38.8588C87.6069 38.8588 83.2445 40.1831 79.5012 42.6899L79.3711 42.7777L79.4967 42.8723C80.9725 44.0029 82.3182 45.3115 83.498 46.7597L83.5608 46.8363L83.6438 46.7845C86.4159 45.057 89.6075 44.1448 92.8776 44.1448C94.6136 44.1448 96.3271 44.3993 97.9711 44.9016V45.7822C96.3294 45.2529 94.6181 44.9849 92.8776 44.9849C89.8049 44.9849 86.7995 45.834 84.182 47.4376L84.0766 47.5029L84.1506 47.602C85.0747 48.8498 85.8776 50.1831 86.5326 51.5682L86.5819 51.6696L86.6828 51.62C88.7059 50.6358 90.8792 50.1381 93.1423 50.1381C94.793 50.1381 96.4168 50.4106 97.9711 50.9466V51.8385C96.4258 51.2664 94.802 50.9781 93.1423 50.9781C90.9958 50.9781 88.9369 51.4534 87.0193 52.3881L86.9228 52.4354L86.9632 52.5345C88.0016 55.0007 88.6117 57.6133 88.7732 60.3047H87.9186V60.298Z" fill="#FFD9A1"/>
<path d="M78.5681 0.30023C78.7363 0.30023 78.8732 0.437613 78.8732 0.606532V7.17861V7.43086L79.1221 7.40383C81.2663 7.16509 83.018 5.50293 83.3791 3.36104C83.4037 3.21239 83.5316 3.10428 83.6796 3.10428C83.6975 3.10428 83.7155 3.10653 83.7334 3.10879C83.8142 3.1223 83.8837 3.16509 83.9308 3.23266C83.9779 3.30023 83.9981 3.38131 83.9824 3.46239C83.5675 5.9241 81.5489 7.80248 79.075 8.02996L78.8709 8.04798V8.25293V11.8723V12.1065L79.1042 12.0975C82.0087 11.9827 84.7337 10.6178 86.5796 8.35653C86.6379 8.28446 86.7254 8.24392 86.8174 8.24392C86.8891 8.24392 86.9564 8.2687 87.0125 8.31374C87.1426 8.42185 87.1628 8.61554 87.0551 8.74617C85.0881 11.1606 82.1836 12.6065 79.0885 12.7124L78.8709 12.7191V12.9376V17.1381V17.3723L79.1042 17.3633C82.7533 17.2304 86.1938 15.7282 88.7888 13.1313C88.8471 13.0728 88.9234 13.0412 89.0042 13.0412C89.0871 13.0412 89.1634 13.0728 89.2217 13.1336C89.3406 13.2529 89.3406 13.4466 89.2217 13.566C86.5078 16.2822 82.9103 17.8498 79.0885 17.9804L78.8709 17.9872V18.2056V22.6155V22.8475L79.1019 22.8408C83.5069 22.6966 87.7369 20.7417 90.711 17.4737C90.7693 17.4083 90.8478 17.3746 90.9352 17.3746C91.0115 17.3746 91.0855 17.4038 91.1438 17.4556C91.2672 17.5705 91.2762 17.7642 91.164 17.8903C88.0734 21.2867 83.6729 23.316 79.0907 23.4579L78.8732 23.4646V23.6831V28.1944V28.4241L79.1019 28.4196C84.3009 28.3228 89.2486 26.2957 93.0368 22.7169C93.0929 22.6628 93.1669 22.6336 93.2454 22.6336C93.3306 22.6336 93.4091 22.6673 93.4674 22.7304C93.5235 22.7912 93.5527 22.8678 93.5504 22.9511C93.5482 23.0322 93.5145 23.1088 93.454 23.1651C89.5492 26.8565 84.4489 28.9399 79.093 29.0367L78.8732 29.0412V29.2619V41.7687L78.7879 42.2777L79.2163 41.9939C83.0471 39.4669 87.4992 38.1291 92.0948 38.1291C94.0461 38.1291 95.9772 38.3678 97.8388 38.843V39.4759C95.9727 38.9894 94.0438 38.7439 92.0948 38.7439C87.5665 38.7439 83.1839 40.075 79.4227 42.5953L79.1602 42.771L79.4092 42.9624C80.8783 44.0885 82.2195 45.3903 83.3903 46.8318L83.5159 46.9849L83.6841 46.8813C86.4383 45.1651 89.6097 44.2574 92.8574 44.2574C94.553 44.2574 96.2284 44.5029 97.8388 44.9849V45.6291C96.2306 45.1268 94.5575 44.8723 92.8574 44.8723C89.7645 44.8723 86.7366 45.7259 84.1035 47.343L83.8927 47.4714L84.0385 47.6696C84.958 48.9106 85.7565 50.2394 86.4092 51.6155L86.5056 51.8205L86.7097 51.7214C88.7171 50.7462 90.8747 50.2507 93.1198 50.2507C94.7302 50.2507 96.3159 50.5119 97.8365 51.0255V51.6764C96.3248 51.1381 94.7391 50.8633 93.1198 50.8633C90.9577 50.8633 88.8808 51.3408 86.9474 52.2845L86.7568 52.3768L86.8398 52.5728C87.858 54.9917 88.4614 57.5502 88.6341 60.1854H88.0195C87.8513 57.6673 87.2771 55.2191 86.3105 52.9038C86.1826 52.5953 86.0391 52.2709 85.8731 51.9128C85.2204 50.5367 84.4265 49.2124 83.5092 47.9804C83.3163 47.7214 83.1054 47.4534 82.8453 47.1336C81.6498 45.6764 80.2772 44.3678 78.7633 43.2417C78.4762 43.0255 78.1734 42.8137 77.8414 42.5908C74.0802 40.0705 69.6976 38.7394 65.1693 38.7394C63.1283 38.7394 61.1075 39.0097 59.1584 39.5412V38.9038C61.112 38.3858 63.1328 38.1223 65.1693 38.1223C69.7088 38.1223 74.1138 39.4286 77.9132 41.8993L78.2586 42.1246V41.7101V29.2484V29.03L78.0411 29.0232C72.7838 28.8655 67.7777 26.7822 63.9425 23.1583C63.8819 23.102 63.8483 23.0255 63.846 22.9444C63.8438 22.8633 63.8729 22.7845 63.929 22.7259C63.9873 22.6628 64.0681 22.6291 64.1533 22.6291C64.2318 22.6291 64.3058 22.6583 64.3619 22.7124C68.0783 26.2237 72.9318 28.2462 78.0254 28.4083L78.2564 28.4151V28.1831V23.6786V23.4601L78.0388 23.4534C73.4567 23.3115 69.0562 21.2822 65.9678 17.8858C65.9117 17.825 65.8825 17.7462 65.887 17.6628C65.8915 17.5818 65.9251 17.5074 65.9879 17.4511C66.044 17.3993 66.118 17.37 66.1943 17.37C66.2818 17.37 66.3603 17.4061 66.4186 17.4714C69.3904 20.7372 73.6204 22.6944 78.0254 22.8363L78.2564 22.843V22.611V18.2056V17.9872L78.0388 17.9804C74.2192 17.8498 70.6217 16.2822 67.9078 13.566C67.8495 13.5074 67.8181 13.4309 67.8181 13.3498C67.8181 13.2687 67.8495 13.1921 67.9101 13.1313C67.9684 13.0728 68.0446 13.0412 68.1254 13.0412C68.2061 13.0412 68.2824 13.0728 68.3407 13.1313C70.9334 15.7282 74.3717 17.2304 78.0231 17.3633L78.2564 17.3723V17.1381V12.9264V12.7146L78.0455 12.7011C75.0536 12.5232 72.2455 11.0818 70.3391 8.74392C70.2875 8.68086 70.2628 8.59978 70.2718 8.5187C70.2808 8.43762 70.3189 8.36329 70.3817 8.31149C70.4378 8.26644 70.5051 8.24167 70.5768 8.24167C70.6688 8.24167 70.7563 8.28221 70.8146 8.35428C72.6223 10.5705 75.1814 11.8948 78.0186 12.0818L78.2586 12.0975V11.8565V8.25068V8.04572L78.0545 8.02771C75.5807 7.80248 73.5643 5.9241 73.1516 3.46239C73.1382 3.38131 73.1561 3.30023 73.2032 3.23491C73.2503 3.16735 73.3198 3.12455 73.4028 3.11104C73.4208 3.10879 73.4365 3.10653 73.4544 3.10653C73.6024 3.10653 73.728 3.21464 73.755 3.36329C74.1161 5.50293 75.8655 7.16509 78.0097 7.40608L78.2586 7.43311V7.18086V0.608787C78.2609 0.437615 78.3977 0.30023 78.5681 0.30023ZM78.5681 0.0750046C78.2743 0.0750046 78.0366 0.313739 78.0366 0.606532V7.17861C75.9933 6.94888 74.3269 5.39708 73.977 3.32275C73.9322 3.06149 73.7079 2.87906 73.4567 2.87906C73.4275 2.87906 73.3984 2.88131 73.367 2.88581C73.0776 2.93311 72.8825 3.21014 72.9318 3.49843C73.367 6.09077 75.4707 8.01644 78.0366 8.25068V11.8588C75.2891 11.6764 72.7524 10.37 70.9918 8.21239C70.8863 8.08401 70.7338 8.0187 70.5813 8.0187C70.4624 8.0187 70.3436 8.05924 70.2449 8.13807C70.0184 8.325 69.9847 8.66059 70.1709 8.88807C72.1334 11.2935 74.9706 12.7439 78.0366 12.9264V17.1381C74.4368 17.0074 71.068 15.539 68.5044 12.9714C68.4013 12.8678 68.2667 12.816 68.1299 12.816C67.9931 12.816 67.8585 12.8678 67.7553 12.9737C67.5467 13.1809 67.5467 13.5187 67.7553 13.7259C70.5208 16.4939 74.1542 18.0728 78.0366 18.2056V22.6155C73.6854 22.4737 69.5384 20.5637 66.589 17.3228C66.4859 17.2079 66.3423 17.1493 66.1988 17.1493C66.0709 17.1493 65.9431 17.1966 65.8399 17.289C65.6224 17.4872 65.6089 17.8228 65.8063 18.0412C68.9552 21.5029 73.3871 23.539 78.0366 23.6831V28.1876C72.9879 28.0277 68.2106 26.0412 64.5189 22.5525C64.4157 22.4556 64.2856 22.4083 64.1555 22.4083C64.0142 22.4083 63.8729 22.4646 63.7698 22.575C63.5679 22.789 63.5791 23.1268 63.7922 23.3273C67.6813 27.0029 72.7165 29.093 78.0366 29.2529V41.7146C74.3291 39.3025 69.9107 37.9016 65.1715 37.9016C63.0139 37.9016 60.9236 38.1921 58.9364 38.7349V39.8408C60.9191 39.271 63.0117 38.9669 65.1715 38.9669C69.8075 38.9669 74.125 40.3723 77.7203 42.78C78.0298 42.9872 78.3349 43.2011 78.6332 43.4241C80.1336 44.539 81.4928 45.834 82.677 47.2777C82.9013 47.5525 83.1211 47.8295 83.3342 48.1155C84.2358 49.3273 85.0231 50.6313 85.6757 52.0097C85.826 52.3318 85.9718 52.6583 86.1086 52.9894C87.0708 55.2957 87.6629 57.7957 87.8132 60.4106H88.8763C88.7215 57.6133 88.0868 54.9444 87.0506 52.4849C88.8875 51.5885 90.9487 51.0863 93.1243 51.0863C94.8625 51.0863 96.5289 51.4083 98.0653 51.9962V50.861C96.5177 50.3182 94.8558 50.021 93.1243 50.021C90.794 50.021 88.5847 50.557 86.6155 51.5142C85.9471 50.1043 85.142 48.771 84.2224 47.53C86.7411 45.9849 89.6994 45.093 92.8596 45.093C94.6763 45.093 96.428 45.3881 98.0653 45.9331V44.8137C96.419 44.3025 94.6696 44.0277 92.8596 44.0277C89.4527 44.0277 86.2701 45.0007 83.5675 46.6854C82.3855 45.2327 81.0353 43.9196 79.5483 42.78C83.1436 40.3723 87.4588 38.9669 92.097 38.9669C94.1627 38.9669 96.1611 39.2439 98.0653 39.7664V38.6651C96.1589 38.1651 94.1582 37.9016 92.097 37.9016C87.3018 37.9016 82.8318 39.3363 79.0952 41.8025C79.0974 41.789 79.0974 41.7777 79.0974 41.7642V29.2597C84.5162 29.1628 89.6546 27.0637 93.6087 23.3273C93.8218 23.1268 93.8308 22.789 93.6312 22.575C93.5257 22.4646 93.3844 22.4083 93.2454 22.4083C93.1153 22.4083 92.9852 22.4556 92.882 22.5525C89.1253 26.1043 84.2448 28.0975 79.0974 28.1944V23.6831C83.7491 23.539 88.181 21.5029 91.33 18.0412C91.5274 17.8228 91.5117 17.4872 91.2963 17.289C91.1932 17.1944 91.0653 17.1493 90.9375 17.1493C90.794 17.1493 90.6526 17.2079 90.5472 17.3228C87.5979 20.5637 83.4486 22.4737 79.0974 22.6155V18.2056C82.9821 18.0728 86.6155 16.4939 89.3809 13.7259C89.5873 13.5187 89.5873 13.1809 89.3809 12.9737C89.2778 12.8678 89.141 12.816 89.0064 12.816C88.8718 12.816 88.735 12.8678 88.6318 12.9714C86.066 15.539 82.6995 17.0074 79.0974 17.1381V12.9376C82.2644 12.8273 85.2115 11.3633 87.2301 8.88807C87.4162 8.66059 87.3826 8.325 87.156 8.13807C87.0573 8.05698 86.9385 8.0187 86.8196 8.0187C86.6671 8.0187 86.5146 8.08401 86.4092 8.21239C84.5924 10.4399 81.9459 11.7597 79.0974 11.8723V8.25293C81.661 8.01644 83.7671 6.09077 84.2044 3.49843C84.2538 3.21014 84.0586 2.93311 83.7693 2.88581C83.7402 2.88131 83.7088 2.87906 83.6796 2.87906C83.4262 2.87906 83.2019 3.06374 83.157 3.32275C82.8071 5.39933 81.1407 6.95113 79.0974 7.17861V0.606532C79.0974 0.313739 78.8597 0.0750046 78.5681 0.0750046Z" fill="#FFD9A1"/>
<path d="M4.388 77.8655V75.9646H7.59977C10.1791 75.9646 11.8993 74.4399 11.8993 72.1065C11.8993 69.7462 10.0355 68.1921 7.28353 68.1921C4.96217 68.1921 2.4098 69.2867 1.14931 70.8115V68.1336C2.66773 67.039 5.10571 66.3205 7.34184 66.3205C11.2691 66.3205 13.9067 68.6246 13.9067 72.0502C13.9067 74.1516 12.931 75.8227 11.2982 76.8002C13.5052 77.807 14.7949 79.6493 14.7949 82.0975C14.7949 85.87 11.7558 88.4016 7.1983 88.4016C4.53154 88.4016 1.72348 87.4804 0.0884399 86.0412L1.12015 84.4286C2.55334 85.6944 4.99133 86.5007 7.28353 86.5007C10.5805 86.5007 12.7875 84.7439 12.7875 82.0682C12.7875 79.4781 10.6949 77.8655 7.31269 77.8655H4.388Z" fill="#FFD9A1"/>
<path d="M25.3743 73.4308C29.5887 73.4308 32.713 76.6268 32.713 80.9444C32.713 85.2912 29.5887 88.4872 25.3743 88.4872C21.1601 88.4872 18.0649 85.2912 18.0649 80.9444C18.0627 76.6268 21.1892 73.4308 25.3743 73.4308ZM30.7931 80.9444C30.7931 77.6628 28.4717 75.2146 25.3743 75.2146C22.3062 75.2146 19.9848 77.6628 19.9848 80.9444C19.9848 84.2552 22.2793 86.7011 25.3743 86.7011C28.4695 86.7011 30.7931 84.2552 30.7931 80.9444Z" fill="#FFD9A1"/>
<path d="M59.4344 73.4308C63.6487 73.4308 66.773 76.6268 66.773 80.9444C66.773 85.2912 63.6487 88.4872 59.4344 88.4872C55.22 88.4872 52.1249 85.2912 52.1249 80.9444C52.1249 76.6268 55.2492 73.4308 59.4344 73.4308ZM64.8531 80.9444C64.8531 77.6628 62.5318 75.2146 59.4344 75.2146C56.3661 75.2146 54.0448 77.6628 54.0448 80.9444C54.0448 84.2552 56.3392 86.7011 59.4344 86.7011C62.5295 86.7011 64.8531 84.2552 64.8531 80.9444Z" fill="#FFD9A1"/>
<path d="M70.1866 73.7484H72.1065V77.8655C72.1065 79.9669 73.4836 81.0029 75.6614 81.0029C77.0386 81.0029 78.4717 80.7146 79.5887 80.2259V73.7484H81.5086V88.1426H79.5887V81.9534C78.2407 82.4714 76.6932 82.789 75.2017 82.789C72.2478 82.789 70.1844 81.0908 70.1844 78.1538V73.7484H70.1866Z" fill="#FFD9A1"/>
<path d="M87.4162 67.4151L89.0513 69.1719L87.4162 70.8993L85.7812 69.1719L87.4162 67.4151ZM86.4428 73.7484H88.3627V88.1426H86.4428V73.7484Z" fill="#FFD9A1"/>
<path d="M93.3217 73.7484H99.1128C102.037 73.7484 103.699 75.0435 103.699 77.3768C103.699 78.8453 103.125 79.9399 101.979 80.5728C103.471 81.2349 104.3 82.4444 104.3 84.2011C104.3 86.7349 102.408 88.1448 99.0836 88.1448H93.3217V73.7484ZM95.2438 75.5908V79.7372H99.1419C100.833 79.7372 101.78 78.9894 101.78 77.6358C101.78 76.3115 100.833 75.5908 99.1128 75.5908H95.2438ZM99.0859 86.3002C101.178 86.3002 102.383 85.4646 102.383 83.9399C102.383 82.4421 101.293 81.521 99.1442 81.521H95.2461V86.3002H99.0859Z" fill="#FFD9A1"/>
<path d="M115.342 88.1426L125.004 66.3205L134.667 88.1426H132.516L125.004 71.0412L117.464 88.1426H115.342Z" fill="#FFD9A1"/>
<path d="M35.6197 88.5435L42.3662 74.0007L49.115 88.5435H47.6123L42.3662 77.1471L37.1022 88.5435H35.6197Z" fill="#FFD9A1"/>
<path fill-rule="evenodd" clip-rule="evenodd" d="M42.3113 73.4234L49.412 88.7247H47.4139L42.3109 77.6391L37.1905 88.7247H35.2129L42.3113 73.4234Z" fill="#FFD9A1"/>
<path d="M138.852 67.4151L140.487 69.1719L138.852 70.8993L137.217 69.1719L138.852 67.4151ZM137.876 73.7484H139.796V88.1426H137.876V73.7484Z" fill="#FFD9A1"/>
<path d="M151.293 73.4308C153.069 73.4308 154.789 73.8903 155.909 74.6966V77.0863C154.704 75.9061 153.042 75.2146 151.293 75.2146C148.081 75.2146 145.988 77.5457 145.988 80.9444C145.988 84.37 148.052 86.7011 151.235 86.7011C153.011 86.7011 154.675 86.0097 155.592 84.9444L156.797 86.2394C155.507 87.6223 153.5 88.4849 151.264 88.4849C146.935 88.4849 144.069 85.4038 144.069 80.9714C144.069 76.5682 147.049 73.4308 151.293 73.4308Z" fill="#FFD9A1"/>
<path d="M25.4071 79.6685L23.6751 81.4076L25.3721 83.1117L27.104 81.3725L25.4071 79.6685Z" fill="#FFD9A1"/>
<path d="M59.5766 79.6682L57.8448 81.4074L59.5418 83.1115L61.2735 81.3723L59.5766 79.6682Z" fill="#FFD9A1"/>
<path d="M31.4143 93.4399H32.1029V98.6065H31.4143V93.4399ZM34.6867 93.4399H35.6018L33.2243 95.9106L35.7655 98.6088H34.8594L32.3384 95.9106L34.6867 93.4399Z" fill="#FFD9A1"/>
<path d="M39.1926 93.325C40.7065 93.325 41.828 94.4714 41.828 96.0232C41.828 97.584 40.7065 98.7304 39.1926 98.7304C37.6809 98.7304 36.5685 97.584 36.5685 96.0232C36.5685 94.4737 37.6921 93.325 39.1926 93.325ZM41.1394 96.0232C41.1394 94.8453 40.305 93.9669 39.1948 93.9669C38.0936 93.9669 37.2592 94.8453 37.2592 96.0232C37.2592 97.2124 38.0824 98.0908 39.1948 98.0908C40.305 98.0908 41.1394 97.2124 41.1394 96.0232Z" fill="#FFD9A1"/>
<path d="M46.9327 93.4399L46.3451 94.102H44.9343V98.6065H44.2457V94.102H42.6399V93.4399H46.9327Z" fill="#FFD9A1"/>
<path d="M49.9359 93.325C51.4498 93.325 52.4255 94.4624 52.4255 96.0119V96.3115H48.0631C48.1752 97.3543 48.9064 98.0885 50.0705 98.0885C50.7074 98.0885 51.387 97.8295 51.7077 97.4376L52.1496 97.9128C51.6876 98.4083 50.8734 98.7304 50.0391 98.7304C48.4242 98.7304 47.3521 97.584 47.3521 96.0322C47.3521 94.4804 48.413 93.325 49.9359 93.325ZM51.7167 95.7124C51.6449 94.6786 50.9654 93.9669 49.9359 93.9669C48.875 93.9669 48.1865 94.6899 48.0631 95.7124H51.7167Z" fill="#FFD9A1"/>
<path d="M52.9525 97.9444H53.5603L55.4847 94.0998H54.2197V93.4376H57.9967V97.9421H58.9634L58.1716 99.8858H57.4405L57.9653 98.6043H52.9548V97.9444H52.9525ZM54.3094 97.9444H57.3037V94.0998H56.2338L54.3094 97.9444Z" fill="#FFD9A1"/>
<path d="M59.1675 98.6065L61.7086 95.9083L59.3716 93.4376H60.2665L62.5923 95.9083L60.0601 98.6065H59.1675ZM63.3773 90.8655V98.6065H62.6888V90.8655H63.3773ZM63.4693 95.9083L65.7951 93.4376H66.69L64.353 95.9083L66.8941 98.6065H65.9992L63.4693 95.9083Z" fill="#FFD9A1"/>
<path d="M67.955 93.4399H68.6435V95.0097L71.7813 95.8678V93.4399H72.4699V98.6065H71.7813V96.5615L68.6435 95.7034V98.6065H67.955V93.4399Z" fill="#FFD9A1"/>
<path d="M76.599 93.325C78.1129 93.325 79.0885 94.4624 79.0885 96.0119V96.3115H74.7262C74.8383 97.3543 75.5695 98.0885 76.7335 98.0885C77.3705 98.0885 78.0501 97.8295 78.3686 97.4376L78.8104 97.9128C78.3484 98.4083 77.5342 98.7304 76.6999 98.7304C75.085 98.7304 74.0129 97.584 74.0129 96.0322C74.0129 94.4804 75.0761 93.325 76.599 93.325ZM78.3798 95.7124C78.308 94.6786 77.6284 93.9669 76.599 93.9669C75.5381 93.9669 74.8495 94.6899 74.7262 95.7124H78.3798Z" fill="#FFD9A1"/>
<path d="M86.3644 96.2822L89.0805 93.3363V98.6065H88.3919V95.03L86.3644 97.2529L84.348 95.0412V98.6065H83.6595V93.3363L86.3644 96.2822Z" fill="#FFD9A1"/>
<path d="M91.2022 91.1651L91.7898 91.7957L91.2022 92.4151L90.6146 91.7957L91.2022 91.1651ZM90.8523 93.4399H91.5409V98.6065H90.8523V93.4399Z" fill="#FFD9A1"/>
<path d="M95.6677 93.325C96.3047 93.325 96.9237 93.4894 97.3252 93.78V94.6381C96.8923 94.2146 96.2957 93.9669 95.6677 93.9669C94.5149 93.9669 93.7635 94.8047 93.7635 96.0232C93.7635 97.2529 94.5037 98.0908 95.6475 98.0908C96.2845 98.0908 96.8833 97.843 97.2108 97.4601L97.6437 97.9241C97.1816 98.4196 96.4594 98.7304 95.6565 98.7304C94.1022 98.7304 93.0727 97.6246 93.0727 96.0322C93.075 94.4511 94.1448 93.325 95.6677 93.325Z" fill="#FFD9A1"/>
<path d="M102.645 93.4399L102.058 94.102H100.647V98.6065H99.9583V94.102H98.3524V93.4399H102.645Z" fill="#FFD9A1"/>
<path d="M105.651 93.325C107.165 93.325 108.14 94.4624 108.14 96.0119V96.3115H103.778C103.89 97.3543 104.621 98.0885 105.785 98.0885C106.422 98.0885 107.102 97.8295 107.42 97.4376L107.862 97.9128C107.398 98.4083 106.586 98.7304 105.752 98.7304C104.137 98.7304 103.065 97.584 103.065 96.0322C103.065 94.4804 104.126 93.325 105.651 93.325ZM107.429 95.7124C107.358 94.6786 106.678 93.9669 105.648 93.9669C104.588 93.9669 103.899 94.6899 103.776 95.7124H107.429Z" fill="#FFD9A1"/>
<path d="M109.322 93.4399H110.011V94.9174C110.011 95.6719 110.504 96.0435 111.287 96.0435C111.78 96.0435 112.296 95.9399 112.698 95.7642V93.4399H113.386V98.6065H112.698V96.3836C112.213 96.5705 111.659 96.6831 111.123 96.6831C110.062 96.6831 109.322 96.0728 109.322 95.0187V93.4399Z" fill="#FFD9A1"/>
<path d="M115.107 93.4399H115.795V98.6065H115.107V93.4399ZM118.379 93.4399H119.294L116.917 95.9106L119.458 98.6088H118.552L116.031 95.9106L118.379 93.4399Z" fill="#FFD9A1"/>
<path d="M122.887 93.325C124.401 93.325 125.522 94.4714 125.522 96.0232C125.522 97.584 124.401 98.7304 122.887 98.7304C121.373 98.7304 120.263 97.584 120.263 96.0232C120.263 94.4737 121.384 93.325 122.887 93.325ZM124.832 96.0232C124.832 94.8453 123.997 93.9669 122.887 93.9669C121.786 93.9669 120.951 94.8453 120.951 96.0232C120.951 97.2124 121.775 98.0908 122.887 98.0908C124 98.0908 124.832 97.2124 124.832 96.0232Z" fill="#FFD9A1"/>
</g>
<defs>
<clipPath id="clip0_719_1155">
<rect width="157" height="100" fill="white"/>
</clipPath>
</defs>
</svg>
