<svg width="160" height="160" viewBox="0 0 160 160" fill="none" xmlns="http://www.w3.org/2000/svg">
<rect width="160" height="160" rx="80" fill="#FFD9A1"/>
<path d="M43.088 80.576H47.824C47.824 82.944 49.424 84.576 51.728 84.576C54.032 84.576 55.632 82.944 55.632 80.576C55.632 78.144 54.032 76.48 51.728 76.48H47.184L52.816 68.352H44.176V64H60.432L54.224 72.8C57.936 73.664 60.336 76.608 60.336 80.576C60.336 85.312 56.848 88.576 51.696 88.576C46.576 88.576 43.088 85.312 43.088 80.576ZM62.614 80.192C62.614 78.56 63.062 77.088 63.894 75.808C63.926 75.744 63.958 75.68 64.022 75.616L71.414 63.968H76.566L71.414 71.968C71.766 71.904 72.118 71.904 72.47 71.904C77.142 72.16 81.046 75.456 81.046 80.192C81.046 85.152 76.822 88.576 71.798 88.576C66.806 88.576 62.614 85.152 62.614 80.192ZM67.318 80.192C67.318 82.752 69.27 84.608 71.83 84.608C74.39 84.608 76.374 82.784 76.374 80.192C76.374 77.632 74.422 75.808 71.83 75.808C69.27 75.808 67.318 77.632 67.318 80.192ZM83.4118 76.032C83.4118 67.936 87.6998 63.424 93.0118 63.424C98.3238 63.424 102.612 67.936 102.612 76.032C102.612 84.064 98.3238 88.576 93.0118 88.576C87.6998 88.576 83.4118 84.064 83.4118 76.032ZM88.0838 76.288L97.2358 71.424C96.4358 68.928 94.8678 67.648 93.0118 67.648C90.2598 67.648 88.2118 70.368 88.0838 75.424C88.0838 75.712 88.0518 76 88.0838 76.288ZM97.9398 75.424L88.7558 80.32C89.4918 82.976 91.1238 84.352 93.0118 84.352C95.7958 84.352 97.8438 81.632 97.9398 76.544C97.9718 76.16 97.9718 75.776 97.9398 75.424ZM105.852 68.928C105.852 65.952 108.188 63.456 111.1 63.456C114.012 63.456 116.38 65.952 116.38 68.928C116.38 71.936 114.012 74.4 111.1 74.4C108.188 74.4 105.852 71.936 105.852 68.928ZM108.732 68.928L111.1 71.52L113.436 68.928L111.1 66.336L108.732 68.928Z" fill="#333740"/>
</svg>
