<svg width="48" height="48" viewBox="0 0 48 48" fill="none" xmlns="http://www.w3.org/2000/svg">
<rect width="48" height="48" rx="24" fill="#F1F4FA"/>
<path d="M34.9798 25.875L34.5634 24.0694C34.4245 23.3981 33.8461 22.912 33.1752 22.8657L29.8666 22.5648L27.3679 20.0648C26.6738 19.3704 25.7483 19 24.7766 19H23.3189C20.8665 19 18.4602 19.8333 16.5399 21.338L15.4525 22.1944L13.3239 23.4907C13.1388 23.6065 13 23.8148 13 24.0463V26.2917C13 26.662 13.3008 26.9398 13.6478 26.9398H14.9203C15.0129 28.0972 15.9615 29 17.1415 29C18.3214 29 19.27 28.0972 19.3626 26.9398H28.6172C28.7098 28.0972 29.6584 29 30.8384 29C32.0183 29 32.9669 28.0972 33.0595 26.9398H34.1006C34.7022 26.9398 35.0955 26.4074 34.9798 25.875ZM17.1646 27.8194C16.5862 27.8194 16.1003 27.3333 16.1003 26.7546C16.1003 26.1759 16.5862 25.6898 17.1646 25.6898C17.743 25.6898 18.2289 26.1759 18.2289 26.7546C18.2289 27.3333 17.743 27.8194 17.1646 27.8194ZM21.3755 22.4259H17.6967C18.7842 21.6157 20.0567 21.0602 21.3755 20.7824V22.4259ZM22.9488 22.4259V20.5972C23.0644 20.5972 23.2033 20.5741 23.3189 20.5741H24.7766C25.3318 20.5741 25.864 20.7824 26.2573 21.1759L27.5067 22.4259H22.9488ZM30.8615 27.8194C30.2831 27.8194 29.7972 27.3333 29.7972 26.7546C29.7972 26.1759 30.2831 25.6898 30.8615 25.6898C31.4399 25.6898 31.9258 26.1759 31.9258 26.7546C31.9258 27.3333 31.463 27.8194 30.8615 27.8194Z" fill="#333740"/>
</svg>
