<svg width="48" height="48" viewBox="0 0 48 48" fill="none" xmlns="http://www.w3.org/2000/svg">
<rect width="48" height="48" rx="24" fill="#F1F4FA"/>
<path fill-rule="evenodd" clip-rule="evenodd" d="M24.0001 15.0002C26.9697 15.0002 29.6 16.8681 29.6 20.4341C29.6 21.1813 29.204 22.2737 29.0061 22.7265L24.0001 33V23.2001C25.4359 23.2 26.5999 22.036 26.5999 20.6001C26.5999 19.1642 25.4359 18.0002 24.0001 18.0001V15.0002ZM24 18.0001V15.0002C21.0303 15.0002 18.4 16.8681 18.4 20.4341C18.4 21.1813 18.796 22.2737 18.994 22.7265L24 33L24 23.2001C22.564 23.2001 21.4 22.036 21.4 20.6001C21.4 19.1642 22.564 18.0001 24 18.0001C24 18.0001 24 18.0001 24 18.0001Z" fill="#333740"/>
</svg>
