<svg width="48" height="48" viewBox="0 0 48 48" fill="none" xmlns="http://www.w3.org/2000/svg">
<rect width="48" height="48" rx="24" fill="#F1F4FA"/>
<path d="M27.1935 29.0627L25.772 19.5676C25.7341 19.2833 25.4878 19.0558 25.1845 19.0558H22.8155C22.5312 19.0558 22.2659 19.2643 22.228 19.5676L20.8065 29.0627C20.7497 29.4038 20.8444 29.745 21.0529 30.0103L23.0429 32.531C23.5357 33.1564 24.5022 33.1564 24.995 32.531L26.966 30.0103C27.1556 29.745 27.2503 29.4038 27.1935 29.0627Z" fill="#333740"/>
<path d="M22.2279 17.7102C22.2658 17.9945 22.5311 18.2029 22.8154 18.2029H25.2034C25.4877 18.2029 25.7341 17.9945 25.7909 17.7102L26.1131 15.7012C26.17 15.3222 25.9046 15 25.5256 15H22.4932C22.1331 15 21.8488 15.3222 21.9057 15.6823L22.2279 17.7102Z" fill="#333740"/>
</svg>
