<svg width="48" height="48" viewBox="0 0 48 48" fill="none" xmlns="http://www.w3.org/2000/svg">
<rect width="48" height="48" rx="24" fill="#F1F4FA"/>
<path fill-rule="evenodd" clip-rule="evenodd" d="M24.9859 16H23.014V17.6367C22.0235 17.6417 21.0926 18.0198 20.3873 18.6976C19.6656 19.3917 19.2712 20.3145 19.2712 21.3005C19.2712 23.3197 20.9592 24.9642 23.0336 24.9642H24.9661C25.4512 24.9642 25.9047 25.1457 26.2439 25.473C26.5752 25.7885 26.7566 26.2105 26.7566 26.6561C26.7566 27.5869 25.952 28.348 24.9661 28.348H23.0336C22.166 28.348 21.46 27.6815 21.46 26.8652H19.4881C19.4881 28.7636 21.0669 30.3095 23.014 30.3199V32H24.9859V30.3199C27.0512 30.3095 28.7285 28.6689 28.7285 26.6561C28.7285 25.6702 28.3301 24.7473 27.6124 24.0532C26.9064 23.371 25.9639 22.9923 24.9661 22.9923H23.0336C22.0477 22.9923 21.2431 22.2351 21.2431 21.3005C21.2431 20.8548 21.4246 20.4368 21.7558 20.1173C22.095 19.79 22.5485 19.6086 23.0336 19.6086H24.9661C25.8337 19.6086 26.5397 20.2751 26.5397 21.0914H28.5116C28.5116 19.193 26.9329 17.6471 24.9859 17.6367V16Z" fill="#333740"/>
</svg>
