<svg width="48" height="48" viewBox="0 0 48 48" fill="none" xmlns="http://www.w3.org/2000/svg">
<rect width="48" height="48" rx="24" fill="#F1F4FA"/>
<path fill-rule="evenodd" clip-rule="evenodd" d="M18.9851 18.1775L19.7254 15.4291L16.9254 18.1775H18.9851ZM20.0253 14.3146L20.3794 13L20.718 14.2576L29.7778 18.1775H31.4191L33.1713 19.8684H31.0754V24.7539H32.0943C32.6559 25.746 32.3472 26.873 31.2205 27.1909C31.1087 27.5699 30.8755 27.9292 30.4033 28.0436C30.2002 28.0927 30.119 28.2167 30.1526 28.4144C30.1857 28.5969 30.3482 28.8394 30.5549 28.8322C31.0101 28.8158 31.1409 28.4297 31.1412 28.4289C31.2624 28.0672 31.821 28.2485 31.6996 28.6112C31.699 28.6134 31.4389 29.3816 30.5756 29.4126C30.0626 29.4308 29.6558 28.987 29.5714 28.5145C29.4843 28.0132 29.7517 27.6027 30.2628 27.479C30.4058 27.4443 30.5062 27.3552 30.5769 27.2389C29.3253 27.081 28.8499 25.844 29.465 24.7539H30.4842V19.8684H21.8229V35H18.9356V19.8684H16.2526V21.3743H14V16.6716H16.2526V18.0188L20.0253 14.3146ZM20.9112 14.9757L21.7735 18.1775H28.3117L20.9112 14.9757ZM34 31.7487V33.7771H25.0044V31.7487H34Z" fill="#333740"/>
</svg>
