<svg width="219" height="342" viewBox="0 0 219 342" fill="none" xmlns="http://www.w3.org/2000/svg">
<g clip-path="url(#clip0_3_9)">
<path d="M81.5465 22.0602C81.5465 38.886 95.5194 47.2989 109.492 47.2989M109.492 47.2989V5.23438M109.492 47.2989V75.3419M109.492 47.2989C123.465 47.2989 137.438 38.886 137.438 22.0602M109.492 240.796V195.927M61.9846 50.1032C67.5737 58.5161 84.9 75.3419 109.492 75.3419M109.492 75.3419V103.385M109.492 75.3419C134.084 75.3419 151.411 58.5161 157 50.1032M50.8064 78.1462C58.2585 86.5591 80.4287 103.385 109.492 103.385M109.492 103.385V137.036M109.492 103.385C138.556 103.385 160.726 86.5591 168.178 78.1462M39.6281 103.385C48.9433 114.602 75.9574 137.036 109.492 137.036M109.492 137.036V167.884M109.492 137.036C143.027 137.036 170.041 114.602 179.356 103.385M28.4499 134.232C39.6281 145.449 71.4861 167.884 109.492 167.884M109.492 167.884V195.927M109.492 167.884C147.498 167.884 179.356 145.449 190.535 134.232M20.0662 159.471C30.3129 171.623 62.5435 195.927 109.492 195.927M109.492 195.927C156.441 195.927 188.671 171.623 198.918 159.471" stroke="#47484A" stroke-width="6" stroke-linecap="round"/>
<path d="M-0.000244141 224.053C47.7626 210.012 148.908 226.862 165.765 342" stroke="#47484A" stroke-width="6" stroke-linecap="round"/>
<path d="M218.402 226.979C220.027 227.3 221.606 226.244 221.927 224.618C222.249 222.993 221.192 221.415 219.567 221.093L218.402 226.979ZM111.581 245.917C127.96 235.108 163.509 216.11 218.402 226.979L219.567 221.093C162.608 209.816 125.453 229.573 108.276 240.909L111.581 245.917Z" fill="#47484A"/>
<path d="M217.799 261.985C219.321 262.639 221.086 261.936 221.74 260.414C222.395 258.892 221.692 257.128 220.17 256.473L217.799 261.985ZM220.17 256.473C209.817 252.021 194.604 249.89 179.186 251.329C163.757 252.769 147.688 257.826 135.867 268.205L139.826 272.714C150.388 263.439 165.095 258.67 179.744 257.303C194.403 255.934 208.567 258.015 217.799 261.985L220.17 256.473Z" fill="#47484A"/>
<path d="M217.595 297.204C219.063 297.972 220.876 297.404 221.643 295.935C222.411 294.467 221.843 292.654 220.374 291.887L217.595 297.204ZM220.374 291.887C211.611 287.306 198.39 285.189 185.696 285.923C173.06 286.653 160.095 290.26 152.309 297.994L156.538 302.251C162.787 296.043 173.971 292.611 186.042 291.913C198.054 291.219 210.096 293.284 217.595 297.204L220.374 291.887Z" fill="#47484A"/>
<path d="M-0.000160217 252.514C40.3601 240.968 118.198 261.174 132.612 342" stroke="#47484A" stroke-width="6" stroke-linecap="round"/>
<path d="M-0.000244141 282.02C25.8389 274.879 81.2697 285.532 92.4793 342" stroke="#47484A" stroke-width="6" stroke-linecap="round"/>
</g>
<defs>
<clipPath id="clip0_3_9">
<rect width="219" height="342" fill="white"/>
</clipPath>
</defs>
</svg>
