<svg width="102" height="100" viewBox="0 0 102 100" fill="none" xmlns="http://www.w3.org/2000/svg">
<path d="M35.7122 31.6155C37.3906 33.4777 40.5555 38.0282 39.7882 41.3317C38.8292 45.4611 36.1918 47.4044 31.3965 46.4327C30.9441 46.327 30.4585 46.081 29.9581 45.7352M35.7122 31.6155L22.2854 16.5808M35.7122 31.6155C32.3919 30.6063 29.6401 31.5988 27.8002 32.83M23.9637 38.6597C23.2444 41.8175 23.9637 45.9469 24.683 47.1615M23.9637 38.6597C24.3718 36.7766 25.3886 34.4437 27.8002 32.83M23.9637 38.6597C25.1413 40.5818 27.7006 44.1749 29.9581 45.7352M24.683 47.1615C25.4023 48.376 28.0397 53.2341 34.7532 52.9912C41.4666 52.7483 45.0631 51.048 50.5777 47.1615C56.0923 43.275 71.9168 33.0729 90.8582 34.7732C95.4617 35.1619 98.3709 35.5829 99.25 35.7449L69.5191 5.38158C60.2482 4.26507 37.8222 4.9418 22.2854 16.5808M24.683 47.1615L2.38488 18.9843C1.34589 17.284 0.0831306 13.0088 3.34394 9.51096C6.96706 5.62446 11.7362 5.62473 13.1746 7.0819L22.2854 16.5808M27.8002 32.83L33.7944 39.6313C32.4357 40.5428 29.5745 42.8453 29.9581 45.7352M39.6003 23.6347L36.1621 19.4425C36.1308 19.4044 36.1311 19.3505 36.1648 19.3146C36.4661 18.9934 37.9424 17.4888 40.0837 16.451M39.6003 23.6347L42.4881 27.3386M39.6003 23.6347C41.2848 21.7095 43.2101 20.5062 43.2101 20.5062M42.4881 27.3386L50.2119 37.3231C50.2455 37.3666 50.3053 37.3767 50.349 37.3435C51.0149 36.8379 55.8443 33.1721 57.4474 31.9874M42.4881 27.3386C45.1353 24.5974 49.7112 21.8948 49.7112 21.8948M68.96 17.1371C68.96 17.1371 65.273 13.5225 62.7733 11.0233C62.758 11.008 62.7385 10.9984 62.7171 10.9953C55.725 10.0073 47.7726 12.3304 40.0837 16.451M68.96 17.1371L73.1128 21.8948M68.96 17.1371C68.96 17.1371 62.4579 17.4014 60.2965 18.0997M40.0837 16.451C41.212 17.9407 43.2101 20.5062 43.2101 20.5062M73.1128 21.8948L77.2555 27.1706C77.3079 27.2373 77.26 27.3353 77.1752 27.3337C75.8102 27.307 68.2026 27.2285 64.3876 28.6885M73.1128 21.8948C72.0885 21.7095 67.9974 21.482 64.3876 22.5M64.3876 28.6885L60.2965 24.116C60.2965 24.116 62.9779 22.9699 64.3876 22.5M64.3876 28.6885C62.5011 29.4104 60.2965 30.1324 57.4474 31.9874M60.2965 18.0997C60.2965 18.0997 62.7917 20.5172 64.3876 22.5M60.2965 18.0997C55.2428 19.0623 52.5956 20.5062 49.7112 21.8948M49.7112 21.8948L46.8199 18.581C46.8199 18.581 44.8946 19.3764 43.2101 20.5062M57.4474 31.9874C55.6787 29.7602 53.5582 27.0039 53.5582 27.0039" stroke="#54E5A0" stroke-width="1.5" stroke-linecap="round"/>
<path d="M23.9637 46.6597C23.2444 49.8175 23.9637 53.9469 24.683 55.1614M24.683 55.1614C25.4023 56.376 28.0397 61.2341 34.7532 60.9912C41.4666 60.7483 45.0631 59.0479 50.5777 55.1614C56.0923 51.2749 71.9168 41.0729 90.8582 42.7732C95.4617 43.1619 98.3709 43.5829 99.25 43.7448L90.25 34.5534M24.683 55.1614L2.38488 26.9843C1.46634 25.4811 0.372898 21.9654 2.38488 18.7535" stroke="#54E5A0" stroke-width="1.5" stroke-linecap="round"/>
<path d="M23.9637 54.9062C23.2444 58.064 23.9637 62.1934 24.683 63.4079M24.683 63.4079C25.4023 64.6224 28.0397 69.4806 34.7532 69.2376C41.4666 68.9947 45.0631 67.2944 50.5777 63.4079C56.0923 59.5214 71.9168 49.3193 90.8582 51.0197C95.4617 51.4083 98.3709 51.8294 99.25 51.9913L90.25 42.7999M24.683 63.4079L2.38488 35.2307C1.46634 33.7275 0.372898 30.2119 2.38488 27" stroke="#54E5A0" stroke-width="1.5" stroke-linecap="round"/>
<path d="M23.9637 63.1526C23.2444 66.3104 23.9637 70.4398 24.683 71.6544M24.683 71.6544C25.4023 72.8689 28.0397 77.727 34.7532 77.4841C41.4666 77.2412 45.0631 75.5409 50.5777 71.6544C56.0923 67.7679 71.9168 57.5658 90.8582 59.2661C95.4617 59.6548 98.3709 60.0758 99.25 60.2378L90.25 51.0463M24.683 71.6544L2.38488 43.4772C1.46634 41.974 0.372898 38.4583 2.38488 35.2465" stroke="#54E5A0" stroke-width="1.5" stroke-linecap="round"/>
<path d="M23.9637 71.3991C23.2444 74.5569 23.9637 78.6863 24.683 79.9008M24.683 79.9008C25.4023 81.1153 28.0397 85.9735 34.7532 85.7306C41.4666 85.4877 45.0631 83.7873 50.5777 79.9008C56.0923 76.0143 71.9168 65.8123 90.8582 67.5126C95.4617 67.9013 98.3709 68.3223 99.25 68.4842L90.25 59.2928M24.683 79.9008L2.38488 51.7237C1.46634 50.2204 0.372898 46.7048 2.38488 43.4929" stroke="#54E5A0" stroke-width="1.5" stroke-linecap="round"/>
<path d="M23.9637 80.9062C23.2444 84.064 23.9637 88.1934 24.683 89.4079M24.683 89.4079C25.4023 90.6224 28.0397 95.4806 34.7532 95.2376C41.4666 94.9947 45.0631 93.2944 50.5777 89.4079C56.0923 85.5214 71.9168 75.3193 90.8582 77.0197C95.4617 77.4083 98.3709 77.8294 99.25 77.9913L90.25 68.7999M24.683 89.4079L2.38488 61.2307C1.46634 59.7275 0.372898 56.2119 2.38488 53" stroke="#54E5A0" stroke-width="1.5" stroke-linecap="round"/>
</svg>
