<svg width="102" height="100" viewBox="0 0 102 100" fill="none" xmlns="http://www.w3.org/2000/svg">
<path d="M36.2122 52.6155C37.8906 54.4777 41.0555 59.0282 40.2882 62.3317C39.3292 66.4611 36.6918 68.4044 31.8965 67.4327C31.4441 67.327 30.9585 67.081 30.4581 66.7352M36.2122 52.6155L22.7854 37.5808M36.2122 52.6155C32.8919 51.6063 30.1401 52.5988 28.3002 53.83M24.4637 59.6597C23.7444 62.8175 24.4637 66.9469 25.183 68.1615M24.4637 59.6597C24.8718 57.7766 25.8886 55.4437 28.3002 53.83M24.4637 59.6597C25.6413 61.5818 28.2006 65.1749 30.4581 66.7352M25.183 68.1615C25.9023 69.376 28.5397 74.2341 35.2532 73.9912C41.9666 73.7483 45.5631 72.048 51.0777 68.1615C56.5923 64.275 72.4168 54.0729 91.3582 55.7732C95.9617 56.1619 98.8709 56.5829 99.75 56.7449L70.0191 26.3816C60.7482 25.2651 38.3222 25.9418 22.7854 37.5808M25.183 68.1615L2.88488 39.9843C1.84589 38.284 0.583131 34.0088 3.84394 30.511C7.46706 26.6245 12.2362 26.6247 13.6746 28.0819L22.7854 37.5808M28.3002 53.83L34.2944 60.6313C32.9357 61.5428 30.0745 63.8453 30.4581 66.7352" stroke="#EB8888" stroke-width="1.5" stroke-linecap="round"/>
<path d="M40.1003 44.6347L36.6078 40.3764C36.6078 40.3764 38.175 38.6184 40.5837 37.451M40.1003 44.6347L42.9881 48.3385M40.1003 44.6347C41.7848 42.7095 43.7101 41.5062 43.7101 41.5062M42.9881 48.3385L50.7725 58.4015C50.7725 58.4015 56.2241 54.2609 57.9474 52.9874M42.9881 48.3385C45.6353 45.5974 50.2112 42.8948 50.2112 42.8948M69.46 38.1371C69.46 38.1371 65.7501 34.5 63.25 32C56.25 31 48.2846 33.3239 40.5837 37.451M69.46 38.1371L73.6128 42.8948M69.46 38.1371C69.46 38.1371 62.9579 38.4014 60.7965 39.0997M40.5837 37.451C41.712 38.9407 43.7101 41.5062 43.7101 41.5062M73.6128 42.8948L77.8874 48.3386C77.8874 48.3386 69.0883 48.0809 64.8876 49.6885M73.6128 42.8948C72.5885 42.7095 68.4974 42.482 64.8876 43.5M64.8876 49.6885L60.7965 45.116C60.7965 45.116 63.4779 43.9699 64.8876 43.5M64.8876 49.6885C63.0011 50.4104 60.7965 51.1324 57.9474 52.9874M60.7965 39.0997C60.7965 39.0997 63.2917 41.5172 64.8876 43.5M60.7965 39.0997C55.7428 40.0623 53.0956 41.5062 50.2112 42.8948M50.2112 42.8948L47.3199 39.581C47.3199 39.581 45.3946 40.3764 43.7101 41.5062M54.0582 48.0039C54.0582 48.0039 56.1787 50.7602 57.9474 52.9874" stroke="#EB8888" stroke-width="1.5" stroke-linecap="round"/>
</svg>
