<svg width="101" height="100" viewBox="0 0 101 100" fill="none" xmlns="http://www.w3.org/2000/svg">
<path d="M7.45482 39.2402H3.84036M7.45482 39.2402L14.25 26.537M7.45482 39.2402V42.0551M7.45482 47.0354L2.97289 52.3766V55.9134M7.45482 47.0354V42.0551M7.45482 47.0354L10.5633 43.4265M12.0813 76.6286L7.45482 74.8241V58.8005H2.97289V55.9134M12.0813 76.6286V52.5932L16.491 47.8172M12.0813 76.6286L13.8886 75.185L16.491 74.9685M16.491 47.8172L18.7319 47.9391M16.491 47.8172V50.6444V74.9685M65.7199 51.2218L18.7319 47.9391M65.7199 51.2218V58.584M65.7199 51.2218L68.6837 51.2795M63.3343 53.315V53L58.6355 52.6745L18.7319 50.6444M63.3343 53.315L54.4428 55.0472M63.3343 53.315V71.5M18.7319 50.6444V47.9391M18.7319 50.6444V52.0879V53.5315M54.4428 55.0472L53.1416 54.992H52.25M54.4428 55.0472V71.5M18.7319 53.5315L52.25 54.992M18.7319 53.5315V74.752M54.4428 73.3655V71.5M54.4428 73.3655L54.9488 73.5M54.4428 73.3655L50.3946 72.6866M52.25 54.992V71.5L50.3946 72.6588V72.6866M3.84036 39.2402L2.25 37.6522L8.32229 23M3.84036 39.2402L10.1295 26.0315M8.32229 23L10.1295 26.0315M8.32229 23L55.8163 28.9186M10.1295 26.0315L56.6114 31.7336M56.6114 31.7336L61.2379 29.2073M56.6114 31.7336L55.8163 28.9186M56.6114 31.7336V45.664M56.6114 31.7336L44.9006 30.297M61.2379 29.2073L60.5873 26.1037M61.2379 29.2073L96.7319 34.0433M61.2379 29.2073L65.8645 29.8377M61.2379 29.2073V46.2415M60.5873 26.1037L55.8163 28.9186M60.5873 26.1037L68.9006 27.3464M96.7319 34.0433L98.25 31.7336L74.5392 28.1892L72.0813 27.8218M96.7319 34.0433L91.0211 35.7034M72.0813 27.8218L68.9006 27.3464M72.0813 27.8218V23.7218M74.8283 28.2325V24.1549L72.0813 23.7218M72.0813 23.7218L68.9006 25.4541V27.1142V27.3464M91.0211 35.7034V33.2652L87.6235 32.8023V50.7887M91.0211 35.7034V73.3084H87.6235M77.2861 31.3939L84.5873 32.3886V34.0433V50.7887M77.2861 31.3939L76.3464 31.2658M77.2861 31.3939V58.9449M76.3464 31.2658L68.6837 30.2218M76.3464 31.2658V37.3635M65.8645 29.8377V47.0213M65.8645 29.8377L68.6837 30.2218M22.4187 27.539L14.25 26.537M22.4187 27.539L26.5392 28.0445M22.4187 27.539V33.6824M14.25 26.537L13.9608 32.8885M13.9608 32.8885L7.45482 42.0551M13.9608 32.8885L22.4187 33.8268M22.4187 33.8268V38.8071M22.4187 33.8268V33.6824M87.6235 73.3084V55.4803M87.6235 73.3084H84.5873M84.5873 55.4803H86.6114H87.6235M84.5873 55.4803V73.3084M84.5873 55.4803V50.7887M87.6235 55.4803V50.7887M87.6235 50.7887H86.6114H84.5873M84.5873 73.3084H77.2861M69.4789 73.3084V75.5M69.4789 73.3084V73.0919M69.4789 73.3084H77.2861M69.4789 75.5H65.7199M69.4789 75.5L69.6958 76H70.491V77.5H65.7199M65.7199 75.5V77.5M65.7199 75.5V73.0919M65.7199 77.5V79.0157H64.1295L63.3343 78.4383V77.5M69.4789 73.0919H65.7199M69.4789 73.0919L65.7199 72.6588M65.7199 73.0919V72.6588M71.8264 50.0669L68.6837 51.2795M71.8264 50.0669L73.744 48.0459L68.6837 47.3879M71.8264 50.0669L76.3464 50.2835M10.5633 43.4265L12.7319 47.6129L2.97289 55.9134M10.5633 43.4265H22.4187M37.2379 29.357L39.5512 29.6408M37.2379 29.357L26.5392 28.0445M37.2379 29.357V35.2703M37.2379 44.1483L56.6114 45.664M37.2379 44.1483L26.5392 43.6272M37.2379 44.1483V35.2703M22.4187 43.4265V38.8071M22.4187 43.4265L26.5392 43.6272M56.6114 45.664L61.2379 46.2415M65.8645 47.0213L61.2379 46.2415M65.8645 47.0213L68.6837 47.3879M39.5512 29.6408L44.9006 30.297M39.5512 29.6408V35.5591M44.9006 30.297V36.0643M22.4187 38.8071L26.5392 39.168M26.5392 39.168V43.6272M26.5392 39.168V34.1239M26.5392 28.0445V34.1239M22.4187 33.6824L26.5392 34.1239M37.2379 35.2703L26.5392 34.1239M39.5512 35.5591V39.5289L44.9006 40.1063V36.0643M39.5512 35.5591L44.9006 36.0643M65.7199 58.584L68.6837 58.6765M65.7199 58.584V72.6588M77.2861 58.9449V73.3084M77.2861 58.9449L76.3464 58.9156M76.3464 58.9156L68.6837 58.6765M76.3464 58.9156V54.9675M68.6837 30.2218V36.5277M68.6837 47.3879V45.664M68.6837 51.2795V54.6142M68.6837 58.6765V54.6142M68.6837 54.6142L76.3464 54.9675M76.3464 54.9675V50.2835M76.3464 50.2835V46.2415M76.3464 46.2415L68.6837 45.664M76.3464 46.2415V41.7664M68.6837 45.664V41.0446M68.6837 41.0446L76.3464 41.7664M68.6837 41.0446V36.5277M76.3464 41.7664V37.3635M68.6837 36.5277L76.3464 37.3635M63.3343 75.5H54.9488M63.3343 75.5V73.5M63.3343 75.5V77.5M54.9488 75.5V73.5M54.9488 75.5L50.3946 74.5M54.9488 73.5H63.3343M63.3343 73.5V71.5M63.3343 77.5H54.9488L49.744 76.5V74.5M50.3946 74.5H49.744M50.3946 74.5V72.6866M49.744 74.5L18.7319 74.752M54.4428 71.5H63.3343M16.491 74.9685V78H18.7319V74.752" stroke="#54E5A0" stroke-width="1.5" stroke-linecap="round"/>
</svg>
