<svg width="101" height="100" viewBox="0 0 101 100" fill="none" xmlns="http://www.w3.org/2000/svg">
<path d="M91.5138 85H98.75V79.5538C98.75 72.5057 92.8003 68.0206 88.1469 67.54M91.5138 85L88.1469 67.54M91.5138 85H77.3631M86.0465 56.6476L88.1469 67.54M86.0465 56.6476C87.5654 54.8535 88.073 50.9878 88.1369 49.2792M86.0465 56.6476C84.9574 58.0283 82.954 60.6234 79.586 62.4142M56.7802 46.0755C63.5339 45.1144 72.3781 36.4645 72.3781 31.659C73.4073 32.9405 75.2726 33.3677 76.0766 33.4211C77.3095 33.4211 80.2897 33.4211 82.348 33.4211C84.9209 33.4211 84.76 36.3043 84.76 38.3867C84.76 40.4691 85.5641 42.8719 88.1369 42.8719M56.7802 46.0755C56.7802 47.0167 56.8208 47.9246 56.8999 48.7986M56.7802 46.0755C56.7802 43.7306 56.7802 41.7728 56.7802 40.1487M88.1369 49.2792C89.9058 49.2792 92.3178 47.357 92.3178 44.6339C92.3178 41.9108 90.2274 40.1487 88.1369 40.1487M88.1369 49.2792C88.1369 48.495 88.1369 46.4033 88.1369 42.8719M88.1369 40.1487C88.1369 38.4644 88.1369 36.545 88.1369 34.3822C88.1369 23.3295 78.0063 19.6453 77.3631 19.6453C77.3631 17.5629 77.2023 15.3204 75.1118 15.3204C73.0214 15.3204 72.3781 16.4416 72.3781 18.8444C72.3781 16.2815 71.7349 15.3204 69.4837 15.3204C67.6827 15.3204 67.2324 16.6018 67.2324 17.2426C67.2324 17.296 67.2324 17.8513 67.2324 19.6453C59.1279 19.6453 56.8874 28.6156 56.7802 33.1007C56.7802 33.4208 56.7802 35.2939 56.7802 40.1487M88.1369 40.1487C88.1369 41.1367 88.1369 42.0439 88.1369 42.8719M56.8999 48.7986C54.5289 48.7986 52.1168 48.1579 52.1168 44.6339C52.1168 41.1098 54.8505 40.1487 56.7802 40.1487M56.8999 48.7986C57.4955 55.3748 60.2725 60.0285 64.3379 62.4395M79.586 62.4142C77.4836 63.532 74.8495 64.3364 71.5741 64.3364C68.8988 64.3364 66.4453 63.6892 64.3379 62.4395M79.586 62.4142C79.851 63.2858 80.0168 64.4373 80.093 65.778M77.3631 85H46.0063M77.3631 85C79.289 79.3724 80.3948 71.0897 80.093 65.778M64.3379 62.4395C64.2472 62.8565 63.9927 63.5495 63.5339 64.1665M46.0063 85H2.75C2.75 81.54 2.75 79.5004 2.75 78.913C2.8572 76.0297 4.74397 69.8146 11.4334 68.0206C16.5765 66.6413 18.9821 65.3225 20.072 64.1762M46.0063 85C46.0063 83.8253 46.0063 81.1556 46.0063 79.8741C46.0063 75.3168 48.3311 72.0842 50.6842 70.103M63.5339 64.1665C63.1796 64.643 62.7034 65.0741 62.0867 65.2975C60.6716 65.8101 56.1369 67.3265 54.0465 68.0206C53.1315 68.3852 51.904 69.0759 50.6842 70.103M63.5339 64.1665L72.2173 75.8696L80.093 65.778M20.9209 62.254C19.956 61.7735 13.6847 58.8902 13.6847 49.9199C13.6847 49.7602 13.6847 49.6 13.6847 49.4394M20.9209 62.254C22.1537 62.7879 25.6163 63.8558 29.6043 63.8558C32.6433 63.8558 35.1042 63.2432 37.0843 62.254M20.9209 62.254C20.9209 62.8089 20.7541 63.4588 20.072 64.1762M20.072 64.1762L28.6394 76.0298L37.6047 63.8558M37.0843 62.254C42.8154 59.3908 44.5192 53.3724 44.559 49.9199C44.559 49.7661 44.559 49.6057 44.559 49.4394M37.0843 62.254C37.0843 62.821 37.2149 63.3478 37.6047 63.8558M50.6842 70.103C49.8217 69.4089 47.0997 67.7323 43.1118 66.5789C39.8913 65.6476 38.3163 64.7831 37.6047 63.8558M13.6847 49.4394C11.4334 49.4394 9.18216 48.1579 9.18216 45.1144C9.18216 42.0709 11.9158 40.1487 13.6847 40.1487M13.6847 49.4394C13.6847 47.157 13.6847 44.7925 13.6847 42.7117M13.6847 40.1487C13.6847 38.9356 13.6847 37.9344 13.6847 37.2654C13.0951 37.1587 11.9158 36.5606 11.9158 35.0229C11.9158 33.4851 11.9158 27.868 11.9158 25.2517C12.023 22.9024 13.5239 17.5629 18.6696 15C18.6696 16.2815 19.152 18.524 21.5641 18.524C23.4937 18.524 32.2307 18.524 36.358 18.524C39.6277 18.524 46.1671 20.0297 46.1671 26.0526C46.1671 32.0755 46.1671 34.3288 46.1671 34.7025C46.1671 35.5568 45.8455 37.2654 44.559 37.2654C44.559 37.6667 44.559 39.1119 44.559 40.9497M13.6847 40.1487C13.6847 40.9265 13.6847 41.7913 13.6847 42.7117M44.559 40.9497C46.9711 40.9497 48.7399 42.3913 48.7399 44.6339C48.7399 46.8764 47.7751 49.4394 44.559 49.4394M44.559 40.9497C44.559 41.652 44.559 42.4116 44.559 43.1922M44.559 49.4394C44.559 47.7232 44.559 45.3757 44.559 43.1922M13.6847 42.7117C15.9359 42.7117 16.5791 41.4302 16.5791 38.2265C16.5791 35.6636 16.5791 34.3822 16.5791 34.0618C16.6327 33.1007 17.2224 31.1785 19.152 31.1785C21.5641 31.1785 20.4384 31.1785 22.0465 31.1785C23.6545 31.1785 24.1369 34.3822 26.2274 34.3822C27.8997 34.3822 28.6394 33.4211 28.8003 32.9405C29.0147 33.4211 29.7972 34.3822 31.2123 34.3822C32.9812 34.3822 34.2676 32.9405 34.9108 31.1785C35.8113 31.1785 39.4669 31.1785 41.1822 31.1785V39.3478C41.2358 40.6293 41.9862 43.1922 44.559 43.1922M23.4438 52.4911C26.5 52.4911 29.5 52.4911 34.5983 52.4911M21.5641 42.9497V44.0497M36.5641 42.9497V44.0497M67.1297 52.4911C70 52.4911 73.5 52.4911 78.2843 52.4911M65.25 42.9497V44.0497M80.25 42.9497V44.0497" stroke="#EB8888" stroke-width="1.5" stroke-linecap="round"/>
</svg>
