<svg width="101" height="100" viewBox="0 0 101 100" fill="none" xmlns="http://www.w3.org/2000/svg">
<path d="M1.25 64.9351L8.69681 59.2597C9.25908 59.7686 9.92685 60.4189 10.6756 61.2013M20.9096 96C23.5904 94.5065 27.016 90.7727 28.2074 88.9805C27.6689 87.6028 27.0983 86.2577 26.503 84.9481M26.503 84.9481L30.2926 81.8117M26.503 84.9481C21.5362 74.0213 14.8481 65.561 10.6756 61.2013M30.2926 81.8117C28.7535 76.8333 23.7989 65.0844 16.2926 57.9156M30.2926 81.8117L32.9734 81.3636M16.2926 57.9156C14.0287 58.3935 11.6047 60.3052 10.6756 61.2013M16.2926 57.9156C19.5691 57.0195 23.8883 55.2273 25.8245 49.7013C27.7606 44.1753 29.5479 33.7208 39.3777 35.3637M39.3777 35.3637C37.9479 37.7533 36.3989 41.039 35.8032 42.3831C35.5053 43.2792 35.0883 45.7584 35.8032 48.5065C36.5181 51.2545 37.5904 54.7294 38.0372 56.1234C38.633 57.5173 40.3309 60.2454 42.3564 60.0065C44.8883 59.7078 46.2287 58.513 46.3777 54.3311C46.5266 50.1493 45.1862 46.4156 48.1649 43.8766C49.3564 42.9208 50.1507 42.184 50.3989 41.935C51.8387 41.9848 55.7904 41.9948 60.0798 41.6363C65.4415 41.1883 73.1862 42.2337 80.7819 45.6688C81.0424 45.7994 81.2831 45.9498 81.504 46.1169M39.3777 35.3637L40.7181 32.974C41.6117 31.7792 43.9947 29.1805 46.3777 28.3441C49.3564 27.2987 58.1436 24.461 63.0585 20.1299M80.1862 53.8831C76.6117 53.5844 66.9308 53.1363 65.2926 52.8376M80.1862 53.8831C81.8177 55.3828 82.2081 60.6161 77.5053 61.9713M80.1862 53.8831C83.9144 53.0523 84.3141 48.2418 81.504 46.1169M76.016 62.2467C72.4415 62.1272 66.9805 61.2013 64.6968 60.7532M76.016 62.2467C76.5611 62.1947 77.0564 62.1006 77.5053 61.9713M76.016 62.2467L77.5053 61.9713M77.5053 61.9713C78.0018 63.6064 78.1308 67.235 74.6755 68.6688M74.6755 68.6688C71.9947 68.6688 66.484 67.922 65.5904 67.6233M74.6755 68.6688C74.6259 71.0086 72.8585 75.6584 66.1862 75.5389M66.1862 75.5389C66.0372 73.2987 62.9096 67.7727 58.8883 70.3117M66.1862 75.5389C66.1862 77.7792 66.1862 78.974 64.6968 80.3181C63.2074 81.6623 60.0798 81.513 58.8883 80.3181M58.8883 70.3117C58.4415 72.4026 58.4415 78.3766 58.8883 80.3181M58.8883 70.3117C55.7606 66.2792 51.7394 67.1753 49.8032 69.2662C49.3705 69.7335 49.0717 70.4095 48.8736 71.2078M58.8883 80.3181C58.4415 81.3138 56.833 83.2753 53.9734 83.1558C51.1138 83.0363 49.5053 81.2143 49.0585 80.3181M32.9734 81.3636C32.2287 79.2727 31.1862 74.613 32.9734 72.7013C35.2074 70.3117 37.5904 71.0584 38.484 73.7467C38.7025 74.4038 38.8408 75.1322 38.9578 75.8731M32.9734 81.3636C33.4202 84.2013 39.8188 84.3506 40.045 80.3181M49.0585 80.3181C47.1223 82.8571 43.3989 82.4091 41.1649 81.3636C40.6783 81.1359 40.3188 80.7735 40.045 80.3181M49.0585 80.3181C48.7115 78.2306 48.185 73.9816 48.8736 71.2078M38.9578 75.8731C38.9309 72.7013 40.2713 67.6233 44.4415 67.6233C47.7777 67.6233 48.7863 70.013 48.8736 71.2078M38.9578 75.8731C39.2151 77.5033 39.3691 79.194 40.045 80.3181M63.0585 20.1299C65.2926 20.8766 79.2926 29.6883 84.2074 39.3961M63.0585 20.1299C63.8003 19.289 65.1496 17.7885 66.3307 16.5454M84.2074 39.3961C82.6585 41.7857 81.7597 44.8723 81.504 46.1169M84.2074 39.3961L88.8245 33.4221C87.7323 30.2359 82.033 22.0714 67.9734 14.9026C67.5559 15.2794 66.9678 15.875 66.3307 16.5454M66.3307 16.5454C65.3889 15.7987 63.416 13.9467 63.0585 12.513C62.7011 11.0792 67.8741 6.24026 70.5053 4M86.2926 37.1558C87.3848 38.1515 89.8968 40.1428 91.2074 40.1428C92.8457 40.1428 96.7181 34.3182 99.25 33.4221" stroke="#54E5A0" stroke-width="1.5" stroke-linecap="round"/>
</svg>
