<svg width="101" height="100" viewBox="0 0 101 100" fill="none" xmlns="http://www.w3.org/2000/svg">
<path d="M85.4068 64.0417C87.3972 59.4288 88.5 54.3432 88.5 49C88.5 28.0132 71.4868 11 50.5 11C29.5132 11 12.5 28.0132 12.5 49C12.5 69.9868 29.5132 87 50.5 87C55.3471 87 59.9822 86.0925 64.2447 84.4381" stroke="#54E5A0" stroke-width="1.5" stroke-linecap="round"/>
<path d="M78.7214 59.53C79.8725 56.3989 80.5 53.0215 80.5 49.5C80.5 33.2076 67.0685 20 50.5 20C33.9315 20 20.5 33.2076 20.5 49.5C20.5 65.7924 33.9315 79 50.5 79C53.7552 79 56.8894 78.4902 59.8243 77.5473" stroke="#54E5A0" stroke-width="1.5" stroke-linecap="round"/>
<circle cx="50.5" cy="49" r="5" stroke="#54E5A0" stroke-width="1.5" stroke-linecap="round"/>
<path d="M50.9079 33.57V44.2466M33.1447 67.3967L30.1842 70.3467M25.8421 49.8933H21.5M33.1447 32.1933L29.7895 28.85M50.9079 25.31V20M68.2763 32.1933L71.8289 28.6533M75.5789 49.8933C76.2105 49.8933 79.1974 49.8933 80.5132 49.8933M50.9079 74.87V79M66.6974 72.9033L71.6316 77.82L81.5 67.9867M47.313 52.894L38.4631 62.0274" stroke="#54E5A0" stroke-width="1.5" stroke-linecap="round"/>
<circle cx="74" cy="73.5" r="14.5" stroke="#54E5A0" stroke-width="1.5" stroke-linecap="round"/>
</svg>
