<svg width="101" height="100" viewBox="0 0 101 100" fill="none" xmlns="http://www.w3.org/2000/svg">
<path d="M61.076 61.0795L61.076 89H26.7147M61.076 36.5488L61.076 11H11.5V73.4338M56.3004 50.423L55.6055 49.9154L75.4359 21.877M56.3004 50.423C52.3648 57.2473 44.2885 71.1666 43.468 72.2495C42.4422 73.603 43.8099 75.6334 45.5194 73.9414C46.887 72.5879 57.1441 60.5238 62.1017 54.661M56.3004 50.423L62.1017 54.661M62.1017 54.661L62.7855 55.1605L82.4449 26.9804M20.0476 61.7592H45.1775M20.0476 55.1605H48.7675M20.0476 49.0694H51.6736M20.0476 42.8091H53.896M53.896 36.5488H20.0476M20.0476 30.2885H53.896M53.896 24.0282H20.0476M64.0579 15.4318L72.0752 20.75M84.992 28.7273L89.2077 31.8113C90.0055 32.4317 91.2591 34.2477 89.8915 36.5488C88.5239 38.8499 72.5207 64.625 64.8369 76.4794M75.4359 21.877L80.7354 14.3839L87.5735 19.6291L82.4449 26.9804M75.4359 21.877L82.4449 26.9804M11.5 73.4338V75.1258L25.518 89H26.7147M11.5 73.4338C14.1213 73.4338 20.0818 73.4338 22.9538 73.4338C26.5437 73.4338 26.7147 75.8026 26.7147 77.833C26.7147 79.4573 26.7147 85.9544 26.7147 89" stroke="#EB8888" stroke-width="1.5" stroke-linecap="round"/>
</svg>
