<svg width="101" height="102" viewBox="0 0 101 102" fill="none" xmlns="http://www.w3.org/2000/svg">
<ellipse cx="50.75" cy="39" rx="24.5" ry="25" stroke="#54E5A0" stroke-width="1.5" stroke-linecap="round"/>
<path d="M27.1042 29.8285C23.7922 29.8285 18.0059 29.8285 13.8125 29.8285M13.8125 29.8285C11.7192 29.8285 10.0228 29.8285 9.22917 29.8285C6.84583 29.8285 6.25 31.8434 6.25 32.8508V38.4306V44.0103C6.25 45.0177 6.84583 47.0326 9.22917 47.0326H13.8125M13.8125 29.8285C17.0208 26.5737 19.5417 25.4112 19.7708 20.529C20 15.6467 21.1458 14.0193 25.9583 12.6244C30.7708 11.2295 31.4583 5.88225 33.9792 4.95229C36.5 4.02234 39.7083 5.41727 42.6875 4.48732C45.2083 3.78986 47.0417 1 50.25 1C53.4583 1 55.2917 3.78986 57.8125 4.48732C60.7917 5.41727 64 4.02234 66.5208 4.95229C69.0417 5.88225 69.7292 11.2295 74.5417 12.6244C79.3542 14.0193 80.5 15.6467 80.7292 20.529C80.9583 25.4112 83.4792 26.5737 86.6875 29.8285M86.6875 29.8285H91.2708C93.6542 29.8285 94.25 31.8434 94.25 32.8508V38.4306V44.0103C94.25 45.0177 93.6542 47.0326 91.2708 47.0326H86.6875M86.6875 29.8285H73.8448M13.8125 47.0326H27.1042M13.8125 47.0326C17.0208 50.2874 19.5417 51.4499 19.7708 56.3321C20 61.2144 21.1458 62.8418 25.9583 64.2367C26.3691 64.3558 26.7498 64.5036 27.1042 64.6751M50.25 75.8611C47.0417 75.8611 45.2083 73.0713 42.6875 72.3738C39.7083 71.4438 36.5 72.8388 33.9792 71.9088C31.6735 71.0582 30.9015 66.5123 27.1042 64.6751M50.25 75.8611C53.4583 75.8611 55.2917 73.0713 57.8125 72.3738C60.7917 71.4438 64 72.8388 66.5208 71.9088C69.0417 70.9789 69.7292 65.6316 74.5417 64.2367C79.3542 62.8418 80.5 61.2144 80.7292 56.3321C80.9583 51.4499 83.4792 50.2874 86.6875 47.0326M50.25 75.8611L36.5561 99L32.7398 81.0787L14.7806 86.0694L27.1042 64.6751M50.25 75.8611L63.9439 99L67.7602 81.0787L85.7194 86.0694L73.3958 64.675M86.6875 47.0326H73.8448M50.25 23.912L45.3112 33.4398L34.5357 35.0278L41.7194 42.7407L40.5969 53.6296L50.25 48.8657L59.9031 53.6296L58.7806 42.7407L65.9643 35.0278L55.1888 33.4398L50.25 23.912Z" stroke="#54E5A0" stroke-width="1.5" stroke-linecap="round"/>
</svg>
