<svg width="101" height="100" viewBox="0 0 101 100" fill="none" xmlns="http://www.w3.org/2000/svg">
<path d="M51 93H38.3793M51 93L44.6207 71.803M51 93H63.6207M51 93L57.3793 71.803M43.2172 67.1397L38.3793 68.5326M43.2172 67.1397V61.6016M43.2172 67.1397L44.6207 71.803M31.8586 39.5835C34.7193 39.5835 45.8115 39.5835 51 39.5835M31.8586 39.5835H51M31.8586 39.5835H28.4931C27.231 39.5835 26.8103 38.9476 26.8103 37.4638C26.8103 35.9801 26.8103 33.4364 26.8103 31.9526C26.8103 30.4688 27.6517 30.2569 28.4931 30.2569C28.6358 30.2569 29.4046 30.2569 30.5966 30.2569M31.8586 39.5835C31.8586 50.3088 34.3009 58.7096 43.2172 61.6016M51 39.5835H70.1414M30.5966 30.2569C35.0283 30.2569 45.3088 30.2569 51 30.2569H71.4034M30.5966 30.2569C30.5966 15.8429 42.1655 11.6035 45.9517 10.5436M45.9517 10.5436C46.12 13.2569 46.723 19.4464 47.0034 22.202C47.0736 22.6259 47.4662 23.4738 48.4759 23.4738C49.4855 23.4738 50.5793 23.4738 51 23.4738H53.5241C54.5338 23.4738 54.9264 22.6259 54.9966 22.202C55.277 19.4464 55.88 13.2569 56.0483 10.5436M45.9517 10.5436C45.9517 8.21197 46.3724 8 48.4759 8C49.8221 8 50.7195 8 51 8H53.5241C55.6276 8 56.0483 8.21197 56.0483 10.5436M38.3793 68.5326V93M38.3793 68.5326L31.8586 70.4101M38.3793 93H31.8586M31.8586 70.4101L28.4931 71.3791C25.8287 72.4389 20.5 76.1272 20.5 82.4015C20.5 88.6758 20.5 92.0815 20.5 93H31.8586M31.8586 70.4101V93M43.2172 61.6016C45.4027 62.3104 47.9772 62.6883 51 62.6883C54.0228 62.6883 56.5973 62.3104 58.7828 61.6016M44.6207 71.803C45.9517 73.2868 47.2138 73.9227 51 73.9227C54.7862 73.9227 56.0483 73.2868 57.3793 71.803M70.1414 39.5835H73.5069C74.769 39.5835 75.1897 38.9476 75.1897 37.4638V31.9526C75.1897 30.4688 74.3483 30.2569 73.5069 30.2569H71.4034M70.1414 39.5835C70.1414 50.3088 67.6991 58.7096 58.7828 61.6016M71.4034 30.2569C71.4034 22.0429 67.6465 17.133 63.7138 14.2328M63.7138 14.2328C63.3356 13.9539 62.9558 13.6936 62.5775 13.4507M63.7138 14.2328L63.831 12.0274C63.831 11.7448 63.831 11.3915 63.4103 11.1796C62.8459 10.8952 62.8494 11.7448 62.7793 12.0274L62.5775 13.4507M63.7138 14.2328L63.2 23.8978C63.2 24.251 62.9897 24.9576 62.1483 24.9576C61.3069 24.9576 61.0966 24.251 61.0966 23.8978L62.5775 13.4507M62.5775 13.4507C59.9869 11.7872 57.4694 10.9414 56.0483 10.5436M58.7828 67.1397L63.6207 68.5326M58.7828 67.1397V61.6016M58.7828 67.1397L57.3793 71.803M63.6207 68.5326V93M63.6207 68.5326L70.1414 70.4101M63.6207 93H70.1414M70.1414 70.4101L73.5069 71.3791C76.1713 72.4389 81.5 76.1272 81.5 82.4015V93H70.1414M70.1414 70.4101V93M38.169 12.0274L38.8 23.8978C38.8 24.251 39.0103 24.9576 39.8517 24.9576C40.6931 24.9576 40.9034 24.251 40.9034 23.8978L39.2207 12.0274C39.1506 11.7448 39.1541 10.8952 38.5897 11.1796C38.169 11.3915 38.169 11.7448 38.169 12.0274Z" stroke="#EB8888" stroke-width="1.5" stroke-linecap="round"/>
</svg>
