<svg width="101" height="101" viewBox="0 0 101 101" fill="none" xmlns="http://www.w3.org/2000/svg">
<path d="M50.25 86.1796L44.8446 77.0532L42.0337 78.6872M50.25 86.1796L27.9797 99L22.7905 89.8736L26.25 87.8625M50.25 86.1796L55.6554 77.0532L58.4663 78.6872M50.25 86.1796L72.5203 99L77.7095 89.8736L74.25 87.8625M42.0337 78.6872L35.9797 68.1441L18.8986 60.9734C17.2409 60.6112 13.7093 60.1477 12.8444 63.7982M42.0337 78.6872L26.25 87.8625M12.8444 63.7982C11.7634 68.3614 14.1418 69.6652 16.5202 70.7517C18.4229 71.6208 24.232 74.0111 26.8987 75.0976M12.8444 63.7982C12.7003 59.8869 12.3689 51.369 12.196 48.5876C11.9797 45.1109 10.4662 42.7206 7.22298 42.7206C3.97973 42.7206 2.25 45.3282 2.25 48.5876C2.25 51.847 2.46622 68.3614 5.49325 72.49C8.52028 76.6186 16.9527 83.0266 26.25 87.8625M58.4663 78.6872L64.5203 68.1441L81.6014 60.9734C83.2591 60.6112 86.7907 60.1477 87.6556 63.7982M58.4663 78.6872L74.25 87.8625M87.6556 63.7982C88.7366 68.3614 86.3582 69.6652 83.9798 70.7517C82.0771 71.6208 76.268 74.0111 73.6013 75.0976M87.6556 63.7982C87.7996 59.8869 88.1311 51.369 88.304 48.5876C88.5203 45.1109 90.0338 42.7206 93.277 42.7206C96.5203 42.7206 98.25 45.3282 98.25 48.5876C98.25 51.847 98.0338 68.3614 95.0068 72.49C91.9797 76.6186 83.5473 83.0266 74.25 87.8625M50.25 8.82262H34.4662C34.1779 13.5307 35.9365 24.1636 45.277 29.031C45.277 30.9432 45.277 34.0288 45.277 35.3326C41.6734 37.2882 34.4662 44.1113 34.4662 55.7583C39.3094 55.7583 47.0067 55.7583 50.25 55.7583H66.0338C66.0338 44.1113 58.8265 37.2882 55.2229 35.3326V29.031C64.5635 24.1636 66.322 13.5307 66.0338 8.82262H50.25ZM50.25 59.6696H34.4662V63.7982H50.25H66.0338V59.6696H50.25ZM50.25 4.69401H34.4662V1H50.25H66.0338V4.69401H50.25Z" stroke="#54E5A0" stroke-width="1.5" stroke-linecap="round"/>
</svg>
