<svg width="101" height="100" viewBox="0 0 101 100" fill="none" xmlns="http://www.w3.org/2000/svg">
<path d="M64.9386 65.2609L69.8701 38.2609M64.9386 65.2609H70.9675M64.9386 65.2609H55.0199C52.6861 65.2609 53.0751 66.6304 53.0751 67.2174C53.0751 67.687 53.0751 75.7609 53.0751 79.7391M73.6937 17.3261L75.0517 9.8913C75.1813 9.30435 75.9074 8.13043 77.7745 8.13043C80.1083 8.13043 90.8048 8.13043 92.3607 8.13043C93.9166 8.13043 94.5 8.91304 94.5 9.8913C94.5 10.8696 94.5 13.413 94.5 15.1739C94.5 16.9348 93.5276 17.3261 92.3607 17.3261C91.6991 17.3261 85.5287 17.3261 79.9138 17.3261M73.6937 17.3261C75.3927 17.3261 77.6064 17.3261 79.9138 17.3261M73.6937 17.3261L72.1929 25.5435M79.9138 17.3261L70.9675 65.2609M70.9675 65.2609C71.6807 65.2609 73.5347 65.2609 75.2462 65.2609C76.9576 65.2609 77.2558 66.5652 77.191 67.2174V79.7391M69.8701 38.2609L71.0493 31.8043M69.8701 38.2609C57.1365 38.2609 32.8813 38.2609 26.4312 38.2609M71.0493 31.8043C57.8683 31.8043 32.9264 31.8043 26.4312 31.8043M71.0493 31.8043L72.1929 25.5435M53.0751 79.7391H43.5454M53.0751 79.7391C56.3979 79.7391 60.7941 79.7391 65.3275 79.7391M11.4557 62.1304C9.51088 62.1304 8.53847 61.7391 8.53847 60.3696C8.53847 59 8.53847 58.413 8.53847 57.2391C8.53847 56.0652 9.51088 55.8696 11.4557 55.8696C11.8021 55.8696 12.3767 55.8696 13.0905 55.8696M11.4557 62.1304H27.7923M11.4557 62.1304C11.7391 68.9256 12.229 80.9002 12.4741 87.5652M44.1289 62.1304L43.5454 79.7391M44.1289 62.1304C46.4627 62.1304 47.0461 61.5435 47.0461 60.3696C47.0461 59.4304 47.0461 58.2826 47.0461 57.8261C47.1758 57.1739 47.085 55.8696 45.6847 55.8696C43.9344 55.8696 36.721 55.8696 33.0258 55.8696M44.1289 62.1304H27.7923M43.5454 79.7391C42.184 79.7391 41.2116 80.3261 41.2116 81.8913C41.2116 83.1435 41.2116 91.1522 41.2116 95M41.2116 95C27.3462 95 15.5831 95 14.9564 95C13.4005 95 12.6226 94.413 12.6226 92.2609C12.6226 91.7936 12.5653 90.0477 12.4741 87.5652M41.2116 95C49.1253 95 57.7239 95 65.3275 95M65.3275 79.7391V95M65.3275 79.7391C69.3972 79.7391 73.5775 79.7391 77.191 79.7391M65.3275 95C77.4791 95 87.0898 95 87.3041 95C87.8876 95 89.0545 94.8043 89.0545 93.2391C89.0545 91.987 89.0545 85.2826 89.0545 82.087C89.1841 81.3043 89.0156 79.7391 87.3041 79.7391C86.6016 79.7391 82.5103 79.7391 77.191 79.7391M22.6545 55.8696C22.4742 55.8696 21.9467 55.8696 20.5968 55.8696M27.7923 62.1304C27.7923 74.4565 18.16 84.8261 12.4741 87.5652M13.0905 55.8696C11.1194 48.0435 6.90481 31.6087 5.81571 28.4783C4.45432 24.5652 7.76054 21.8261 10.6778 23.587C12.1148 24.5261 12.885 26.4565 13.0905 27.3043L20.5968 55.8696M13.0905 55.8696C15.1462 55.8696 18.3566 55.8696 20.5968 55.8696M26.4312 38.2609C25.5796 38.2609 25.0384 38.2609 24.8751 38.2609C23.1247 38.2609 23.1247 37.4783 23.1247 36.3043C23.1247 35.1304 23.1247 34.5435 23.1247 33.3696C23.1247 32.1957 23.7082 31.8043 24.8751 31.8043C24.9884 31.8043 25.5337 31.8043 26.4312 31.8043M26.4312 38.2609L27.7923 51.3775M26.4312 31.8043C26.4312 26.7174 30.5154 23.7826 33.8216 23.1957C33.8216 19.8696 35.7664 17.1304 39.6561 15.5652C39.6561 13.0217 42.9623 8.91304 46.852 8.13043C46.852 6.56522 49.5747 5 51.714 5C53.4644 5 56.5761 6.17391 57.5485 11.2609C59.8823 11.2609 64.161 13.8043 64.7444 18.5C66.8837 18.5 71.084 21.0435 72.1929 25.5435M38.1002 27.3043C38.1002 24.3696 40.0451 23.1957 42.3789 23.1957M47.2409 18.5C47.1761 17.0652 47.98 14.1957 51.714 14.1957M57.5485 23.1957C59.1044 23.0652 62.2161 23.7043 62.2161 27.3043" stroke="#EB8888" stroke-width="1.5" stroke-linecap="round"/>
<circle cx="27.5" cy="57" r="5" stroke="#EB8888" stroke-width="1.5" stroke-linecap="round"/>
</svg>
