<svg width="101" height="100" viewBox="0 0 101 100" fill="none" xmlns="http://www.w3.org/2000/svg">
<path d="M70.3841 66.898L75.3561 72.0408L85.3003 61.7551M76.3506 87.2245C61.9316 78.898 58.4511 66.898 58.4511 56.8571L76.3506 46.3265M76.3506 87.2245C79.147 85.6096 81.5321 83.8566 83.5601 82.0064M76.3506 87.2245C76.3506 88.4554 76.3506 90.8926 76.3506 92.8571M76.3506 46.3265C76.3506 35.3878 76.3506 13.1184 76.3506 11.551C76.3506 9.59184 75.3561 8.61224 73.3673 8.61224C71.6103 8.61224 22.7044 8.61224 10.4707 8.61224M76.3506 46.3265L83.5601 50.568M10.4707 8.61224C8.85663 8.61224 7.88091 8.61224 7.73603 8.61224C6.49302 8.61224 5.25 9.10204 5.25 11.551C5.25 14 5.25 93.102 5.25 94.5714C5.25 96.0408 5.25 98 7.73603 98C10.2221 98 71.8757 98 73.3673 98C74.8589 98 76.3506 97.0204 76.3506 94.5714C76.3506 94.0893 76.3506 93.4984 76.3506 92.8571M10.4707 8.61224C10.4707 7.95918 10.4707 6.21224 10.4707 4.44898C10.4707 2.2449 11.4651 2 13.4539 2C15.4427 2 76.8478 2 80.0796 2C83.3115 2 83.5601 3.46939 83.5601 4.44898C83.5601 5.23265 83.5601 35.5215 83.5601 50.568M83.5601 50.568L94.25 56.8571C94.25 64.9506 91.9887 74.317 83.5601 82.0064M83.5601 82.0064C83.5601 83.5009 83.5601 87.2245 83.5601 90.1633C83.5601 92.1224 82.317 92.8571 80.5768 92.8571C79.1846 92.8571 77.1792 92.8571 76.3506 92.8571M15.6913 75.4694C20.6634 76.9388 24.1439 77.6735 25.8841 73.5102C27.6243 69.3469 23.398 67.1429 21.9064 69.5918C20.4148 72.0408 18.426 77.4286 23.6466 80.6122C28.8673 83.7959 31.8506 76.2041 32.3478 73.5102C32.5964 71.551 33.5908 70.0816 34.5852 73.0204C35.5796 75.9592 38.0656 74.7347 38.5629 72.7755C39.0601 70.8163 40.0545 68.1224 41.2975 67.1429M16.4372 86.9796H39.0601M19.4204 48.7755H62.4288M62.4288 42.1633H19.4204M19.4204 36.0408H62.4288M62.4288 29.4286H19.4204M28.8673 23.3061H52.9818" stroke="#54E5A0" stroke-width="1.5" stroke-linecap="round"/>
</svg>
