<svg width="101" height="100" viewBox="0 0 101 100" fill="none" xmlns="http://www.w3.org/2000/svg">
<circle cx="36.25" cy="28.5" r="9.5" stroke="#EB8888" stroke-width="1.5" stroke-linecap="round"/>
<circle cx="65.25" cy="28.5" r="9.5" stroke="#EB8888" stroke-width="1.5" stroke-linecap="round"/>
<circle cx="36.25" cy="28.5" r="5.5" stroke="#EB8888" stroke-width="1.5" stroke-linecap="round"/>
<circle cx="65.25" cy="28.5" r="5.5" stroke="#EB8888" stroke-width="1.5" stroke-linecap="round"/>
<path d="M48.4533 44.2374C34.4028 44.5784 25.4035 47.9825 22.5626 49.7289L30.0792 39.1151C26.3209 36.7801 22.9802 31.2609 25.0681 24.8926C23.0637 28.1192 9.19968 48.7383 2.51823 58.6445C1.75264 59.9889 0.88962 63.2297 3.5622 65.4373C6.90293 68.1969 10.8701 66.4987 14.0021 65.4373C16.5076 64.5882 26.0426 61.4041 30.4969 59.9182V99H50.75H71.0031V59.9182C75.4574 61.4041 84.9924 64.5882 87.4979 65.4373C90.6299 66.4987 94.5971 68.1969 97.9378 65.4373C100.61 63.2297 99.7474 59.9889 98.9818 58.6445C92.3003 48.7383 78.4363 28.1192 76.4318 24.8926C78.5198 31.2609 75.1791 36.7801 71.4208 39.1151L78.9374 49.7289C76.0965 47.9825 67.0972 44.5784 53.0467 44.2374M48.4533 44.2374C49.2045 44.2192 49.9701 44.2097 50.75 44.2097C51.5299 44.2097 52.2955 44.2192 53.0467 44.2374M48.4533 44.2374C46.1566 43.1483 43.2334 42.087 41.5631 39.1151C43.0246 39.1151 48.4533 35.7187 48.4533 29.5627C48.4533 27.2276 49.7059 25.954 50.75 25.954C51.7941 25.954 53.0467 27.2276 53.0467 29.5627C53.0467 35.7187 58.4754 39.1151 59.9369 39.1151C58.2666 42.087 55.3434 43.1483 53.0467 44.2374M37.596 16.1893C38.75 16.1893 39.75 16.1893 39.75 16.1893C44.0578 16.1893 46.25 18.5 48.4533 21.2225C48.8013 21.0102 49.7477 20.5857 50.75 20.5857C51.7523 20.5857 52.6987 21.0102 53.0467 21.2225C55.25 18.5 57.4421 16.1892 61.7499 16.1892L63.904 16.1893C64.3216 12.5806 57.8491 6 50.75 6C43.6509 6 37.1784 12.5806 37.596 16.1893Z" stroke="#EB8888" stroke-width="1.5" stroke-linecap="round"/>
</svg>
