<svg width="101" height="100" viewBox="0 0 101 100" fill="none" xmlns="http://www.w3.org/2000/svg">
<path d="M70.4705 62.8009C65.7244 62.8009 61.5478 59.8379 61.5478 51.5931M61.5478 51.5931C60.1555 51.5931 60.029 50.6913 60.029 50.0472C60.029 49.403 60.2821 48.5013 61.2946 48.5013C61.2946 47.1418 61.5882 41.7976 66.7369 39.4768M61.5478 51.5931H79.5199M69.1416 38.7105C69.1416 39.3289 69.1416 39.827 69.1416 39.9988V38.7105ZM69.1416 38.7105C69.1416 38.1523 69.42 37.0358 70.5338 37.0358C71.6476 37.0358 71.926 38.1523 71.926 38.7105M69.1416 38.7105C68.2408 38.897 67.4432 39.1585 66.7369 39.4768M66.7369 39.4768L68.1291 44.6365M70.5971 62.8009C75.3432 62.8009 79.5199 59.8379 79.5199 51.5931M79.5199 51.5931C80.9121 51.5931 81.0386 50.6913 81.0386 50.0472C81.0386 49.403 80.7855 48.5013 79.773 48.5013C79.773 47.1418 79.4794 41.7976 74.3307 39.4768M71.926 38.7105V39.9988M71.926 38.7105C72.8268 38.897 73.6244 39.1585 74.3307 39.4768M74.3307 39.4768L72.9385 44.6365M29.4752 62.801C24.7291 62.801 20.9828 59.838 20.9828 51.5932M29.6018 62.801C34.3479 62.801 38.0942 59.838 38.0942 51.5932M29.4741 42.7489C24.728 42.7489 20.9817 47.1435 20.9817 51.5932M29.6007 42.7489C34.3468 42.7489 38.0931 47.583 38.0931 51.5932M18.0837 86.0359L15.9322 99M15.9322 99H6.25C6.6086 94.6054 7.45489 84.0583 7.97127 77.0269C8.61675 68.2377 21.5263 67.139 23.2476 67.139C23.2476 68.6771 23.893 75.4888 29.6018 79.6637C35.3106 75.4888 35.956 68.6771 35.956 67.139C37.3547 67.139 46.1407 67.8644 49.7314 72.852M15.9322 99H29.6018H43.2714M52.9536 99C52.595 94.6054 51.7487 84.0583 51.2323 77.0269C51.1113 75.3796 50.5596 74.0024 49.7314 72.852M52.9536 99H43.2714M52.9536 99H56.5972M43.2714 99L41.1198 86.0359M49.7314 72.852C51.687 68.2377 62.8368 67.139 63.9126 67.139C63.9126 71.0942 66.7369 77.0269 70.4705 79.2242C75.092 76.3677 77.0373 69.3363 77.0373 67.5785C80.2647 67.5785 90.8075 68.6771 91.6681 74.8296C92.3566 79.7516 93.6762 92.994 94.25 99H83.9224M82.4163 86.0359L83.9224 99M83.9224 99H56.5972M58.5336 86.0359L56.5972 99M41.3209 17.6996H67.5703M41.3209 9.56951H67.5703M46.0544 26.4888C50.1067 26.4888 54.9226 26.4888 57.673 26.4888L66.7369 33.5202L64.7732 26.4888C64.9884 26.4888 65.6823 26.4888 66.7369 26.4888C71.5782 26.4888 72.8885 22.3871 72.9385 20.3363C72.9385 16.6741 72.9385 8.73453 72.9385 6.27354C72.9385 3.19731 71.0128 1 67.5703 1C64.1278 1 42.6119 1 40.2451 1C37.8784 1 35.956 2.97758 35.956 6.27354C35.956 6.53626 35.956 6.83109 35.956 7.15247M46.0544 26.4888C43.654 26.4888 41.5215 26.4888 40.2451 26.4888C37.9598 26.4888 36.8921 25.4283 36.3933 24.0717M46.0544 26.4888C46.0544 28.9058 45.1938 32.861 40.8906 32.861C37.448 32.861 28.5548 32.861 24.5385 32.861L15.2867 39.9988L16.7928 32.861C16.6493 32.861 15.8891 32.861 13.9957 32.861C11.629 32.861 9.26222 31.3229 9.26222 26.4888C9.26222 21.6547 9.26222 15.722 9.26222 12.426C9.26222 9.13004 10.7683 7.15247 13.9957 7.15247C16.5776 7.15247 29.7117 7.15247 35.956 7.15247M35.956 7.15247C35.956 9.35814 35.956 12.8142 35.956 15.722M14.6412 15.722H35.956M35.956 15.722C35.956 17.7057 35.956 19.4342 35.956 20.3363C35.956 21.4655 35.956 22.8824 36.3933 24.0717M14.6412 24.0717H36.3933" stroke="#54E5A0" stroke-width="1.5" stroke-linecap="round"/>
</svg>
