<svg width="101" height="100" viewBox="0 0 101 100" fill="none" xmlns="http://www.w3.org/2000/svg">
<path d="M11.598 36.2689C11.1176 36.2689 8.47549 36.2689 5.11275 36.2689C1.75 36.2689 1.75 37.9529 1.75 41.8019C1.75 45.651 4.87255 62.7312 6.31373 71.6321H18.0833M11.598 36.2689C8.71569 30.0141 20.4853 33.8632 22.4069 33.6227M11.598 36.2689C11.7733 37.1466 12.5881 40.202 13.9491 43.0047M22.4069 33.6227C28.1716 33.1415 32.2549 41.5613 33.2157 43.4859C33.9841 45.025 34.5988 46.4103 33.8313 47.3956M22.4069 33.6227C22.2467 32.8208 21.8304 30.784 21.4461 29.0519C20.9657 26.8868 20.9657 24.9623 23.848 24.7217C26.7304 24.4811 46.1863 24 48.1078 24C50.0294 24 50.75 24.7217 50.75 25.9245M33.8313 47.3956C33.6391 47.6423 33.3603 47.8639 32.9755 48.0566C29.3725 49.9812 26.0098 50.7029 22.8873 51.6651C19.7647 52.6274 18.0833 49.0189 15.6814 45.8915C15.0322 45.0463 14.4531 44.0428 13.9491 43.0047M33.8313 47.3956H48.5882M50.75 25.9245V45.0506M50.75 25.9245C50.75 24.7217 51.4706 24 53.3922 24C55.3137 24 74.7696 24.4811 77.652 24.7217C80.5343 24.9623 80.5343 26.8868 80.0539 29.0519C79.6696 30.784 79.2533 32.8208 79.0931 33.6227M18.0833 71.6321L16.6937 62.0094M18.0833 71.6321H19.2843M13.9491 43.0047L16.6937 62.0094M16.6937 62.0094H48.5882C50.0294 62.0094 50.75 61.5283 50.75 59.8443M19.7647 54.7925C26.25 53.8302 36.098 53.1085 46.4265 54.7925M48.5882 47.3956C50.0294 47.3956 50.75 48.2972 50.75 49.7406M48.5882 47.3956C50.0294 47.3956 50.75 46.494 50.75 45.0506M50.75 49.7406V59.8443M50.75 49.7406C50.75 48.2972 51.4706 47.3956 52.9118 47.3956M50.75 45.0506C50.75 46.494 51.4706 47.3956 52.9118 47.3956M50.75 59.8443C50.75 61.5283 51.4706 62.0094 52.9118 62.0094H84.8063M19.2843 71.6321L20.0049 75H23.3676V71.6321M19.2843 71.6321H23.3676M23.3676 71.6321H50.75H78.1324M89.902 36.2689H96.3873C99.75 36.2689 99.75 37.9529 99.75 41.8019C99.75 45.651 96.6275 62.7312 95.1863 71.6321H83.4167M89.902 36.2689C92.7843 30.0141 81.0147 33.8632 79.0931 33.6227M89.902 36.2689C89.7267 37.1466 88.9119 40.202 87.5509 43.0047M79.0931 33.6227C73.3284 33.1415 69.2451 41.5613 68.2843 43.4859C67.5159 45.025 66.9012 46.4103 67.6687 47.3956M67.6687 47.3956C67.8609 47.6423 68.1397 47.8639 68.5245 48.0566C72.1275 49.9812 75.4902 50.7029 78.6127 51.6651C81.7353 52.6274 83.4167 49.0189 85.8186 45.8915C86.4678 45.0463 87.0469 44.0428 87.5509 43.0047M67.6687 47.3956H52.9118M83.4167 71.6321L84.8063 62.0094M83.4167 71.6321H82.2157M87.5509 43.0047L84.8063 62.0094M81.7353 54.7925C75.25 53.8302 65.402 53.1085 55.0735 54.7925M82.2157 71.6321L81.4951 75H78.1324V71.6321M82.2157 71.6321H78.1324M34.6569 35.066C36.3382 35.066 36.8186 35.7877 36.8186 37.2311C36.8186 35.7877 37.299 35.066 38.9804 35.066C37.299 35.066 36.8186 34.3443 36.8186 32.9009C36.8186 34.3443 36.3382 35.066 34.6569 35.066ZM66.8431 35.066C65.1618 35.066 64.6814 35.7877 64.6814 37.2311C64.6814 35.7877 64.201 35.066 62.5196 35.066C64.201 35.066 64.6814 34.3443 64.6814 32.9009C64.6814 34.3443 65.1618 35.066 66.8431 35.066Z" stroke="#EB8888" stroke-width="1.5" stroke-linecap="round"/>
</svg>
