<svg width="101" height="100" viewBox="0 0 101 100" fill="none" xmlns="http://www.w3.org/2000/svg">
<path d="M26.8246 79.988C26.8246 69.1828 26.8246 45.8002 26.8246 31.4173M26.8246 79.988C26.8246 73.4988 29.411 68.5827 33.788 68.5827M26.8246 79.988C26.8246 86.2806 30.0079 91 33.788 91M26.8246 20.6019C26.8246 13.1295 23.0445 9 19.2644 9M26.8246 20.6019C26.8246 27.2878 23.2435 31.4173 19.2644 31.4173M26.8246 20.6019C26.8246 22.5257 26.8246 26.4306 26.8246 31.4173M19.2644 9C15.4843 9 12.5 12.7362 12.5 20.6019C12.5 28.4676 17.0759 31.4173 19.2644 31.4173M19.2644 9H73.5785C77.3586 9 81.1387 13.1295 81.1387 20.6019C81.1387 34.3014 81.1387 63.0767 81.1387 68.5827M19.2644 31.4173H26.8246M33.788 68.5827C38.1649 68.5827 41.1492 73.6954 41.1492 79.988C41.1492 86.2806 37.5681 91 33.788 91M33.788 68.5827C47.781 68.5827 76.8414 68.5827 81.1387 68.5827M33.788 91C48.3778 91 77.6372 91 81.1387 91C84.9189 91 88.5 86.2806 88.5 79.988C88.5 73.6954 85.5157 68.5827 81.1387 68.5827M34.7827 62.6835H73.5785M34.7827 53.2446H73.5785M34.7827 43.8058H73.5785M34.7827 34.5636H54.4791M34.7827 25.3213H54.4791M34.7827 15.8825H54.4791M64.6257 25.9855C63.9119 26.4386 63.0891 27.1456 62.4372 26.5012C61.4424 25.518 63.233 24.1415 63.233 23.1583C63.233 22.1751 60.0497 21.9784 60.0497 21.1918C60.0497 20.4053 63.233 20.2086 63.233 19.2254C63.233 18.2422 61.4424 16.8657 62.4372 15.8825C63.4319 14.8993 64.8246 17.0624 65.6204 16.6691C66.4162 16.2758 66.6152 13.5228 67.61 13.5228C68.6047 13.5228 68.8037 16.2758 69.5995 16.6691C70.3953 17.0624 71.788 14.8993 72.7827 15.8825C73.7775 16.8657 71.9869 18.2422 71.9869 19.2254C71.9869 20.2086 75.1702 20.4053 75.1702 21.1918C75.1702 21.9784 71.9869 22.1751 71.9869 23.1583C71.9869 24.1415 73.7775 25.518 72.7827 26.5012C72.1308 27.1456 71.308 26.4386 70.5942 25.9855M64.6257 25.9855C65.001 25.7472 65.3462 25.5791 65.6204 25.7146C66.4162 26.1079 66.6152 28.8609 67.61 28.8609C68.6047 28.8609 68.8037 26.1079 69.5995 25.7146C69.8737 25.5791 70.2189 25.7472 70.5942 25.9855M64.6257 25.9855V35.94L67.61 32.9904L70.5942 35.94V25.9855" stroke="#54E5A0" stroke-width="1.5" stroke-linecap="round"/>
</svg>
