<svg width="101" height="100" viewBox="0 0 101 100" fill="none" xmlns="http://www.w3.org/2000/svg">
<path fill-rule="evenodd" clip-rule="evenodd" d="M32.0792 26.6604C32.4849 26.7439 32.8815 26.4827 32.9651 26.077L33.0174 25.8228C38.0272 22.2777 44.1448 20.1945 50.749 20.1945C57.3532 20.1945 63.4708 22.2777 68.4806 25.8228L68.5329 26.077C68.6164 26.4827 69.013 26.7439 69.4187 26.6604C69.4663 26.6506 69.5118 26.6365 69.555 26.6187C76.8102 32.24 81.4805 41.0376 81.4805 50.926C81.4805 60.8136 76.8117 69.6106 69.5554 75.2331C69.5121 75.2151 69.4664 75.201 69.4187 75.1912C69.013 75.1077 68.6164 75.3689 68.5329 75.7746L68.4805 76.0293C63.4708 79.5745 57.3542 81.6575 50.749 81.6575C44.1449 81.6575 38.0273 79.5743 33.0175 76.0292L32.9651 75.7746C32.8815 75.3689 32.4849 75.1077 32.0792 75.1912C32.0316 75.201 31.9859 75.2151 31.9426 75.2331C24.6877 69.6117 20.0175 60.8143 20.0175 50.926C20.0175 41.0376 24.6878 32.24 31.943 26.6187C31.9862 26.6365 32.0317 26.6506 32.0792 26.6604ZM34.7366 10.0338L31.666 24.9482C23.6919 30.8157 18.5175 40.2666 18.5175 50.926C18.5175 61.5855 23.692 71.0364 31.6661 76.9039L34.7366 91.8178L34.8599 92.4165H35.4712H66.0268H66.6381L66.7614 91.8178L69.8319 76.9038C77.8045 71.0376 82.9805 61.5862 82.9805 50.926C82.9805 40.2666 77.806 30.8157 69.832 24.9482L66.7614 10.0338L66.6381 9.43506H66.0268H35.4712H34.8599L34.7366 10.0338ZM50.749 18.6945C57.1154 18.6945 63.0506 20.5403 68.0489 23.7259L65.4154 10.9351H36.0825L33.4491 23.7259C38.4473 20.5403 44.3826 18.6945 50.749 18.6945ZM33.4492 78.1262C38.4474 81.3117 44.3826 83.1575 50.749 83.1575C57.1143 83.1575 63.0504 81.3116 68.0488 78.126L65.4154 90.9165H36.0825L33.4492 78.1262ZM30.377 35.3611H29.627V36.1111V52.7778V53.5278H30.377H72.0436H72.7936V52.7778V36.1111V35.3611H72.0436H30.377ZM31.127 52.0278V36.8611H71.2936V52.0278H31.127ZM35.9336 43.6946C35.9336 43.2804 36.2694 42.9446 36.6836 42.9446H39.8132C40.2274 42.9446 40.5632 43.2804 40.5632 43.6946C40.5632 44.1088 40.2274 44.4446 39.8132 44.4446H36.6836C36.2694 44.4446 35.9336 44.1088 35.9336 43.6946ZM45.0175 42.9445C44.6033 42.9445 44.2675 43.2803 44.2675 43.6945C44.2675 44.1087 44.6033 44.4445 45.0175 44.4445H48.1471C48.5613 44.4445 48.8971 44.1087 48.8971 43.6945C48.8971 43.2803 48.5613 42.9445 48.1471 42.9445H45.0175ZM52.5996 43.6946C52.5996 43.2804 52.9354 42.9446 53.3496 42.9446H56.4792C56.8935 42.9446 57.2292 43.2804 57.2292 43.6946C57.2292 44.1088 56.8935 44.4446 56.4792 44.4446H53.3496C52.9354 44.4446 52.5996 44.1088 52.5996 43.6946ZM61.6836 42.9446C61.2694 42.9446 60.9336 43.2804 60.9336 43.6946C60.9336 44.1088 61.2694 44.4446 61.6836 44.4446H64.8132C65.2274 44.4446 65.5632 44.1088 65.5632 43.6946C65.5632 43.2804 65.2274 42.9446 64.8132 42.9446H61.6836ZM50.4998 60.1348C51.2537 61.0218 52.1854 62.2368 52.9872 63.5314C54.022 65.2021 54.7498 66.8637 54.7498 68.091C54.7498 71.3987 52.7323 73.2501 50.4998 73.2501C48.2674 73.2501 46.2498 71.3987 46.2498 68.091C46.2498 66.8637 46.9776 65.2021 48.0124 63.5314C48.8143 62.2368 49.7459 61.0218 50.4998 60.1348ZM50.4998 74.7501C53.7219 74.7501 56.2498 72.0561 56.2498 68.091C56.2498 66.4093 55.311 64.4345 54.2624 62.7416C53.1946 61.0176 51.9182 59.4385 51.0589 58.5001C51.0498 58.49 51.0405 58.4801 51.0308 58.4704C50.9685 58.4079 50.8977 58.3586 50.8219 58.3226C50.7375 58.2824 50.6473 58.259 50.5562 58.2522C50.5266 58.25 50.4969 58.2496 50.4672 58.2508C50.2856 58.2587 50.1068 58.3323 49.9695 58.4698C49.9595 58.4797 49.9499 58.4899 49.9407 58.5002C49.0813 59.4386 47.805 61.0176 46.7372 62.7416C45.6887 64.4345 44.7498 66.4093 44.7498 68.091C44.7498 72.0561 47.2777 74.7501 50.4998 74.7501Z" fill="#EB8888"/>
</svg>
