<svg width="101" height="100" viewBox="0 0 101 100" fill="none" xmlns="http://www.w3.org/2000/svg">
<path d="M91.0138 85H98.25V79.5538C98.25 72.5057 92.3003 68.0206 87.6469 67.54M91.0138 85L87.6469 67.54M91.0138 85H76.8631M85.5465 56.6476L87.6469 67.54M85.5465 56.6476C87.0654 54.8535 87.573 50.9878 87.6369 49.2792M85.5465 56.6476C84.4574 58.0283 82.454 60.6234 79.086 62.4142M56.2802 46.0755C63.0339 45.1144 71.8781 36.4645 71.8781 31.659C72.9073 32.9405 74.7726 33.3677 75.5766 33.4211C76.8095 33.4211 79.7897 33.4211 81.848 33.4211C84.4209 33.4211 84.26 36.3043 84.26 38.3867C84.26 40.4691 85.0641 42.8719 87.6369 42.8719M56.2802 46.0755C56.2802 47.0167 56.3208 47.9246 56.3999 48.7986M56.2802 46.0755C56.2802 43.7306 56.2802 41.7728 56.2802 40.1487M87.6369 49.2792C89.4058 49.2792 91.8178 47.357 91.8178 44.6339C91.8178 41.9108 89.7274 40.1487 87.6369 40.1487M87.6369 49.2792C87.6369 48.495 87.6369 46.4033 87.6369 42.8719M87.6369 40.1487C87.6369 38.4644 87.6369 36.545 87.6369 34.3822C87.6369 23.3295 77.5063 19.6453 76.8631 19.6453C76.8631 17.5629 76.7023 15.3204 74.6118 15.3204C72.5214 15.3204 71.8781 16.4416 71.8781 18.8444C71.8781 16.2815 71.2349 15.3204 68.9837 15.3204C67.1827 15.3204 66.7324 16.6018 66.7324 17.2426C66.7324 17.296 66.7324 17.8513 66.7324 19.6453C58.6279 19.6453 56.3874 28.6156 56.2802 33.1007C56.2802 33.4208 56.2802 35.2939 56.2802 40.1487M87.6369 40.1487C87.6369 41.1367 87.6369 42.0439 87.6369 42.8719M56.3999 48.7986C54.0289 48.7986 51.6168 48.1579 51.6168 44.6339C51.6168 41.1098 54.3505 40.1487 56.2802 40.1487M56.3999 48.7986C56.9955 55.3748 59.7725 60.0285 63.8379 62.4395M79.086 62.4142C76.9836 63.532 74.3495 64.3364 71.0741 64.3364C68.3988 64.3364 65.9453 63.6892 63.8379 62.4395M79.086 62.4142C79.351 63.2858 79.5168 64.4373 79.593 65.778M76.8631 85H45.5063M76.8631 85C78.789 79.3724 79.8948 71.0897 79.593 65.778M63.8379 62.4395C63.7472 62.8565 63.4927 63.5495 63.0339 64.1665M45.5063 85H2.25C2.25 81.54 2.25 79.5004 2.25 78.913C2.3572 76.0297 4.24397 69.8146 10.9334 68.0206C16.0765 66.6413 18.4821 65.3225 19.572 64.1762M45.5063 85C45.5063 83.8253 45.5063 81.1556 45.5063 79.8741C45.5063 75.3168 47.8311 72.0842 50.1842 70.103M63.0339 64.1665C62.6796 64.643 62.2034 65.0741 61.5867 65.2975C60.1716 65.8101 55.6369 67.3265 53.5465 68.0206C52.6315 68.3852 51.404 69.0759 50.1842 70.103M63.0339 64.1665L71.7173 75.8696L79.593 65.778M20.4209 62.254C19.456 61.7735 13.1847 58.8902 13.1847 49.9199C13.1847 49.7602 13.1847 49.6 13.1847 49.4394M20.4209 62.254C21.6537 62.7879 25.1163 63.8558 29.1043 63.8558C32.1433 63.8558 34.6042 63.2432 36.5843 62.254M20.4209 62.254C20.4209 62.8089 20.2541 63.4588 19.572 64.1762M19.572 64.1762L28.1394 76.0298L37.1047 63.8558M36.5843 62.254C42.3154 59.3908 44.0192 53.3724 44.059 49.9199C44.059 49.7661 44.059 49.6057 44.059 49.4394M36.5843 62.254C36.5843 62.821 36.7149 63.3478 37.1047 63.8558M50.1842 70.103C49.3217 69.4089 46.5997 67.7323 42.6118 66.5789C39.3913 65.6476 37.8163 64.7831 37.1047 63.8558M13.1847 49.4394C10.9334 49.4394 8.68216 48.1579 8.68216 45.1144C8.68216 42.0709 11.4158 40.1487 13.1847 40.1487M13.1847 49.4394C13.1847 47.157 13.1847 44.7925 13.1847 42.7117M13.1847 40.1487C13.1847 38.9356 13.1847 37.9344 13.1847 37.2654C12.5951 37.1587 11.4158 36.5606 11.4158 35.0229C11.4158 33.4851 11.4158 27.868 11.4158 25.2517C11.523 22.9024 13.0239 17.5629 18.1696 15C18.1696 16.2815 18.652 18.524 21.0641 18.524C22.9937 18.524 31.7307 18.524 35.858 18.524C39.1277 18.524 45.6671 20.0297 45.6671 26.0526C45.6671 32.0755 45.6671 34.3288 45.6671 34.7025C45.6671 35.5568 45.3455 37.2654 44.059 37.2654C44.059 37.6667 44.059 39.1119 44.059 40.9497M13.1847 40.1487C13.1847 40.9265 13.1847 41.7913 13.1847 42.7117M44.059 40.9497C46.4711 40.9497 48.2399 42.3913 48.2399 44.6339C48.2399 46.8764 47.2751 49.4394 44.059 49.4394M44.059 40.9497C44.059 41.652 44.059 42.4116 44.059 43.1922M44.059 49.4394C44.059 47.7232 44.059 45.3757 44.059 43.1922M13.1847 42.7117C15.4359 42.7117 16.0791 41.4302 16.0791 38.2265C16.0791 35.6636 16.0791 34.3822 16.0791 34.0618C16.1327 33.1007 16.7224 31.1785 18.652 31.1785C21.0641 31.1785 19.9384 31.1785 21.5465 31.1785C23.1545 31.1785 23.6369 34.3822 25.7274 34.3822C27.3997 34.3822 28.1394 33.4211 28.3003 32.9405C28.5147 33.4211 29.2972 34.3822 30.7123 34.3822C32.4812 34.3822 33.7676 32.9405 34.4108 31.1785C35.3113 31.1785 38.9669 31.1785 40.6822 31.1785V39.3478C40.7358 40.6293 41.4862 43.1922 44.059 43.1922M22.9438 52.4911C25.5746 53.866 29.5734 55.1352 34.0983 52.4911M21.0641 42.9497V44.0497M36.0641 42.9497V44.0497M66.6297 52.4911C69.2605 53.866 73.2593 55.1352 77.7843 52.4911M64.75 42.9497V44.0497M79.75 42.9497V44.0497" stroke="#54E5A0" stroke-width="1.5" stroke-linecap="round"/>
</svg>
