<svg width="101" height="100" viewBox="0 0 101 100" fill="none" xmlns="http://www.w3.org/2000/svg">
<path d="M13.7098 71.1155C11.8217 71.1155 11.8217 70.1686 11.8217 69.4111C11.8217 68.6536 11.8217 67.5173 11.8217 66.5704C11.8217 65.6236 12.3881 65.0554 13.7098 65.0554C14.7671 65.0554 21.3252 65.0554 24.472 65.0554M13.7098 71.1155H24.472H35.2343M13.7098 71.1155L14.465 89.1062C14.465 89.7375 14.8427 91 16.3531 91C17.8636 91 22.3951 91 24.472 91H32.5909C34.1014 91 34.479 89.7375 34.479 89.1062L35.2343 71.1155M24.472 65.0554V59.4688M24.472 65.0554H35.2343C36.5559 65.0554 37.1224 65.6236 37.1224 66.5704M24.472 17.9007V30.0208M24.472 46.8753L19.3741 41.7621M24.472 46.8753V53.8822M24.472 46.8753V30.0208M24.472 53.8822L32.5909 45.739M24.472 53.8822V59.4688M24.472 30.0208L29.9476 24.5289M24.472 59.4688C17.6748 59.4688 10.5 54.6397 10.5 45.739C10.5 39.8305 14.0245 35.7458 15.7867 34.442M24.472 59.4688C29.5024 59.4688 34.7396 56.8239 37.1224 51.8412M19.9406 21.4988C18.903 20.7183 18.2218 19.6598 17.8425 18.4688M17.8425 18.4688C17.3936 17.059 17.3678 15.4636 17.6748 13.9238C18.2413 11.0831 20.8846 9 24.472 9C28.0594 9 30.7028 11.0831 31.2692 13.9238C31.5763 15.4636 31.5504 17.059 31.1015 18.4688M17.8425 18.4688C15.4091 20.1732 13.3322 22.8245 13.3322 27.1801C13.3322 30.2145 14.0652 32.4217 15.7867 34.442M18.6189 37.0277C17.4734 36.166 16.5363 35.3217 15.7867 34.442M29.0035 21.4988C30.0411 20.7183 30.7223 19.6598 31.1015 18.4688M31.1015 18.4688C33.535 20.1732 35.6119 22.8245 35.6119 27.1801C35.6119 30.2145 34.8788 32.4217 33.1573 34.442M30.3252 37.0277C31.4707 36.166 32.4077 35.3217 33.1573 34.442M33.1573 34.442C34.2242 35.2313 35.9368 37.0397 37.1224 39.655M35.2343 71.1155C37.1224 71.1155 37.1224 70.1686 37.1224 69.4111M37.1224 69.4111V66.5704M37.1224 69.4111C37.1224 70.1686 37.1224 71.1155 39.0105 71.1155M37.1224 69.4111C37.1224 68.6536 37.1224 67.5173 37.1224 66.5704M37.1224 66.5704C37.1224 65.6236 37.6888 65.0554 39.0105 65.0554C40.0678 65.0554 46.6259 65.0554 49.7727 65.0554M29.9476 76.7968L28.6259 85.8868M39.0105 71.1155H49.7727H60.535M39.0105 71.1155L39.7657 89.1062C39.7657 89.7375 40.1434 91 41.6538 91C43.1643 91 47.6958 91 49.7727 91H57.8916C59.4021 91 59.7797 89.7375 59.7797 89.1062L60.535 71.1155M49.7727 65.0554V59.4688M49.7727 65.0554H60.535C61.8566 65.0554 62.4231 65.6236 62.4231 66.5704V69.4111C62.4231 70.1686 62.4231 71.1155 60.535 71.1155M49.7727 17.9007V30.0208M49.7727 48.7691L42.9755 41.9515M49.7727 48.7691L56.7587 41.7621M49.7727 48.7691V33.0508M49.7727 48.7691V59.4688M49.7727 33.0508L55.2483 27.5589M49.7727 33.0508V30.0208M49.7727 59.4688C44.7423 59.4688 39.5052 56.8239 37.1224 51.8412M49.7727 59.4688C56.3315 59.4688 63.2419 54.9725 63.7186 46.6605M45.2413 21.4988C44.2037 20.7183 43.5225 19.6598 43.1432 18.4688M43.1432 18.4688C42.6943 17.059 42.6685 15.4636 42.9755 13.9238C43.542 11.0831 46.1853 9 49.7727 9C53.3601 9 56.0035 11.0831 56.5699 13.9238C56.877 15.4636 56.8511 17.059 56.4022 18.4688M43.1432 18.4688C40.7098 20.1732 38.6329 22.8245 38.6329 27.1801C38.6329 30.2145 39.3659 32.4217 41.0874 34.442M43.9196 37.0277C42.7741 36.166 41.837 35.3217 41.0874 34.442M41.0874 34.442C40.0206 35.2313 38.3079 37.0397 37.1224 39.655M54.3042 21.4988C55.3418 20.7183 56.023 19.6598 56.4022 18.4688M56.4022 18.4688C58.8357 20.1732 60.9126 22.8245 60.9126 27.1801C60.9126 30.2145 60.1795 32.4217 58.458 34.442M55.6259 37.0277C56.7714 36.166 57.7084 35.3217 58.458 34.442M58.458 34.442C59.1207 34.9323 60.0326 35.8158 60.9126 37.0417M55.2483 76.7968L53.9266 85.8868M37.1224 39.655C37.8952 41.3598 38.4441 43.4074 38.4441 45.739C38.4441 48.0526 37.9593 50.0911 37.1224 51.8412M44.2972 24.5289L49.7727 30.0208M72.0524 48.5487C73.3613 48.6878 74.7519 48.7691 76.2063 48.7691C77.6606 48.7691 79.0513 48.6878 80.3601 48.5487M72.0524 48.5487V72.2517L66.3881 77.933C66.3881 81.0262 66.3881 87.5912 66.3881 89.1062C66.3881 91 67.1434 91 68.0874 91C68.8427 91 73.8147 91 76.2063 91C78.5979 91 83.5699 91 84.3252 91C85.2692 91 86.0245 91 86.0245 89.1062C86.0245 87.5912 86.0245 81.0262 86.0245 77.933L80.3601 72.2517V48.5487M72.0524 48.5487C68.5881 48.1804 65.6974 47.4066 63.7186 46.6605M80.3601 48.5487C86.5277 47.893 90.877 45.952 91.5 45.1709C91.5 42.8984 91.5 29.0739 91.5 25.2864C91.5 21.4988 89.6119 15.6282 76.2063 9C62.8007 15.6282 60.9126 21.4988 60.9126 25.2864C60.9126 27.3679 60.9126 32.4808 60.9126 37.0417M60.9126 37.0417C62.3726 39.0758 63.7448 42.0524 63.7448 45.739C63.7448 46.0512 63.7359 46.3584 63.7186 46.6605M76.2063 17.9007C80.3601 17.9007 86.0245 20.552 86.0245 26.2333C86.0245 30.7783 86.0245 34.4396 86.0245 35.7021M86.0245 38.9215V41.3834M76.2063 84.94C75.1993 84.94 73.072 84.94 72.6189 84.94C72.0524 84.94 71.8636 84.5612 71.8636 83.9931C71.8636 83.5386 71.8636 81.7837 71.8636 80.963L76.2063 76.6074L80.5489 80.963C80.5489 81.7837 80.5489 83.5386 80.5489 83.9931C80.5489 84.5612 80.3601 84.94 79.7937 84.94C79.3406 84.94 77.2133 84.94 76.2063 84.94Z" stroke="#EB8888" stroke-width="1.5" stroke-linecap="round"/>
</svg>
