<svg width="200" height="200" viewBox="0 0 200 200" fill="none" xmlns="http://www.w3.org/2000/svg">
<rect width="200" height="200" rx="100" fill="#333740"/>
<rect x="0.5" y="0.5" width="199" height="199" rx="99.5" stroke="#F1F4FA" stroke-opacity="0.2"/>
<g clip-path="url(#clip0_1332_4696)">
<path d="M91.732 56.5572C91.732 61.4752 95.8304 63.9342 99.9287 63.9342M99.9287 63.9342V51.6392M99.9287 63.9342V72.131M99.9287 63.9342C104.027 63.9342 108.125 61.4752 108.125 56.5572M99.9287 120.492V107.377M85.9943 64.7539C87.6336 67.2129 92.7156 72.131 99.9287 72.131M99.9287 72.131V80.3277M99.9287 72.131C107.142 72.131 112.224 67.2129 113.863 64.7539M82.7156 72.9506C84.9014 75.4097 91.4041 80.3277 99.9287 80.3277M99.9287 80.3277V90.1637M99.9287 80.3277C108.453 80.3277 114.956 75.4097 117.142 72.9506M79.4369 80.3277C82.1692 83.6064 90.0927 90.1637 99.9287 90.1637M99.9287 90.1637V99.1801M99.9287 90.1637C109.765 90.1637 117.688 83.6064 120.421 80.3277M76.1582 89.3441C79.4369 92.6228 88.7812 99.1801 99.9287 99.1801M99.9287 99.1801V107.377M99.9287 99.1801C111.076 99.1801 120.421 92.6228 123.699 89.3441M73.6992 96.7211C76.7047 100.273 86.1582 107.377 99.9287 107.377M99.9287 107.377C113.699 107.377 123.153 100.273 126.158 96.7211" stroke="#FFD9A1" stroke-width="2.5" stroke-linecap="round"/>
<path d="M67.9609 115.574C81.8954 111.476 111.404 116.394 116.322 150" stroke="#FFD9A1" stroke-width="2.5" stroke-linecap="round"/>
<path d="M131.65 116.799C132.327 116.935 132.985 116.496 133.121 115.819C133.256 115.142 132.817 114.483 132.14 114.348L131.65 116.799ZM100.621 122.351C105.373 119.183 115.691 113.608 131.65 116.799L132.14 114.348C115.312 110.982 104.318 116.882 99.2344 120.271L100.621 122.351Z" fill="#FFD9A1"/>
<path d="M131.403 127.378C132.038 127.65 132.772 127.356 133.044 126.722C133.316 126.087 133.022 125.352 132.388 125.08L131.403 127.378ZM132.388 125.08C129.286 123.751 124.765 123.126 120.202 123.55C115.634 123.975 110.843 125.469 107.302 128.567L108.948 130.449C111.965 127.809 116.189 126.434 120.433 126.04C124.682 125.644 128.767 126.249 131.403 127.378L132.388 125.08Z" fill="#FFD9A1"/>
<path d="M131.313 137.172C131.924 137.494 132.68 137.259 133.002 136.648C133.323 136.037 133.088 135.281 132.478 134.96L131.313 137.172ZM132.478 134.96C129.839 133.571 125.903 132.945 122.153 133.164C118.426 133.381 114.528 134.452 112.159 136.821L113.927 138.589C115.656 136.86 118.81 135.862 122.298 135.659C125.762 135.458 129.204 136.062 131.313 137.172L132.478 134.96Z" fill="#FFD9A1"/>
<path d="M67.9609 124.59C79.4363 121.312 101.567 127.049 105.666 150" stroke="#FFD9A1" stroke-width="2.5" stroke-linecap="round"/>
<path d="M67.9609 132.587C75.5186 130.514 91.7314 133.607 95.0101 150" stroke="#FFD9A1" stroke-width="2.5" stroke-linecap="round"/>
</g>
<defs>
<clipPath id="clip0_1332_4696">
<rect width="64.0777" height="100" fill="white" transform="translate(67.9609 50)"/>
</clipPath>
</defs>
</svg>
