<svg width="55" height="54" viewBox="0 0 55 54" fill="none" xmlns="http://www.w3.org/2000/svg">
<path fill-rule="evenodd" clip-rule="evenodd" d="M27.2696 0.5C27.5457 0.5 27.7696 0.723858 27.7696 1V13.7052C27.7696 13.9814 27.5457 14.2052 27.2696 14.2052C26.9934 14.2052 26.7696 13.9814 26.7696 13.7052V1C26.7696 0.723858 26.9934 0.5 27.2696 0.5ZM36.9357 27.0396C36.9357 32.3144 32.6171 36.6063 27.2702 36.6063C21.9233 36.6063 17.6047 32.3144 17.6047 27.0396C17.6047 21.7648 21.9233 17.4728 27.2702 17.4728C32.6171 17.4728 36.9357 21.7648 36.9357 27.0396ZM37.9357 27.0396C37.9357 32.8754 33.1606 37.6063 27.2702 37.6063C21.3798 37.6063 16.6047 32.8754 16.6047 27.0396C16.6047 21.2037 21.3798 16.4728 27.2702 16.4728C33.1606 16.4728 37.9357 21.2037 37.9357 27.0396ZM26.68 20.7734C26.874 20.7558 27.0707 20.7468 27.2696 20.7468C30.7845 20.7468 33.6259 23.5686 33.6259 27.0397C33.6259 27.2762 33.6128 27.5096 33.5872 27.739C33.5566 28.0134 33.7542 28.2607 34.0287 28.2914C34.3031 28.322 34.5504 28.1243 34.581 27.8499C34.6107 27.5837 34.6259 27.3134 34.6259 27.0397C34.6259 23.0075 31.328 19.7468 27.2696 19.7468C27.0404 19.7468 26.8135 19.7572 26.5894 19.7776C26.3144 19.8026 26.1118 20.0458 26.1368 20.3208C26.1618 20.5958 26.405 20.7985 26.68 20.7734ZM26.8973 53.1055C26.8973 53.3816 27.1212 53.6055 27.3973 53.6055C27.6734 53.6055 27.8973 53.3816 27.8973 53.1055L27.8973 40.4002C27.8973 40.1241 27.6734 39.9002 27.3973 39.9002C27.1212 39.9002 26.8973 40.1241 26.8973 40.4002L26.8973 53.1055ZM47.1786 7.31506C47.3748 7.50941 47.3748 7.82452 47.1786 8.01887L37.275 17.8308C37.0788 18.0252 36.7607 18.0252 36.5646 17.8308C36.3684 17.6365 36.3684 17.3214 36.5646 17.127L46.4683 7.31506C46.6644 7.12071 46.9825 7.12071 47.1786 7.31506ZM7.48856 46.0866C7.29239 46.2809 7.29239 46.596 7.48856 46.7904C7.68472 46.9847 8.00278 46.9847 8.19894 46.7904L18.1026 36.9784C18.2988 36.7841 18.2988 36.469 18.1026 36.2746C17.9064 36.0802 17.5884 36.0802 17.3922 36.2746L7.48856 46.0866ZM36.1088 6.20496C36.3613 6.31683 36.4739 6.61155 36.3602 6.86324L32.805 14.7387C32.6914 14.9904 32.3946 15.1037 32.1422 14.9919C31.8897 14.88 31.7771 14.5853 31.8907 14.3336L35.446 6.45812C35.5596 6.20643 35.8564 6.09309 36.1088 6.20496ZM18.3066 47.2422C18.193 47.4939 18.3056 47.7886 18.558 47.9005C18.8105 48.0124 19.1073 47.899 19.2209 47.6474L22.7761 39.7719C22.8897 39.5202 22.7772 39.2255 22.5247 39.1136C22.2723 39.0017 21.9755 39.1151 21.8619 39.3668L18.3066 47.2422ZM48.1968 18.3894C48.3097 18.6414 48.1963 18.9358 47.9435 19.0469L40.1715 22.464C39.9188 22.5751 39.6223 22.4609 39.5094 22.2089C39.3965 21.9569 39.51 21.6625 39.7628 21.5514L47.5347 18.1343C47.7875 18.0231 48.0839 18.1373 48.1968 18.3894ZM6.72337 35.0586C6.47058 35.1697 6.35716 35.4641 6.47005 35.7161C6.58293 35.9681 6.87937 36.0823 7.13216 35.9712L14.9041 32.5541C15.1569 32.443 15.2703 32.1486 15.1574 31.8965C15.0446 31.6445 14.7481 31.5303 14.4953 31.6415L6.72337 35.0586ZM53.7988 27.0396C53.7988 27.3157 53.575 27.5396 53.2988 27.5396H40.4748C40.1987 27.5396 39.9748 27.3157 39.9748 27.0396C39.9748 26.7634 40.1987 26.5396 40.4748 26.5396H53.2988C53.575 26.5396 53.7988 26.7634 53.7988 27.0396ZM1.36804 26.5659C1.0919 26.5659 0.868042 26.7897 0.868042 27.0659C0.868042 27.342 1.0919 27.5659 1.36804 27.5659H14.192C14.4682 27.5659 14.692 27.342 14.692 27.0659C14.692 26.7897 14.4682 26.5659 14.192 26.5659H1.36804ZM46.9255 46.7635C46.7293 46.9579 46.4113 46.9579 46.2151 46.7635L36.3114 36.9516C36.1153 36.7572 36.1153 36.4421 36.3114 36.2477C36.5076 36.0534 36.8257 36.0534 37.0218 36.2477L46.9255 46.0597C47.1217 46.2541 47.1217 46.5692 46.9255 46.7635ZM8.45187 7.34194C8.25571 7.14759 7.93765 7.14759 7.74149 7.34194C7.54532 7.53629 7.54532 7.8514 7.74149 8.04575L17.6452 17.8577C17.8413 18.0521 18.1594 18.0521 18.3555 17.8577C18.5517 17.6634 18.5517 17.3483 18.3555 17.1539L8.45187 7.34194ZM48.0422 35.7963C47.9286 36.048 47.6318 36.1614 47.3794 36.0495L39.4303 32.5272C39.1778 32.4153 39.0653 32.1206 39.1789 31.8689C39.2925 31.6172 39.5893 31.5039 39.8417 31.6157L47.7908 35.138C48.0433 35.2499 48.1558 35.5446 48.0422 35.7963ZM7.28775 18.056C7.03529 17.9441 6.73852 18.0575 6.6249 18.3092C6.51128 18.5608 6.62384 18.8556 6.87631 18.9674L14.8254 22.4897C15.0779 22.6016 15.3746 22.4883 15.4882 22.2366C15.6019 21.9849 15.4893 21.6902 15.2368 21.5783L7.28775 18.056ZM36.0014 47.7753C35.7486 47.8864 35.4522 47.7722 35.3393 47.5202L31.8902 39.8202C31.7774 39.5682 31.8908 39.2738 32.1436 39.1626C32.3963 39.0515 32.6928 39.1657 32.8057 39.4177L36.2547 47.1177C36.3676 47.3697 36.2542 47.6641 36.0014 47.7753ZM19.3276 6.58528C19.2147 6.33326 18.9183 6.21907 18.6655 6.33021C18.4127 6.44135 18.2993 6.73575 18.4122 6.98776L21.8612 14.6878C21.9741 14.9398 22.2705 15.054 22.5233 14.9428C22.7761 14.8317 22.8895 14.5373 22.7766 14.2853L19.3276 6.58528Z" fill="#FFD9A1"/>
</svg>
