<svg width="55" height="54" viewBox="0 0 55 54" fill="none" xmlns="http://www.w3.org/2000/svg">
<path fill-rule="evenodd" clip-rule="evenodd" d="M40.4914 2L40.7367 2.17027L44.1356 4.52964L43.9757 4.75987C44.1029 4.65608 44.2296 4.55572 44.356 4.45962C45.0953 3.8975 45.8732 3.43959 46.7254 3.27045L46.7736 3.26089H46.8227C48.3679 3.26089 49.6907 3.56668 50.7079 4.40782C51.7263 5.24996 52.3573 6.56137 52.6656 8.39687C52.9723 10.2226 52.9697 12.4794 52.8199 14.5615C52.6698 16.6454 52.3693 18.5928 52.063 19.8088C51.4931 22.0705 51.4866 25.5119 52.6465 28.9649C53.2515 30.766 53.586 32.5039 53.1005 34.2703C52.6141 36.04 51.3313 37.7465 48.9045 39.5526C46.4575 41.3737 44.3107 42.1324 42.0466 42.7315C41.5042 42.875 40.9585 43.0088 40.4019 43.1452C38.6342 43.5785 36.7565 44.0387 34.5242 44.9248C31.6221 46.0766 29.7367 47.514 28.1162 48.8296C27.9661 48.9514 27.8178 49.0728 27.6705 49.1933C26.2416 50.362 24.9165 51.4459 23.2026 52.0128C22.9708 52.0895 22.7429 52.1665 22.5204 52.2417C22.0468 52.4019 21.5975 52.5537 21.1872 52.6762C20.5836 52.8563 20.0082 52.991 19.4872 52.9995C19.0189 53.0071 18.4183 52.9547 17.8195 52.7448C16.9259 52.5919 16.1801 52.4363 15.5608 52.2584C14.6075 51.9844 13.8944 51.6416 13.3958 51.1185C13.1297 50.8393 12.9398 50.525 12.8035 50.1754C12.757 50.2811 12.6739 50.3713 12.5616 50.425L10.5235 51.3992L10.3194 51.4968L10.1113 51.4078L2.63852 48.2128L2.33508 48.0831V47.7531V35.6122V34.8546L3.03164 35.1525L10.2964 38.2585L12.1303 37.3819C12.2017 37.3477 12.2772 37.332 12.3513 37.3329C12.335 36.8146 12.3447 36.3193 12.3731 35.8442L10.1822 36.8827L9.97062 36.983L9.75808 36.8846L2.62495 33.5833L2.33496 33.4491V33.1295V21.6848V21.378L2.60855 21.239L40.2251 2.13521L40.4914 2ZM12.4804 34.6867L10.4681 35.6405V25.8949L12.0904 25.0898C12.1066 25.1124 12.1227 25.1348 12.1386 25.1571C12.5417 25.7223 12.8936 26.266 13.05 26.8869L13.0547 26.9056L13.0609 26.9239C13.6074 28.5508 13.3439 30.0474 12.9704 31.9008L12.931 32.0956C12.7695 32.8945 12.5965 33.7501 12.4804 34.6867ZM11.5124 24.2603L9.97928 25.0211L3.90706 21.7011L40.4117 3.16202L43.4076 5.24162C43.1247 5.4889 42.8398 5.74704 42.5526 6.00735L42.5525 6.00741C42.4039 6.14203 42.2547 6.27723 42.1048 6.41181C40.5477 7.80975 38.8443 9.20646 36.5971 9.76392C34.208 10.3566 31.0662 11.247 28.1429 12.3626C25.2401 13.4705 22.477 14.8278 20.9102 16.3826C19.5296 17.7525 18.0153 18.1705 16.4663 18.5365C16.3715 18.5589 16.2762 18.5811 16.1806 18.6035C14.7399 18.9397 13.2203 19.2943 11.9938 20.5114C11.493 21.0084 11.1745 21.4931 11.0289 21.9865C10.8804 22.4898 10.925 22.9572 11.073 23.3881C11.1759 23.688 11.3341 23.9798 11.5124 24.2603ZM12.4162 38.3536C12.4245 38.4408 12.4336 38.5287 12.4435 38.6172C12.7408 41.2719 12.7338 41.959 12.6664 42.561C12.6534 42.6766 12.638 42.7912 12.6214 42.9146C12.5439 43.49 12.4403 44.259 12.4403 46.2295V46.2643C12.4403 47.4148 12.4403 48.3653 12.5473 49.1336C12.5675 49.2789 12.5918 49.4198 12.6211 49.5563C12.4796 49.4632 12.2943 49.4444 12.1303 49.5228L10.8079 50.1549V39.1223L12.4162 38.3536ZM9.46809 35.6485V25.8813L3.33496 22.5281V32.81L9.46809 35.6485ZM9.80788 50.1905V39.1372L3.33508 36.3698V47.4231L9.80788 50.1905ZM18.0767 51.7741C18.5123 51.8477 18.9885 51.9218 19.5096 51.9987C19.881 51.9865 20.3364 51.8865 20.9012 51.7179C21.2942 51.6006 21.7149 51.4584 22.1779 51.3019C22.4041 51.2254 22.6405 51.1455 22.8886 51.0634C24.4174 50.5577 25.5979 49.594 27.0563 48.4033C27.1967 48.2887 27.3397 48.1719 27.4859 48.0533C29.1348 46.7146 31.1131 45.2028 34.1553 43.9953C36.4579 43.0813 38.4234 42.5998 40.2021 42.1641L40.2021 42.1641C40.7478 42.0304 41.2759 41.901 41.7908 41.7648C43.9849 41.1842 45.9991 40.4683 48.3075 38.7503C50.6361 37.0174 51.731 35.4798 52.1362 34.0053C52.5424 32.5275 52.2824 31.0213 51.6986 29.2834C50.4808 25.6583 50.4742 22.0215 51.0933 19.5645C51.3813 18.4212 51.6752 16.5346 51.8224 14.4897C51.9672 12.4788 51.9673 10.3519 51.6943 8.65318C51.4431 8.23878 51.1952 8.01023 50.9687 7.89147C50.7368 7.76995 50.4825 7.73964 50.1801 7.79966C49.5305 7.92858 48.7463 8.45328 47.8116 9.23242C47.4041 9.57207 46.9852 9.94456 46.5505 10.3312L46.5504 10.3313L46.392 10.4721C45.9033 10.9063 45.3965 11.3532 44.8805 11.7713C43.8576 12.6001 42.7518 13.3555 41.6092 13.6795C40.4351 14.0123 39.7374 14.2594 38.9337 14.544L38.9336 14.544C38.6963 14.6281 38.4497 14.7154 38.1788 14.8092C36.9902 15.2207 35.3707 15.7432 32.0926 16.6303C28.885 17.4983 27.3198 18.4989 26.2695 19.4022C25.9104 19.711 25.62 19.9993 25.3309 20.2864L25.3308 20.2865L25.3307 20.2866C25.179 20.4373 25.0276 20.5876 24.8668 20.7404C24.4131 21.1714 23.9257 21.5777 23.2678 21.9041C21.9882 22.539 21.1175 22.5889 20.3046 22.6351L20.3027 22.6352C19.5358 22.6788 18.8263 22.7191 17.7291 23.2635C17.2163 23.5179 16.8944 23.7828 16.7022 24.0419C16.5738 24.215 16.4954 24.3958 16.4604 24.5906C16.4598 24.6913 16.4527 24.795 16.4388 24.9015C16.4408 26.6741 16.5944 27.8316 16.8475 28.6843C17.0985 29.5301 17.4544 30.1012 17.9058 30.6984C18.7231 31.7797 18.5548 33.1552 18.2091 34.4063C18.0424 35.0095 17.8212 35.6275 17.6093 36.2195L17.5712 36.3259C17.3449 36.9589 17.1335 37.5594 16.9918 38.1221C16.7112 39.2358 16.7116 40.0551 16.7819 40.8153C16.8035 41.0488 16.834 41.2908 16.8657 41.5414L16.8657 41.5416C16.9338 42.0801 17.0069 42.6588 17.0069 43.2803C17.0069 44.0596 16.8338 45.342 16.678 46.4957L16.6726 46.5361C16.5926 47.1288 16.5166 47.6925 16.4658 48.161C16.413 48.6473 16.3944 48.9761 16.4099 49.128L16.4111 49.1401L16.4118 49.1522C16.4806 50.4493 16.9858 51.1318 17.5543 51.5085C17.7197 51.6181 17.8959 51.7054 18.0767 51.7741ZM50.0706 5.17847C50.551 5.57566 50.9496 6.1367 51.2506 6.92103C50.8385 6.75317 50.4096 6.73462 49.9854 6.81879C49.0561 7.00322 48.0941 7.69507 47.1713 8.46427C46.7506 8.81493 46.3191 9.1987 45.8862 9.58367L45.8861 9.58376L45.7278 9.72454C45.239 10.1589 44.7474 10.5921 44.251 10.9943C43.2491 11.806 42.2744 12.4515 41.3365 12.7174C40.1292 13.0597 39.3983 13.3185 38.5886 13.6053C38.354 13.6883 38.1129 13.7738 37.8516 13.8642C36.689 14.2667 35.0921 14.7826 31.8314 15.665C28.5004 16.5664 26.7962 17.6303 25.6174 18.644C25.2332 18.9744 24.895 19.3098 24.5906 19.6117C24.4459 19.7552 24.3088 19.8912 24.178 20.0154C23.7586 20.4139 23.3544 20.7449 22.8234 21.0083C21.7262 21.5527 21.0167 21.593 20.2498 21.6366L20.2479 21.6367C19.4351 21.6829 18.5643 21.7328 17.2847 22.3677C16.7619 22.6271 16.3417 22.9274 16.0337 23.2792C15.8863 23.0771 15.7062 22.8948 15.5026 22.7308C14.8737 22.2245 13.9953 21.8683 13.0974 21.5713C12.8854 21.5012 12.6838 21.4555 12.4935 21.4373C12.5551 21.3677 12.6232 21.2957 12.6981 21.2213C13.7174 20.2099 14.9739 19.9146 16.4719 19.5625L16.6962 19.5097C18.2679 19.1384 20.023 18.6717 21.6145 17.0924C23.0199 15.6979 25.6066 14.401 28.4995 13.2969C31.3718 12.2007 34.4716 11.3215 36.8379 10.7345C39.3461 10.1123 41.2092 8.55976 42.7729 7.15592C42.932 7.01301 43.0874 6.87224 43.2398 6.73425C43.8475 6.18379 44.4065 5.67744 44.9613 5.25565C45.6353 4.74315 46.2551 4.39457 46.8733 4.26101C48.2746 4.26768 49.3136 4.55249 50.0706 5.17847ZM14.8754 23.5097C15.2448 23.8072 15.4426 24.1264 15.4591 24.5242C15.4442 24.6379 15.4376 24.7533 15.4388 24.8703C15.439 26.7094 15.596 27.9822 15.8888 28.9688C16.1854 29.9682 16.6135 30.6471 17.108 31.3014C17.6169 31.9747 17.5824 32.9195 17.2452 34.1399C17.0887 34.7061 16.8793 35.2915 16.664 35.8932L16.6296 35.9892C16.4056 36.6157 16.1775 37.2608 16.0221 37.8778C15.7082 39.1234 15.7078 40.0595 15.7861 40.9073C15.8141 41.2097 15.8492 41.4843 15.8831 41.7499C15.9471 42.2507 16.0069 42.7191 16.0069 43.2803C16.0069 43.984 15.8434 45.2034 15.6816 46.4023L15.6813 46.4045L15.6813 46.4048C15.6019 46.9927 15.524 47.5696 15.4716 48.0532C15.4218 48.5123 15.3881 48.9411 15.4138 49.2163C15.4625 50.1057 15.6898 50.8072 16.0333 51.3517C15.9662 51.3337 15.9008 51.3156 15.837 51.2973C14.9512 51.0427 14.4384 50.7629 14.1196 50.4285C13.8105 50.1042 13.6321 49.6736 13.5377 48.9957C13.4415 48.304 13.4403 47.4226 13.4403 46.2295C13.4403 44.3248 13.5373 43.6052 13.6138 43.0375L13.6138 43.0372C13.6307 42.9119 13.6466 42.794 13.6602 42.6723C13.7414 41.9472 13.7345 41.1598 13.4373 38.5059C13.1588 36.0186 13.5524 34.0699 13.9158 32.2712L13.9507 32.0983C14.319 30.2709 14.6491 28.5287 14.0148 26.6235C13.8062 25.8125 13.3559 25.1417 12.9527 24.5764C12.9021 24.5055 12.8527 24.4367 12.8046 24.3697C12.4524 23.8794 12.1716 23.4887 12.0286 23.0912C12.0086 22.9895 11.9988 22.873 12.007 22.7638C12.0162 22.6417 12.0453 22.5605 12.0757 22.5148C12.0971 22.4827 12.1263 22.4538 12.2024 22.4383C12.2949 22.4194 12.475 22.4188 12.7833 22.5208C13.6687 22.8136 14.3971 23.1246 14.8754 23.5097Z" fill="#FFD9A1"/>
</svg>
