<svg width="54" height="54" viewBox="0 0 54 54" fill="none" xmlns="http://www.w3.org/2000/svg">
<path fill-rule="evenodd" clip-rule="evenodd" d="M25.3642 1.5C25.6404 1.5 25.8642 1.72386 25.8642 2V8.90608C25.8642 9.18222 25.6404 9.40608 25.3642 9.40608C25.0881 9.40608 24.8642 9.18222 24.8642 8.90608V2C24.8642 1.72386 25.0881 1.5 25.3642 1.5ZM14.0117 4.60372C14.2519 4.46752 14.557 4.55185 14.6932 4.79207L17.8257 10.3169C17.9619 10.5571 17.8776 10.8623 17.6373 10.9985C17.3971 11.1347 17.092 11.0504 16.9558 10.8101L13.8233 5.28528C13.6871 5.04506 13.7715 4.73992 14.0117 4.60372ZM36.7168 4.60372C36.957 4.73992 37.0414 5.04506 36.9052 5.28528L33.7727 10.8101C33.6365 11.0504 33.3314 11.1347 33.0911 10.9985C32.8509 10.8623 32.7666 10.5571 32.9028 10.3169L36.0352 4.79207C36.1714 4.55185 36.4766 4.46752 36.7168 4.60372ZM14.8482 15.8322C16.8057 13.0934 20.1 11.1685 25.3642 11.1685C30.6284 11.1685 33.9228 13.0934 35.8803 15.8322C37.8168 18.5416 38.394 21.9763 38.394 24.9282C38.394 28.7417 36.2563 31.0117 34.2586 32.9842C34.1655 33.0761 34.073 33.1672 33.9811 33.2577C32.0586 35.1503 30.4205 36.7628 30.4205 39.2928V41.779V43.1602C30.4205 43.4275 30.3421 43.8149 30.0942 44.1488C29.8281 44.5074 29.3937 44.7652 28.7815 44.7652H28.5731V46.0622C28.5731 46.5158 28.4271 46.9098 28.1157 47.1822C27.816 47.4443 27.4323 47.5325 27.0728 47.5325H25.8642V47.5351V47.5412V47.5473V47.5533V47.5594V47.5655V47.5717V47.5778V47.584V47.5901V47.5963V47.6025V47.6087V47.6149V47.6211V47.6274V47.6336V47.6399V47.6462V47.6525V47.6588V47.6651V47.6714V47.6778V47.6842V47.6905V47.6969V47.7033V47.7097V47.7161V47.7226V47.729V47.7355V47.7419V47.7484V47.7549V47.7614V47.7679V47.7744V47.781V47.7875V47.7941V47.8007V47.8072V47.8138V47.8204V47.827V47.8337V47.8403V47.847V47.8536V47.8603V47.867V47.8736V47.8803V47.887V47.8938V47.9005V47.9072V47.914V47.9207V47.9275V47.9343V47.9411V47.9479V47.9547V47.9615V47.9683V47.9751V47.982V47.9888V47.9957V48.0025V48.0094V48.0163V48.0232V48.0301V48.037V48.0439V48.0508V48.0578V48.0647V48.0717V48.0786V48.0856V48.0926V48.0995V48.1065V48.1135V48.1205V48.1275V48.1345V48.1416V48.1486V48.1556V48.1627V48.1697V48.1768V48.1839V48.1909V48.198V48.2051V48.2122V48.2193V48.2264V48.2335V48.2406V48.2477V48.2549V48.262V48.2691V48.2763V48.2834V48.2906V48.2978V48.3049V48.3121V48.3193V48.3265V48.3336V48.3408V48.348V48.3552V48.3624V48.3696V48.3769V48.3841V48.3913V48.3985V48.4058V48.413V48.4202V48.4275V48.4347V48.442V48.4492V48.4565V48.4638V48.471V48.4783V48.4856V48.4929V48.5001V48.5074V48.5147V48.522V48.5293V48.5366V48.5439V48.5512V48.5585V48.5658V48.5731V48.5804V48.5877V48.5951V48.6024V48.6097V48.617V48.6243V48.6317V48.639V48.6463V48.6536V48.661V48.6683V48.6756V48.683V48.6903V48.6976V48.705V48.7123V48.7197V48.727V48.7343V48.7417V48.749V48.7564V48.7637V48.7711V48.7784V48.7858V48.7931V48.8004V48.8078V48.8151V48.8225V48.8298V48.8372V48.8445V48.8518V48.8592V48.8665V48.8739V48.8812V48.8885V48.8959V48.9032V48.9105V48.9179V48.9252V48.9325V48.9399V48.9472V48.9545V48.9618V48.9692V48.9765V48.9838V48.9911V48.9984V49.0057V49.0131V49.0204V49.0277V49.035V49.0423V49.0496V49.0569V49.0642V49.0714V49.0787V49.086V49.0933V49.1006V49.1078V49.1151V49.1224V49.1296V49.1369V49.1441V49.1514V49.1586V49.1659V49.1731V49.1803V49.1876V49.1948V49.202V49.2092V49.2165V49.2237V49.2309V49.2381V49.2453V49.2524V49.2596V49.2668V49.274V49.2811V49.2883V49.2955V49.3026V49.3098V49.3169V49.324V49.3312V49.3383V49.3454V49.3525V49.3596V49.3667V49.3738V49.3809V49.388V49.3951V49.4021V49.4092V49.4162V49.4233V49.4303V49.4374V49.4444V49.4514V49.4584V49.4654V49.4724V49.4794V49.4864V49.4934V49.5003V49.5073V49.5142V49.5212V49.5281V49.535V49.542V49.5489V49.5558V49.5627V49.5696V49.5764V49.5833V49.5902V49.597V49.6039V49.6107V49.6175V49.6243V49.6311V49.6379V49.6447V49.6515V49.6583V49.665V49.6718V49.6785V49.6852V49.692V49.6987V49.7054V49.7121V49.7187V49.7254V49.7321V49.7387V49.7454V49.752V49.7586V49.7652V49.7718V49.7784V49.785V49.7915V49.7981V49.8046V49.8111V49.8177V49.8242V49.8307V49.8371V49.8436V49.8501V49.8565V49.863V49.8694V49.8758V49.8822V49.8886V49.895V49.9013V49.9077V49.914V49.9203V49.9266V49.9329V49.9392V49.9455V49.9518V49.958V49.9642V49.9705V49.9767V49.9829V49.989V49.9952V50.0014V50.0075V50.0136V50.0197V50.0258V50.0319V50.038V50.044V50.0501V50.0561V50.0621V50.0681V50.0741V50.0801V50.086V50.092V50.0979V50.1038V50.1097V50.1156V50.1214V50.1273V50.1331V50.1389V50.1447V50.1505V50.1563V50.162V50.1678V50.1735V50.1792V50.1849V50.1906V50.1962V50.2019V50.2075V50.2131V50.2187V50.2243V50.2298V50.2354V50.2409V50.2464V50.2519V50.2574V50.2628V50.2683V50.2737V50.2791V50.2845V50.2898V50.2952V50.3005V50.3058V50.3111V50.3164V50.3217V50.3269V50.3321V50.3373V50.3425C25.8642 50.8129 25.9836 51.0605 26.1535 51.207C26.3406 51.3683 26.6939 51.5 27.3576 51.5H27.3661H27.3748H27.3838H27.3931H27.4026H27.4124H27.4225H27.4328H27.4434H27.4542H27.4653H27.4767H27.4883H27.5001H27.5122H27.5246H27.5372H27.5501H27.5632H27.5765H27.5901H27.604H27.6181H27.6324H27.647H27.6618H27.6769H27.6922H27.7077H27.7235H27.7395H27.7557H27.7722H27.7889H27.8058H27.823H27.8404H27.858H27.8759H27.894H27.9123H27.9308H27.9496H27.9686H27.9878H28.0072H28.0268H28.0467H28.0668H28.087H28.1076H28.1283H28.1492H28.1704H28.1917H28.2133H28.2351H28.257H28.2792H28.3016H28.3242H28.347H28.37H28.3932H28.4166H28.4403H28.4641H28.4881H28.5123H28.5367H28.5612H28.586H28.611H28.6362H28.6615H28.6871H28.7128H28.7387H28.7648H28.7911H28.8176H28.8442H28.8711H28.8981H28.9253H28.9527H28.9802H29.0079H29.0358H29.0639H29.0922H29.1206H29.1492H29.178H29.2069H29.236H29.2653H29.2947H29.3243H29.3541H29.384H29.4141H29.4443H29.4748H29.5053H29.536H29.5669H29.598H29.6292H29.6605H29.692H29.7237H29.7555H29.7874H29.8195H29.8518H29.8841H29.9167H29.9494H29.9822H30.0151H30.0483H30.0815H30.1149H30.1484H30.1821H30.2159H30.2498H30.2839H30.3181H30.3524H30.3868H30.4214H30.4561H30.491H30.526H30.5611H30.5963H30.6316H30.6671H30.7027H30.7384H30.7742H30.8101H30.8462H30.8824H30.9187H30.9551H30.9916H31.0282H31.0649H31.1018H31.1388H31.1758H31.213H31.2503H31.2876H31.3251H31.3627H31.4004H31.4382H31.4761H31.5141H31.5522H31.5903H31.6286H31.667H31.7054H31.744H31.7826H31.8214H31.8602H31.8991H31.9381H31.9772H32.0163H32.0556H32.0949H32.1343H32.1738H32.2134H32.253H32.2928H32.3326H32.3725H32.4124H32.4524H32.4925H32.5327H32.573H32.6133H32.6536H32.6941H32.7346H32.7752H32.8158H32.8565H32.8973H32.9381H32.979H33.0199H33.0609H33.102H33.1431H33.1842H33.2255H33.2667H33.308H33.3494H33.3908H33.4323H33.4738H33.5154H33.557H33.5986H33.6403H33.6821H33.7238H33.7656H33.8075H33.8494H33.8913H33.9333H33.9753H34.0173H34.0594H34.1015H34.1436H34.1857H34.2279H34.2701H34.3124H34.3546H34.3969H34.4392H34.4816H34.5239H34.5663H34.6087H34.6511H34.6935H34.7359H34.7784H34.8208H34.8633H34.9058H34.9483H34.9908H35.0333H35.0759H35.1184H35.1609H35.2035H35.246H35.2886H35.3311H35.3737H35.4162H35.4588H35.5013H35.5438H35.5864H35.6289H35.6714H35.7139H35.7564H35.7989H35.8414H35.8839H35.9263H35.9688H36.0112H36.0536H36.096H36.1384H36.1807H36.223H36.2653H36.3076H36.3499H36.3921H36.4343H36.4765H36.5187H36.5608H36.6029H36.6449H36.687H36.729H36.7709H36.8129H36.8548H36.8966H36.9384H36.9802H37.0219H37.0636H37.1053H37.1469H37.1884H37.2299H37.2714H37.3128H37.3542H37.3955H37.4368H37.478H37.5192H37.5603H37.6013H37.6423H37.6833H37.7242H37.765H37.8057H37.8465H37.8871H37.9277H37.9682H38.0086H38.049H38.0893H38.1295H38.1697H38.2098H38.2498H38.2898H38.3297H38.3695H38.4092H38.4489H38.4884H38.5279H38.5673H38.6067H38.6459H38.6851H38.7242H38.7632H38.8021H38.8409H38.8796H38.9183H38.9568H38.9953H39.0336H39.0719H39.1101H39.1482H39.1862H39.2241H39.2618H39.2995H39.3371H39.3746H39.412H39.4493H39.4864H39.5235H39.5605H39.5973H39.634H39.6707H39.7072H39.7436H39.7799H39.8161H39.8521H39.8881H39.9239H39.9596H39.9952H40.0306H40.066H40.1012H40.1363H40.1713H40.2061H40.2408H40.2754H40.3099H40.3442H40.3784H40.4125H40.4464H40.4802H40.5138H40.5474H40.5808H40.614H40.6471H40.6801H40.7129H40.7456H40.7781H40.8105H40.8427H40.8748H40.9068H40.9386H40.9702H41.0017H41.0331H41.0643H41.0953H41.1262H41.1569H41.1875H41.2179H41.2482H41.2783H41.3082H41.3379H41.3675H41.397H41.4263H41.4554H41.4843H41.5131H41.5417H41.5701H41.5983H41.6264H41.6543H41.682H41.7096H41.737H41.7642H41.7912H41.818H41.8447H41.8712H41.8974H41.9235H41.9495H41.9752H42.0007H42.0261H42.0513H42.0762H42.101H42.1256H42.15H42.1742H42.1982H42.222H42.2456H42.269H42.2922H42.3152H42.338H42.3606H42.383H42.4052H42.4272H42.449H42.4705H42.4919H42.513H42.534H42.5547H42.5752H42.5955H42.6156H42.6354H42.6551H42.6745H42.6937H42.7127H42.7314H42.75H42.7683H42.7864H42.8042H42.8218H42.8392H42.8564H42.8734H42.8901H42.9065H42.9228H42.9388H42.9546H42.9701H42.9854H43.0005H43.0153H43.0299H43.0442H43.0583H43.0721H43.0857H43.0991H43.1122H43.125H43.1377H43.15H43.1621H43.174H43.1856H43.1969H43.208H43.2189H43.2294H43.2397H43.2498H43.2596H43.2691H43.2784H43.2874H43.2962H43.3046C43.8662 51.5 44.1381 51.2928 44.2874 51.0859C44.4566 50.8514 44.5132 50.5505 44.5132 50.3425V50.3399V50.337V50.334V50.3309V50.3276V50.3241V50.3205V50.3167V50.3128V50.3087V50.3044V50.3V50.2954V50.2907V50.2859V50.2808V50.2756V50.2703V50.2648V50.2592V50.2534V50.2475V50.2414V50.2351V50.2287V50.2222V50.2155V50.2087V50.2017V50.1946V50.1873V50.1799V50.1723V50.1646V50.1567V50.1487V50.1406V50.1323V50.1239V50.1153V50.1066V50.0977V50.0887V50.0796V50.0703V50.0609V50.0514V50.0417V50.0318V50.0219V50.0118V50.0015V49.9911V49.9806V49.97V49.9592V49.9483V49.9372V49.9261V49.9147V49.9033V49.8917V49.88V49.8682V49.8562V49.8441V49.8319V49.8195V49.807V49.7944V49.7817V49.7688V49.7558V49.7427V49.7295V49.7161V49.7026V49.689V49.6753V49.6614V49.6474V49.6333V49.6191V49.6047V49.5903V49.5757V49.561V49.5462V49.5312V49.5162V49.501V49.4857V49.4703V49.4547V49.4391V49.4233V49.4075V49.3915V49.3754V49.3591V49.3428V49.3264V49.3098V49.2932V49.2764V49.2595V49.2425V49.2254V49.2082V49.1909V49.1735V49.1559V49.1383V49.1205V49.1027V49.0847V49.0667V49.0485V49.0302V49.0119V48.9934V48.9748V48.9561V48.9373V48.9184V48.8995V48.8804V48.8612V48.8419V48.8225V48.803V48.7835V48.7638V48.744V48.7241V48.7042V48.6841V48.664V48.6437V48.6234V48.6029V48.5824V48.5618V48.5411V48.5203V48.4994V48.4784V48.4573V48.4362V48.4149V48.3936V48.3721V48.3506V48.329V48.3073V48.2856V48.2637V48.2418V48.2197V48.1976V48.1754V48.1531V48.1308V48.1083V48.0858V48.0632V48.0405V48.0177V47.9949V47.9719V47.9489V47.9259V47.9027V47.8795V47.8561V47.8327V47.8093V47.7857V47.7621V47.7384V47.7146V47.6908V47.6669V47.6429V47.6188V47.5947V47.5705V47.5462V47.5219V47.4975V47.473V47.4485V47.4238V47.3992V47.3744V47.3496V47.3247V47.2998V47.2747V47.2497V47.2245V47.1993V47.174V47.1487V47.1233V47.0979V47.0723V47.0468V47.0211V46.9954V46.9697V46.9438V46.918V46.892V46.866V46.84V46.8139V46.7877V46.7615V46.7352V46.7089V46.6825V46.6561V46.6296V46.6031V46.5765V46.5498V46.5231V46.4964V46.4696V46.4428V46.4159V46.3889V46.3619V46.3349V46.3078V46.2807V46.2535V46.2263V46.199V46.1717V46.1443V46.1169V46.0895V46.062V46.0345V46.0069V45.9793V45.9516V45.9239V45.8962V45.8684V45.8406V45.8127V45.7848V45.7569V45.7289V45.7009V45.6729V45.6448V45.6167V45.5886V45.5604V45.5322V45.5039V45.4757V45.4473V45.419V45.3906V45.3622V45.3338V45.3053V45.2768V45.2483V45.2198V45.1912V45.1626V45.1339V45.1053V45.0766V45.0479V45.0191V44.9904V44.9616V44.9328V44.9039V44.8751V44.8462V44.8173V44.7884V44.7595V44.7305V44.7015V44.6725V44.6435V44.6145V44.5854V44.5564V44.5273V44.4982V44.469V44.4399V44.4108V44.3816V44.3524V44.3232V44.294V44.2648V44.2356V44.2063V44.1771V44.1478V44.1186V44.0893V44.06V44.0307V44.0014V43.9721V43.9427V43.9134V43.8841V43.8547V43.8254V43.7961V43.7667V43.7373V43.708V43.6786V43.6493V43.6199V43.5905V43.5611V43.5318V43.5024V43.473V43.4437V43.4143V43.3849V43.3556V43.3262V43.2969V43.2675V43.2382V43.2088V43.1795V43.1502V43.1208V43.0915V43.0622V43.0329V43.0036V42.9743V42.9451V42.9158V42.8866V42.8573V42.8281V42.7989V42.7697V42.7405V42.7113V42.6821V42.653V42.6238V42.5947V42.5656V42.5365V42.5074V42.4784V42.4493V42.4203V42.3913V42.3623V42.3334V42.3044V42.2755V42.2466V42.2177V42.1888V42.16V42.1312V42.1024V42.0736V42.0449V42.0162V41.9875V41.9588V41.9302V41.9016V41.873V41.8444V41.8159V41.7874V41.7589V41.7305V41.7021V41.6737V41.6453V41.617V41.5887V41.5605V41.5322V41.5041V41.4759V41.4478V41.4197V41.3917V41.3636V41.3357V41.3077V41.2798V41.252V41.2241V41.1964V41.1686V41.1409V41.1132V41.0856V41.058V41.0305V41.003V40.9755V40.9481V40.9207V40.8934V40.8661V40.8389V40.8117V40.7846V40.7575V40.7304V40.7034V40.6764V40.6495V40.6227V40.5959V40.5691V40.5424V40.5158V40.4892V40.4626V40.4361V40.4097V40.3833V40.3569V40.3306V40.3044V40.2782V40.2521V40.226V40.2V40.1741V40.1482V40.1224V40.0966V40.0709V40.0452V40.0196V39.9941V39.9686V39.9432V39.9179V39.8926V39.8674V39.8422V39.8171V39.7921V39.7671V39.7422V39.7174V39.6926V39.6679V39.6433V39.6187V39.5942V39.5698V39.5454V39.5211V39.4969V39.4728V39.4487V39.4247V39.4007V39.3769V39.3531V39.3294V39.3057V39.2822V39.2587V39.2353V39.2151C43.8353 39.1492 42.9988 38.9459 42.2647 38.5063C41.3102 37.9349 40.5265 36.9565 40.5265 35.4254V35.4125V35.3996V35.3867V35.3739V35.3611V35.3483V35.3356V35.3229V35.3102V35.2976V35.285V35.2724V35.2599V35.2474V35.235V35.2225V35.2101V35.1978V35.1854V35.1731V35.1609V35.1486V35.1364V35.1243V35.1121V35.1V35.088V35.0759V35.0639V35.052V35.04V35.0281V35.0162V35.0044V34.9926V34.9808V34.9691V34.9574V34.9457V34.934V34.9224V34.9108V34.8993V34.8878V34.8763V34.8648V34.8534V34.842V34.8307V34.8193V34.8081V34.7968V34.7856V34.7744V34.7632V34.7521V34.741V34.7299V34.7189V34.7078V34.6969V34.6859V34.675V34.6641V34.6533V34.6425V34.6317V34.6209V34.6102V34.5995V34.5888V34.5782V34.5676V34.557V34.5465V34.536V34.5255V34.515V34.5046V34.4942V34.4839V34.4736V34.4633V34.453V34.4428V34.4326V34.4224V34.4123V34.4022V34.3921V34.382V34.372V34.362V34.3521V34.3421V34.3322V34.3224V34.3125V34.3027V34.293V34.2832V34.2735V34.2638V34.2541V34.2445V34.2349V34.2254V34.2158V34.2063V34.1968V34.1874V34.178V34.1686V34.1592V34.1499V34.1406V34.1313V34.1221V34.1129V34.1037V34.0945V34.0854V34.0763V34.0672V34.0582V34.0492V34.0402V34.0312V34.0223V34.0134V34.0046V33.9957V33.9869V33.9782V33.9694V33.9607V33.952V33.9433V33.9347V33.9261V33.9175V33.909V33.9004V33.892V33.8835V33.8751V33.8667V33.8583V33.8499V33.8416V33.8333V33.825V33.8168V33.8086V33.8004V33.7923V33.7841V33.776V33.768V33.7599V33.7519V33.7439V33.736V33.728V33.7201V33.7123V33.7044V33.6966V33.6888V33.681V33.6733V33.6656V33.6579V33.6502V33.6426V33.635V33.6274V33.6199V33.6124V33.6049V33.5974V33.59V33.5826V33.5752V33.5678V33.5605V33.5532V33.5459V33.5387V33.5314V33.5242V33.5171V33.5099V33.5028V33.4957V33.4887V33.4816V33.4746V33.4676V33.4607V33.4537V33.4468V33.4399V33.4331V33.4263V33.4195V33.4127V33.4059V33.3992V33.3925V33.3858V33.3792V33.3726V33.366V33.3594V33.3529V33.3464V33.3399V33.3334V33.327V33.3205V33.3142V33.3078V33.3015V33.2951V33.2889V33.2826V33.2764V33.2702V33.264V33.2578V33.2517V33.2456V33.2395V33.2334V33.2274V33.2214V33.2154V33.2094V33.2035V33.1976V33.1917V33.1858V33.18V33.1742V33.1684V33.1626V33.1569V33.1512V33.1455V33.1398V33.1342V33.1286V33.123V33.1174V33.1119V33.1064V33.1009V33.0954V33.09V33.0845V33.0791V33.0738V33.0684V33.0631V33.0578V33.0525V33.0472V33.042V33.0368V33.0316V33.0265V33.0213V33.0162V33.0111V33.0061V33.001V32.996V32.991V32.986V32.9811V32.9762V32.9713V32.9664V32.9615V32.9567V32.9519V32.9471V32.9424V32.9376V32.9329V32.9282V32.9235V32.9189V32.9143V32.9097V32.9051V32.9005V32.896V32.8915V32.887V32.8825V32.8781V32.8737V32.8693V32.8649V32.8605V32.8562V32.8519V32.8476V32.8433V32.8391V32.8349V32.8307V32.8265V32.8224V32.8182V32.8141V32.81V32.806V32.8019V32.7979V32.7939V32.7899V32.786V32.782V32.7781V32.7742V32.7703V32.7665V32.7627V32.7589V32.7551V32.7513V32.7476V32.7439V32.7402V32.7365V32.7328V32.7292V32.7256V32.722V32.7184V32.7149V32.7113V32.7078V32.7043V32.7009V32.6974V32.694V32.6906V32.6872V32.6838V32.6805V32.6772V32.6739V32.6706V32.6673V32.6641V32.6609V32.6577V32.6545V32.6513V32.6482V32.6451V32.642V32.6389V32.6358V32.6328V32.6298V32.6268V32.6238V32.6208V32.6179V32.615V32.6121V32.6092V32.6063V32.6035V32.6007V32.5979V32.5951V32.5923V32.5896V32.5869V32.5842V32.5815V32.5788V32.5762V32.5736V32.571V32.5684V32.5658V32.5633V32.5607V32.5582V32.5557V32.5533V32.5508V32.5484V32.546V32.5436V32.5412V32.5388V32.5365V32.5342V32.5319V32.5296V32.5273V32.5251V32.5228V32.5206V32.5184V32.5163V32.5141V32.512V32.5099V32.5078V32.5057V32.5036V32.5016V32.4995V32.4975V32.4956V32.4936V32.4916V32.4897V32.4878V32.4859V32.484V32.4821V32.4803V32.4784V32.4766V32.4748V32.4731V32.4713V32.4696V32.4678V32.4661V32.4644V32.4628V32.4611V32.4595V32.4579V32.4563V32.4547V32.4531V32.4516V32.45V32.4485V32.447V32.4455V32.4441V32.4426V32.4412V32.4398V32.4384V32.437V32.4356V32.4343V32.4329V32.4316V32.4303V32.429V32.4278V32.4265V32.4253V32.4241V32.4229V32.4217V32.4205V32.4194V32.4182V32.4171V32.416V32.4149V32.4139V32.4128V32.4118V32.4107V32.4097V32.4087V32.4078V32.4068V32.4059V32.4049V32.404V32.4031V32.4022V32.4014V32.4005V32.3997V32.3989V32.3981V32.3973V32.3965V32.3958V32.395V32.3943V32.3936V32.3929V32.3922V32.3915V32.3909V32.3902V32.3896V32.389V32.3884V32.3878V32.3873V32.3867C40.5265 32.0897 40.6722 31.7424 40.9969 31.4799C41.2334 31.2887 41.549 31.1535 41.9503 31.0932V27.9669C41.9503 27.6907 42.1742 27.4669 42.4503 27.4669C42.7265 27.4669 42.9503 27.6907 42.9503 27.9669V31.058H42.956H42.9617H42.9674H42.9731H42.9788H42.9846H42.9903H42.996H43.0017H43.0075H43.0132H43.0189H43.0247H43.0304H43.0362H43.0419H43.0476H43.0534H43.0591H43.0649H43.0706H43.0764H43.0821H43.0879H43.0936H43.0994H43.1051H43.1109H43.1166H43.1224H43.1282H43.1339H43.1397H43.1454H43.1512H43.157H43.1627H43.1685H43.1742H43.18H43.1858H43.1915H43.1973H43.2031H43.2088H43.2146H43.2204H43.2261H43.2319H43.2377H43.2434H43.2492H43.255H43.2607H43.2665H43.2723H43.278H43.2838H43.2896H43.2953H43.3011H43.3069H43.3126H43.3184H43.3242H43.3299H43.3357H43.3414H43.3472H43.353H43.3587H43.3645H43.3702H43.376H43.3817H43.3875H43.3932H43.399H43.4047H43.4105H43.4162H43.422H43.4277H43.4335H43.4392H43.445H43.4507H43.4564H43.4622H43.4679H43.4736H43.4794H43.4851H43.4908H43.4965H43.5023H43.508H43.5137H43.5194H43.5251H43.5309H43.5366H43.5423H43.548H43.5537H43.5594H43.5651H43.5708H43.5765H43.5822H43.5879H43.5935H43.5992H43.6049H43.6106H43.6163H43.6219H43.6276H43.6333H43.6389H43.6446H43.6503H43.6559H43.6616H43.6672H43.6729H43.6785H43.6841H43.6898H43.6954H43.701H43.7067H43.7123H43.7179H43.7235H43.7291H43.7347H43.7403H43.7459H43.7515H43.7571H43.7627H43.7683H43.7739H43.7794H43.785H43.7906H43.7962H43.8017H43.8073H43.8128H43.8184H43.8239H43.8294H43.835H43.8405H43.846H43.8515H43.8571H43.8626H43.8681H43.8736H43.8791H43.8846H43.89H43.8955H43.901H43.9065H43.9119H43.9174H43.9229H43.9283H43.9338H43.9392H43.9446H43.9501H43.9555H43.9609H43.9663H43.9717H43.9771H43.9825H43.9879H43.9933H43.9987H44.004H44.0094H44.0148H44.0201H44.0255H44.0308H44.0362H44.0415H44.0468H44.0521H44.0574H44.0627H44.068H44.0733H44.0786H44.0839H44.0892H44.0944H44.0997H44.105H44.1102H44.1155H44.1207H44.1259H44.1311H44.1363H44.1416H44.1468H44.1519H44.1571H44.1623H44.1675H44.1726H44.1778H44.1829H44.1881H44.1932H44.1983H44.2035H44.2086H44.2137H44.2188H44.2239H44.229H44.234H44.2391H44.2442H44.2492H44.2542H44.2593H44.2643H44.2693H44.2743H44.2793H44.2843H44.2893H44.2943H44.2993H44.3042H44.3092H44.3141H44.3191H44.324H44.3289H44.3338H44.3387H44.3436H44.3485H44.3534H44.3582H44.3631H44.3679H44.3728H44.3776H44.3824H44.3873H44.3921H44.3969H44.4016H44.4064H44.4112H44.4159H44.4207H44.4254H44.4302H44.4349H44.4396H44.4443H44.449H44.4537H44.4583H44.463H44.4676H44.4723H44.4769H44.4815H44.4862H44.4908H44.4953H44.4999H44.5045H44.5091H44.5136H44.5182H44.5227H44.5272H44.5317H44.5362H44.5407H44.5452H44.5497H44.5541H44.5586H44.563H44.5674H44.5718H44.5762H44.5806H44.585H44.5894H44.5938H44.5981H44.6024H44.6068H44.6111H44.6154H44.6197H44.624H44.6282H44.6325H44.6367H44.641H44.6452H44.6494H44.6536H44.6578H44.662H44.6661H44.6703H44.6744H44.6786H44.6827H44.6868H44.6909H44.695H44.6991H44.7031H44.7072H44.7112H44.7152H44.7192H44.7232H44.7272H44.7312H44.7351H44.7391H44.743H44.7469H44.7509H44.7547H44.7586H44.7625H44.7664H44.7702H44.774H44.7779H44.7817H44.7855H44.7892H44.793H44.7968H44.8005H44.8042H44.8079H44.8116H44.8153H44.819H44.8227H44.8263H44.83H44.8336H44.8372H44.8408H44.8444H44.8479H44.8515H44.855H44.8585H44.862H44.8655H44.869H44.8725H44.8759H44.8794H44.8828H44.8862H44.8896H44.893H44.8964H44.8997H44.9031H44.9064H44.9097H44.913H44.9163H44.9195H44.9228H44.926H44.9292H44.9324H44.9356H44.9388H44.942H44.9451H44.9483H44.9514H44.9545H44.9576H44.9606H44.9637H44.9667H44.9697H44.9728H44.9758H44.9787H44.9817H44.9846H44.9876H44.9905H44.9934H44.9963H44.9991H45.002H45.0048H45.0077H45.0105H45.0132H47.0762V27.9669C47.0762 27.6907 47.3 27.4669 47.5762 27.4669C47.8523 27.4669 48.0762 27.6907 48.0762 27.9669V31.0932C48.4774 31.1535 48.793 31.2887 49.0296 31.4799C49.3543 31.7424 49.5 32.0897 49.5 32.3867V35.4254C49.5 36.9565 48.7163 37.9349 47.7618 38.5063C47.0277 38.9459 46.1912 39.1492 45.5132 39.2151V39.2353V39.2587V39.2822V39.3057V39.3294V39.3531V39.3769V39.4007V39.4247V39.4487V39.4728V39.4969V39.5211V39.5454V39.5698V39.5942V39.6187V39.6433V39.6679V39.6926V39.7174V39.7422V39.7671V39.7921V39.8171V39.8422V39.8674V39.8926V39.9179V39.9432V39.9686V39.9941V40.0196V40.0452V40.0709V40.0966V40.1224V40.1482V40.1741V40.2V40.226V40.2521V40.2782V40.3044V40.3306V40.3569V40.3833V40.4097V40.4361V40.4626V40.4892V40.5158V40.5424V40.5691V40.5959V40.6227V40.6495V40.6764V40.7034V40.7304V40.7575V40.7846V40.8117V40.8389V40.8661V40.8934V40.9207V40.9481V40.9755V41.003V41.0305V41.058V41.0856V41.1132V41.1409V41.1686V41.1964V41.2241V41.252V41.2798V41.3077V41.3357V41.3636V41.3917V41.4197V41.4478V41.4759V41.5041V41.5322V41.5605V41.5887V41.617V41.6453V41.6737V41.7021V41.7305V41.7589V41.7874V41.8159V41.8444V41.873V41.9016V41.9302V41.9588V41.9875V42.0162V42.0449V42.0736V42.1024V42.1312V42.16V42.1888V42.2177V42.2466V42.2755V42.3044V42.3334V42.3623V42.3913V42.4203V42.4493V42.4784V42.5074V42.5365V42.5656V42.5947V42.6238V42.653V42.6821V42.7113V42.7405V42.7697V42.7989V42.8281V42.8573V42.8866V42.9158V42.9451V42.9743V43.0036V43.0329V43.0622V43.0915V43.1208V43.1502V43.1795V43.2088V43.2382V43.2675V43.2969V43.3262V43.3556V43.3849V43.4143V43.4437V43.473V43.5024V43.5318V43.5611V43.5905V43.6199V43.6493V43.6786V43.708V43.7373V43.7667V43.7961V43.8254V43.8547V43.8841V43.9134V43.9427V43.9721V44.0014V44.0307V44.06V44.0893V44.1186V44.1478V44.1771V44.2063V44.2356V44.2648V44.294V44.3232V44.3524V44.3816V44.4108V44.4399V44.469V44.4982V44.5273V44.5564V44.5854V44.6145V44.6435V44.6725V44.7015V44.7305V44.7595V44.7884V44.8173V44.8462V44.8751V44.9039V44.9328V44.9616V44.9904V45.0191V45.0479V45.0766V45.1053V45.1339V45.1626V45.1912V45.2198V45.2483V45.2768V45.3053V45.3338V45.3622V45.3906V45.419V45.4473V45.4757V45.5039V45.5322V45.5604V45.5886V45.6167V45.6448V45.6729V45.7009V45.7289V45.7569V45.7848V45.8127V45.8406V45.8684V45.8962V45.9239V45.9516V45.9793V46.0069V46.0345V46.062V46.0895V46.1169V46.1443V46.1717V46.199V46.2263V46.2535V46.2807V46.3078V46.3349V46.3619V46.3889V46.4159V46.4428V46.4696V46.4964V46.5231V46.5498V46.5765V46.6031V46.6296V46.6561V46.6825V46.7089V46.7352V46.7615V46.7877V46.8139V46.84V46.866V46.892V46.918V46.9438V46.9697V46.9954V47.0211V47.0468V47.0723V47.0979V47.1233V47.1487V47.174V47.1993V47.2245V47.2497V47.2747V47.2998V47.3247V47.3496V47.3744V47.3992V47.4238V47.4485V47.473V47.4975V47.5219V47.5462V47.5705V47.5947V47.6188V47.6429V47.6669V47.6908V47.7146V47.7384V47.7621V47.7857V47.8093V47.8327V47.8561V47.8795V47.9027V47.9259V47.9489V47.9719V47.9949V48.0177V48.0405V48.0632V48.0858V48.1083V48.1308V48.1531V48.1754V48.1976V48.2197V48.2418V48.2637V48.2856V48.3073V48.329V48.3506V48.3721V48.3936V48.4149V48.4362V48.4573V48.4784V48.4994V48.5203V48.5411V48.5618V48.5824V48.6029V48.6234V48.6437V48.664V48.6841V48.7042V48.7241V48.744V48.7638V48.7835V48.803V48.8225V48.8419V48.8612V48.8804V48.8995V48.9184V48.9373V48.9561V48.9748V48.9934V49.0119V49.0302V49.0485V49.0667V49.0847V49.1027V49.1205V49.1383V49.1559V49.1735V49.1909V49.2082V49.2254V49.2425V49.2595V49.2764V49.2932V49.3098V49.3264V49.3428V49.3591V49.3754V49.3915V49.4075V49.4233V49.4391V49.4547V49.4703V49.4857V49.501V49.5162V49.5312V49.5462V49.561V49.5757V49.5903V49.6047V49.6191V49.6333V49.6474V49.6614V49.6753V49.689V49.7026V49.7161V49.7295V49.7427V49.7558V49.7688V49.7817V49.7944V49.807V49.8195V49.8319V49.8441V49.8562V49.8682V49.88V49.8917V49.9033V49.9147V49.9261V49.9372V49.9483V49.9592V49.97V49.9806V49.9911V50.0015V50.0118V50.0219V50.0318V50.0417V50.0514V50.0609V50.0703V50.0796V50.0887V50.0977V50.1066V50.1153V50.1239V50.1323V50.1406V50.1487V50.1567V50.1646V50.1723V50.1799V50.1873V50.1946V50.2017V50.2087V50.2155V50.2222V50.2287V50.2351V50.2414V50.2475V50.2534V50.2592V50.2648V50.2703V50.2756V50.2808V50.2859V50.2907V50.2954V50.3V50.3044V50.3087V50.3128V50.3167V50.3205V50.3241V50.3276V50.3309V50.334V50.337V50.3399V50.3425C45.5132 50.687 45.4275 51.2149 45.0983 51.671C44.7493 52.1547 44.1669 52.5 43.3046 52.5H43.2962H43.2874H43.2784H43.2691H43.2596H43.2498H43.2397H43.2294H43.2189H43.208H43.1969H43.1856H43.174H43.1621H43.15H43.1377H43.125H43.1122H43.0991H43.0857H43.0721H43.0583H43.0442H43.0299H43.0153H43.0005H42.9854H42.9701H42.9546H42.9388H42.9228H42.9065H42.8901H42.8734H42.8564H42.8392H42.8218H42.8042H42.7864H42.7683H42.75H42.7314H42.7127H42.6937H42.6745H42.6551H42.6354H42.6156H42.5955H42.5752H42.5547H42.534H42.513H42.4919H42.4705H42.449H42.4272H42.4052H42.383H42.3606H42.338H42.3152H42.2922H42.269H42.2456H42.222H42.1982H42.1742H42.15H42.1256H42.101H42.0762H42.0513H42.0261H42.0007H41.9752H41.9495H41.9235H41.8974H41.8712H41.8447H41.818H41.7912H41.7642H41.737H41.7096H41.682H41.6543H41.6264H41.5983H41.5701H41.5417H41.5131H41.4843H41.4554H41.4263H41.397H41.3675H41.3379H41.3082H41.2783H41.2482H41.2179H41.1875H41.1569H41.1262H41.0953H41.0643H41.0331H41.0017H40.9702H40.9386H40.9068H40.8748H40.8427H40.8105H40.7781H40.7456H40.7129H40.6801H40.6471H40.614H40.5808H40.5474H40.5138H40.4802H40.4464H40.4125H40.3784H40.3442H40.3099H40.2754H40.2408H40.2061H40.1713H40.1363H40.1012H40.066H40.0306H39.9952H39.9596H39.9239H39.8881H39.8521H39.8161H39.7799H39.7436H39.7072H39.6707H39.634H39.5973H39.5605H39.5235H39.4864H39.4493H39.412H39.3746H39.3371H39.2995H39.2618H39.2241H39.1862H39.1482H39.1101H39.0719H39.0336H38.9953H38.9568H38.9183H38.8796H38.8409H38.8021H38.7632H38.7242H38.6851H38.6459H38.6067H38.5673H38.5279H38.4884H38.4489H38.4092H38.3695H38.3297H38.2898H38.2498H38.2098H38.1697H38.1295H38.0893H38.049H38.0086H37.9682H37.9277H37.8871H37.8465H37.8057H37.765H37.7242H37.6833H37.6423H37.6013H37.5603H37.5192H37.478H37.4368H37.3955H37.3542H37.3128H37.2714H37.2299H37.1884H37.1469H37.1053H37.0636H37.0219H36.9802H36.9384H36.8966H36.8548H36.8129H36.7709H36.729H36.687H36.6449H36.6029H36.5608H36.5187H36.4765H36.4343H36.3921H36.3499H36.3076H36.2653H36.223H36.1807H36.1384H36.096H36.0536H36.0112H35.9688H35.9263H35.8839H35.8414H35.7989H35.7564H35.7139H35.6714H35.6289H35.5864H35.5438H35.5013H35.4588H35.4162H35.3737H35.3311H35.2886H35.246H35.2035H35.1609H35.1184H35.0759H35.0333H34.9908H34.9483H34.9058H34.8633H34.8208H34.7784H34.7359H34.6935H34.6511H34.6087H34.5663H34.5239H34.4816H34.4392H34.3969H34.3546H34.3124H34.2701H34.2279H34.1857H34.1436H34.1015H34.0594H34.0173H33.9753H33.9333H33.8913H33.8494H33.8075H33.7656H33.7238H33.6821H33.6403H33.5986H33.557H33.5154H33.4738H33.4323H33.3908H33.3494H33.308H33.2667H33.2255H33.1842H33.1431H33.102H33.0609H33.0199H32.979H32.9381H32.8973H32.8565H32.8158H32.7752H32.7346H32.6941H32.6536H32.6133H32.573H32.5327H32.4925H32.4524H32.4124H32.3725H32.3326H32.2928H32.253H32.2134H32.1738H32.1343H32.0949H32.0556H32.0163H31.9772H31.9381H31.8991H31.8602H31.8214H31.7826H31.744H31.7054H31.667H31.6286H31.5903H31.5522H31.5141H31.4761H31.4382H31.4004H31.3627H31.3251H31.2876H31.2503H31.213H31.1758H31.1388H31.1018H31.0649H31.0282H30.9916H30.9551H30.9187H30.8824H30.8462H30.8101H30.7742H30.7384H30.7027H30.6671H30.6316H30.5963H30.5611H30.526H30.491H30.4561H30.4214H30.3868H30.3524H30.3181H30.2839H30.2498H30.2159H30.1821H30.1484H30.1149H30.0815H30.0483H30.0151H29.9822H29.9494H29.9167H29.8841H29.8518H29.8195H29.7874H29.7555H29.7237H29.692H29.6605H29.6292H29.598H29.5669H29.536H29.5053H29.4748H29.4443H29.4141H29.384H29.3541H29.3243H29.2947H29.2653H29.236H29.2069H29.178H29.1492H29.1206H29.0922H29.0639H29.0358H29.0079H28.9802H28.9527H28.9253H28.8981H28.8711H28.8442H28.8176H28.7911H28.7648H28.7387H28.7128H28.6871H28.6615H28.6362H28.611H28.586H28.5612H28.5367H28.5123H28.4881H28.4641H28.4403H28.4166H28.3932H28.37H28.347H28.3242H28.3016H28.2792H28.257H28.2351H28.2133H28.1917H28.1704H28.1492H28.1283H28.1076H28.087H28.0668H28.0467H28.0268H28.0072H27.9878H27.9686H27.9496H27.9308H27.9123H27.894H27.8759H27.858H27.8404H27.823H27.8058H27.7889H27.7722H27.7557H27.7395H27.7235H27.7077H27.6922H27.6769H27.6618H27.647H27.6324H27.6181H27.604H27.5901H27.5765H27.5632H27.5501H27.5372H27.5246H27.5122H27.5001H27.4883H27.4767H27.4653H27.4542H27.4434H27.4328H27.4225H27.4124H27.4026H27.3931H27.3838H27.3748H27.3661H27.3576C26.5974 52.5 25.9541 52.3555 25.5005 51.9643C25.0297 51.5583 24.8642 50.9771 24.8642 50.3425V50.3373V50.3321V50.3269V50.3217V50.3164V50.3111V50.3058V50.3005V50.2952V50.2898V50.2845V50.2791V50.2737V50.2683V50.2628V50.2574V50.2519V50.2464V50.2409V50.2354V50.2298V50.2243V50.2187V50.2131V50.2075V50.2019V50.1962V50.1906V50.1849V50.1792V50.1735V50.1678V50.162V50.1563V50.1505V50.1447V50.1389V50.1331V50.1273V50.1214V50.1156V50.1097V50.1038V50.0979V50.092V50.086V50.0801V50.0741V50.0681V50.0621V50.0561V50.0501V50.044V50.038V50.0319V50.0258V50.0197V50.0136V50.0075V50.0014V49.9952V49.989V49.9829V49.9767V49.9705V49.9642V49.958V49.9518V49.9455V49.9392V49.9329V49.9266V49.9203V49.914V49.9077V49.9013V49.895V49.8886V49.8822V49.8758V49.8694V49.863V49.8565V49.8501V49.8436V49.8371V49.8307V49.8242V49.8177V49.8111V49.8046V49.7981V49.7915V49.785V49.7784V49.7718V49.7652V49.7586V49.752V49.7454V49.7387V49.7321V49.7254V49.7187V49.7121V49.7054V49.6987V49.692V49.6852V49.6785V49.6718V49.665V49.6583V49.6515V49.6447V49.6379V49.6311V49.6243V49.6175V49.6107V49.6039V49.597V49.5902V49.5833V49.5764V49.5696V49.5627V49.5558V49.5489V49.542V49.535V49.5281V49.5212V49.5142V49.5073V49.5003V49.4934V49.4864V49.4794V49.4724V49.4654V49.4584V49.4514V49.4444V49.4374V49.4303V49.4233V49.4162V49.4092V49.4021V49.3951V49.388V49.3809V49.3738V49.3667V49.3596V49.3525V49.3454V49.3383V49.3312V49.324V49.3169V49.3098V49.3026V49.2955V49.2883V49.2811V49.274V49.2668V49.2596V49.2524V49.2453V49.2381V49.2309V49.2237V49.2165V49.2092V49.202V49.1948V49.1876V49.1803V49.1731V49.1659V49.1586V49.1514V49.1441V49.1369V49.1296V49.1224V49.1151V49.1078V49.1006V49.0933V49.086V49.0787V49.0714V49.0642V49.0569V49.0496V49.0423V49.035V49.0277V49.0204V49.0131V49.0057V48.9984V48.9911V48.9838V48.9765V48.9692V48.9618V48.9545V48.9472V48.9399V48.9325V48.9252V48.9179V48.9105V48.9032V48.8959V48.8885V48.8812V48.8739V48.8665V48.8592V48.8518V48.8445V48.8372V48.8298V48.8225V48.8151V48.8078V48.8004V48.7931V48.7858V48.7784V48.7711V48.7637V48.7564V48.749V48.7417V48.7343V48.727V48.7197V48.7123V48.705V48.6976V48.6903V48.683V48.6756V48.6683V48.661V48.6536V48.6463V48.639V48.6317V48.6243V48.617V48.6097V48.6024V48.5951V48.5877V48.5804V48.5731V48.5658V48.5585V48.5512V48.5439V48.5366V48.5293V48.522V48.5147V48.5074V48.5001V48.4929V48.4856V48.4783V48.471V48.4638V48.4565V48.4492V48.442V48.4347V48.4275V48.4202V48.413V48.4058V48.3985V48.3913V48.3841V48.3769V48.3696V48.3624V48.3552V48.348V48.3408V48.3336V48.3265V48.3193V48.3121V48.3049V48.2978V48.2906V48.2834V48.2763V48.2691V48.262V48.2549V48.2477V48.2406V48.2335V48.2264V48.2193V48.2122V48.2051V48.198V48.1909V48.1839V48.1768V48.1697V48.1627V48.1556V48.1486V48.1416V48.1345V48.1275V48.1205V48.1135V48.1065V48.0995V48.0926V48.0856V48.0786V48.0717V48.0647V48.0578V48.0508V48.0439V48.037V48.0301V48.0232V48.0163V48.0094V48.0025V47.9957V47.9888V47.982V47.9751V47.9683V47.9615V47.9547V47.9479V47.9411V47.9343V47.9275V47.9207V47.914V47.9072V47.9005V47.8938V47.887V47.8803V47.8736V47.867V47.8603V47.8536V47.847V47.8403V47.8337V47.827V47.8204V47.8138V47.8072V47.8007V47.7941V47.7875V47.781V47.7744V47.7679V47.7614V47.7549V47.7484V47.7419V47.7355V47.729V47.7226V47.7161V47.7097V47.7033V47.6969V47.6905V47.6842V47.6778V47.6714V47.6651V47.6588V47.6525V47.6462V47.6399V47.6336V47.6274V47.6211V47.6149V47.6087V47.6025V47.5963V47.5901V47.584V47.5778V47.5717V47.5655V47.5594V47.5533V47.5473V47.5412V47.5351V47.5325H24.8632H24.8597H24.8561H24.8526H24.849H24.8454H24.8419H24.8383H24.8347H24.8311H24.8275H24.824H24.8204H24.8168H24.8132H24.8095H24.8059H24.8023H24.7987H24.7951H24.7914H24.7878H24.7842H24.7805H24.7769H24.7733H24.7696H24.766H24.7623H24.7586H24.755H24.7513H24.7477H24.744H24.7403H24.7366H24.733H24.7293H24.7256H24.7219H24.7182H24.7145H24.7108H24.7071H24.7034H24.6997H24.696H24.6923H24.6886H24.6848H24.6811H24.6774H24.6737H24.67H24.6662H24.6625H24.6588H24.655H24.6513H24.6476H24.6438H24.6401H24.6363H24.6326H24.6288H24.6251H24.6213H24.6176H24.6138H24.6101H24.6063H24.6025H24.5988H24.595H24.5913H24.5875H24.5837H24.58H24.5762H24.5724H24.5686H24.5649H24.5611H24.5573H24.5535H24.5498H24.546H24.5422H24.5384H24.5346H24.5308H24.5271H24.5233H24.5195H24.5157H24.5119H24.5081H24.5043H24.5006H24.4968H24.493H24.4892H24.4854H24.4816H24.4778H24.474H24.4702H24.4664H24.4627H24.4589H24.4551H24.4513H24.4475H24.4437H24.4399H24.4361H24.4323H24.4285H24.4247H24.421H24.4172H24.4134H24.4096H24.4058H24.402H24.3982H24.3944H24.3907H24.3869H24.3831H24.3793H24.3755H24.3717H24.368H24.3642H24.3604H24.3566H24.3528H24.3491H24.3453H24.3415H24.3378H24.334H24.3302H24.3264H24.3227H24.3189H24.3152H24.3114H24.3076H24.3039H24.3001H24.2964H24.2926H24.2889H24.2851H24.2814H24.2776H24.2739H24.2701H24.2664H24.2626H24.2589H24.2552H24.2514H24.2477H24.244H24.2403H24.2365H24.2328H24.2291H24.2254H24.2217H24.218H24.2143H24.2106H24.2069H24.2031H24.1995H24.1958H24.1921H24.1884H24.1847H24.181H24.1773H24.1737H24.17H24.1663H24.1626H24.159H24.1553H24.1517H24.148H24.1444H24.1407H24.1371H24.1334H24.1298H24.1262H24.1225H24.1189H24.1153H24.1117H24.1081H24.1044H24.1008H24.0972H24.0936H24.09H24.0864H24.0829H24.0793H24.0757H24.0721H24.0686H24.065H24.0614H24.0579H24.0543H24.0508H24.0472H24.0437H24.0401H24.0366H24.0331H24.0296H24.0261H24.0225H24.019H24.0155H24.012H24.0085H24.0051H24.0016H23.9981H23.9946H23.9912H23.9877H23.9842H23.9808H23.9773H23.9739H23.9705H23.967H23.9636H23.9602H23.9568H23.9534H23.95H23.9466H23.9432H23.9398H23.9364H23.933H23.9297H23.9263H23.923H23.9196H23.9163H23.9129H23.9096H23.9063H23.9029H23.8996H23.8963H23.893H23.8897H23.8864H23.8832H23.8799H23.8766H23.8733H23.8701H23.8668H23.8636H23.8604H23.8571H23.8539H23.8507H23.8475H23.8443H23.8411H23.8379H23.8347H23.8316H23.8284H23.8252H23.8221H23.8189H23.8158H23.8127H23.8095H23.8064H23.8033H23.8002H23.7971H23.794H23.791H23.7879H23.7848H23.7818H23.7787H23.7757H23.7727H23.7696H23.7666H23.7636H23.7606H23.7576H23.7546H23.7517H23.7487H23.7457H23.7428H23.7398H23.7369H23.734H23.7311H23.7282H23.7253H23.7224H23.7195H23.7166H23.7137H23.7109H23.708H23.7052H23.7024H23.6995H23.6967H23.6939H23.6911H23.6883H23.6856H23.6828H23.68H23.6773H23.6745H23.6718H23.6691H23.6664H23.6637H23.661H23.6583H23.6556C23.2962 47.5325 22.9125 47.4443 22.6128 47.1822C22.3014 46.9098 22.1554 46.5158 22.1554 46.0622V44.7652H22.1542H22.1529H22.1515H22.1502H22.1489H22.1476H22.1463H22.1449H22.1436H22.1423H22.141H22.1397H22.1383H22.137H22.1357H22.1344H22.1331H22.1318H22.1305H22.1292H22.1279H22.1265H22.1252H22.1239H22.1226H22.1213H22.12H22.1187H22.1174H22.1161H22.1148H22.1135H22.1122H22.1109H22.1096H22.1083H22.107H22.1057H22.1044H22.1031H22.1018H22.1005H22.0993H22.098H22.0967H22.0954H22.0941H22.0928H22.0915H22.0902H22.089H22.0877H22.0864H22.0851H22.0838H22.0825H22.0813H22.08H22.0787H22.0774H22.0762H22.0749H22.0736H22.0723H22.0711H22.0698H22.0685H22.0672H22.066H22.0647H22.0634H22.0622H22.0609H22.0596H22.0584H22.0571H22.0558H22.0546H22.0533H22.0521H22.0508H22.0495H22.0483H22.047H22.0458H22.0445H22.0433H22.042H22.0408H22.0395H22.0383H22.037H22.0358H22.0345H22.0333H22.032H22.0308H22.0295H22.0283H22.027H22.0258H22.0246H22.0233H22.0221H22.0208H22.0196H22.0184H22.0171H22.0159H22.0147H22.0134H22.0122H22.011H22.0097H22.0085H22.0073H22.0061H22.0048H22.0036H22.0024H22.0012H21.9999H21.9987H21.9975H21.9963H21.9951H21.9938H21.9926H21.9914H21.9902H21.989H21.9878H21.9865H21.9853H21.9841H21.9829H21.9817H21.9805H21.9793H21.9781H21.9769H21.9757H21.9745H21.9733H21.9721H21.9709H21.9697H21.9685H21.9673H21.9661H21.9649H21.9637H21.9625H21.9613H21.9601H21.9589H21.9577H21.9565H21.9553H21.9541H21.9529H21.9518H21.9506H21.9494H21.9482H21.947C21.3347 44.7652 20.9004 44.5074 20.6343 44.1488C20.3864 43.8149 20.3079 43.4275 20.3079 43.1602V41.779V39.2928C20.3079 36.7628 18.6699 35.1503 16.7474 33.2577C16.6555 33.1672 16.563 33.0761 16.4699 32.9842C14.4721 31.0117 12.3344 28.7417 12.3344 24.9282C12.3344 21.9763 12.9117 18.5416 14.8482 15.8322ZM23.1554 44.7652V46.0622C23.1554 46.2978 23.2248 46.3889 23.2711 46.4294C23.3291 46.4801 23.4455 46.5325 23.6556 46.5325H23.6583H23.661H23.6637H23.6664H23.6691H23.6718H23.6745H23.6773H23.68H23.6828H23.6856H23.6883H23.6911H23.6939H23.6967H23.6995H23.7024H23.7052H23.708H23.7109H23.7137H23.7166H23.7195H23.7224H23.7253H23.7282H23.7311H23.734H23.7369H23.7398H23.7428H23.7457H23.7487H23.7517H23.7546H23.7576H23.7606H23.7636H23.7666H23.7696H23.7727H23.7757H23.7787H23.7818H23.7848H23.7879H23.791H23.794H23.7971H23.8002H23.8033H23.8064H23.8095H23.8127H23.8158H23.8189H23.8221H23.8252H23.8284H23.8316H23.8347H23.8379H23.8411H23.8443H23.8475H23.8507H23.8539H23.8571H23.8604H23.8636H23.8668H23.8701H23.8733H23.8766H23.8799H23.8832H23.8864H23.8897H23.893H23.8963H23.8996H23.9029H23.9063H23.9096H23.9129H23.9163H23.9196H23.923H23.9263H23.9297H23.933H23.9364H23.9398H23.9432H23.9466H23.95H23.9534H23.9568H23.9602H23.9636H23.967H23.9705H23.9739H23.9773H23.9808H23.9842H23.9877H23.9912H23.9946H23.9981H24.0016H24.0051H24.0085H24.012H24.0155H24.019H24.0225H24.0261H24.0296H24.0331H24.0366H24.0401H24.0437H24.0472H24.0508H24.0543H24.0579H24.0614H24.065H24.0686H24.0721H24.0757H24.0793H24.0829H24.0864H24.09H24.0936H24.0972H24.1008H24.1044H24.1081H24.1117H24.1153H24.1189H24.1225H24.1262H24.1298H24.1334H24.1371H24.1407H24.1444H24.148H24.1517H24.1553H24.159H24.1626H24.1663H24.17H24.1737H24.1773H24.181H24.1847H24.1884H24.1921H24.1958H24.1995H24.2031H24.2069H24.2106H24.2143H24.218H24.2217H24.2254H24.2291H24.2328H24.2365H24.2403H24.244H24.2477H24.2514H24.2552H24.2589H24.2626H24.2664H24.2701H24.2739H24.2776H24.2814H24.2851H24.2889H24.2926H24.2964H24.3001H24.3039H24.3076H24.3114H24.3152H24.3189H24.3227H24.3264H24.3302H24.334H24.3378H24.3415H24.3453H24.3491H24.3528H24.3566H24.3604H24.3642H24.368H24.3717H24.3755H24.3793H24.3831H24.3869H24.3907H24.3944H24.3982H24.402H24.4058H24.4096H24.4134H24.4172H24.421H24.4247H24.4285H24.4323H24.4361H24.4399H24.4437H24.4475H24.4513H24.4551H24.4589H24.4627H24.4664H24.4702H24.474H24.4778H24.4816H24.4854H24.4892H24.493H24.4968H24.5006H24.5043H24.5081H24.5119H24.5157H24.5195H24.5233H24.5271H24.5308H24.5346H24.5384H24.5422H24.546H24.5498H24.5535H24.5573H24.5611H24.5649H24.5686H24.5724H24.5762H24.58H24.5837H24.5875H24.5913H24.595H24.5988H24.6025H24.6063H24.6101H24.6138H24.6176H24.6213H24.6251H24.6288H24.6326H24.6363H24.6401H24.6438H24.6476H24.6513H24.655H24.6588H24.6625H24.6662H24.67H24.6737H24.6774H24.6811H24.6848H24.6886H24.6923H24.696H24.6997H24.7034H24.7071H24.7108H24.7145H24.7182H24.7219H24.7256H24.7293H24.733H24.7366H24.7403H24.744H24.7477H24.7513H24.755H24.7586H24.7623H24.766H24.7696H24.7733H24.7769H24.7805H24.7842H24.7878H24.7914H24.7951H24.7987H24.8023H24.8059H24.8095H24.8132H24.8168H24.8204H24.824H24.8275H24.8311H24.8347H24.8383H24.8419H24.8454H24.849H24.8526H24.8561H24.8597H24.8632H24.8668H24.8703H24.8739H24.8774H24.8809H24.8844H24.888H24.8915H24.895H24.8985H24.902H24.9055H24.909H24.9125H24.9159H24.9194H24.9229H24.9263H24.9298H24.9333H24.9367H24.9401H24.9436H24.947H24.9504H24.9539H24.9573H24.9607H24.9641H24.9675H24.9709H24.9743H24.9777H24.981H24.9844H24.9878H24.9911H24.9945H24.9978H25.0012H25.0045H25.0078H25.0111H25.0145H25.0178H25.0211H25.0244H25.0277H25.0309H25.0342H25.0375H25.0408H25.044H25.0473H25.0505H25.0537H25.057H25.0602H25.0634H25.0666H25.0698H25.073H25.0762H25.0794H25.0826H25.0858H25.0889H25.0921H25.0952H25.0984H25.1015H25.1046H25.1077H25.1108H25.1139H25.117H25.1201H25.1232H25.1263H25.1293H25.1324H25.1355H25.1385H25.1415H25.1446H25.1476H25.1506H25.1536H25.1566H25.1596H25.1625H25.1655H25.1685H25.1714H25.1744H25.1773H25.1802H25.1832H25.1861H25.189H25.1919H25.1948H25.1976H25.2005H25.2034H25.2062H25.2091H25.2119H25.2147H25.2175H25.2203H25.2231H25.2259H25.2287H25.2315H25.2342H25.237H25.2397H25.2425H25.2452H25.2479H25.2506H25.2533H25.256H25.2587H25.2613H25.264H25.2666H25.2693H25.2719H25.2745H25.2771H25.2797H25.2823H25.2849H25.2875H25.29H25.2926H25.2951H25.2977H25.3002H25.3027H25.3052H25.3077H25.3102H25.3126H25.3151H25.3175H25.32H25.3224H25.3248H25.3272H25.3296H25.332H25.3344H25.3367H25.3391H25.3414H25.3438H25.3461H25.3484H25.3507H25.353H25.3553H25.3575H25.3598H25.362H25.3642H27.0728C27.283 46.5325 27.3994 46.4801 27.4574 46.4294C27.5037 46.3889 27.5731 46.2978 27.5731 46.0622V44.7652H25.3642H25.3608H25.3573H25.3538H25.3503H25.3467H25.3432H25.3397H25.3361H25.3325H25.3289H25.3253H25.3217H25.3181H25.3144H25.3108H25.3071H25.3034H25.2997H25.296H25.2923H25.2885H25.2848H25.281H25.2772H25.2735H25.2697H25.2658H25.262H25.2582H25.2543H25.2505H25.2466H25.2427H25.2388H25.2349H25.2309H25.227H25.2231H25.2191H25.2151H25.2111H25.2071H25.2031H25.1991H25.1951H25.191H25.187H25.1829H25.1788H25.1747H25.1706H25.1665H25.1623H25.1582H25.1541H25.1499H25.1457H25.1415H25.1373H25.1331H25.1289H25.1247H25.1204H25.1162H25.1119H25.1076H25.1033H25.099H25.0947H25.0904H25.086H25.0817H25.0773H25.073H25.0686H25.0642H25.0598H25.0554H25.051H25.0465H25.0421H25.0377H25.0332H25.0287H25.0242H25.0197H25.0152H25.0107H25.0062H25.0017H24.9971H24.9925H24.988H24.9834H24.9788H24.9742H24.9696H24.965H24.9604H24.9557H24.9511H24.9464H24.9418H24.9371H24.9324H24.9277H24.923H24.9183H24.9136H24.9088H24.9041H24.8993H24.8946H24.8898H24.885H24.8802H24.8754H24.8706H24.8658H24.861H24.8561H24.8513H24.8464H24.8416H24.8367H24.8318H24.8269H24.822H24.8171H24.8122H24.8073H24.8024H24.7974H24.7925H24.7875H24.7825H24.7776H24.7726H24.7676H24.7626H24.7576H24.7526H24.7475H24.7425H24.7375H24.7324H24.7274H24.7223H24.7172H24.7121H24.707H24.7019H24.6968H24.6917H24.6866H24.6815H24.6763H24.6712H24.666H24.6609H24.6557H24.6505H24.6454H24.6402H24.635H24.6298H24.6246H24.6193H24.6141H24.6089H24.6036H24.5984H24.5931H24.5879H24.5826H24.5773H24.572H24.5668H24.5615H24.5562H24.5508H24.5455H24.5402H24.5349H24.5295H24.5242H24.5188H24.5135H24.5081H24.5028H24.4974H24.492H24.4866H24.4812H24.4758H24.4704H24.465H24.4596H24.4541H24.4487H24.4433H24.4378H24.4324H24.4269H24.4215H24.416H24.4105H24.405H24.3996H24.3941H24.3886H24.3831H24.3776H24.3721H24.3665H24.361H24.3555H24.35H24.3444H24.3389H24.3333H24.3278H24.3222H24.3166H24.3111H24.3055H24.2999H24.2943H24.2887H24.2831H24.2775H24.2719H24.2663H24.2607H24.2551H24.2495H24.2438H24.2382H24.2326H24.2269H24.2213H24.2156H24.21H24.2043H24.1987H24.193H24.1873H24.1816H24.176H24.1703H24.1646H24.1589H24.1532H24.1475H24.1418H24.1361H24.1304H24.1247H24.1189H24.1132H24.1075H24.1017H24.096H24.0903H24.0845H24.0788H24.073H24.0673H24.0615H24.0558H24.05H24.0442H24.0385H24.0327H24.0269H24.0211H24.0154H24.0096H24.0038H23.998H23.9922H23.9864H23.9806H23.9748H23.969H23.9632H23.9574H23.9516H23.9458H23.9399H23.9341H23.9283H23.9225H23.9166H23.9108H23.905H23.8991H23.8933H23.8875H23.8816H23.8758H23.8699H23.8641H23.8582H23.8524H23.8465H23.8407H23.8348H23.829H23.8231H23.8172H23.8114H23.8055H23.7996H23.7938H23.7879H23.782H23.7761H23.7703H23.7644H23.7585H23.7526H23.7467H23.7409H23.735H23.7291H23.7232H23.7173H23.7114H23.7055H23.6996H23.6938H23.6879H23.682H23.6761H23.6702H23.6643H23.6584H23.6525H23.6466H23.6407H23.6348H23.6289H23.623H23.6171H23.6112H23.6053H23.5994H23.5935H23.5876H23.5817H23.5758H23.5699H23.564H23.5581H23.5522H23.5463H23.5403H23.5344H23.5285H23.5226H23.5167H23.5108H23.5049H23.499H23.4931H23.4872H23.4813H23.4754H23.4695H23.4636H23.4577H23.4518H23.4459H23.44H23.4341H23.4282H23.4223H23.4164H23.4106H23.4047H23.3988H23.3929H23.387H23.3811H23.3752H23.3693H23.3634H23.3576H23.3517H23.3458H23.3399H23.334H23.3282H23.3223H23.3164H23.3105H23.3047H23.2988H23.2929H23.2871H23.2812H23.2753H23.2695H23.2636H23.2578H23.2519H23.2461H23.2402H23.2344H23.2285H23.2227H23.2168H23.211H23.2051H23.1993H23.1935H23.1876H23.1818H23.176H23.1702H23.1643H23.1585H23.1554ZM25.3642 43.7652H28.0731H28.7815C29.0804 43.7652 29.2156 43.6547 29.2912 43.5528C29.3851 43.4264 29.4205 43.2612 29.4205 43.1602V42.279H25.3642H21.3079V43.1602C21.3079 43.2612 21.3434 43.4264 21.4373 43.5528C21.5128 43.6547 21.648 43.7652 21.947 43.7652H21.9482H21.9494H21.9506H21.9518H21.9529H21.9541H21.9553H21.9565H21.9577H21.9589H21.9601H21.9613H21.9625H21.9637H21.9649H21.9661H21.9673H21.9685H21.9697H21.9709H21.9721H21.9733H21.9745H21.9757H21.9769H21.9781H21.9793H21.9805H21.9817H21.9829H21.9841H21.9853H21.9865H21.9878H21.989H21.9902H21.9914H21.9926H21.9938H21.9951H21.9963H21.9975H21.9987H21.9999H22.0012H22.0024H22.0036H22.0048H22.0061H22.0073H22.0085H22.0097H22.011H22.0122H22.0134H22.0147H22.0159H22.0171H22.0184H22.0196H22.0208H22.0221H22.0233H22.0246H22.0258H22.027H22.0283H22.0295H22.0308H22.032H22.0333H22.0345H22.0358H22.037H22.0383H22.0395H22.0408H22.042H22.0433H22.0445H22.0458H22.047H22.0483H22.0495H22.0508H22.0521H22.0533H22.0546H22.0558H22.0571H22.0584H22.0596H22.0609H22.0622H22.0634H22.0647H22.066H22.0672H22.0685H22.0698H22.0711H22.0723H22.0736H22.0749H22.0762H22.0774H22.0787H22.08H22.0813H22.0825H22.0838H22.0851H22.0864H22.0877H22.089H22.0902H22.0915H22.0928H22.0941H22.0954H22.0967H22.098H22.0993H22.1005H22.1018H22.1031H22.1044H22.1057H22.107H22.1083H22.1096H22.1109H22.1122H22.1135H22.1148H22.1161H22.1174H22.1187H22.12H22.1213H22.1226H22.1239H22.1252H22.1265H22.1279H22.1292H22.1305H22.1318H22.1331H22.1344H22.1357H22.137H22.1383H22.1397H22.141H22.1423H22.1436H22.1449H22.1463H22.1476H22.1489H22.1502H22.1515H22.1529H22.1542H22.1555H22.1568H22.1582H22.1595H22.1608H22.1622H22.1635H22.1648H22.1661H22.1675H22.1688H22.1701H22.1715H22.1728H22.1742H22.1755H22.1768H22.1782H22.1795H22.1808H22.1822H22.1835H22.1849H22.1862H22.1876H22.1889H22.1902H22.1916H22.1929H22.1943H22.1956H22.197H22.1983H22.1997H22.201H22.2024H22.2037H22.2051H22.2065H22.2078H22.2092H22.2105H22.2119H22.2132H22.2146H22.216H22.2173H22.2187H22.22H22.2214H22.2228H22.2241H22.2255H22.2269H22.2282H22.2296H22.231H22.2323H22.2337H22.2351H22.2364H22.2378H22.2392H22.2406H22.2419H22.2433H22.2447H22.2461H22.2474H22.2488H22.2502H22.2516H22.253H22.2543H22.2557H22.2571H22.2585H22.2599H22.2612H22.2626H22.264H22.2654H22.2668H22.2682H22.2696H22.271H22.2724H22.2737H22.2751H22.2765H22.2779H22.2793H22.2807H22.2821H22.2835H22.2849H22.2863H22.2877H22.2891H22.2905H22.2919H22.2933H22.2947H22.2961H22.2975H22.2989H22.3003H22.3017H22.3031H22.3045H22.3059H22.3073H22.3087H22.3101H22.3116H22.313H22.3144H22.3158H22.3172H22.3186H22.32H22.3214H22.3229H22.3243H22.3257H22.3271H22.3285H22.3299H22.3314H22.3328H22.3342H22.3356H22.337H22.3385H22.3399H22.3413H22.3427H22.3442H22.3456H22.347H22.3484H22.3499H22.3513H22.3527H22.3542H22.3556H22.357H22.3585H22.3599H22.3613H22.3628H22.3642H22.3656H22.3671H22.3685H22.3699H22.3714H22.3728H22.3743H22.3757H22.3771H22.3786H22.38H22.3815H22.3829H22.3843H22.3858H22.3872H22.3887H22.3901H22.3916H22.393H22.3945H22.3959H22.3974H22.3988H22.4003H22.4017H22.4032H22.4046H22.4061H22.4075H22.409H22.4104H22.4119H22.4134H22.4148H22.4163H22.4177H22.4192H22.4206H22.4221H22.4236H22.425H22.4265H22.428H22.4294H22.4309H22.4323H22.4338H22.4353H22.4367H22.4382H22.4397H22.4411H22.4426H22.4441H22.4456H22.447H22.4485H22.45H22.4514H22.4529H22.4544H22.4559H22.4573H22.4588H22.4603H22.4618H22.4632H22.4647H22.4662H22.4677H22.4692H22.4706H22.4721H22.4736H22.4751H22.4766H22.478H22.4795H22.481H22.4825H22.484H22.4855H22.487H22.4884H22.4899H22.4914H22.4929H22.4944H22.4959H22.4974H22.4989H22.5004H22.5019H22.5034H22.5048H22.5063H22.5078H22.5093H22.5108H22.5123H22.5138H22.5153H22.5168H22.5183H22.5198H22.5213H22.5228H22.5243H22.5258H22.5273H22.5288H22.5303H22.5318H22.5333H22.5348H22.5363H22.5378H22.5394H22.5409H22.5424H22.5439H22.5454H22.5469H22.5484H22.5499H22.5514H22.5529H22.5545H22.556H22.5575H22.559H22.5605H22.562H22.5635H22.5651H22.5666H22.5681H22.5696H22.5711H22.5726H22.5742H22.5757H22.5772H22.5787H22.5802H22.5818H22.5833H22.5848H22.5863H22.5879H22.5894H22.5909H22.5924H22.594H22.5955H22.597H22.5985H22.6001H22.6016H22.6031H22.6047H22.6062H22.6077H22.6092H22.6108H22.6123H22.6138H22.6154H22.6169H22.6184H22.62H22.6215H22.623H22.6246H22.6261H22.6277H22.6292H22.6307H22.6323H22.6338H22.6353H22.6369H22.6384H22.64H22.6415H22.6431H22.6446H22.6461H22.6477H22.6492H22.6508H22.6523H22.6539H22.6554H22.6608H22.6663H22.6717H22.6772H22.6827H22.6881H22.6936H22.6991H22.7046H22.7101H22.7156H22.7211H22.7266H22.7321H22.7376H22.7431H22.7487H22.7542H22.7597H22.7653H22.7708H22.7764H22.782H22.7875H22.7931H22.7987H22.8043H22.8099H22.8154H22.821H22.8266H22.8323H22.8379H22.8435H22.8491H22.8547H22.8604H22.866H22.8716H22.8773H22.8829H22.8886H22.8942H22.8999H22.9056H22.9112H22.9169H22.9226H22.9283H22.9339H22.9396H22.9453H22.951H22.9567H22.9624H22.9682H22.9739H22.9796H22.9853H22.991H22.9968H23.0025H23.0082H23.014H23.0197H23.0255H23.0312H23.037H23.0427H23.0485H23.0542H23.06H23.0658H23.0716H23.0773H23.0831H23.0889H23.0947H23.1005H23.1063H23.1121H23.1179H23.1237H23.1295H23.1353H23.1411H23.1469H23.1527H23.1585H23.1643H23.1702H23.176H23.1818H23.1876H23.1935H23.1993H23.2051H23.211H23.2168H23.2227H23.2285H23.2344H23.2402H23.2461H23.2519H23.2578H23.2636H23.2695H23.2753H23.2812H23.2871H23.2929H23.2988H23.3047H23.3105H23.3164H23.3223H23.3282H23.334H23.3399H23.3458H23.3517H23.3576H23.3634H23.3693H23.3752H23.3811H23.387H23.3929H23.3988H23.4047H23.4106H23.4164H23.4223H23.4282H23.4341H23.44H23.4459H23.4518H23.4577H23.4636H23.4695H23.4754H23.4813H23.4872H23.4931H23.499H23.5049H23.5108H23.5167H23.5226H23.5285H23.5344H23.5403H23.5463H23.5522H23.5581H23.564H23.5699H23.5758H23.5817H23.5876H23.5935H23.5994H23.6053H23.6112H23.6171H23.623H23.6289H23.6348H23.6407H23.6466H23.6525H23.6584H23.6643H23.6702H23.6761H23.682H23.6879H23.6938H23.6996H23.7055H23.7114H23.7173H23.7232H23.7291H23.735H23.7409H23.7467H23.7526H23.7585H23.7644H23.7703H23.7761H23.782H23.7879H23.7938H23.7996H23.8055H23.8114H23.8172H23.8231H23.829H23.8348H23.8407H23.8465H23.8524H23.8582H23.8641H23.8699H23.8758H23.8816H23.8875H23.8933H23.8991H23.905H23.9108H23.9166H23.9225H23.9283H23.9341H23.9399H23.9458H23.9516H23.9574H23.9632H23.969H23.9748H23.9806H23.9864H23.9922H23.998H24.0038H24.0096H24.0154H24.0211H24.0269H24.0327H24.0385H24.0442H24.05H24.0558H24.0615H24.0673H24.073H24.0788H24.0845H24.0903H24.096H24.1017H24.1075H24.1132H24.1189H24.1247H24.1304H24.1361H24.1418H24.1475H24.1532H24.1589H24.1646H24.1703H24.176H24.1816H24.1873H24.193H24.1987H24.2043H24.21H24.2156H24.2213H24.2269H24.2326H24.2382H24.2438H24.2495H24.2551H24.2607H24.2663H24.2719H24.2775H24.2831H24.2887H24.2943H24.2999H24.3055H24.3111H24.3166H24.3222H24.3278H24.3333H24.3389H24.3444H24.35H24.3555H24.361H24.3665H24.3721H24.3776H24.3831H24.3886H24.3941H24.3996H24.405H24.4105H24.416H24.4215H24.4269H24.4324H24.4378H24.4433H24.4487H24.4541H24.4596H24.465H24.4704H24.4758H24.4812H24.4866H24.492H24.4974H24.5028H24.5081H24.5135H24.5188H24.5242H24.5295H24.5349H24.5402H24.5455H24.5508H24.5562H24.5615H24.5668H24.572H24.5773H24.5826H24.5879H24.5931H24.5984H24.6036H24.6089H24.6141H24.6193H24.6246H24.6298H24.635H24.6402H24.6454H24.6505H24.6557H24.6609H24.666H24.6712H24.6763H24.6815H24.6866H24.6917H24.6968H24.7019H24.707H24.7121H24.7172H24.7223H24.7274H24.7324H24.7375H24.7425H24.7475H24.7526H24.7576H24.7626H24.7676H24.7726H24.7776H24.7825H24.7875H24.7925H24.7974H24.8024H24.8073H24.8122H24.8171H24.822H24.8269H24.8318H24.8367H24.8416H24.8464H24.8513H24.8561H24.861H24.8658H24.8706H24.8754H24.8802H24.885H24.8898H24.8946H24.8993H24.9041H24.9088H24.9136H24.9183H24.923H24.9277H24.9324H24.9371H24.9418H24.9464H24.9511H24.9557H24.9604H24.965H24.9696H24.9742H24.9788H24.9834H24.988H24.9925H24.9971H25.0017H25.0062H25.0107H25.0152H25.0197H25.0242H25.0287H25.0332H25.0377H25.0421H25.0465H25.051H25.0554H25.0598H25.0642H25.0686H25.073H25.0773H25.0817H25.086H25.0904H25.0947H25.099H25.1033H25.1076H25.1119H25.1162H25.1204H25.1247H25.1289H25.1331H25.1373H25.1415H25.1457H25.1499H25.1541H25.1582H25.1623H25.1665H25.1706H25.1747H25.1788H25.1829H25.187H25.191H25.1951H25.1991H25.2031H25.2071H25.2111H25.2151H25.2191H25.2231H25.227H25.2309H25.2349H25.2388H25.2427H25.2466H25.2505H25.2543H25.2582H25.262H25.2658H25.2697H25.2735H25.2772H25.281H25.2848H25.2885H25.2923H25.296H25.2997H25.3034H25.3071H25.3108H25.3144H25.3181H25.3217H25.3253H25.3289H25.3325H25.3361H25.3397H25.3432H25.3467H25.3503H25.3538H25.3573H25.3608H25.3642ZM21.3079 41.279H25.3642H29.4205V39.7928H25.3642H21.3079V41.279ZM21.2892 38.7928H25.3642H29.4393C29.6426 36.1122 31.4627 34.3268 33.2067 32.616C33.3237 32.5013 33.4402 32.3869 33.556 32.2727C35.545 30.3088 37.394 28.297 37.394 24.9282C37.394 22.0789 36.8322 18.8838 35.0667 16.4137C33.3222 13.9729 30.3517 12.1685 25.3642 12.1685C20.3768 12.1685 17.4062 13.9729 15.6618 16.4137C13.8962 18.8838 13.3344 22.0789 13.3344 24.9282C13.3344 28.297 15.1835 30.3088 17.1725 32.2727C17.2882 32.3869 17.4048 32.5013 17.5218 32.616C19.2658 34.3268 21.0859 36.1122 21.2892 38.7928ZM45.0132 32.058H45.0105H45.0077H45.0048H45.002H44.9991H44.9963H44.9934H44.9905H44.9876H44.9846H44.9817H44.9787H44.9758H44.9728H44.9697H44.9667H44.9637H44.9606H44.9576H44.9545H44.9514H44.9483H44.9451H44.942H44.9388H44.9356H44.9324H44.9292H44.926H44.9228H44.9195H44.9163H44.913H44.9097H44.9064H44.9031H44.8997H44.8964H44.893H44.8896H44.8862H44.8828H44.8794H44.8759H44.8725H44.869H44.8655H44.862H44.8585H44.855H44.8515H44.8479H44.8444H44.8408H44.8372H44.8336H44.83H44.8263H44.8227H44.819H44.8153H44.8116H44.8079H44.8042H44.8005H44.7968H44.793H44.7892H44.7855H44.7817H44.7779H44.774H44.7702H44.7664H44.7625H44.7586H44.7547H44.7509H44.7469H44.743H44.7391H44.7351H44.7312H44.7272H44.7232H44.7192H44.7152H44.7112H44.7072H44.7031H44.6991H44.695H44.6909H44.6868H44.6827H44.6786H44.6744H44.6703H44.6661H44.662H44.6578H44.6536H44.6494H44.6452H44.641H44.6367H44.6325H44.6282H44.624H44.6197H44.6154H44.6111H44.6068H44.6024H44.5981H44.5938H44.5894H44.585H44.5806H44.5762H44.5718H44.5674H44.563H44.5586H44.5541H44.5497H44.5452H44.5407H44.5362H44.5317H44.5272H44.5227H44.5182H44.5136H44.5091H44.5045H44.4999H44.4953H44.4908H44.4862H44.4815H44.4769H44.4723H44.4676H44.463H44.4583H44.4537H44.449H44.4443H44.4396H44.4349H44.4302H44.4254H44.4207H44.4159H44.4112H44.4064H44.4016H44.3969H44.3921H44.3873H44.3824H44.3776H44.3728H44.3679H44.3631H44.3582H44.3534H44.3485H44.3436H44.3387H44.3338H44.3289H44.324H44.3191H44.3141H44.3092H44.3042H44.2993H44.2943H44.2893H44.2843H44.2793H44.2743H44.2693H44.2643H44.2593H44.2542H44.2492H44.2442H44.2391H44.234H44.229H44.2239H44.2188H44.2137H44.2086H44.2035H44.1983H44.1932H44.1881H44.1829H44.1778H44.1726H44.1675H44.1623H44.1571H44.1519H44.1468H44.1416H44.1363H44.1311H44.1259H44.1207H44.1155H44.1102H44.105H44.0997H44.0944H44.0892H44.0839H44.0786H44.0733H44.068H44.0627H44.0574H44.0521H44.0468H44.0415H44.0362H44.0308H44.0255H44.0201H44.0148H44.0094H44.004H43.9987H43.9933H43.9879H43.9825H43.9771H43.9717H43.9663H43.9609H43.9555H43.9501H43.9446H43.9392H43.9338H43.9283H43.9229H43.9174H43.9119H43.9065H43.901H43.8955H43.89H43.8846H43.8791H43.8736H43.8681H43.8626H43.8571H43.8515H43.846H43.8405H43.835H43.8294H43.8239H43.8184H43.8128H43.8073H43.8017H43.7962H43.7906H43.785H43.7794H43.7739H43.7683H43.7627H43.7571H43.7515H43.7459H43.7403H43.7347H43.7291H43.7235H43.7179H43.7123H43.7067H43.701H43.6954H43.6898H43.6841H43.6785H43.6729H43.6672H43.6616H43.6559H43.6503H43.6446H43.6389H43.6333H43.6276H43.6219H43.6163H43.6106H43.6049H43.5992H43.5935H43.5879H43.5822H43.5765H43.5708H43.5651H43.5594H43.5537H43.548H43.5423H43.5366H43.5309H43.5251H43.5194H43.5137H43.508H43.5023H43.4965H43.4908H43.4851H43.4794H43.4736H43.4679H43.4622H43.4564H43.4507H43.445H43.4392H43.4335H43.4277H43.422H43.4162H43.4105H43.4047H43.399H43.3932H43.3875H43.3817H43.376H43.3702H43.3645H43.3587H43.353H43.3472H43.3414H43.3357H43.3299H43.3242H43.3184H43.3126H43.3069H43.3011H43.2953H43.2896H43.2838H43.278H43.2723H43.2665H43.2607H43.255H43.2492H43.2434H43.2377H43.2319H43.2261H43.2204H43.2146H43.2088H43.2031H43.1973H43.1915H43.1858H43.18H43.1742H43.1685H43.1627H43.157H43.1512H43.1454H43.1397H43.1339H43.1282H43.1224H43.1166H43.1109H43.1051H43.0994H43.0936H43.0879H43.0821H43.0764H43.0706H43.0649H43.0591H43.0534H43.0476H43.0419H43.0362H43.0304H43.0247H43.0189H43.0132H43.0075H43.0017H42.996H42.9903H42.9846H42.9788H42.9731H42.9674H42.9617H42.956H42.9503H42.9445H42.9388H42.9331H42.9274H42.9217H42.916H42.9103H42.9046H42.8989H42.8933H42.8876H42.8819H42.8762H42.8705H42.8649H42.8592H42.8535H42.8478H42.8422H42.8365H42.8309H42.8252H42.8196H42.8139H42.8083H42.8026H42.797H42.7913H42.7857H42.7801H42.7745H42.7688H42.7632H42.7576H42.752H42.7464H42.7408H42.7352H42.7296H42.724H42.7184H42.7128H42.7073H42.7017H42.6961H42.6905H42.685H42.6794H42.6739H42.6683H42.6628H42.6572H42.6517H42.6462H42.6406H42.6351H42.6296H42.6241H42.6186H42.6131H42.6076H42.6021H42.5966H42.5911H42.5856H42.5801H42.5747H42.5692H42.5637H42.5583H42.5528H42.5474H42.5419H42.5365H42.5311H42.5257H42.5202H42.5148H42.5094H42.504H42.4986H42.4932H42.4879H42.4825H42.4771H42.4717H42.4664H42.461H42.4557H42.4503C41.9588 32.058 41.7255 32.1769 41.6256 32.2576C41.5358 32.3302 41.5273 32.3907 41.5265 32.3906C41.5265 32.3906 41.5265 32.3905 41.5265 32.3903V32.3909V32.3915V32.3922V32.3929V32.3936V32.3943V32.395V32.3958V32.3965V32.3973V32.3981V32.3989V32.3997V32.4005V32.4014V32.4022V32.4031V32.404V32.4049V32.4059V32.4068V32.4078V32.4087V32.4097V32.4107V32.4118V32.4128V32.4139V32.4149V32.416V32.4171V32.4182V32.4194V32.4205V32.4217V32.4229V32.4241V32.4253V32.4265V32.4278V32.429V32.4303V32.4316V32.4329V32.4343V32.4356V32.437V32.4384V32.4398V32.4412V32.4426V32.4441V32.4455V32.447V32.4485V32.45V32.4516V32.4531V32.4547V32.4563V32.4579V32.4595V32.4611V32.4628V32.4644V32.4661V32.4678V32.4696V32.4713V32.4731V32.4748V32.4766V32.4784V32.4803V32.4821V32.484V32.4859V32.4878V32.4897V32.4916V32.4936V32.4956V32.4975V32.4995V32.5016V32.5036V32.5057V32.5078V32.5099V32.512V32.5141V32.5163V32.5184V32.5206V32.5228V32.5251V32.5273V32.5296V32.5319V32.5342V32.5365V32.5388V32.5412V32.5436V32.546V32.5484V32.5508V32.5533V32.5557V32.5582V32.5607V32.5633V32.5658V32.5684V32.571V32.5736V32.5762V32.5788V32.5815V32.5842V32.5869V32.5896V32.5923V32.5951V32.5979V32.6007V32.6035V32.6063V32.6092V32.6121V32.615V32.6179V32.6208V32.6238V32.6268V32.6298V32.6328V32.6358V32.6389V32.642V32.6451V32.6482V32.6513V32.6545V32.6577V32.6609V32.6641V32.6673V32.6706V32.6739V32.6772V32.6805V32.6838V32.6872V32.6906V32.694V32.6974V32.7009V32.7043V32.7078V32.7113V32.7149V32.7184V32.722V32.7256V32.7292V32.7328V32.7365V32.7402V32.7439V32.7476V32.7513V32.7551V32.7589V32.7627V32.7665V32.7703V32.7742V32.7781V32.782V32.786V32.7899V32.7939V32.7979V32.8019V32.806V32.81V32.8141V32.8182V32.8224V32.8265V32.8307V32.8349V32.8391V32.8433V32.8476V32.8519V32.8562V32.8605V32.8649V32.8693V32.8737V32.8781V32.8825V32.887V32.8915V32.896V32.9005V32.9051V32.9097V32.9143V32.9189V32.9235V32.9282V32.9329V32.9376V32.9424V32.9471V32.9519V32.9567V32.9615V32.9664V32.9713V32.9762V32.9811V32.986V32.991V32.996V33.001V33.0061V33.0111V33.0162V33.0213V33.0265V33.0316V33.0368V33.042V33.0472V33.0525V33.0578V33.0631V33.0684V33.0738V33.0791V33.0845V33.09V33.0954V33.1009V33.1064V33.1119V33.1174V33.123V33.1286V33.1342V33.1398V33.1455V33.1512V33.1569V33.1626V33.1684V33.1742V33.18V33.1858V33.1917V33.1976V33.2035V33.2094V33.2154V33.2214V33.2274V33.2334V33.2395V33.2456V33.2517V33.2578V33.264V33.2702V33.2764V33.2826V33.2889V33.2951V33.3015V33.3078V33.3142V33.3205V33.327V33.3334V33.3399V33.3464V33.3529V33.3594V33.366V33.3726V33.3792V33.3858V33.3925V33.3992V33.4059V33.4127V33.4195V33.4263V33.4331V33.4399V33.4468V33.4537V33.4607V33.4676V33.4746V33.4816V33.4887V33.4957V33.5028V33.5099V33.5171V33.5242V33.5314V33.5387V33.5459V33.5532V33.5605V33.5678V33.5752V33.5826V33.59V33.5974V33.6049V33.6124V33.6199V33.6274V33.635V33.6426V33.6502V33.6579V33.6656V33.6733V33.681V33.6888V33.6966V33.7044V33.7123V33.7201V33.728V33.736V33.7439V33.7519V33.7599V33.768V33.776V33.7841V33.7923V33.8004V33.8086V33.8168V33.825V33.8333V33.8416V33.8499V33.8583V33.8667V33.8751V33.8835V33.892V33.9004V33.909V33.9175V33.9261V33.9347V33.9433V33.952V33.9607V33.9694V33.9782V33.9869V33.9957V34.0046V34.0134V34.0223V34.0312V34.0402V34.0492V34.0582V34.0672V34.0763V34.0854V34.0945V34.1037V34.1129V34.1221V34.1313V34.1406V34.1499V34.1592V34.1686V34.178V34.1874V34.1968V34.2063V34.2158V34.2254V34.2349V34.2445V34.2541V34.2638V34.2735V34.2832V34.293V34.3027V34.3125V34.3224V34.3322V34.3421V34.3521V34.362V34.372V34.382V34.3921V34.4022V34.4123V34.4224V34.4326V34.4428V34.453V34.4633V34.4736V34.4839V34.4942V34.5046V34.515V34.5255V34.536V34.5465V34.557V34.5676V34.5782V34.5888V34.5995V34.6102V34.6209V34.6317V34.6425V34.6533V34.6641V34.675V34.6859V34.6969V34.7078V34.7189V34.7299V34.741V34.7521V34.7632V34.7744V34.7856V34.7968V34.8081V34.8193V34.8307V34.842V34.8534V34.8648V34.8763V34.8878V34.8993V34.9108V34.9224V34.934V34.9457V34.9574V34.9691V34.9808V34.9926V35.0044V35.0162V35.0281V35.04V35.052V35.0639V35.0759V35.088V35.1V35.1121V35.1243V35.1364V35.1486V35.1609V35.1731V35.1854V35.1978V35.2101V35.2225V35.235V35.2474V35.2599V35.2724V35.285V35.2976V35.3102V35.3229V35.3356V35.3483V35.3611V35.3739V35.3867V35.3996V35.4125V35.4254C41.5265 36.5463 42.0717 37.2253 42.7784 37.6483C43.5111 38.087 44.4124 38.2403 45.0132 38.2403C45.6141 38.2403 46.5154 38.087 47.2481 37.6483C47.9548 37.2253 48.5 36.5463 48.5 35.4254V32.3903C48.5 32.3905 48.5 32.3906 48.4999 32.3906C48.4992 32.3907 48.4906 32.3302 48.4009 32.2576C48.301 32.1769 48.0677 32.058 47.5762 32.058H45.0132ZM5.56787 12.7982C5.70678 12.5595 6.01286 12.4787 6.25152 12.6176L11.9469 15.9325C12.1855 16.0714 12.2664 16.3775 12.1275 16.6162C11.9886 16.8548 11.6825 16.9357 11.4438 16.7968L5.74848 13.4819C5.50982 13.3429 5.42896 13.0369 5.56787 12.7982ZM45.1606 12.7982C45.2995 13.0369 45.2187 13.3429 44.98 13.4819L39.2846 16.7968C39.046 16.9357 38.7399 16.8548 38.601 16.6162C38.4621 16.3775 38.5429 16.0714 38.7816 15.9325L44.477 12.6176C44.7156 12.4787 45.0217 12.5595 45.1606 12.7982ZM25.3368 16.9072C25.6683 16.4173 26.4338 16.6519 26.4338 17.2434V23.047H30.583C31.0681 23.047 31.3527 23.5928 31.075 23.9905L25.3866 32.1362C25.0506 32.6174 24.2947 32.3796 24.2947 31.7926V26.2569H20.142C19.661 26.2569 19.3755 25.7192 19.6451 25.3207L25.3368 16.9072ZM25.4338 18.5486L20.8956 25.2569H24.6947C25.0261 25.2569 25.2947 25.5255 25.2947 25.8569V30.5212L29.8158 24.047H26.0338C25.7024 24.047 25.4338 23.7783 25.4338 23.447V18.5486Z" fill="#FFD9A1"/>
</svg>
