<svg width="54" height="54" viewBox="0 0 54 54" fill="none" xmlns="http://www.w3.org/2000/svg">
<path fill-rule="evenodd" clip-rule="evenodd" d="M6.6183 12.5C6.86877 11.461 7.49306 10.7535 8.24366 10.2821C9.13689 9.72107 10.2061 9.5 11.0004 9.5C11.842 9.5 12.9877 9.74788 13.9077 10.3811C14.8045 10.9983 15.5004 11.9867 15.5004 13.5454V29C15.5004 29.2761 15.7242 29.5 16.0004 29.5C16.0395 29.5 16.0775 29.4955 16.114 29.487C18.1735 31.0124 19.5004 33.4324 19.5004 36.1542C19.5004 40.7554 15.703 44.5 11.0004 44.5C6.29778 44.5 2.50039 40.7554 2.50039 36.1542C2.50039 33.384 3.87489 30.9264 5.99737 29.4065C6.14624 29.2999 6.21911 29.1267 6.20445 28.9566C6.37887 28.8785 6.50039 28.7035 6.50039 28.5H8.50039C8.77653 28.5 9.00039 28.2761 9.00039 28C9.00039 27.7239 8.77653 27.5 8.50039 27.5H6.50039V25.5H8.50039C8.77653 25.5 9.00039 25.2761 9.00039 25C9.00039 24.7239 8.77653 24.5 8.50039 24.5H6.50039V22.5H8.50039C8.77653 22.5 9.00039 22.2761 9.00039 22C9.00039 21.7239 8.77653 21.5 8.50039 21.5H6.50039V19.5H8.50039C8.77653 19.5 9.00039 19.2761 9.00039 19C9.00039 18.7239 8.77653 18.5 8.50039 18.5H6.50039V16.5H8.50039C8.77653 16.5 9.00039 16.2761 9.00039 16C9.00039 15.7239 8.77653 15.5 8.50039 15.5H6.50039V13.5454L6.50058 13.5H8.50039C8.77653 13.5 9.00039 13.2761 9.00039 13C9.00039 12.7239 8.77653 12.5 8.50039 12.5H6.6183ZM16.5004 13.5454V28.5443C16.5298 28.5576 16.5583 28.574 16.5856 28.5935C18.9554 30.2904 20.5004 33.0435 20.5004 36.1542C20.5004 41.3239 16.2389 45.5 11.0004 45.5C5.76186 45.5 1.50039 41.3239 1.50039 36.1542C1.50039 33.0435 3.04541 30.2904 5.41516 28.5935C5.443 28.5735 5.47217 28.5569 5.50224 28.5434C5.50101 28.5291 5.50039 28.5146 5.50039 28.5V28V25V22V19V16V13.5454C5.50039 13.3401 5.51052 13.1413 5.53023 12.949C5.70421 11.2517 6.61534 10.1239 7.71179 9.43526C8.79144 8.75716 10.0527 8.5 11.0004 8.5C12.0009 8.5 13.3552 8.78687 14.4747 9.55736C15.6173 10.3438 16.5004 11.6281 16.5004 13.5454ZM11.2504 15.5C11.5265 15.5 11.7504 15.7239 11.7504 16V32.0702C13.601 32.4213 15.0004 34.0472 15.0004 36C15.0004 38.2091 13.2095 40 11.0004 40C8.79124 40 7.00039 38.2091 7.00039 36C7.00039 33.8748 8.6577 32.1367 10.7504 32.0077V16C10.7504 15.7239 10.9742 15.5 11.2504 15.5ZM38.9017 11.1077L38.7339 11.0812L38.5847 11.1625L36.8431 12.111L36.5822 12.253V12.5501V13.0115L32.9557 12.5046L32.8046 12.4835L32.6674 12.5504L29.8322 13.9326L18.5622 12.5281L18.4386 13.5205L29.4178 14.8887L29.4178 16.2639L19.0597 15.0274L18.9411 16.0204L29.4178 17.271L29.4178 23.8256L19.0401 22.998L18.9606 23.9948L29.8781 24.8655L29.8873 24.8662L29.8965 24.8666L33.0009 24.9993L33.0023 24.9993L38.0819 25.231L36.8016 26.1877L35.3629 26.1597L30.4178 25.8142L29.9527 25.7817L28.7677 25.6989L27.9999 25.6453L27.4651 25.6079L19.0352 25.019L18.9655 26.0166L27.4651 26.6104L27.4651 37.5909L26.6061 38.6923L26.5004 38.8279L26.5004 38.9998V39.0011L21.9991 39.0124L22.0016 40.0123L26.5004 40.0011V40.9998V41.49L26.9905 41.4997L29.4329 41.548L29.4329 41.5481H29.4428H35.3406H37.953H38.453L38.453 41.0481L38.453 40.2268V39.953V39.4998H41.6738H45.6716H47.334H49.1944H49.6944V38.9998L49.6944 18.5095L52.4565 17.7346L52.6365 17.6841L52.7392 17.5278L53.5705 16.2631L54 15.6096L53.2266 15.494L40.828 13.6406V11.8387V11.4113L40.4058 11.3448L38.9017 11.1077ZM33.3865 13.5745L37.0083 14.0807L37.013 14.0814L38.7499 14.3411L40.0957 14.5422L52.3053 16.3674L52.0063 16.8223L49.1443 17.6252L45.7513 17.3669L41.6208 16.3418L41.596 16.3357L41.5706 16.3321L33.3865 15.1711L33.3865 13.5745ZM46.1716 18.4018L48.6944 18.5939L48.6944 38.4998H47.334H46.1716V28.9911V26.4222L46.1716 18.4018ZM45.1716 28.9911V38.4998H42.1738V30.8882H42.1738L42.1737 30.882L42.0083 17.4684L45.1716 18.2534L45.1716 26.4222V28.9911ZM41.1738 31.3728V38.4998H37.953H35.8406V31.2064L36.9479 31.241L41.1436 31.3719L41.1738 31.3728ZM34.8406 30.6906V38.4998H30.4178V37.7628V26.8166L34.8406 27.1256V30.6906ZM29.4178 37.7628V38.4998H28.0244L28.3594 38.0703L28.4651 37.9347V37.7628L28.4651 26.6802L28.698 26.6965L29.4178 26.7468V37.7628ZM29.9178 39.4998L27.5004 39.4998V40.5096L29.4478 40.5481H35.3406H37.453L37.453 40.2268V39.953V39.4998H35.3406H29.9178ZM35.8406 30.2059V27.1692L36.4635 27.1813V28.5169V30.2254L35.8406 30.2059ZM37.4635 28.5169V26.9415L39.7997 25.1957L40.9189 24.3593L39.5232 24.2957L33.5163 24.0218L33.3954 16.1824L41.0057 17.262L41.1674 30.3721L37.4635 30.2566V28.5169ZM32.3979 16.347L32.5155 23.9776L30.4178 23.888L30.4178 17.162L32.3979 16.347ZM32.3865 15.2703L30.4178 16.0806L30.4178 14.7596L32.3865 13.7998L32.3865 15.2703ZM38.3238 13.2663L37.5822 13.1554V12.8471L38.3238 12.4432V13.2663ZM39.3238 13.4157V12.1866L39.828 12.266V13.4911L39.3238 13.4157ZM14.0004 36C14.0004 37.6569 12.6572 39 11.0004 39C9.34353 39 8.00039 37.6569 8.00039 36C8.00039 34.3431 9.34353 33 11.0004 33C12.6572 33 14.0004 34.3431 14.0004 36Z" fill="#FFD9A1"/>
</svg>
