<svg width="55" height="54" viewBox="0 0 55 54" fill="none" xmlns="http://www.w3.org/2000/svg">
<path d="M40.8271 41.4889L34.667 46.7444M34.667 46.7444L40.8271 52M34.667 46.7444C37.8777 46.7444 45.1279 46.7444 48.4432 46.7444C52.5872 46.7444 53.7073 44.1778 51.6912 40.3889C50.0784 37.3578 45.787 30.2 44.667 28" stroke="#FFD9A1" stroke-linecap="round"/>
<path d="M33.6727 40.1568C32.4353 39.5554 31.1373 38.8488 29.9248 37.8556M24.9577 27.943C25.177 29.5667 25.525 30.9665 25.9706 32.1811M25.9706 32.1811L22.8952 31.1799M25.9706 32.1811C26.3519 33.2202 26.8046 34.1237 27.3094 34.9156M27.3094 34.9156L29.8206 31.1274M27.3094 34.9156C28.0824 36.1284 28.9775 37.0795 29.9248 37.8556M29.9248 37.8556C33.1002 36.0222 34.5675 33.0635 33.2623 30.0172C31.9572 26.9709 29.2936 26.0242 29.4258 22.5865C29.558 19.1488 28.4214 18.4897 26.0661 20.4341C23.7109 22.3785 18.0061 27.426 21.3626 34.5492C23.5406 38.8454 27.3164 39.3615 29.9248 37.8556Z" stroke="#FFD9A1" stroke-linecap="round"/>
<path d="M11.6175 36.8423L10.4952 28.8755M10.4952 28.8755L3.03462 31.8869M10.4952 28.8755C8.84341 31.7365 5.11346 38.197 3.4079 41.1511C1.27594 44.8438 2.79557 47.0518 6.92657 47.0416C10.2314 47.0334 15.8028 47.1097 18.1755 47.1489" stroke="#FFD9A1" stroke-linecap="round"/>
<path d="M32.1662 17.4999L40.0788 20.6937M40.0788 20.6937L41.2691 12.2443M40.0788 20.6937C38.3269 17.6594 32.8878 8.7057 31.079 5.57262C28.8178 1.65626 25.9839 1.88111 23.8027 5.68081C22.0576 8.72057 16.6969 18.0808 15.4028 20.2393" stroke="#FFD9A1" stroke-linecap="round"/>
</svg>
