<svg width="55" height="54" viewBox="0 0 55 54" fill="none" xmlns="http://www.w3.org/2000/svg">
<path fill-rule="evenodd" clip-rule="evenodd" d="M6.16699 8.5H6.66699H48.667H49.167V9V34.28H48.167V9.5H7.16699V34.28H6.16699V9V8.5ZM15.7906 20.2868L16.1471 20.6495L19.4505 24.0095L18.7374 24.7105L16.2906 22.2218V38.12C16.2906 39.6298 15.6731 40.7693 14.7749 41.523C13.8891 42.2663 12.7494 42.62 11.7007 42.62H11.6918H11.683H11.6741H11.6651H11.6562H11.6472H11.6382H11.6292H11.6202H11.6111H11.6021H11.593H11.5838H11.5747H11.5655H11.5564H11.5472H11.538H11.5287H11.5195H11.5102H11.5009H11.4916H11.4822H11.4729H11.4635H11.4541H11.4447H11.4352H11.4258H11.4163H11.4068H11.3973H11.3878H11.3782H11.3687H11.3591H11.3495H11.3399H11.3302H11.3206H11.3109H11.3012H11.2915H11.2818H11.272H11.2623H11.2525H11.2427H11.2329H11.2231H11.2132H11.2034H11.1935H11.1836H11.1737H11.1638H11.1538H11.1439H11.1339H11.1239H11.1139H11.1039H11.0938H11.0838H11.0737H11.0637H11.0536H11.0434H11.0333H11.0232H11.013H11.0029H10.9927H10.9825H10.9723H10.962H10.9518H10.9416H10.9313H10.921H10.9107H10.9004H10.8901H10.8798H10.8694H10.8591H10.8487H10.8383H10.8279H10.8175H10.8071H10.7966H10.7862H10.7757H10.7653H10.7548H10.7443H10.7338H10.7233H10.7127H10.7022H10.6917H10.6811H10.6705H10.6599H10.6493H10.6387H10.6281H10.6175H10.6069H10.5962H10.5856H10.5749H10.5642H10.5535H10.5428H10.5321H10.5214H10.5107H10.5H10.4892H10.4785H10.4677H10.4569H10.4462H10.4354H10.4246H10.4138H10.403H10.3921H10.3813H10.3705H10.3596H10.3488H10.3379H10.3271H10.3162H10.3053H10.2944H10.2835H10.2726H10.2617H10.2508H10.2399H10.2289H10.218H10.2071H10.1961H10.1851H10.1742H10.1632H10.1522H10.1413H10.1303H10.1193H10.1083H10.0973H10.0863H10.0753H10.0643H10.0532H10.0422H10.0312H10.0202H10.0091H9.99807H9.98702H9.97597H9.96492H9.95385H9.94279H9.93172H9.92065H9.90958H9.8985H9.88742H9.87634H9.86525H9.85416H9.84307H9.83197H9.82087H9.80977H9.79867H9.78756H9.77645H9.76534H9.75423H9.74312H9.732H9.72089H9.70977H9.69865H9.68753H9.6764H9.66528H9.65415H9.64303H9.6319H9.62077H9.60965H9.59852H9.58739H9.57626H9.56513H9.554H9.54287H9.53174H9.52061H9.50948H9.49836H9.48723H9.4761H9.46498H9.45385H9.44273H9.4316H9.42048H9.40936H9.39824H9.38712H9.37601H9.36489H9.35378H9.34267H9.33157H9.32046H9.30935H9.29825H9.28716H9.27606H9.26497H9.25388H9.24279H9.2317H9.22062H9.20954H9.19847H9.18739H9.17633H9.16526H9.1542H9.14315H9.13209H9.12104H9.11H9.09896H9.08792H9.07689H9.06587H9.05484H9.04383H9.03282H9.02181H9.01081H8.99981H8.98882H8.97784H8.96686H8.95588H8.94492H8.93395H8.923H8.91204H8.9011H8.89016H8.87923H8.86831H8.85739H8.84648H8.83558H8.82468H8.81379H8.8029H8.79203H8.78116H8.7703H8.75945H8.7486H8.73776H8.72693H8.71611H8.7053H8.6945H8.6837H8.67291H8.66213H8.65136H8.6406H8.62984H8.6191H8.60836H8.59764H8.58692H8.57621H8.56552H8.55483H8.54415H8.53349H8.52283H8.51218H8.50154H8.49091H8.4803H8.46969H8.45909H8.44851H8.43793H8.42737H8.41682H8.40628H8.39574H8.38523H8.37472H8.36422H8.35374H8.34327H8.33281H8.32236H8.31192H8.3015H8.29109H8.28069H8.27031H8.25993H8.24957H8.23922H8.22889H8.21856H8.20826H8.19796H8.18768H8.17741H8.16715H8.15691H8.14668H8.13647H8.12627H8.11609H8.10592H8.09576H8.08562H8.07549H8.06538H8.05527H8.04519H8.03513H8.02507H8.01503H8.00501H7.995H7.98501H7.97504H7.96508H7.95513H7.9452H7.93529H7.9254H7.91552H7.90565H7.89581H7.88597H7.87616H7.86636H7.85658H7.84682H7.83707H7.82735H7.81763H7.80794H7.79826H7.7886H7.77896H7.76934H7.75974H7.75015H7.74059H7.73103H7.7215H7.71199H7.7025H7.69302H7.68356H7.67412H7.6647H7.6553H7.64592H7.63656H7.62722H7.6179H7.6086H7.59932H7.59005H7.58081H7.57159H7.56239H7.5532H7.54404H7.5349H7.52578H7.51669H7.50761H7.49855H7.48951H7.4805H7.4715H7.46253H7.45358H7.44465H7.43575H7.42686H7.418H7.40915H7.40033H7.39154H7.38276H7.37401H7.36528H7.35657H7.34789H7.33923H7.33059H7.32198H7.31338H7.30481H7.29627H7.28775H7.27925H7.27077H7.26233H7.2539H7.2455H7.23712H7.22877H7.22044H7.21213H7.20385H7.1956H7.18737H7.17916H7.17098H7.16283H7.1547H7.14659H7.13851H7.13046H7.12243H7.11443H7.10645H7.0985H7.09058H7.08268H7.07481H7.06696H7.05915H7.05135H7.04359H7.03585H7.02814H7.02045H7.0128H7.00517H6.99757H6.98999H6.98244H6.97493H6.96743H6.95997H6.95254H6.94513H6.93775H6.9304H6.92308H6.91578H6.90852H6.90128H6.89407H6.8869H6.87975H6.87263H6.86554H6.85847H6.85144H6.84444H6.83747H6.83053H6.82362H6.81673H6.80988H6.80306H6.79627H6.78951H6.78278H6.77608H6.76941H6.76277H6.75616H6.74959H6.74304H6.73653H6.73005H6.7236H6.71718H6.7108H6.70444H6.69812H6.69183H6.68557H6.67934H6.67315H6.66699V41.62H6.67315H6.67934H6.68557H6.69183H6.69812H6.70444H6.7108H6.71718H6.7236H6.73005H6.73653H6.74304H6.74959H6.75616H6.76277H6.76941H6.77608H6.78278H6.78951H6.79627H6.80306H6.80988H6.81673H6.82362H6.83053H6.83747H6.84444H6.85144H6.85847H6.86554H6.87263H6.87975H6.8869H6.89407H6.90128H6.90852H6.91578H6.92308H6.9304H6.93775H6.94513H6.95254H6.95997H6.96743H6.97493H6.98244H6.98999H6.99757H7.00517H7.0128H7.02045H7.02814H7.03585H7.04359H7.05135H7.05915H7.06696H7.07481H7.08268H7.09058H7.0985H7.10645H7.11443H7.12243H7.13046H7.13851H7.14659H7.1547H7.16283H7.17098H7.17916H7.18737H7.1956H7.20385H7.21213H7.22044H7.22877H7.23712H7.2455H7.2539H7.26233H7.27077H7.27925H7.28775H7.29627H7.30481H7.31338H7.32198H7.33059H7.33923H7.34789H7.35657H7.36528H7.37401H7.38276H7.39154H7.40033H7.40915H7.418H7.42686H7.43575H7.44465H7.45358H7.46253H7.4715H7.4805H7.48951H7.49855H7.50761H7.51669H7.52578H7.5349H7.54404H7.5532H7.56239H7.57159H7.58081H7.59005H7.59932H7.6086H7.6179H7.62722H7.63656H7.64592H7.6553H7.6647H7.67412H7.68356H7.69302H7.7025H7.71199H7.7215H7.73103H7.74059H7.75015H7.75974H7.76934H7.77896H7.7886H7.79826H7.80794H7.81763H7.82735H7.83707H7.84682H7.85658H7.86636H7.87616H7.88597H7.89581H7.90565H7.91552H7.9254H7.93529H7.9452H7.95513H7.96508H7.97504H7.98501H7.995H8.00501H8.01503H8.02507H8.03513H8.04519H8.05527H8.06538H8.07549H8.08562H8.09576H8.10592H8.11609H8.12627H8.13647H8.14668H8.15691H8.16715H8.17741H8.18768H8.19796H8.20826H8.21856H8.22889H8.23922H8.24957H8.25993H8.27031H8.28069H8.29109H8.3015H8.31192H8.32236H8.33281H8.34327H8.35374H8.36422H8.37472H8.38523H8.39574H8.40628H8.41682H8.42737H8.43793H8.44851H8.45909H8.46969H8.4803H8.49091H8.50154H8.51218H8.52283H8.53349H8.54415H8.55483H8.56552H8.57621H8.58692H8.59764H8.60836H8.6191H8.62984H8.6406H8.65136H8.66213H8.67291H8.6837H8.6945H8.7053H8.71611H8.72693H8.73776H8.7486H8.75945H8.7703H8.78116H8.79203H8.8029H8.81379H8.82468H8.83558H8.84648H8.85739H8.86831H8.87923H8.89016H8.9011H8.91204H8.923H8.93395H8.94492H8.95588H8.96686H8.97784H8.98882H8.99981H9.01081H9.02181H9.03282H9.04383H9.05484H9.06587H9.07689H9.08792H9.09896H9.11H9.12104H9.13209H9.14315H9.1542H9.16526H9.17633H9.18739H9.19847H9.20954H9.22062H9.2317H9.24279H9.25388H9.26497H9.27606H9.28716H9.29825H9.30935H9.32046H9.33157H9.34267H9.35378H9.36489H9.37601H9.38712H9.39824H9.40936H9.42048H9.4316H9.44273H9.45385H9.46498H9.4761H9.48723H9.49836H9.50948H9.52061H9.53174H9.54287H9.554H9.56513H9.57626H9.58739H9.59852H9.60965H9.62077H9.6319H9.64303H9.65415H9.66528H9.6764H9.68753H9.69865H9.70977H9.72089H9.732H9.74312H9.75423H9.76534H9.77645H9.78756H9.79867H9.80977H9.82087H9.83197H9.84307H9.85416H9.86525H9.87634H9.88742H9.8985H9.90958H9.92065H9.93172H9.94279H9.95385H9.96492H9.97597H9.98702H9.99807H10.0091H10.0202H10.0312H10.0422H10.0532H10.0643H10.0753H10.0863H10.0973H10.1083H10.1193H10.1303H10.1413H10.1522H10.1632H10.1742H10.1851H10.1961H10.2071H10.218H10.2289H10.2399H10.2508H10.2617H10.2726H10.2835H10.2944H10.3053H10.3162H10.3271H10.3379H10.3488H10.3596H10.3705H10.3813H10.3921H10.403H10.4138H10.4246H10.4354H10.4462H10.4569H10.4677H10.4785H10.4892H10.5H10.5107H10.5214H10.5321H10.5428H10.5535H10.5642H10.5749H10.5856H10.5962H10.6069H10.6175H10.6281H10.6387H10.6493H10.6599H10.6705H10.6811H10.6917H10.7022H10.7127H10.7233H10.7338H10.7443H10.7548H10.7653H10.7757H10.7862H10.7966H10.8071H10.8175H10.8279H10.8383H10.8487H10.8591H10.8694H10.8798H10.8901H10.9004H10.9107H10.921H10.9313H10.9416H10.9518H10.962H10.9723H10.9825H10.9927H11.0029H11.013H11.0232H11.0333H11.0434H11.0536H11.0637H11.0737H11.0838H11.0938H11.1039H11.1139H11.1239H11.1339H11.1439H11.1538H11.1638H11.1737H11.1836H11.1935H11.2034H11.2132H11.2231H11.2329H11.2427H11.2525H11.2623H11.272H11.2818H11.2915H11.3012H11.3109H11.3206H11.3302H11.3399H11.3495H11.3591H11.3687H11.3782H11.3878H11.3973H11.4068H11.4163H11.4258H11.4352H11.4447H11.4541H11.4635H11.4729H11.4822H11.4916H11.5009H11.5102H11.5195H11.5287H11.538H11.5472H11.5564H11.5655H11.5747H11.5838H11.593H11.6021H11.6111H11.6202H11.6292H11.6382H11.6472H11.6562H11.6651H11.6741H11.683H11.6918H11.7007C12.5396 41.62 13.4449 41.3337 14.1321 40.757C14.8069 40.1907 15.2906 39.3302 15.2906 38.12V22.2218L12.8438 24.7105L12.1307 24.0095L15.434 20.6495L15.7906 20.2868ZM27.5883 20.2868L27.9449 20.6495L31.2483 24.0095L30.5352 24.7105L28.0883 22.2218V45H27.0883V22.2218L24.6415 24.7105L23.9284 24.0095L27.2318 20.6495L27.5883 20.2868ZM39.3861 20.2868L39.7426 20.6495L43.046 24.0095L42.3329 24.7105L39.8861 22.2218V22.2491V22.2818V22.3146V22.3475V22.3804V22.4135V22.4467V22.4799V22.5133V22.5467V22.5803V22.6139V22.6476V22.6815V22.7154V22.7494V22.7835V22.8176V22.8519V22.8862V22.9207V22.9552V22.9898V23.0245V23.0593V23.0941V23.1291V23.1641V23.1992V23.2344V23.2697V23.305V23.3404V23.376V23.4115V23.4472V23.4829V23.5188V23.5547V23.5906V23.6267V23.6628V23.699V23.7352V23.7716V23.808V23.8445V23.881V23.9176V23.9543V23.9911V24.0279V24.0648V24.1018V24.1388V24.1759V24.213V24.2503V24.2875V24.3249V24.3623V24.3998V24.4373V24.4749V24.5126V24.5503V24.5881V24.6259V24.6638V24.7017V24.7397V24.7778V24.8159V24.8541V24.8923V24.9306V24.969V25.0073V25.0458V25.0843V25.1228V25.1614V25.2001V25.2388V25.2775V25.3163V25.3551V25.394V25.4329V25.4719V25.5109V25.55V25.5891V25.6282V25.6674V25.7067V25.746V25.7853V25.8246V25.864V25.9035V25.9429V25.9825V26.022V26.0616V26.1012V26.1409V26.1806V26.2203V26.26V26.2998V26.3397V26.3795V26.4194V26.4593V26.4993V26.5393V26.5793V26.6193V26.6594V26.6995V26.7396V26.7797V26.8199V26.8601V26.9003V26.9406V26.9808V27.0211V27.0614V27.1017V27.1421V27.1825V27.2229V27.2633V27.3037V27.3441V27.3846V27.4251V27.4656V27.5061V27.5466V27.5871V27.6277V27.6682V27.7088V27.7494V27.79V27.8306V27.8712V27.9119V27.9525V27.9931V28.0338V28.0745V28.1151V28.1558V28.1965V28.2371V28.2778V28.3185V28.3592V28.3999V28.4406V28.4813V28.522V28.5627V28.6034V28.6441V28.6848V28.7254V28.7661V28.8068V28.8475V28.8882V28.9288V28.9695V29.0101V29.0508V29.0914V29.132V29.1727V29.2133V29.2539V29.2945V29.335V29.3756V29.4162V29.4567V29.4972V29.5377V29.5782V29.6187V29.6592V29.6996V29.74V29.7804V29.8208V29.8612V29.9016V29.9419V29.9822V30.0225V30.0628V30.103V30.1432V30.1834V30.2236V30.2637V30.3039V30.3439V30.384V30.4241V30.4641V30.504V30.544V30.5839V30.6238V30.6637V30.7035V30.7433V30.7831V30.8228V30.8625V30.9021V30.9418V30.9814V31.0209V31.0604V31.0999V31.1393V31.1787V31.2181V31.2574V31.2967V31.336V31.3751V31.4143V31.4534V31.4925V31.5315V31.5705V31.6094V31.6483V31.6871V31.7259V31.7647V31.8034V31.842V31.8806V31.9192V31.9577V31.9961V32.0345V32.0728V32.1111V32.1494V32.1875V32.2257V32.2637V32.3017V32.3397V32.3776V32.4154V32.4532V32.4909V32.5286V32.5662V32.6037V32.6412V32.6786V32.716V32.7533V32.7905V32.8277V32.8648V32.9018V32.9388V32.9757V33.0125V33.0493V33.086V33.1226V33.1591V33.1956V33.232V33.2684V33.3046V33.3408V33.377V33.413V33.449V33.4849V33.5207V33.5565V33.5921V33.6277V33.6632V33.6987V33.734V33.7693V33.8045V33.8396V33.8746V33.9096V33.9445V33.9792V34.0139V34.0485V34.0831V34.1175V34.1519V34.1861V34.2203V34.2544V34.2884V34.3223V34.3562V34.3899V34.4235V34.4571V34.4905V34.5239V34.5572V34.5904V34.6234V34.6564V34.6893V34.7221V34.7548V34.7874V34.8199V34.8523V34.8846V34.9168V34.9489V34.9809V35.0128V35.0446V35.0763V35.1079V35.1394V35.1707V35.202V35.2332V35.2642V35.2952V35.326V35.3568V35.3874V35.4179V35.4483V35.4786V35.5088V35.5388V35.5688V35.5987V35.6284V35.658V35.6875V35.7169V35.7462V35.7753V35.8043V35.8333V35.8621V35.8907V35.9193V35.9477V35.976V36.0042V36.0323V36.0603V36.0881V36.1158V36.1434V36.1708V36.1982V36.2254V36.2524V36.2794V36.3062V36.3329V36.3594V36.3859V36.4122V36.4383V36.4644V36.4903V36.516V36.5417V36.5672V36.5926V36.6178V36.6429V36.6678V36.6927V36.7174V36.7419V36.7663V36.7906V36.8147V36.8387V36.8625V36.8862V36.9098V36.9332V36.9565V36.9796V37.0026V37.0255V37.0482V37.0707V37.0931V37.1154V37.1375V37.1594V37.1812V37.2029V37.2244V37.2457V37.2669V37.288V37.3089V37.3296V37.3502V37.3706V37.3909V37.411V37.431V37.4508V37.4704V37.4899V37.5093V37.5284V37.5474V37.5663V37.585V37.6035V37.6219V37.6401V37.6581V37.676V37.6937V37.7112V37.7286V37.7458V37.7628V37.7797V37.7964V37.813V37.8293V37.8455V37.8615V37.8774V37.8931V37.9086V37.9239V37.9391V37.954V37.9688V37.9835V37.9979V38.0122V38.0263V38.0402V38.054V38.0675V38.0809V38.0941V38.1072V38.12C39.8861 39.3685 40.2787 40.2162 40.9117 40.761C41.5572 41.3166 42.5254 41.62 43.7906 41.62H48.667V42.62H43.7906C42.3817 42.62 41.1476 42.2834 40.2594 41.519C39.3587 40.7438 38.8861 39.5915 38.8861 38.12V38.1072V38.0941V38.0809V38.0675V38.054V38.0402V38.0263V38.0122V37.9979V37.9835V37.9688V37.954V37.9391V37.9239V37.9086V37.8931V37.8774V37.8615V37.8455V37.8293V37.813V37.7964V37.7797V37.7628V37.7458V37.7286V37.7112V37.6937V37.676V37.6581V37.6401V37.6219V37.6035V37.585V37.5663V37.5474V37.5284V37.5093V37.4899V37.4704V37.4508V37.431V37.411V37.3909V37.3706V37.3502V37.3296V37.3089V37.288V37.2669V37.2457V37.2244V37.2029V37.1812V37.1594V37.1375V37.1154V37.0931V37.0707V37.0482V37.0255V37.0026V36.9796V36.9565V36.9332V36.9098V36.8862V36.8625V36.8387V36.8147V36.7906V36.7663V36.7419V36.7174V36.6927V36.6678V36.6429V36.6178V36.5926V36.5672V36.5417V36.516V36.4903V36.4644V36.4383V36.4122V36.3859V36.3594V36.3329V36.3062V36.2794V36.2524V36.2254V36.1982V36.1708V36.1434V36.1158V36.0881V36.0603V36.0323V36.0042V35.976V35.9477V35.9193V35.8907V35.8621V35.8333V35.8043V35.7753V35.7462V35.7169V35.6875V35.658V35.6284V35.5987V35.5688V35.5388V35.5088V35.4786V35.4483V35.4179V35.3874V35.3568V35.326V35.2952V35.2642V35.2332V35.202V35.1707V35.1394V35.1079V35.0763V35.0446V35.0128V34.9809V34.9489V34.9168V34.8846V34.8523V34.8199V34.7874V34.7548V34.7221V34.6893V34.6564V34.6234V34.5904V34.5572V34.5239V34.4905V34.4571V34.4235V34.3899V34.3562V34.3223V34.2884V34.2544V34.2203V34.1861V34.1519V34.1175V34.0831V34.0485V34.0139V33.9792V33.9445V33.9096V33.8746V33.8396V33.8045V33.7693V33.734V33.6987V33.6632V33.6277V33.5921V33.5565V33.5207V33.4849V33.449V33.413V33.377V33.3408V33.3046V33.2684V33.232V33.1956V33.1591V33.1226V33.086V33.0493V33.0125V32.9757V32.9388V32.9018V32.8648V32.8277V32.7905V32.7533V32.716V32.6786V32.6412V32.6037V32.5662V32.5286V32.4909V32.4532V32.4154V32.3776V32.3397V32.3017V32.2637V32.2257V32.1875V32.1494V32.1111V32.0728V32.0345V31.9961V31.9577V31.9192V31.8806V31.842V31.8034V31.7647V31.7259V31.6871V31.6483V31.6094V31.5705V31.5315V31.4925V31.4534V31.4143V31.3751V31.336V31.2967V31.2574V31.2181V31.1787V31.1393V31.0999V31.0604V31.0209V30.9814V30.9418V30.9021V30.8625V30.8228V30.7831V30.7433V30.7035V30.6637V30.6238V30.5839V30.544V30.504V30.4641V30.4241V30.384V30.3439V30.3039V30.2637V30.2236V30.1834V30.1432V30.103V30.0628V30.0225V29.9822V29.9419V29.9016V29.8612V29.8208V29.7804V29.74V29.6996V29.6592V29.6187V29.5782V29.5377V29.4972V29.4567V29.4162V29.3756V29.335V29.2945V29.2539V29.2133V29.1727V29.132V29.0914V29.0508V29.0101V28.9695V28.9288V28.8882V28.8475V28.8068V28.7661V28.7254V28.6848V28.6441V28.6034V28.5627V28.522V28.4813V28.4406V28.3999V28.3592V28.3185V28.2778V28.2371V28.1965V28.1558V28.1151V28.0745V28.0338V27.9931V27.9525V27.9119V27.8712V27.8306V27.79V27.7494V27.7088V27.6682V27.6277V27.5871V27.5466V27.5061V27.4656V27.4251V27.3846V27.3441V27.3037V27.2633V27.2229V27.1825V27.1421V27.1017V27.0614V27.0211V26.9808V26.9406V26.9003V26.8601V26.8199V26.7797V26.7396V26.6995V26.6594V26.6193V26.5793V26.5393V26.4993V26.4593V26.4194V26.3795V26.3397V26.2998V26.26V26.2203V26.1806V26.1409V26.1012V26.0616V26.022V25.9825V25.9429V25.9035V25.864V25.8246V25.7853V25.746V25.7067V25.6674V25.6282V25.5891V25.55V25.5109V25.4719V25.4329V25.394V25.3551V25.3163V25.2775V25.2388V25.2001V25.1614V25.1228V25.0843V25.0458V25.0073V24.969V24.9306V24.8923V24.8541V24.8159V24.7778V24.7397V24.7017V24.6638V24.6259V24.5881V24.5503V24.5126V24.4749V24.4373V24.3998V24.3623V24.3249V24.2875V24.2503V24.213V24.1759V24.1388V24.1018V24.0648V24.0279V23.9911V23.9543V23.9176V23.881V23.8445V23.808V23.7716V23.7352V23.699V23.6628V23.6267V23.5906V23.5547V23.5188V23.4829V23.4472V23.4115V23.376V23.3404V23.305V23.2697V23.2344V23.1992V23.1641V23.1291V23.0941V23.0593V23.0245V22.9898V22.9552V22.9207V22.8862V22.8519V22.8176V22.7835V22.7494V22.7154V22.6815V22.6476V22.6139V22.5803V22.5467V22.5133V22.4799V22.4467V22.4135V22.3804V22.3475V22.3146V22.2818V22.2491V22.2218L36.4393 24.7105L35.7262 24.0095L39.0295 20.6495L39.3861 20.2868Z" fill="#FFD9A1"/>
</svg>
