<svg width="84" height="135" viewBox="0 0 84 135" fill="none" xmlns="http://www.w3.org/2000/svg">
<path fill-rule="evenodd" clip-rule="evenodd" d="M0 40.7547C0 14.0094 19.7272 0 41.9999 0V135L4.45454 57.9481C2.96969 54.5519 0 46.3585 0 40.7547ZM84.0004 40.7547C84.0004 14.0094 64.2732 0 42.0005 0V135L79.5459 57.9481C81.0307 54.5519 84.0004 46.3585 84.0004 40.7547Z" fill="#F1F4FA"/>
<g clip-path="url(#clip0_40_479)">
<path d="M42.6158 46.5478C47.5192 46.4113 52.1868 44.4566 55.7668 41.0379C55.835 40.9726 55.9227 40.937 56.0163 40.937C56.1176 40.937 56.2112 40.9786 56.2813 41.0537C56.3476 41.125 56.3827 41.2199 56.3807 41.3169C56.3788 41.4158 56.3378 41.5068 56.2657 41.5741C52.5492 45.1234 47.7063 47.1512 42.6158 47.2858V46.5478Z" fill="#384562" stroke="#384562" stroke-width="0.84963"/>
<path d="M56.0163 41.0359C56.0904 41.0359 56.1586 41.0655 56.2093 41.1209C56.258 41.1724 56.2833 41.2416 56.2814 41.3128C56.2794 41.3841 56.2502 41.4513 56.1976 41.5008C52.5239 45.0105 47.7414 47.0245 42.7133 47.1828V46.6427C47.6069 46.4844 52.2589 44.5218 55.8351 41.1071C55.8838 41.0616 55.9481 41.0359 56.0163 41.0359ZM56.0163 40.838C55.9033 40.838 55.7902 40.8796 55.7006 40.9646C52.1049 44.3992 47.4413 46.338 42.5184 46.4508V47.3866C47.6751 47.2738 52.5649 45.244 56.332 41.6452C56.5172 41.4691 56.5269 41.1724 56.3515 40.9844C56.2619 40.8875 56.1391 40.838 56.0163 40.838Z" fill="#384562" stroke="#384562" stroke-width="0.84963"/>
<path d="M44.7012 69.9012C44.594 69.2444 44.4498 68.6034 44.2705 67.9901C44.1614 67.6023 44.0328 67.2086 43.8905 66.8228C43.4676 65.6713 42.9122 64.5595 42.2398 63.5168C42.0644 63.2458 41.8754 62.9728 41.661 62.6819C40.6554 61.3149 39.4529 60.1159 38.0906 59.1188C37.812 58.915 37.5606 58.7429 37.3208 58.5886C34.6899 56.8812 31.6438 55.979 28.5139 55.979C27.3621 55.979 26.2123 56.1017 25.0956 56.3411V55.5893C26.2084 55.3578 27.3582 55.2411 28.5139 55.2411C31.8133 55.2411 35.0192 56.1986 37.7866 58.0129C38.0712 58.1988 38.3187 58.3729 38.5428 58.5411C39.8719 59.5165 41.0549 60.6778 42.0547 61.9895C42.2476 62.2388 42.4386 62.5059 42.6237 62.7789C43.3078 63.7839 43.8866 64.8641 44.3465 65.9899C44.4888 66.3341 44.6174 66.6823 44.7305 67.0206C45.0442 67.9485 45.282 68.9179 45.434 69.9012H44.7012Z" fill="#384562" stroke="#384562" stroke-width="0.84963"/>
<path d="M28.5158 55.3399C31.7957 55.3399 34.9841 56.2935 37.7359 58.0959C38.0185 58.2818 38.264 58.454 38.4901 58.6221C39.8114 59.5916 40.9866 60.745 41.9825 62.0507C42.1734 62.3 42.3644 62.5651 42.5496 62.8342C43.2297 63.8333 43.8066 64.9076 44.2626 66.0274C44.403 66.3696 44.5316 66.7139 44.6446 67.0522C44.9447 67.9385 45.1728 68.8625 45.3267 69.8022H44.7869C44.6797 69.1711 44.5394 68.5518 44.3679 67.9623C44.2568 67.5705 44.1282 67.1749 43.9859 66.7871C43.561 65.6277 43.0017 64.5099 42.3255 63.4614C42.1481 63.1883 41.9571 62.9133 41.7447 62.6205C40.7332 61.2455 39.5249 60.0407 38.1529 59.0376C37.8723 58.8338 37.6189 58.6577 37.3792 58.5054C34.7327 56.7881 31.669 55.88 28.5197 55.88C27.401 55.88 26.2843 55.9948 25.1988 56.2203V55.6703C26.2765 55.4507 27.3932 55.3399 28.5158 55.3399ZM28.5158 55.1421C27.3114 55.1421 26.1362 55.2667 25 55.5081V56.4637C26.1342 56.2104 27.3094 56.0779 28.5158 56.0779C31.7353 56.0779 34.7385 57.0295 37.2701 58.6716C37.5293 58.8378 37.7846 59.0158 38.034 59.1979C39.3885 60.189 40.5851 61.384 41.5829 62.7392C41.7817 63.0103 41.9747 63.2873 42.1579 63.5702C42.8185 64.593 43.372 65.693 43.7988 66.8563C43.9391 67.2362 44.0658 67.624 44.1769 68.0177C44.364 68.6626 44.5101 69.3254 44.6173 70.0001H45.5508C45.3969 68.9653 45.1533 67.9563 44.8259 66.9889C44.7089 66.6387 44.5803 66.2945 44.44 65.9522C43.9742 64.8106 43.3915 63.7284 42.7074 62.7234C42.5242 62.4543 42.3333 62.1892 42.1345 61.9301C41.1289 60.6105 39.9381 59.4412 38.6031 58.4619C38.3556 58.2759 38.1003 58.0998 37.8411 57.9297C35.1517 56.1669 31.9497 55.1421 28.5158 55.1421Z" fill="#384562" stroke="#384562" stroke-width="0.84963"/>
<path d="M41.4992 47.2858C36.4068 47.1493 31.5638 45.1234 27.8493 41.5741C27.7031 41.4356 27.6973 41.2021 27.8337 41.0537C27.9038 40.9786 27.9974 40.937 28.1007 40.937C28.1942 40.937 28.2819 40.9726 28.3501 41.0379C31.9283 44.4586 36.5958 46.4133 41.4992 46.5478V47.2858Z" fill="#384562" stroke="#384562" stroke-width="0.84963"/>
<path d="M28.1006 41.0359C28.1688 41.0359 28.2332 41.0616 28.2819 41.1091C31.8542 44.5238 36.5061 46.4844 41.4017 46.6427V47.1828C36.3716 47.0245 31.5891 45.0105 27.9155 41.5008C27.8083 41.3999 27.8044 41.2278 27.9038 41.1209C27.9564 41.0675 28.0266 41.0359 28.1006 41.0359ZM28.1006 40.838C27.9778 40.838 27.8551 40.8875 27.7635 40.9844C27.59 41.1724 27.5978 41.4691 27.783 41.6452C31.5482 45.244 36.4379 47.2738 41.5966 47.3866V46.4508C36.6737 46.338 32.0101 44.3992 28.4163 40.9646C28.3267 40.8796 28.2137 40.838 28.1006 40.838Z" fill="#384562" stroke="#384562" stroke-width="0.84963"/>
<path d="M39.1469 69.9012C38.65 67.4657 37.4319 65.2815 35.6175 63.5801C35.37 63.3486 35.1206 63.131 34.8731 62.9351C32.7956 61.2911 30.3088 60.4225 27.6798 60.4225C26.8067 60.4225 25.9375 60.5195 25.0975 60.7134V59.9576C25.9414 59.7756 26.8086 59.6846 27.6798 59.6846C30.3946 59.6846 32.9768 60.561 35.144 62.217C35.4012 62.4128 35.6468 62.6166 35.8748 62.8204C37.4456 64.2211 38.6519 66.0076 39.3633 67.9841C39.5893 68.6132 39.7667 69.2562 39.8895 69.8992H39.1469V69.9012Z" fill="#384562" stroke="#384562" stroke-width="0.84963"/>
<path d="M27.6797 59.7855C30.373 59.7855 32.9339 60.654 35.0854 62.2981C35.3388 62.492 35.5824 62.6938 35.8104 62.8956C37.3695 64.2864 38.5661 66.0571 39.2716 68.0197C39.4821 68.6053 39.6497 69.2028 39.7705 69.8022H39.2268C38.7162 67.3787 37.4942 65.2044 35.6857 63.5089C35.4362 63.2754 35.1848 63.0558 34.9353 62.858C32.8423 61.202 30.3341 60.3256 27.6836 60.3256C26.8436 60.3256 26.0095 60.4146 25.1988 60.5927V60.0407C26.0076 59.8706 26.8417 59.7855 27.6797 59.7855ZM27.6797 59.5876C26.7618 59.5876 25.8633 59.6885 25 59.8805V60.84C25.8614 60.6323 26.7579 60.5234 27.6797 60.5234C30.3652 60.5234 32.8423 61.4553 34.8126 63.0143C35.0679 63.2161 35.3134 63.4297 35.5512 63.6533C37.3169 65.3092 38.5778 67.5152 39.067 70.0001H40.0063C39.8796 69.2958 39.6925 68.6112 39.4548 67.9524C38.7278 65.9285 37.5059 64.144 35.939 62.7472C35.7013 62.5355 35.4557 62.3337 35.2023 62.1398C33.1054 60.5373 30.5017 59.5876 27.6797 59.5876Z" fill="#384562" stroke="#384562" stroke-width="0.84963"/>
<path d="M50.1834 69.9012C50.047 67.6676 49.5481 65.4952 48.7003 63.4436C48.5912 63.1765 48.4664 62.8936 48.3222 62.579C47.759 61.3742 47.0711 60.2188 46.2779 59.1405C46.1122 58.915 45.929 58.6816 45.7049 58.4006C44.672 57.1265 43.4832 55.983 42.1735 54.9997C41.926 54.8118 41.6649 54.6258 41.3764 54.4319C38.1238 52.2299 34.3352 51.0666 30.418 51.0666C28.6114 51.0666 26.8203 51.3139 25.0975 51.8026V51.0369C26.8262 50.5661 28.6152 50.3286 30.418 50.3286C34.38 50.3286 38.2271 51.4821 41.5441 53.6623L41.6941 53.7612V42.5356L41.6006 42.5337C37.009 42.3932 32.6358 40.5552 29.2876 37.3561C29.2174 37.2889 29.1765 37.1978 29.1726 37.0989C29.1707 37 29.2058 36.907 29.272 36.8358C29.3422 36.7606 29.4357 36.7191 29.5371 36.7191C29.6287 36.7191 29.7183 36.7547 29.7846 36.82C32.9963 39.8885 37.1903 41.6552 41.5947 41.7977L41.6961 41.8016V37.6469L41.6025 37.645C37.5956 37.5184 33.7466 35.7239 31.0435 32.7207C30.9091 32.5703 30.9188 32.3369 31.0669 32.2003C31.1351 32.137 31.2209 32.1034 31.3125 32.1034C31.4138 32.1034 31.5113 32.1469 31.5795 32.2241C34.1442 35.075 37.7964 36.7804 41.5947 36.905L41.6961 36.909V32.8374L41.6025 32.8334C38.2583 32.7187 35.1089 31.3298 32.7352 28.928C32.665 28.8588 32.628 28.7658 32.628 28.6669C32.628 28.568 32.665 28.477 32.7352 28.4077C32.8034 28.3365 32.895 28.2989 32.9924 28.2989C33.0899 28.2989 33.1795 28.3365 33.2477 28.4057C35.4831 30.669 38.4473 31.9788 41.5967 32.0955L41.698 32.0994V28.2039L41.6064 28.198C38.9813 28.0397 36.514 26.7597 34.8419 24.6863C34.7152 24.53 34.7366 24.2965 34.8926 24.166C34.9569 24.1126 35.0387 24.0829 35.1225 24.0829C35.2317 24.0829 35.335 24.1323 35.4032 24.2174C36.9564 26.1424 39.1547 27.2919 41.5928 27.4561L41.6961 27.464V24.0987L41.6084 24.0908C39.4139 23.889 37.6268 22.2054 37.2604 19.9974C37.2448 19.9005 37.2663 19.8035 37.3228 19.7224C37.3793 19.6413 37.4631 19.5899 37.5586 19.574C37.58 19.5701 37.5995 19.5681 37.621 19.5681C37.7983 19.5681 37.9484 19.6987 37.9776 19.8767C38.2836 21.7127 39.7686 23.1392 41.5908 23.3449L41.7 23.3568V17.473C41.7 17.2692 41.8637 17.105 42.0644 17.105C42.2651 17.105 42.4269 17.2692 42.4269 17.473V23.3568L42.5341 23.3449C44.3543 23.1392 45.8413 21.7127 46.1473 19.8767C46.1765 19.6987 46.3285 19.5681 46.5059 19.5681C46.5254 19.5681 46.5468 19.5701 46.5682 19.574C46.6637 19.5899 46.7475 19.6433 46.8041 19.7224C46.8606 19.8035 46.882 19.9005 46.8664 19.9974C46.4981 22.2034 44.709 23.887 42.5165 24.0928L42.4288 24.1007V27.4739L42.5302 27.4699C45.0267 27.371 47.3692 26.1859 48.9556 24.2194C49.0238 24.1343 49.1271 24.0849 49.2362 24.0849C49.32 24.0849 49.4019 24.1145 49.4682 24.1679C49.6221 24.2965 49.6455 24.53 49.5188 24.6863C47.7902 26.8289 45.2411 28.1109 42.5243 28.2079L42.4308 28.2118V32.0994L42.5321 32.0955C45.6796 31.9807 48.6457 30.669 50.883 28.4057C50.9513 28.3365 51.0429 28.2989 51.1383 28.2989C51.2358 28.2989 51.3274 28.3385 51.3956 28.4077C51.5379 28.5521 51.5379 28.7856 51.3956 28.93C49.0199 31.3338 45.8705 32.7207 42.5263 32.8354L42.4327 32.8394V36.911L42.5341 36.907C46.3344 36.7824 49.9866 35.075 52.5513 32.2261C52.6214 32.1489 52.715 32.1054 52.8183 32.1054C52.9099 32.1054 52.9976 32.139 53.0658 32.2023C53.2119 32.3388 53.2236 32.5723 53.0892 32.7227C50.3861 35.7259 46.5371 37.5203 42.5282 37.6469L42.4347 37.6489V41.8076L42.5341 41.8056C47.0282 41.7205 51.304 39.9498 54.5762 36.8219C54.6444 36.7567 54.7321 36.721 54.8237 36.721C54.925 36.721 55.0185 36.7626 55.0887 36.8378C55.2251 36.9862 55.2193 37.2196 55.0731 37.3581C51.6626 40.6166 47.2075 42.4585 42.5282 42.5416L42.4327 42.5435V53.6247L42.3977 53.8483L42.5828 53.7414C45.9271 51.5098 49.8151 50.3306 53.8278 50.3306C55.5564 50.3306 57.2675 50.5483 58.9163 50.9795V51.7412C57.2656 51.2961 55.5545 51.0686 53.8278 51.0686C49.9125 51.0686 46.1219 52.2319 42.8693 54.4339L42.7563 54.511L42.8654 54.5941C44.1477 55.5873 45.3171 56.7368 46.3422 58.0089L46.3967 58.0762L46.4688 58.0307C48.8777 56.5132 51.6509 55.7119 54.4923 55.7119C56.0008 55.7119 57.4897 55.9355 58.9182 56.3767V57.1503C57.4917 56.6853 56.0047 56.4499 54.4923 56.4499C51.8224 56.4499 49.2109 57.1958 46.9366 58.6044L46.845 58.6618L46.9093 58.7488C47.7122 59.8449 48.4099 61.0161 48.979 62.2328L49.0219 62.3219L49.1096 62.2783C50.8675 61.4138 52.7559 60.9765 54.7223 60.9765C56.1567 60.9765 57.5677 61.2159 58.9182 61.6868V62.4702C57.5755 61.9677 56.1645 61.7145 54.7223 61.7145C52.8572 61.7145 51.0682 62.1319 49.4019 62.953L49.3181 62.9945L49.3532 63.0816C50.2555 65.2479 50.7856 67.5429 50.9259 69.9071H50.1834V69.9012Z" fill="#384562" stroke="#384562" stroke-width="0.84963"/>
<path d="M42.0585 17.1978C42.2046 17.1978 42.3235 17.3185 42.3235 17.4669V23.2399V23.4615L42.5398 23.4378C44.403 23.2281 45.925 21.768 46.2388 19.8865C46.2602 19.7559 46.3713 19.661 46.4999 19.661C46.5155 19.661 46.5311 19.663 46.5467 19.6649C46.6169 19.6768 46.6773 19.7144 46.7182 19.7737C46.7591 19.8331 46.7767 19.9043 46.763 19.9755C46.4025 22.138 44.6485 23.788 42.4989 23.9878L42.3216 24.0036V24.1837V27.363V27.5687L42.5242 27.5608C45.048 27.4599 47.4159 26.261 49.0198 24.2747C49.0705 24.2114 49.1465 24.1757 49.2264 24.1757C49.2888 24.1757 49.3472 24.1975 49.396 24.2371C49.509 24.332 49.5265 24.5022 49.433 24.6169C47.7238 26.7378 45.2 28.0079 42.5106 28.1009L42.3216 28.1069V28.2988V31.9885V32.1943L42.5242 32.1864C45.6951 32.0697 48.6846 30.75 50.9395 28.4689C50.9901 28.4175 51.0564 28.3898 51.1266 28.3898C51.1987 28.3898 51.2649 28.4175 51.3156 28.4709C51.4189 28.5758 51.4189 28.7459 51.3156 28.8508C48.9575 31.2367 45.8315 32.6137 42.5106 32.7285L42.3216 32.7344V32.9263V36.8001V37.0038L42.5223 36.9979C46.3499 36.8713 50.0254 35.154 52.6097 32.2833C52.6603 32.226 52.7285 32.1963 52.8045 32.1963C52.8708 32.1963 52.9351 32.222 52.9858 32.2675C53.093 32.3684 53.1008 32.5385 53.0033 32.6493C50.3178 35.6328 46.4941 37.4154 42.5126 37.54L42.3235 37.5459V37.7378V41.7006V41.9024L42.5223 41.8985C47.0398 41.8134 51.339 40.0328 54.6306 36.8891C54.6794 36.8416 54.7437 36.8159 54.8119 36.8159C54.8859 36.8159 54.9541 36.8456 55.0048 36.901C55.0535 36.9544 55.0789 37.0217 55.0769 37.0949C55.075 37.1661 55.0457 37.2333 54.9931 37.2828C51.6001 40.5254 47.1684 42.3555 42.5145 42.4406L42.3235 42.4445V42.6384V53.6246L42.2495 54.0717L42.6217 53.8224C45.9504 51.6026 49.8189 50.4275 53.8121 50.4275C55.5076 50.4275 57.1856 50.6372 58.8032 51.0546V51.6105C57.1817 51.1832 55.5057 50.9676 53.8121 50.9676C49.8773 50.9676 46.0692 52.1368 42.801 54.3507L42.573 54.505L42.7893 54.6731C44.0658 55.6624 45.2312 56.8059 46.2485 58.0721L46.3577 58.2066L46.5038 58.1156C48.8971 56.608 51.6528 55.8107 54.4747 55.8107C55.9481 55.8107 57.4039 56.0264 58.8032 56.4498V57.0156C57.4058 56.5744 55.952 56.3509 54.4747 56.3509C51.7872 56.3509 49.1563 57.1007 46.8683 58.5212L46.6851 58.634L46.8118 58.8081C47.6108 59.8982 48.3046 61.0654 48.8717 62.2743L48.9555 62.4543L49.1329 62.3672C50.8771 61.5106 52.7519 61.0753 54.7027 61.0753C56.102 61.0753 57.4799 61.3048 58.8012 61.7559V62.3277C57.4877 61.8548 56.1098 61.6135 54.7027 61.6135C52.824 61.6135 51.0194 62.0329 49.3394 62.8618L49.1738 62.943L49.2459 63.1151C50.1307 65.2399 50.6549 67.4874 50.805 69.8022H50.271C50.1248 67.5903 49.6259 65.4397 48.786 63.4059C48.6749 63.1349 48.5502 62.85 48.4059 62.5354C47.8388 61.3266 47.1489 60.1633 46.3518 59.0811C46.1842 58.8536 46.001 58.6181 45.775 58.3372C44.7362 57.0571 43.5435 55.9077 42.228 54.9185C41.9786 54.7285 41.7155 54.5426 41.427 54.3467C38.1588 52.1329 34.3507 50.9636 30.4159 50.9636C28.6424 50.9636 26.8865 51.201 25.1929 51.6679V51.108C26.8904 50.653 28.6463 50.4215 30.4159 50.4215C34.3604 50.4215 38.188 51.569 41.4894 53.7393L41.7895 53.9372V53.5731V42.6265V42.4346L41.6005 42.4287C37.0323 42.2902 32.6824 40.4601 29.3499 37.2769C29.2973 37.2274 29.268 37.1601 29.2661 37.0889C29.2641 37.0177 29.2895 36.9484 29.3382 36.897C29.3889 36.8416 29.459 36.8119 29.5331 36.8119C29.6013 36.8119 29.6656 36.8377 29.7143 36.8851C32.9436 39.9695 37.161 41.7461 41.5868 41.8886L41.7876 41.8945V41.6907V37.7339V37.542L41.5985 37.536C37.617 37.4114 33.7933 35.6288 31.1097 32.6454C31.061 32.592 31.0357 32.5227 31.0396 32.4495C31.0435 32.3783 31.0727 32.313 31.1272 32.2635C31.176 32.218 31.2403 32.1923 31.3065 32.1923C31.3826 32.1923 31.4508 32.224 31.5014 32.2813C34.0837 35.1501 37.7593 36.8693 41.5868 36.994L41.7876 36.9999V36.7961V32.9263V32.7344L41.5985 32.7285C38.2796 32.6137 35.1536 31.2367 32.7955 28.8508C32.7448 28.7993 32.7175 28.7321 32.7175 28.6608C32.7175 28.5896 32.7448 28.5223 32.7974 28.4689C32.8481 28.4175 32.9144 28.3898 32.9845 28.3898C33.0547 28.3898 33.1209 28.4175 33.1716 28.4689C35.4245 30.75 38.4121 32.0697 41.5849 32.1864L41.7876 32.1943V31.9885V28.2889V28.1029L41.6044 28.091C39.0046 27.9347 36.5646 26.6686 34.9081 24.615C34.8632 24.5596 34.8418 24.4883 34.8496 24.4171C34.8574 24.3459 34.8905 24.2806 34.9451 24.2351C34.9938 24.1955 35.0523 24.1738 35.1146 24.1738C35.1945 24.1738 35.2706 24.2094 35.3212 24.2727C36.892 26.2195 39.1157 27.3828 41.581 27.547L41.7895 27.5608V27.3491V24.1817V24.0016L41.6122 23.9858C39.4626 23.788 37.7105 22.138 37.3519 19.9755C37.3402 19.9043 37.3558 19.8331 37.3968 19.7757C37.4377 19.7164 37.4981 19.6788 37.5702 19.6669C37.5858 19.6649 37.5995 19.663 37.615 19.663C37.7437 19.663 37.8528 19.7579 37.8762 19.8885C38.19 21.768 39.7101 23.2281 41.5732 23.4398L41.7895 23.4635V23.2419V17.4689C41.7915 17.3185 41.9103 17.1978 42.0585 17.1978ZM42.0585 17C41.8032 17 41.5966 17.2097 41.5966 17.4669V23.2399C39.8212 23.0381 38.3732 21.675 38.0691 19.8529C38.0302 19.6234 37.8353 19.4631 37.617 19.4631C37.5917 19.4631 37.5663 19.4651 37.539 19.4691C37.2876 19.5106 37.1181 19.754 37.161 20.0072C37.539 22.2844 39.3671 23.9759 41.5966 24.1817V27.3511C39.2092 27.1909 37.005 26.0434 35.4752 24.148C35.3836 24.0353 35.2511 23.9779 35.1185 23.9779C35.0152 23.9779 34.912 24.0135 34.8262 24.0828C34.6294 24.247 34.6001 24.5418 34.7619 24.7416C36.4672 26.8545 38.9325 28.1286 41.5966 28.2889V31.9885C38.4686 31.8738 35.5414 30.5839 33.3139 28.3285C33.2242 28.2374 33.1073 28.1919 32.9884 28.1919C32.8695 28.1919 32.7526 28.2374 32.663 28.3304C32.4817 28.5124 32.4817 28.8092 32.663 28.9912C35.0659 31.4227 38.2231 32.8096 41.5966 32.9263V36.8001C37.8158 36.6754 34.2123 34.9977 31.6496 32.1508C31.5599 32.0499 31.4352 31.9984 31.3104 31.9984C31.1994 31.9984 31.0883 32.04 30.9986 32.1211C30.8096 32.2952 30.7979 32.59 30.9694 32.7819C33.7056 35.8227 37.5566 37.6112 41.5966 37.7378V41.6947C37.2097 41.5542 33.0586 39.8092 29.8507 36.7447C29.7611 36.6596 29.6481 36.618 29.535 36.618C29.4122 36.618 29.2895 36.6675 29.1998 36.7645C29.0244 36.9524 29.0342 37.2492 29.2193 37.4252C32.5987 40.654 36.9739 42.49 41.5966 42.6305V53.5771C38.3751 51.4582 34.5358 50.2276 30.4179 50.2276C28.5431 50.2276 26.7267 50.4828 25 50.9596V51.9311C26.7228 51.4305 28.5411 51.1634 30.4179 51.1634C34.4462 51.1634 38.1978 52.398 41.3218 54.5129C41.5907 54.6949 41.8558 54.8829 42.115 55.0787C43.4188 56.058 44.5998 57.1956 45.6288 58.4638C45.8237 58.7052 46.0147 58.9485 46.1998 59.1998C46.9833 60.2642 47.6673 61.4097 48.2344 62.6205C48.365 62.9034 48.4917 63.1903 48.6106 63.4811C49.4466 65.507 49.9611 67.703 50.0917 70H51.0155C50.881 67.5428 50.3295 65.1984 49.4291 63.0379C51.0252 62.2505 52.8162 61.8093 54.7066 61.8093C56.217 61.8093 57.665 62.0922 59 62.6086V61.6115C57.6553 61.1347 56.2112 60.8735 54.7066 60.8735C52.6818 60.8735 50.7621 61.3444 49.051 62.1852C48.4702 60.9467 47.7706 59.7755 46.9716 58.6854C49.1602 57.3282 51.7307 56.5447 54.4767 56.5447C56.0553 56.5447 57.5773 56.8039 59 57.2827V56.2994C57.5695 55.8503 56.0494 55.6089 54.4767 55.6089C51.5163 55.6089 48.7509 56.4636 46.4025 57.9435C45.3754 56.6674 44.2022 55.514 42.9101 54.5129C46.0342 52.398 49.7838 51.1634 53.8141 51.1634C55.609 51.1634 57.3454 51.4068 59 51.8658V50.8983C57.3435 50.4591 55.6051 50.2276 53.8141 50.2276C49.6474 50.2276 45.7633 51.4879 42.5164 53.6543C42.5184 53.6424 42.5184 53.6325 42.5184 53.6206V42.6364C47.2269 42.5513 51.6917 40.7075 55.1276 37.4252C55.3127 37.2492 55.3205 36.9524 55.1471 36.7645C55.0555 36.6675 54.9327 36.618 54.8119 36.618C54.6988 36.618 54.5858 36.6596 54.4962 36.7447C51.2318 39.8646 46.9911 41.6156 42.5184 41.7006V37.7378C46.5604 37.6112 50.4113 35.8227 53.1475 32.7819C53.319 32.59 53.3054 32.2952 53.1183 32.1211C53.0287 32.038 52.9176 31.9984 52.8065 31.9984C52.6818 31.9984 52.559 32.0499 52.4674 32.1508C49.9046 34.9977 46.2992 36.6754 42.5184 36.8001V32.9263C45.8938 32.8096 49.051 31.4227 51.454 28.9912C51.6333 28.8092 51.6333 28.5124 51.454 28.3304C51.3643 28.2374 51.2454 28.1919 51.1285 28.1919C51.0116 28.1919 50.8927 28.2374 50.8031 28.3285C48.5735 30.5839 45.6483 31.8738 42.5184 31.9885V28.2988C45.2702 28.2018 47.831 26.9159 49.585 24.7416C49.7468 24.5418 49.7175 24.247 49.5207 24.0828C49.4349 24.0115 49.3316 23.9779 49.2284 23.9779C49.0958 23.9779 48.9633 24.0353 48.8717 24.148C47.2931 26.1047 44.9935 27.2641 42.5184 27.363V24.1837C44.746 23.9759 46.5759 22.2844 46.956 20.0072C46.9989 19.754 46.8293 19.5106 46.5779 19.4691C46.5526 19.4651 46.5253 19.4631 46.4999 19.4631C46.2797 19.4631 46.0848 19.6254 46.0459 19.8529C45.7418 21.677 44.2938 23.0401 42.5184 23.2399V17.4669C42.5184 17.2097 42.3118 17 42.0585 17Z" fill="#384562" stroke="#384562" stroke-width="0.84963"/>
</g>
<defs>
<clipPath id="clip0_40_479">
<rect width="34" height="53" fill="white" transform="translate(25 17)"/>
</clipPath>
</defs>
</svg>
