<svg width="18" height="30" viewBox="0 0 18 30" fill="none" xmlns="http://www.w3.org/2000/svg">
<g clip-path="url(#clip0_18_2992)">
<path d="M10.416 5.96695C11.6565 5.96695 12.6621 4.93985 12.6621 3.67287C12.6621 2.40588 11.6565 1.37878 10.416 1.37878C9.17552 1.37878 8.16992 2.40588 8.16992 3.67287C8.16992 4.93985 9.17552 5.96695 10.416 5.96695Z" stroke="#FFD9A1" stroke-width="1.75758"/>
<path d="M4.4636 10.6194L4.16562 10.7714L4.04414 11.0831L2.67363 14.5994C2.32351 15.4977 2.70978 16.5153 3.56782 16.955C4.29384 17.327 5.13304 17.1787 5.69029 16.6732L4.92831 20.7801L1.61935 25.0872C0.995987 25.8986 1.12392 27.0573 1.90928 27.7132C2.75528 28.4197 4.0223 28.2642 4.67231 27.374L3.97603 26.8656L4.67231 27.374L8.26044 22.4602L8.38304 22.2923L8.41741 22.0872L8.69148 20.4525L9.74477 21.246V26.222C9.74477 27.2786 10.6013 28.1351 11.6579 28.1351C12.7145 28.1351 13.571 27.2786 13.571 26.222V20.0949V19.7005L13.2765 19.4384L10.7809 17.2174L10.9264 16.528L11.0091 16.5591L14.2459 17.775C15.233 18.1458 16.3348 17.6543 16.7185 16.6721C17.1091 15.672 16.6069 14.5456 15.602 14.1675L13.175 13.2545L12.0289 10.2662C11.6435 9.2615 10.7207 8.56245 9.64884 8.46415C9.11716 8.41539 8.58255 8.51828 8.10695 8.76089L8.50629 9.54371L8.10695 8.76089L4.4636 10.6194Z" stroke="#FFD9A1" stroke-width="1.75758"/>
</g>
<defs>
<clipPath id="clip0_18_2992">
<rect width="18" height="29" fill="white" transform="translate(0 0.5)"/>
</clipPath>
</defs>
</svg>
