<svg width="50" height="30" viewBox="0 0 50 30" fill="none" xmlns="http://www.w3.org/2000/svg">
<circle cx="10.5" cy="19.5095" r="3.5" stroke="#FFD9A1" stroke-width="2"/>
<circle cx="39.5" cy="19.5095" r="3.5" stroke="#FFD9A1" stroke-width="2"/>
<path d="M13.1759 20.428C16.8662 20.5471 28.0408 20.7123 36.4867 20.428M42.2299 20.428C43.9135 20.479 48.1252 20.3158 48.2885 19.2546C48.4925 17.9281 48.5436 16.7037 48.6456 15.7853C48.7476 14.867 46.5028 11.8569 35.942 11.8569C35.7471 11.8569 35.5427 11.8569 35.3298 11.8569M9.87163 8.59175C11.0451 7.8945 14.147 6.5 17.1673 6.5C19.1735 6.5 20.2853 6.5 20.8406 6.5M9.87163 8.59175C12.1647 10.9576 17.6037 11.7141 20.8406 11.838M9.87163 8.59175L7.06562 10.4284H3.13721C2.79708 10.4454 2.11684 10.6427 2.11684 11.2957C2.11684 11.9488 2.11684 13.5745 2.11684 14.3058L1.35156 14.867V17.571L7.5 20.0095M35.3298 11.8569C31.4849 11.8569 24.8769 11.8569 21.912 11.8569C21.5936 11.8588 21.2333 11.853 20.8406 11.838M35.3298 11.8569C30.3912 7.6122 23.9187 6.51701 21.2997 6.5C21.2598 6.5 21.1213 6.5 20.8406 6.5M20.8406 6.5V11.838" stroke="#FFD9A1" stroke-width="2"/>
</svg>
