<svg width="60" height="65" viewBox="0 0 60 65" fill="none" xmlns="http://www.w3.org/2000/svg">
<path d="M60 0H0V65.0007H60V0Z" fill="#17181B"/>
<path d="M8.57543 46.3392C8.57543 46.6289 8.94503 46.7427 10.301 46.7427C11.7926 46.7427 11.981 46.6457 11.981 46.4649C11.981 46.2721 11.879 46.1751 10.085 46.1189C7.66583 46.0398 7.02263 45.6411 7.02263 44.761C7.02263 43.8235 7.87703 43.335 10.1882 43.335C12.6482 43.335 13.4222 43.6415 13.4222 44.6305C13.4222 44.7155 13.4222 44.8005 13.4162 44.8975C13.2458 44.8868 12.9434 44.8808 12.653 44.8808C12.3518 44.8808 12.0494 44.8868 11.879 44.8975V44.7898C11.879 44.5 11.6738 44.403 10.1654 44.403C8.77583 44.403 8.57183 44.488 8.57183 44.6593C8.57183 44.8293 8.67983 44.9035 10.5878 45.0005C12.8486 45.1143 13.5422 45.4435 13.5422 46.3978C13.5422 47.3917 12.7514 47.8694 10.3202 47.8694C7.83743 47.8694 6.99023 47.4551 6.99023 46.5906C6.99023 46.4888 6.99623 46.3799 7.01303 46.2673C7.21223 46.2901 7.51343 46.3068 7.79903 46.3068C8.08943 46.3068 8.36303 46.3009 8.57903 46.2901V46.3392H8.57543Z" fill="#F1F4FA"/>
<path d="M21.0086 47.7317C21.0314 47.1234 21.0482 46.5331 21.0542 45.8291C21.0542 45.5393 21.077 45.2268 21.0938 44.9263L21.0542 44.9155C20.9114 45.1993 20.753 45.495 20.5586 45.7453L19.055 47.7341H18.275L16.5902 45.4962C16.4018 45.246 16.2374 44.9514 16.0946 44.6784L16.055 44.6892C16.0718 44.9849 16.0946 45.2795 16.1006 45.604C16.1066 46.399 16.1234 47.0636 16.157 47.7341H14.6306C14.6642 47.1211 14.6762 46.5008 14.6762 45.598C14.6762 44.6664 14.6654 44.0294 14.6474 43.4727H16.9358C17.249 43.9324 17.7158 44.6257 18.3026 45.4723C18.4562 45.6878 18.6218 45.9321 18.7814 46.1823H18.815C18.9686 45.9261 19.1162 45.6818 19.259 45.4723C19.805 44.6604 20.3174 43.9217 20.6258 43.4727H22.6466C22.6298 44.0294 22.613 44.6652 22.613 45.598C22.613 46.5008 22.619 47.1211 22.6586 47.7341H21.0086V47.7317Z" fill="#F1F4FA"/>
<path d="M29.2324 47.731C29.1808 47.6064 29.044 47.3274 28.8568 46.9814C28.2652 46.9754 27.6664 46.9754 27.2116 46.9754C26.7964 46.9754 26.1868 46.9754 25.612 46.9814C25.4188 47.3047 25.2652 47.5777 25.1908 47.731H23.3176C24.1312 46.6066 25.7092 44.2203 26.0788 43.4707H28.4476C28.8352 44.2203 30.412 46.5779 31.2604 47.731H29.2324ZM26.8588 44.9411C26.6656 45.2476 26.4436 45.6056 26.2264 45.9636C26.5852 45.9696 26.944 45.9696 27.2176 45.9696C27.514 45.9696 27.9004 45.9696 28.288 45.9636C28.0768 45.5996 27.8548 45.2368 27.6556 44.9291C27.4792 44.6621 27.3544 44.4406 27.2572 44.2646L26.8588 44.9411Z" fill="#F1F4FA"/>
<path d="M36.7703 45.9866C37.7663 46.0836 38.2223 46.2428 38.4047 46.8894C38.5067 47.2582 38.5979 47.566 38.6723 47.73H37.2551C36.9995 47.73 36.9539 47.6737 36.8111 47.1169C36.6863 46.6164 36.4979 46.5254 35.4623 46.5254H33.4247C33.4355 47.008 33.4583 47.4235 33.4931 47.73H31.8647C31.8755 47.1109 31.8875 46.5147 31.8875 45.5999C31.8875 44.697 31.8815 44.0828 31.8647 43.4697H36.1007C37.6439 43.4697 38.3663 43.8732 38.3663 44.7366C38.3663 45.4693 37.8875 45.8441 36.7727 45.9639V45.9866H36.7703ZM35.6027 45.4646C36.5195 45.4646 36.8495 45.3113 36.8495 44.9988C36.8495 44.6755 36.5255 44.5665 35.6195 44.5665C35.1863 44.5665 33.9743 44.5725 33.3995 44.5893C33.3995 44.879 33.3995 45.1688 33.4055 45.4466C33.8159 45.4646 34.6859 45.4646 35.6027 45.4646Z" fill="#F1F4FA"/>
<path d="M45.0636 43.4697C45.0528 43.635 45.0528 43.884 45.0528 44.1055C45.0528 44.3211 45.0528 44.5881 45.0636 44.7701C44.2728 44.7473 43.4868 44.7473 42.8028 44.7473C42.8028 46.1734 42.8088 47.4055 42.8256 47.736C42.6156 47.7192 42.2616 47.7192 42.0228 47.7192C41.784 47.7192 41.448 47.7192 41.22 47.736C41.2368 47.4067 41.2488 46.1794 41.2488 44.7473C40.566 44.7473 39.78 44.7473 38.988 44.7701C38.994 44.5881 38.994 44.327 38.994 44.1055C38.994 43.884 38.994 43.6398 38.988 43.4697H45.0636Z" fill="#F1F4FA"/>
<path d="M10.5959 54.7398C7.94267 54.7398 6.85547 53.7963 6.85547 52.4049C6.85547 50.9561 8.05667 50.0928 10.5959 50.0928C13.1351 50.0928 14.3363 50.9561 14.3363 52.4049C14.3363 53.7975 13.2491 54.7398 10.5959 54.7398ZM12.7367 52.4109C12.7367 51.7116 12.1847 51.3261 10.5959 51.3261C9.00707 51.3261 8.45507 51.7128 8.45507 52.4109C8.45507 53.0982 9.00107 53.5077 10.5959 53.5077C12.1967 53.5077 12.7367 53.0982 12.7367 52.4109Z" fill="#F1F4FA"/>
<path d="M20.2686 52.803C21.2646 52.9 21.7206 53.0593 21.903 53.7058C22.005 54.0746 22.0962 54.3823 22.1706 54.5464H20.7534C20.4978 54.5464 20.4522 54.4901 20.3094 53.9333C20.1846 53.4328 19.9962 53.3418 18.9606 53.3418H16.923C16.9338 53.8244 16.9566 54.2399 16.9914 54.5464H15.363C15.3738 53.9273 15.3858 53.3311 15.3858 52.4163C15.3858 51.5134 15.3798 50.8992 15.363 50.2861H19.599C21.1422 50.2861 21.8646 50.6896 21.8646 51.553C21.8646 52.2857 21.3858 52.6605 20.271 52.7803V52.803H20.2686ZM19.101 52.281C20.0178 52.281 20.3478 52.1277 20.3478 51.8152C20.3478 51.4919 20.0238 51.3829 19.1178 51.3829C18.6846 51.3829 17.4726 51.3889 16.8978 51.4057C16.8978 51.6954 16.8978 51.9852 16.9038 52.263C17.3142 52.281 18.1854 52.281 19.101 52.281Z" fill="#F1F4FA"/>
<path d="M28.2368 54.5464C28.1852 54.4219 28.0484 54.1429 27.8612 53.7968C27.2696 53.7908 26.6708 53.7908 26.216 53.7908C25.8008 53.7908 25.1912 53.7908 24.6164 53.7968C24.4232 54.1201 24.2696 54.3931 24.1952 54.5464H22.322C23.1356 53.4221 24.7136 51.0357 25.0832 50.2861H27.452C27.8396 51.0357 29.4164 53.3933 30.2648 54.5464H28.2368ZM25.8632 51.7565C25.67 52.063 25.448 52.421 25.2308 52.7791C25.5896 52.785 25.9484 52.7851 26.222 52.7851C26.5184 52.7851 26.9048 52.785 27.2924 52.7791C27.0812 52.4151 26.8592 52.0523 26.66 51.7445C26.4836 51.4775 26.3588 51.256 26.2616 51.08L25.8632 51.7565Z" fill="#F1F4FA"/>
<path d="M37.7209 50.2861C37.7041 50.8094 37.6981 51.5075 37.6981 52.4115C37.6981 53.349 37.6981 53.9788 37.7089 54.5476H36.0865C35.7505 54.1668 33.9804 52.9623 33.0012 52.281C32.7624 52.1109 32.5176 51.9397 32.3184 51.7589C32.3412 52.1002 32.3473 52.4402 32.3581 52.7875C32.3641 53.6675 32.3688 54.2866 32.3868 54.5488H30.9229C30.9229 53.9753 30.9396 53.3275 30.9396 52.4187C30.9396 51.5158 30.9397 50.8681 30.9229 50.2885H32.7793C32.9893 50.5615 34.9428 51.9469 35.814 52.5444C36.0192 52.6809 36.2245 52.7886 36.3781 52.9359C36.3553 52.6234 36.3445 52.3229 36.3445 52.0894C36.3445 51.3003 36.3276 50.5903 36.3048 50.2885H37.7209V50.2861Z" fill="#F1F4FA"/>
<path d="M42.5371 54.6836C40.1407 54.6836 38.7451 53.9964 38.7451 52.3883C38.7451 50.6952 40.1971 50.1504 42.4519 50.1504C44.6035 50.1504 45.9355 50.5024 45.9355 51.7752C45.9355 51.8147 45.9355 51.8602 45.9295 51.8998C45.7591 51.8878 45.4567 51.883 45.1663 51.883C44.8531 51.883 44.5567 51.889 44.3803 51.8998C44.3803 51.877 44.3863 51.8543 44.3863 51.8315C44.3863 51.434 43.8451 51.3083 42.4447 51.3083C40.9639 51.3083 40.3495 51.61 40.3495 52.4158C40.3495 53.1486 40.9243 53.5402 42.5359 53.5402C43.7371 53.5402 44.2663 53.3582 44.4199 52.9726C43.6291 52.9726 42.5635 52.9786 41.8579 52.9954C41.8639 52.9103 41.8639 52.7283 41.8639 52.6433C41.8639 52.4901 41.8639 52.3536 41.8579 52.2458C42.7807 52.2626 43.7251 52.2578 44.4139 52.2578C44.8351 52.2578 45.3763 52.2638 45.9403 52.2458C46.0447 53.7796 45.6571 54.6836 42.5371 54.6836Z" fill="#F1F4FA"/>
<path d="M53.1425 50.2861C53.1365 50.4107 53.1317 50.6094 53.1317 50.7866C53.1317 50.9686 53.1317 51.1734 53.1425 51.2919C51.9581 51.2859 49.8173 51.2812 48.7529 51.2812V51.9349C49.9829 51.9349 52.1285 51.9349 53.0801 51.9182C53.0741 52.1397 53.0693 52.5947 53.0741 52.833C52.1405 52.8222 49.9709 52.8102 48.7529 52.8102V53.4747C49.8173 53.4747 52.0325 53.4688 53.1425 53.464C53.1317 53.6005 53.1317 53.816 53.1317 54.0148C53.1317 54.1968 53.1317 54.4063 53.1425 54.5488H47.1245C47.1473 53.9693 47.1473 53.3275 47.1473 52.4187C47.1473 51.5158 47.1473 50.8621 47.1245 50.2885H53.1425V50.2861Z" fill="#F1F4FA"/>
<path d="M14.1585 32.0537C13.8285 32.0537 13.5177 32.0166 13.2273 31.94C12.2337 31.6765 11.5425 30.9569 11.2245 29.8565C8.70334 27.9216 7.20574 25.1892 7.00534 22.1562C6.78574 18.8443 8.10094 15.5934 10.7085 13.0023L10.8813 12.8311L10.9461 13.0645C11.9481 16.695 17.1441 22.9824 22.5273 27.081L22.6569 27.1792L22.5417 27.2941C19.5045 30.3139 16.4025 32.0537 14.1585 32.0537ZM10.7409 13.3723C8.30494 15.8772 7.07974 18.9808 7.28854 22.1371C7.48414 25.103 8.95654 27.7743 11.4345 29.6602L11.4729 29.6889L11.4849 29.7344C11.7717 30.7725 12.3825 31.4227 13.2993 31.6646C13.5705 31.7364 13.8633 31.7711 14.1729 31.7711C16.3041 31.7711 19.2777 30.1032 22.2249 27.2055C16.9581 23.162 11.8965 17.053 10.7409 13.3723Z" fill="#F1F4FA"/>
<path d="M13.4511 31.974C10.7019 29.881 8.04505 26.6577 7.52905 24.7873L7.80265 24.7119C8.30545 26.5319 10.9167 29.6882 13.6227 31.7489L13.4511 31.974Z" fill="#F1F4FA"/>
<path d="M17.4298 31.05C12.7414 27.4807 8.21265 21.9895 7.33545 18.8069L7.60905 18.7314C8.47305 21.8626 12.9562 27.2879 17.6026 30.8249L17.4298 31.05Z" fill="#F1F4FA"/>
<path d="M11.2947 29.9059C9.83549 29.306 8.91149 28.2248 8.62229 26.7759C8.09189 24.119 9.71789 20.6023 12.9711 17.3682L13.1715 17.5681C9.98549 20.7352 8.38949 24.1561 8.90069 26.7197C9.16949 28.0703 10.0359 29.0809 11.4027 29.6425L11.2947 29.9059Z" fill="#F1F4FA"/>
<path d="M10.844 30.122C10.7672 30.122 10.7036 30.0968 10.6568 30.037C10.5596 29.91 10.3964 29.6993 12.2324 27.5859C13.4072 26.2329 15.1064 24.4476 17.144 22.4229L17.3444 22.6228C12.8072 27.1333 11.048 29.3449 10.904 29.8298C10.964 29.8131 11.0768 29.7676 11.2772 29.6514L11.42 29.8957C11.21 30.0166 11.0012 30.122 10.844 30.122Z" fill="#F1F4FA"/>
<path d="M19.5741 32.5541C18.1101 32.5541 16.6593 32.3469 15.2841 31.9266C14.5245 32.0907 13.8309 32.1003 13.2285 31.941C12.2205 31.674 11.5245 30.9376 11.2137 29.8121L11.1021 29.4074L11.4369 29.6624C12.6009 30.5485 13.9137 31.2058 15.3057 31.6381C17.3277 31.1783 19.8489 29.575 22.3437 27.0952L22.4313 27.0078L22.5297 27.0832C24.7917 28.8051 26.4141 29.666 27.5589 30.0707C28.5513 29.4744 29.4801 28.7596 30.3153 27.9286L30.4881 27.7574L30.5529 27.9909C30.9693 29.5008 30.5625 30.1521 30.1473 30.4311C29.6012 30.7987 28.7205 30.7712 27.5889 30.3808C25.1445 31.8177 22.3353 32.5541 19.5741 32.5541ZM15.8217 31.7889C19.5381 32.7852 23.7537 32.2368 27.2421 30.2551C25.9137 29.7354 24.2781 28.7632 22.4541 27.3838C20.1393 29.6648 17.7921 31.201 15.8217 31.7889ZM11.6265 30.1533C11.9505 30.9508 12.5121 31.4597 13.3005 31.668C13.7265 31.7806 14.2017 31.8033 14.7189 31.741C13.6209 31.3531 12.5793 30.825 11.6265 30.1533ZM27.9105 30.1856C29.2461 30.5832 29.8269 30.3054 29.9865 30.1976C30.5361 29.8276 30.4989 29.005 30.3369 28.3022C29.5905 29.0194 28.7757 29.648 27.9105 30.1856Z" fill="#F1F4FA"/>
<path d="M16.9309 33.6933C16.1533 33.6933 14.9149 33.0899 13.4509 31.9751L13.6225 31.75C15.7057 33.3365 16.9081 33.5868 17.3053 33.3198C17.5801 33.1342 17.5213 32.6744 17.4241 32.3211L17.6977 32.2457C17.9197 33.048 17.6929 33.4 17.4649 33.5544C17.3257 33.6478 17.1457 33.6933 16.9309 33.6933Z" fill="#F1F4FA"/>
<path d="M23.3121 33.9743C22.0149 33.9743 19.9209 32.9457 17.4297 31.0503L17.6013 30.8252C20.5701 33.0846 23.0901 34.1407 24.0189 33.5133C24.5385 33.1637 24.4377 32.3315 24.2625 31.6945L24.5361 31.6191C24.8985 32.9338 24.5421 33.5025 24.1785 33.748C23.9529 33.9001 23.6613 33.9743 23.3121 33.9743Z" fill="#F1F4FA"/>
<path d="M18.844 33.9328C18.5512 33.9328 18.2584 33.9197 17.968 33.8921C15.2404 33.6383 12.8488 32.205 11.2336 29.8558L11.4676 29.6953C13.0348 31.9739 15.3532 33.3641 17.9956 33.6095C21.118 33.9005 24.4144 32.569 27.0412 29.9575L27.2416 30.1575C24.7972 32.587 21.7804 33.9328 18.844 33.9328Z" fill="#F1F4FA"/>
<path d="M21.1084 34.1458C21.0556 34.1458 21.0028 34.1458 20.95 34.1446C17.2948 34.1015 13.8484 32.5832 11.248 29.87L11.4532 29.6748C14.0008 32.3318 17.3752 33.8189 20.9548 33.862C21.0064 33.862 21.058 33.8632 21.1108 33.8632C24.4408 33.8632 27.5572 32.5856 29.902 30.2543L30.1024 30.4543C27.7012 32.8395 24.514 34.1458 21.1084 34.1458Z" fill="#F1F4FA"/>
<path d="M19.5742 32.5506C16.5694 32.5506 13.6198 31.6778 11.263 29.8841L11.2246 29.8554L11.2126 29.8099C10.1914 26.11 13.5418 18.9437 18.6826 13.8345L18.7702 13.7471L18.8686 13.8225C24.295 17.9534 29.5354 24.3079 30.5518 27.9886L30.5734 28.0677L30.5146 28.1263C27.5842 31.0384 23.5306 32.5506 19.5742 32.5506ZM11.473 29.6889C16.8046 33.7145 25.201 32.9494 30.2554 27.9851C29.2066 24.3654 24.1042 18.1929 18.7954 14.123C13.7902 19.14 10.5226 26.0848 11.473 29.6889Z" fill="#F1F4FA"/>
<path d="M17.4242 32.3197C16.9214 30.4997 14.3114 27.3434 11.6042 25.2827L11.7758 25.0576C14.525 27.1506 17.1806 30.374 17.6978 32.2443L17.4242 32.3197Z" fill="#F1F4FA"/>
<path d="M24.2641 31.6926C23.4001 28.5615 18.9169 23.1362 14.2705 19.5991L14.4421 19.374C19.1305 22.9434 23.6581 28.4346 24.5365 31.6172L24.2641 31.6926Z" fill="#F1F4FA"/>
<path d="M14.2189 30.4189C13.1377 30.4189 12.1465 30.2525 11.2957 29.9028L11.4037 29.6418C15.5149 31.3301 22.9825 28.6025 28.0537 23.5615L28.2541 23.7615C24.1501 27.8409 18.4801 30.4189 14.2189 30.4189Z" fill="#F1F4FA"/>
<path d="M11.4209 29.8951L11.2781 29.6508C13.1261 28.5768 18.7793 23.5765 23.8805 18.5068L24.0809 18.7068C18.9653 23.7921 13.2869 28.8114 11.4209 29.8951Z" fill="#F1F4FA"/>
<path d="M11.5959 30.1409L11.2611 29.8859C8.71831 27.9497 7.20631 25.2041 7.00471 22.1568C6.78751 18.87 8.08111 15.6431 10.6491 13.0603C10.2687 11.6067 10.6683 10.9745 11.0763 10.6991C12.3003 9.87412 15.2127 11.0416 18.8655 13.8231L18.9951 13.9212L18.8799 14.0362C13.8051 19.0819 10.4871 26.1249 11.4831 29.7362L11.5959 30.1409ZM12.0771 10.7386C11.5887 10.7386 11.3343 10.8679 11.2359 10.9338C10.6227 11.3469 10.7391 12.3204 10.9443 13.0651L10.9659 13.1442L10.9071 13.2028C8.35951 15.7365 7.07311 18.9095 7.28671 22.1376C7.47391 24.9754 8.83111 27.545 11.1195 29.4141C10.4295 25.6471 13.6671 18.8736 18.5643 13.95C15.0183 11.2715 13.0671 10.7386 12.0771 10.7386Z" fill="#F1F4FA"/>
<path d="M11.6033 25.2854C9.52008 23.7001 8.31768 23.4486 7.92048 23.7156C7.64568 23.9012 7.70448 24.361 7.80168 24.7142L7.52808 24.7897C7.30608 23.9874 7.53288 23.6354 7.76088 23.4809C8.40648 23.0463 9.90648 23.6366 11.7749 25.0603L11.6033 25.2854Z" fill="#F1F4FA"/>
<path d="M14.2699 19.6016C11.3011 17.3421 8.78354 16.286 7.85234 16.9135C7.33274 17.2631 7.43354 18.0953 7.60874 18.7323L7.33514 18.8077C6.97274 17.493 7.32914 16.9242 7.69394 16.6788C8.75834 15.9616 11.2819 16.9697 14.4427 19.3765L14.2699 19.6016Z" fill="#F1F4FA"/>
<path d="M11.2317 29.8556C7.5957 24.5692 8.8305 16.1001 13.9833 10.9766L14.1837 11.1765C9.1221 16.2079 7.9029 24.5153 11.4657 29.6951L11.2317 29.8556Z" fill="#F1F4FA"/>
<path d="M11.2469 29.8721C6.01725 24.4193 5.96325 15.8077 11.1244 10.6758L11.3249 10.8757C6.27165 15.8987 6.32805 24.333 11.4521 29.6757L11.2469 29.8721Z" fill="#F1F4FA"/>
<path d="M22.4541 27.3809L22.3557 27.3055C16.9293 23.1746 11.6889 16.8201 10.6725 13.1394L10.6509 13.0603L10.7097 13.0017C15.8649 7.8769 24.5013 7.08783 29.9601 11.2439L29.9985 11.2727L30.0105 11.3182C31.0317 15.018 27.6813 22.1843 22.5417 27.2923L22.4541 27.3809ZM10.9677 13.1442C12.0165 16.7638 17.1189 22.9363 22.4289 27.0062C27.4329 21.9892 30.7005 15.0444 29.7489 11.4403C24.4173 7.41472 16.0221 8.17984 10.9677 13.1442Z" fill="#F1F4FA"/>
<path d="M26.7797 21.7541C22.0913 18.1848 17.5637 12.6936 16.6853 9.51098L16.9589 9.43555C17.8229 12.5667 22.3061 17.992 26.9525 21.5278L26.7797 21.7541Z" fill="#F1F4FA"/>
<path d="M29.4462 16.0736C26.697 13.9806 24.0402 10.7561 23.5242 8.88696L23.7978 8.81152C24.3006 10.6315 26.9106 13.7878 29.6178 15.8485L29.4462 16.0736Z" fill="#F1F4FA"/>
<path d="M13.1704 17.5689L12.97 17.369C18.1144 12.255 25.7212 9.501 29.9272 11.2288L29.8192 11.491C25.7092 9.80154 18.2404 12.528 13.1704 17.5689Z" fill="#F1F4FA"/>
<path d="M17.3442 22.6234L17.1438 22.4234C22.2582 17.3394 27.9366 12.32 29.8026 11.2363L29.9454 11.4806C28.0962 12.5546 22.4442 17.5525 17.3442 22.6234Z" fill="#F1F4FA"/>
<path d="M29.1512 30.6934C27.656 30.6934 25.2357 29.5032 22.3545 27.3108L22.2249 27.2126L22.3401 27.0976C27.4148 22.0531 30.7328 15.0101 29.7356 11.3989L29.624 10.9941L29.9588 11.2492C32.5016 13.1853 34.0136 15.9309 34.2152 18.9782C34.4324 22.265 33.1388 25.492 30.5708 28.0735C30.9512 29.5271 30.5516 30.1593 30.1436 30.4347C29.8856 30.6083 29.552 30.6934 29.1512 30.6934ZM22.6569 27.1827C27.9548 31.1819 29.69 30.3976 29.9864 30.1988C30.5996 29.7857 30.4832 28.8123 30.278 28.0675L30.2564 27.9885L30.3152 27.9298C32.8628 25.3974 34.148 22.2243 33.9344 18.9962C33.7472 16.1584 32.39 13.5889 30.1016 11.7197C30.7916 15.4879 27.554 22.2602 22.6569 27.1827Z" fill="#F1F4FA"/>
<path d="M32.6632 24.6794C31.366 24.6794 29.272 23.6508 26.7808 21.7554L26.9524 21.5303C29.9212 23.7897 32.44 24.8458 33.37 24.2184C33.8896 23.8687 33.7888 23.0366 33.6136 22.3996L33.8872 22.3241C34.2496 23.6389 33.8932 24.2076 33.5296 24.4531C33.304 24.6039 33.0124 24.6794 32.6632 24.6794Z" fill="#F1F4FA"/>
<path d="M32.9263 17.7949C32.1487 17.7949 30.9103 17.1914 29.4463 16.0767L29.6179 15.8516C31.7011 17.4369 32.9035 17.6883 33.3007 17.4213C33.5755 17.2357 33.5167 16.7759 33.4195 16.4227L33.6931 16.3473C33.9151 17.1495 33.6883 17.5015 33.4603 17.656C33.3199 17.7482 33.1411 17.7949 32.9263 17.7949Z" fill="#F1F4FA"/>
<path d="M27.238 30.1581L27.0376 29.9581C32.0992 24.9268 33.3184 16.6194 29.7556 11.4407L29.9896 11.2803C33.6256 16.5667 32.392 25.0345 27.238 30.1581Z" fill="#F1F4FA"/>
<path d="M30.0993 30.4537L29.8989 30.2537C34.9509 25.2307 34.8945 16.7976 29.7705 11.4549L29.9757 11.2598C35.2053 16.7126 35.2605 25.3229 30.0993 30.4537Z" fill="#F1F4FA"/>
<path d="M30.3413 28.2993L30.2765 28.0658C29.2745 24.4353 24.0785 18.1479 18.6953 14.0493L18.5657 13.9511L18.6809 13.8362C22.1645 10.3734 25.7333 8.59288 27.9941 9.19156C28.9877 9.45499 29.6801 10.1746 29.9969 11.275C32.5181 13.21 34.0157 15.9424 34.2161 18.9753C34.4345 22.2861 33.1205 25.5369 30.5141 28.1281L30.3413 28.2993ZM18.9965 13.9224C24.2633 17.9683 29.3261 24.0761 30.4817 27.7581C32.9177 25.2544 34.1417 22.1508 33.9329 18.9945C33.7361 16.0286 32.2649 13.3572 29.7869 11.4714L29.7485 11.4426L29.7365 11.3971C29.4497 10.359 28.8389 9.70883 27.9221 9.46696C25.7813 8.89821 22.3721 10.6045 18.9965 13.9224Z" fill="#F1F4FA"/>
<path d="M33.613 22.3996C32.749 19.2685 28.2658 13.8432 23.6194 10.3062L23.791 10.0811C28.4794 13.6504 33.007 19.1416 33.8854 22.3242L33.613 22.3996Z" fill="#F1F4FA"/>
<path d="M33.4191 16.4183C32.9163 14.5983 30.3051 11.442 27.5991 9.38136L27.7707 9.15625C30.5199 11.2493 33.1767 14.4726 33.6927 16.3429L33.4191 16.4183Z" fill="#F1F4FA"/>
<path d="M28.2522 23.7629L28.0518 23.5629C31.2366 20.397 32.8326 16.9761 32.3214 14.4126C32.0526 13.0619 31.1874 12.0513 29.8194 11.4898L29.9274 11.2275C31.3866 11.8274 32.3106 12.9087 32.5998 14.3575C33.1302 17.0133 31.5042 20.5299 28.2522 23.7629Z" fill="#F1F4FA"/>
<path d="M24.0788 18.7079L23.8784 18.508C28.4144 13.9986 30.1736 11.7871 30.3176 11.3022C30.2576 11.3189 30.1448 11.3644 29.9444 11.4806L29.8016 11.2363C30.1148 11.0543 30.4232 10.9118 30.5648 11.095C30.662 11.2219 30.8252 11.4327 28.9892 13.546C27.8144 14.8979 26.1164 16.6832 24.0788 18.7079Z" fill="#F1F4FA"/>
<path d="M18.7941 14.1227L18.6957 14.0473C16.4349 12.3255 14.8113 11.4646 13.6665 11.0599C12.6741 11.6561 11.7453 12.371 10.9089 13.202L10.7361 13.3732L10.6713 13.1397C10.2549 11.6298 10.6617 10.9784 11.0769 10.6994C11.6229 10.3318 12.5037 10.3594 13.6353 10.7497C17.3709 8.55375 21.9681 7.99338 25.9377 9.20512C26.6985 9.04108 27.3921 9.0315 27.9933 9.19075C29.0013 9.45777 29.6985 10.1942 30.0093 11.3197L30.1209 11.7244L29.7861 11.4694C28.6221 10.5833 27.3093 9.92594 25.9173 9.49369C23.8953 9.95348 21.3741 11.5568 18.8805 14.0353L18.7941 14.1227ZM13.9809 10.8767C15.3093 11.3963 16.9449 12.3686 18.7689 13.748C21.0825 11.467 23.4297 9.93073 25.4001 9.34401C21.6849 8.3478 17.4693 8.8962 13.9809 10.8767ZM12.0777 10.7378C11.5893 10.7378 11.3349 10.8671 11.2365 10.9329C10.6869 11.3029 10.7241 12.1255 10.8861 12.8284C11.6325 12.1111 12.4485 11.4837 13.3137 10.9449C12.7941 10.7904 12.3885 10.7378 12.0777 10.7378ZM26.5041 9.39071C27.6009 9.77866 28.6425 10.3067 29.5965 10.9784C29.2725 10.181 28.7109 9.6721 27.9225 9.46375C27.4965 9.3512 27.0201 9.32845 26.5041 9.39071Z" fill="#F1F4FA"/>
<path d="M23.6193 10.3066C20.6505 8.0472 18.1305 6.99112 17.2017 7.61854C16.6821 7.96818 16.7829 8.80035 16.9581 9.43735L16.6845 9.51279C16.3221 8.19807 16.6785 7.62932 17.0421 7.38386C18.1065 6.66663 20.6301 7.67482 23.7909 10.0815L23.6193 10.3066Z" fill="#F1F4FA"/>
<path d="M27.5994 9.38137C25.5162 7.79604 24.3126 7.54459 23.9166 7.81281C23.6418 7.9984 23.7006 8.45819 23.7978 8.81142L23.5242 8.88685C23.3022 8.08461 23.529 7.73258 23.757 7.57812C24.4014 7.14467 25.9014 7.73378 27.771 9.15746L27.5994 9.38137Z" fill="#F1F4FA"/>
<path d="M29.7577 11.4389C28.1905 9.16028 25.8721 7.77013 23.2297 7.52467C20.1061 7.2349 16.8109 8.56519 14.1853 11.1767L13.9849 10.9767C16.6717 8.30656 20.0509 6.94634 23.2561 7.24329C25.9837 7.49713 28.3753 8.93039 29.9917 11.2796L29.7577 11.4389Z" fill="#F1F4FA"/>
<path d="M29.7725 11.4563C27.2237 8.79937 23.8505 7.31223 20.2709 7.26913C16.8761 7.23081 13.7057 8.50961 11.3249 10.8768L11.1245 10.6769C13.5221 8.29289 16.7093 6.98535 20.1149 6.98535C20.1677 6.98535 20.2205 6.98535 20.2733 6.98655C23.9285 7.02965 27.3749 8.54793 29.9765 11.2612L29.7725 11.4563Z" fill="#F1F4FA"/>
<path d="M20.5687 34.2933C20.3227 34.2933 20.0635 34.2825 19.8679 34.2681C19.5391 34.2454 19.0795 34.1975 18.4639 34.1208C18.1015 34.0753 17.6503 33.976 17.3743 33.9053C16.9207 33.788 16.3135 33.6048 15.8623 33.4479C15.4723 33.3126 14.6227 32.9594 13.8859 32.5379C13.5451 32.3439 12.6403 31.8267 11.7127 31.034C11.2459 30.6353 10.5379 29.9935 9.77954 29.0272C9.52874 28.7087 9.33554 28.4297 9.33434 28.4273C9.13994 28.146 9.13994 28.146 8.84354 27.6754C8.61434 27.3114 8.37314 26.8336 8.26994 26.6301C8.11634 26.3247 7.95434 25.9631 7.85594 25.7045C7.78274 25.5129 7.70714 25.2986 7.63394 25.0855C7.52834 24.8029 7.43474 24.5143 7.35434 24.2222C7.24514 23.7983 7.10234 23.2391 7.04354 22.8117C6.98834 22.4141 6.92714 21.9603 6.89834 21.6107C6.88634 21.4718 6.84914 20.9881 6.85874 20.6097L6.85994 20.5498C6.86834 20.2014 6.87914 19.7679 6.90434 19.4339C6.92714 19.1417 6.97514 18.7394 7.02674 18.4101C7.22234 17.1792 7.53794 16.2896 7.55114 16.2524C7.64474 15.9926 7.81754 15.5077 7.96274 15.1652C8.06834 14.9162 8.23994 14.5546 8.42234 14.1989C8.69234 13.6709 9.10754 13.004 9.45434 12.537C9.89833 11.9407 10.4659 11.2762 10.9015 10.8463C11.5615 10.1949 11.8195 9.99975 12.6787 9.35317C12.9775 9.12806 13.3999 8.87422 13.6903 8.70419C13.9555 8.54853 14.3299 8.34977 14.6431 8.1989C14.9455 8.05282 15.3763 7.86842 15.7399 7.72953C15.9463 7.6505 16.1959 7.57028 16.4383 7.49365C16.5439 7.46012 16.6459 7.42779 16.7371 7.39666C17.0767 7.28411 17.5255 7.18832 17.9191 7.10809C18.1327 7.06499 18.3895 7.02667 18.6379 6.99075C18.7435 6.97518 18.8443 6.96081 18.9367 6.94645C19.3147 6.88658 19.8139 6.86383 20.2075 6.85185C20.5447 6.83988 20.9395 6.84347 21.2119 6.85904C21.6055 6.88179 22.1539 6.93328 22.6063 6.99075C23.2483 7.07217 23.8219 7.22304 24.4279 7.38349C24.8803 7.50323 25.4803 7.71396 25.9207 7.90674C26.3287 8.08635 26.6335 8.22644 26.8507 8.3378C27.1255 8.47789 27.4927 8.68264 27.7639 8.84788C28.0459 9.0191 28.3687 9.22984 28.5859 9.3855C28.9099 9.61899 29.0191 9.69681 29.5051 10.0979C29.5579 10.1422 29.8351 10.3757 30.1987 10.7266C30.4759 10.9948 30.7075 11.2474 30.8191 11.3683C30.9535 11.5156 31.2535 11.8629 31.4419 12.1071C31.7467 12.4999 31.8007 12.5813 32.1043 13.0267C32.3323 13.3632 32.7355 14.0529 32.9539 14.5115C33.1219 14.8635 33.4027 15.4538 33.6319 16.1531C33.8815 16.9122 34.0531 17.5803 34.1431 18.1383C34.2343 18.7035 34.3375 19.3417 34.3567 20.2577C34.3783 21.2622 34.2883 22.0549 34.2331 22.4381C34.1767 22.8296 34.0723 23.56 33.7615 24.5862C33.5743 25.2052 33.2359 26.0003 32.9851 26.5582C32.8699 26.8145 32.6851 27.1557 32.4199 27.6011C32.3047 27.7963 32.1523 28.0214 32.0059 28.2382C31.9423 28.3339 31.8799 28.4249 31.8247 28.51C31.6183 28.8249 31.3039 29.2092 31.0783 29.4643L31.0375 29.511C30.7663 29.8175 30.4303 30.1983 30.1363 30.4617C30.0703 30.5215 29.9983 30.5862 29.9239 30.6545C29.7223 30.8377 29.4943 31.0448 29.3023 31.2005C29.0371 31.416 28.6459 31.7249 28.3267 31.9273L28.1071 32.0674C27.8791 32.2134 27.6199 32.3787 27.4063 32.4996C27.0763 32.6852 26.6443 32.9055 26.3323 33.048C25.2295 33.5509 24.2779 33.7952 24.1735 33.8215C23.5243 33.9832 22.6747 34.128 22.1431 34.2023C21.8539 34.243 21.4915 34.2574 21.1711 34.2705C21.0655 34.2753 20.9647 34.2789 20.8711 34.2837C20.7787 34.2909 20.6743 34.2933 20.5687 34.2933ZM9.71834 28.4752C9.79394 28.5782 9.89233 28.7111 10.0027 28.8512C10.7467 29.7983 11.4403 30.4269 11.8975 30.8185C12.8047 31.5944 13.6927 32.1009 14.0263 32.2913C14.7475 32.7032 15.5743 33.048 15.9559 33.1797C16.3999 33.333 16.9987 33.5138 17.4463 33.6299C17.7991 33.7209 18.2119 33.8035 18.4999 33.8395C19.1095 33.9161 19.5643 33.964 19.8883 33.9855C20.1595 34.0047 20.5567 34.0191 20.8591 34.0035C20.9539 33.9987 21.0559 33.9939 21.1615 33.9903C21.4747 33.9772 21.8311 33.9628 22.1059 33.9245C22.6303 33.8514 23.4691 33.709 24.1075 33.5497C24.2095 33.5246 25.1383 33.2863 26.2183 32.793C26.5243 32.6529 26.9479 32.4373 27.2707 32.2553C27.4783 32.1392 27.7327 31.9752 27.9583 31.8315L28.1791 31.6902C28.4863 31.4962 28.8679 31.1933 29.1283 30.9837C29.3143 30.8341 29.5387 30.6293 29.7379 30.4485C29.8135 30.3803 29.8855 30.3144 29.9527 30.2545C30.2347 30.0019 30.5659 29.6283 30.8311 29.3266L30.8719 29.2799C31.0903 29.032 31.3951 28.6596 31.5931 28.3567C31.6483 28.2717 31.7119 28.1783 31.7767 28.0825C31.9207 27.8682 32.0695 27.6466 32.1811 27.4587C32.4403 27.0228 32.6203 26.6911 32.7307 26.4445C32.9779 25.8937 33.3103 25.1106 33.4939 24.5059C33.7987 23.5001 33.9019 22.7841 33.9571 22.3998C34.0111 22.025 34.0987 21.2491 34.0771 20.2648C34.0579 19.3692 33.9571 18.7406 33.8671 18.1862C33.7795 17.6414 33.6103 16.9888 33.3655 16.2429C33.1411 15.5616 32.8651 14.9808 32.7007 14.6348C32.4871 14.187 32.0947 13.5152 31.8751 13.1919C31.5727 12.7477 31.5199 12.6687 31.2199 12.2819C31.0351 12.0437 30.7435 11.7048 30.6127 11.5611C30.5035 11.4414 30.2755 11.1935 30.0043 10.9301C29.6479 10.5853 29.3779 10.359 29.3275 10.3171C28.8487 9.92192 28.7407 9.84409 28.4227 9.61539C28.2115 9.46333 27.8959 9.25738 27.6199 9.08975C27.3547 8.9281 26.9947 8.72814 26.7247 8.59044C26.5123 8.48148 26.2135 8.34378 25.8103 8.16657C25.3819 7.97858 24.7987 7.77383 24.3583 7.65769C23.7619 7.49963 23.1979 7.35116 22.5739 7.27213C22.1263 7.21586 21.5875 7.16437 21.1987 7.14162C20.9335 7.12605 20.5495 7.12366 20.2207 7.13443C19.8355 7.14761 19.3471 7.16916 18.9847 7.22663C18.8923 7.241 18.7891 7.25657 18.6835 7.27213C18.4387 7.30805 18.1855 7.34517 17.9803 7.38708C17.7019 7.44455 17.1835 7.54992 16.8307 7.66727C16.7371 7.6984 16.6351 7.73073 16.5283 7.76545C16.2895 7.84208 16.0423 7.91991 15.8443 7.99654C15.4879 8.13304 15.0655 8.31385 14.7691 8.45634C14.4667 8.60241 14.0911 8.79998 13.8367 8.94965C13.5511 9.11729 13.1395 9.36514 12.8527 9.58067C12.0055 10.2189 11.7499 10.4116 11.1043 11.0487C10.6783 11.4701 10.1203 12.1203 9.68474 12.707C9.34634 13.162 8.94194 13.8146 8.67794 14.3295C8.49794 14.6803 8.32994 15.0347 8.22674 15.2778C8.08514 15.613 7.91354 16.092 7.82114 16.3494C7.80794 16.3853 7.50194 17.251 7.30994 18.4556C7.25954 18.7729 7.21154 19.1752 7.18994 19.4566C7.16474 19.7835 7.15514 20.2133 7.14674 20.5582L7.14554 20.6181C7.13954 20.8635 7.15394 21.2263 7.18394 21.5879C7.21514 21.9579 7.28594 22.4692 7.32794 22.7733C7.38434 23.1852 7.52474 23.7348 7.62794 24.1371C7.62914 24.1431 7.63034 24.1479 7.63274 24.1539C7.70114 24.3754 7.79594 24.6712 7.89674 24.9693C8.56994 26.7786 9.75914 28.3687 11.3731 29.6151C11.3947 29.6319 11.4151 29.6475 11.4367 29.6642L11.2651 29.8893C10.6975 29.4559 10.1815 28.9841 9.71834 28.4752Z" fill="#F1F4FA"/>
</svg>
