<svg width="100" height="101" viewBox="0 0 100 101" fill="none" xmlns="http://www.w3.org/2000/svg">
<path d="M45.5651 40.1445L50.0905 43.0225M50.0905 43.0225V38.5257M50.0905 43.0225V47.1595M50.0905 79.7162V57.592M50.0905 79.7162C43.2119 76.4786 36.8764 80.9753 36.8764 86.9111M50.0905 79.7162L51.1766 80.5101M50.0905 47.1595L52.9868 45.9004M50.0905 47.1595V50.3972M45.5651 48.7783L50.0905 50.3972M50.0905 50.3972V57.592M52.9868 55.9732L50.0905 57.592M79.777 43.0225V49.8576M79.777 73.061V63.1681M79.777 73.061C79.3547 72.5214 77.7497 71.4422 74.7086 71.4422C71.6676 71.4422 70.3039 74.2002 70.0022 75.5792C68.9765 75.5792 66.7077 75.6871 65.8389 76.1188M79.777 73.061C80.5011 73.9604 81.2252 74.6798 81.2252 75.5792C82.1302 75.5792 88.2848 75.7591 88.2848 80.7955C88.2848 85.8319 85.5695 86.9111 84.1214 86.9111C84.0754 86.9111 83.9532 86.9111 83.7594 86.9111M79.777 57.0524L75.4327 54.3544M79.777 57.0524V58.4914M79.777 57.0524V51.2965M79.777 58.4914L84.1214 55.9732M79.777 58.4914V63.1681M84.1214 47.1595L79.777 51.2965M79.777 51.2965V49.8576M75.4327 45.9004L79.777 49.8576M79.777 63.1681C81.2252 63.1681 84.7369 63.1681 87.1987 63.1681M79.777 63.1681H87.1987M79.777 63.1681C78.5252 63.1681 75.9748 63.1681 73.6225 63.1681M87.1987 63.1681C90.2759 63.1681 90.819 61.7291 90.2759 58.4914C89.7329 55.2537 88.6468 48.2387 87.7417 43.9218C86.9116 39.9624 82.2745 31.4635 80.2552 29.3891C79.9874 29.114 79.5757 29.1304 79.2884 29.3852C78.2399 30.3148 76.7051 32.1802 75.2336 35.1081M57.5121 33.9401L50.8926 24.7143C50.4967 24.1624 49.6775 24.1574 49.2748 24.7044L36.982 41.4036M57.5121 33.9401L62.8929 41.4395C63.3677 42.1011 62.8948 43.0225 62.0804 43.0225H57.5121L63.0076 51.3653C63.4456 52.0302 62.9687 52.9154 62.1725 52.9154H57.5121L63.0076 61.2582C63.4456 61.9231 62.9687 62.8083 62.1725 62.8083H57.5121M57.5121 33.9401C60.2274 31.1509 67.6128 27.1938 75.2336 35.1081M75.2336 35.1081C74.0896 37.3841 72.9839 40.3022 72.1744 43.9218C70.147 52.9873 69.4313 56.3329 69.0971 58.4914C68.7073 61.0096 69.9298 63.1681 72.5364 63.1681C72.8897 63.1681 73.2537 63.1681 73.6225 63.1681M57.5121 62.8083C58.9603 65.1467 61.6755 67.3051 65.8389 67.3051M57.5121 62.8083H41.2208M65.8389 67.3051C70.0022 67.3051 73.6225 64.7869 73.6225 63.1681M65.8389 67.3051V76.1188M65.8389 76.1188C64.9338 76.1188 62.9426 77.9547 62.3996 79.9147M83.7594 86.9111H90C90.5523 86.9111 91 87.3588 91 87.9111V91.667C91 92.2193 90.5523 92.667 90 92.667H10C9.44772 92.667 9 92.2193 9 91.667V87.9111C9 87.3588 9.44765 86.9111 9.99993 86.9111C11.2963 86.9111 12.6558 86.9111 14.0684 86.9111M83.7594 86.9111C82.1389 86.9111 75.5132 86.9111 66.5629 86.9111M18.7748 50.0374V52.9154M18.7748 72.7013V67.0353M18.7748 72.7013C23.4088 71.694 25.2914 75.3993 25.6534 77.3779H31.4459M18.7748 72.7013C17.387 73.1809 14.6115 75.0036 14.6115 78.4571C12.8013 78.4571 9 78.9968 9 81.8747C9 84.7526 9.36203 86.9111 14.0684 86.9111M18.7748 61.3693L14.6115 60.1102M18.7748 61.3693V57.0524M18.7748 61.3693V67.0353M23.3002 54.3544L18.7748 57.0524M18.7748 57.0524V52.9154M14.6115 50.0374L18.7748 52.9154M18.7748 67.0353C12.4393 67.0353 9 62.8083 9 55.9732C9 49.1381 11.3532 33.4893 18.7748 33.4893C22.3803 33.4893 24.7896 36.7155 26.314 41.0439M18.7748 67.0353C20.1701 67.0353 21.7875 66.7593 23.3002 66.0217M23.3002 66.0217C26.105 64.6539 28.5497 61.6989 28.5497 55.9732C28.5497 51.4412 27.9275 45.6252 26.314 41.0439M23.3002 66.0217C23.3002 68.7441 27.6446 71.622 31.4459 71.622M31.4459 71.622C35.2472 71.622 41.2208 68.5642 41.2208 62.8083M31.4459 71.622V77.3779M41.2208 62.8083H37.7324C36.9192 62.8083 36.4461 61.8894 36.9184 61.2275L42.8499 52.9154H37.7324C36.9192 52.9154 36.4461 51.9964 36.9184 51.3345L39.641 47.5192M26.314 41.0439C28.0066 38.5257 29.8168 37.6263 31.4459 37.6263C33.0751 37.6263 35.4584 38.7055 36.982 41.4036M36.982 41.4036L36.9628 41.4296C36.4767 42.0899 36.9482 43.0225 37.7681 43.0225H37.9625M37.9625 43.0225H42.8499L39.641 47.5192M37.9625 43.0225C38.6865 44.3175 39.3832 46.5599 39.641 47.5192M31.4459 77.3779C33.0751 77.3779 34.5232 79.1766 34.5232 81.8747C34.5232 84.5728 33.9801 86.9111 29.8168 86.9111M14.0684 86.9111C18.839 86.9111 24.2161 86.9111 29.8168 86.9111M29.8168 86.9111C32.1406 86.9111 34.5029 86.9111 36.8764 86.9111M36.8764 86.9111C40.6866 86.9111 44.5257 86.9111 48.2804 86.9111M48.2804 86.9111C54.8316 86.9111 61.1261 86.9111 66.5629 86.9111M48.2804 86.9111C48.2804 84.637 49.1771 82.1847 51.1766 80.5101M66.5629 86.9111C66.5629 85.4101 65.3374 81.9086 62.3996 79.9147M51.1766 80.5101C52.6565 79.2706 54.7405 78.4571 57.5121 78.4571C59.4971 78.4571 61.1126 79.0413 62.3996 79.9147M16.9647 15.3222L19.4989 16.5813M22.0331 10.2858L23.3002 12.6242M28.9117 8.66699V11.5449M15.1545 22.1574H18.2318M40.8587 15.3222L38.3245 16.5813M35.7903 10.2858L34.5232 12.6242M42.6689 22.1574H39.5916M16.9647 28.9925L19.4989 27.7334M22.0331 34.0289L23.3002 31.6905M28.9117 35.6477V32.7698M40.8587 28.9925L38.3245 27.7334M35.7903 34.0289L34.5232 31.6905M62.9426 24.8554H79.9581C81.3458 24.8554 84.1214 23.8482 84.1214 19.819C84.1214 16.3655 81.4333 15.9713 79.9581 15.9713C79.6111 14.1453 76.8778 11.8626 74.1444 13.2322C73.2333 11.4061 71.4503 10.8255 69.6402 10.8255C67.83 10.8255 64.0287 12.2644 64.0287 16.5813C60.9333 16.5813 58.5982 17.4807 58.5982 20.8983C58.5982 24.3158 61.3889 24.8554 62.9426 24.8554Z" stroke="#FFD9A1" stroke-width="1.5" stroke-linecap="round"/>
<ellipse cx="29" cy="21.167" rx="7" ry="7.5" stroke="#FFD9A1" stroke-width="1.5"/>
</svg>
