<svg width="101" height="101" viewBox="0 0 101 101" fill="none" xmlns="http://www.w3.org/2000/svg">
<path fill-rule="evenodd" clip-rule="evenodd" d="M49.1089 11.7358C49.8056 10.7893 51.223 10.7979 51.9082 11.7528L57.898 20.1011C59.402 18.796 61.7493 17.4418 64.5879 17.1265C67.7099 16.7797 71.3319 17.7006 74.9673 21.1324C76.2948 18.7072 77.6431 17.0895 78.6376 16.2078C79.1705 15.7353 80.0352 15.6486 80.6203 16.2497L80.0829 16.7728L80.0688 16.7865M80.0829 16.7728L80.6203 16.2497C81.6945 17.3531 83.3694 20.0347 84.8532 22.8537C86.3419 25.6817 87.7259 28.8143 88.156 30.8653C88.8535 34.1925 89.6602 39.1457 90.2315 42.6539C90.3903 43.6287 90.5308 44.4919 90.6459 45.1777C90.9197 46.8103 90.9178 48.3773 90.3362 49.5694C90.2542 49.7374 90.1608 49.8976 90.0557 50.0488H93.8274H94.5774V50.7988V89.1342V89.8842H93.8274H89.889H89.139H89.0621H88.3121H85.2006H84.4506H84.3737H83.6237H79.6853H43.7638H36.5404H22.4532H21.8985H21.7032H21.1485H17.7648H17.0148H16.9379H16.1879H12.2495H7.56112H6.81112V89.1342V50.7988V50.0488H7.56112H9.67972C9.36971 46.4605 9.41107 43.795 9.48152 42.8058C9.48464 39.3932 10.0695 33.821 11.5796 29.0727C12.336 26.6946 13.3411 24.4692 14.6625 22.8241C15.9915 21.1697 17.695 20.0422 19.8138 20.0422C21.8341 20.0422 23.4969 20.9558 24.8253 22.3953C25.8756 23.5335 26.7293 25.011 27.4202 26.6666C28.9539 24.8612 30.6173 24.0977 32.2352 24.0977C33.9026 24.0977 36.0993 25.0496 37.702 27.2314L49.1089 11.7358M36.8017 28.5722C35.4318 26.4024 33.4731 25.5977 32.2352 25.5977C31.016 25.5977 29.5315 26.2278 28.0372 28.3132C29.083 31.4226 29.6842 35.0294 29.96 38.389H36.1832L39.4421 34.3742C39.1732 33.443 38.6772 31.926 38.1582 30.8668C37.0776 30.7004 36.4387 29.5662 36.8017 28.5722ZM39.8138 30.8876C40.0882 31.5345 40.3398 32.2376 40.546 32.8662L41.9579 30.8876H39.8138ZM38.1152 38.389H49.7625V37.8953L45.8236 36.4862C45.4336 36.3467 45.2306 35.9174 45.3701 35.5274C45.5096 35.1374 45.9389 34.9344 46.3289 35.0739L49.7625 36.3022V34.1931V30.5494L45.6738 27.9492C45.3243 27.7269 45.2211 27.2634 45.4434 26.9138C45.6657 26.5643 46.1292 26.4612 46.4787 26.6835L49.7625 28.7718V25.7294C49.7625 25.3151 50.0983 24.9794 50.5125 24.9794C50.9267 24.9794 51.2625 25.3151 51.2625 25.7294V30.1376V33.0492L53.0526 32.271C53.4325 32.1059 53.8743 32.2799 54.0395 32.6598C54.2046 33.0397 54.0306 33.4815 53.6507 33.6466L51.2625 34.6849V37.367V38.389H62.5088L57.1683 30.5602L56.3684 29.3876H57.7879H62.2662C62.4537 29.3876 62.5626 29.1754 62.4533 29.023L57.1785 21.6714L50.6894 12.6273C50.5982 12.5002 50.4096 12.499 50.3168 12.625L38.2662 28.9952L37.7229 28.5953L38.2662 28.9952L38.2474 29.0207C38.1355 29.1728 38.2441 29.3876 38.4329 29.3876H38.6234H43.4145H44.8711L44.025 30.5732L40.8793 34.9814L40.8658 35.0004L40.8511 35.0184L38.1152 38.389ZM64.3246 38.389H69.7602C70.1825 36.4486 70.7255 34.0028 71.4294 30.8555C72.1801 27.4986 73.1887 24.7375 74.2519 22.5267C70.7931 19.1119 67.4783 18.3146 64.7535 18.6173C62.2049 18.9004 60.086 20.1564 58.7767 21.3258L63.672 28.1486C64.4935 29.2934 63.6752 30.8876 62.2662 30.8876H59.2074L64.3246 38.389ZM71.2954 38.389H78.8642V37.1694L74.8503 33.5133C74.5441 33.2343 74.522 32.76 74.8009 32.4538C75.0798 32.1475 75.5542 32.1254 75.8604 32.4043L78.8642 35.1404V30.1376C78.8642 29.7233 79.1999 29.3876 79.6142 29.3876C80.0284 29.3876 80.3642 29.7233 80.3642 30.1376V36.838V37.3279L83.0038 34.6872C83.2967 34.3943 83.7715 34.3942 84.0645 34.687C84.3574 34.9798 84.3575 35.4547 84.0647 35.7477L81.4243 38.389H81.6376H82.3876V39.139V46.129V46.879H81.6376H80.4353V50.0488H83.6237H84.3737H84.4506H85.2006H86.7564C87.416 50.0488 87.8897 49.9218 88.2301 49.7316C88.5635 49.5452 88.8108 49.2751 88.9881 48.9116C89.3604 48.1486 89.425 46.9671 89.1665 45.4258C89.0492 44.7262 88.9067 43.8514 88.7464 42.8674C88.175 39.359 87.3775 34.4626 86.6879 31.1731C86.3041 29.3426 85.0084 26.3688 83.5259 23.5524C82.0697 20.786 80.5172 18.3308 79.6032 17.3564C78.6609 18.2014 77.2255 19.94 75.8303 22.7159C74.7373 24.8906 73.6737 27.6928 72.8932 31.1829C72.2275 34.1595 71.7064 36.5056 71.2954 38.389ZM79.576 17.2663L79.6289 17.3258L79.576 17.2663ZM86.7564 51.5488H85.2006V88.3842H88.3121V51.5488H86.7564ZM89.889 88.3842H93.0774V51.5488H89.889V88.3842ZM83.6237 51.5488H80.4353V88.3842H83.6237V51.5488ZM78.9353 88.3842V50.7988V46.879H37.2904V69.5502H43.7638H44.5138V70.3002V76.4568L65.9862 69.5859C66.3807 69.4596 66.8028 69.6771 66.9291 70.0716C67.0553 70.4661 66.8378 70.8883 66.4433 71.0145L44.5138 78.0318V88.3842H78.9353ZM43.0138 88.3842V77.4843V71.0502H37.2904V88.3842H43.0138ZM35.7904 88.3842V70.3002V46.879H22.6485V88.3842H35.7904ZM21.1485 50.0488V46.879H20.501V50.0488H21.1485ZM19.001 50.0488V46.129V43.9276L15.4525 42.8545C15.0561 42.7346 14.8318 42.316 14.9518 41.9195C15.0717 41.523 15.4903 41.2988 15.8867 41.4187L19.001 42.3605V39.139V35.4768L15.2432 32.8792C14.9024 32.6436 14.8172 32.1765 15.0527 31.8358C15.2882 31.495 15.7554 31.4097 16.0961 31.6453L19.001 33.6533V32.2622C19.001 31.848 19.3368 31.5122 19.751 31.5122C20.1652 31.5122 20.501 31.848 20.501 32.2622V35.0835V37.8187L23.8031 35.8499C24.1589 35.6378 24.6193 35.7542 24.8314 36.11C25.0435 36.4658 24.927 36.9262 24.5713 37.1383L22.4735 38.389H28.4549C28.17 35.0142 27.5516 31.4416 26.497 28.4471C25.7676 26.3761 24.8462 24.6298 23.7229 23.4125C22.6132 22.2099 21.3279 21.5422 19.8138 21.5422C18.2948 21.5422 16.9817 22.3322 15.8319 23.7635C14.6746 25.2042 13.7389 27.2328 13.0091 29.5273C11.551 34.1117 10.9815 39.5428 10.9815 42.8332V42.861L10.9795 42.8887C10.914 43.7706 10.8655 46.4239 11.1854 50.0488H12.2495H16.1879H16.9379H17.0148H17.7648H19.001ZM16.1879 51.5488H13.0764V88.3842H16.1879V51.5488ZM11.4995 51.5488H10.502H8.31112V88.3842H11.4995V51.5488ZM17.7648 88.3842V51.5488H19.751H20.9532V88.3842H17.7648ZM20.501 39.889H29.2648H50.5125H70.3649H79.6142H80.8876V45.379H79.6853H36.5404H21.8985H20.501V43.3709V39.889ZM27.5909 72.0743H28.3409H31.4645H32.2145V72.8243V77.4843V78.2343H31.4645H28.3409H27.5909V77.4843V72.8243V72.0743ZM29.0909 73.5743V76.7343H30.7145V73.5743H29.0909Z" fill="#FFD9A1"/>
</svg>
