<svg width="101" height="101" viewBox="0 0 101 101" fill="none" xmlns="http://www.w3.org/2000/svg">
<path d="M35.2364 57.3931L32.2624 66.8806M35.2364 57.3931L69.4369 67.3253M35.2364 57.3931L28.3963 55.3919M69.4369 67.3253C58.8496 63.1745 60.0689 51.9893 62.002 46.9155M69.4369 67.3253C77.1692 70.1419 85.9424 57.825 85.9424 50.574M17.69 37.3806C16.7384 43.7846 19.8709 50.7223 21.5562 53.3906L28.3963 55.3919M17.69 37.3806C18.8796 29.3755 26.3145 23.4459 30.1807 21.667C36.7234 23.2976 95.6077 40.0489 98.5817 40.9383M17.69 37.3806C27.9006 40.3454 49.779 46.6605 55.608 48.2022C57.8982 47.5103 60.0346 47.109 62.002 46.9155M98.5817 40.9383C101.556 41.8278 95.0129 51.0188 90.9981 52.0564C88.5 51.3449 86.5867 50.7717 85.9424 50.574M98.5817 40.9383C91.5929 41.5313 86.3885 43.162 85.0502 43.6067M85.9424 50.574C85.9424 48.9928 85.7639 45.3856 85.0502 43.6067M85.0502 43.6067C84.1199 43.9158 82.6981 44.4571 81.184 45.1551M62.002 46.9155C63.5459 46.7636 64.9858 46.7397 66.3143 46.8036M66.3143 46.8036C70.5472 47.0073 73.6495 48.1031 75.3848 48.7951C76.7717 47.4125 79.068 46.1307 81.184 45.1551M66.3143 46.8036C64.2325 52.9459 63.7864 59.3203 70.3291 61.8404C76.8718 64.3605 83.5632 53.5226 81.184 45.1551M28.3963 55.3919L25.3333 64.667M20.8333 67.9182H5.94289M5.94289 67.9182C5.94289 64.2419 2.77067 62.2357 1.33325 61.6921C1.33325 67.0782 1.33325 78.4137 1.33325 80.667C4.45591 79.7775 5.94289 77.1092 5.94289 74.2926M5.94289 67.9182V74.2926M20.8333 74.2926H5.94289" stroke="#FFD9A1" stroke-width="1.5" stroke-linecap="round"/>
<circle cx="26.8333" cy="71.167" r="6.5" stroke="#FFD9A1" stroke-width="1.5" stroke-linecap="round"/>
</svg>
