<svg width="100" height="100" viewBox="0 0 100 100" fill="none" xmlns="http://www.w3.org/2000/svg">
<path d="M7.20482 39.2402H3.59036M7.20482 39.2402L14 26.537M7.20482 39.2402V42.0551M7.20482 47.0354L2.72289 52.3766V55.9134M7.20482 47.0354V42.0551M7.20482 47.0354L10.3133 43.4265M11.8313 76.6286L7.20482 74.8241V58.8005H2.72289V55.9134M11.8313 76.6286V52.5932L16.241 47.8172M11.8313 76.6286L13.6386 75.185L16.241 74.9685M16.241 47.8172L18.4819 47.9391M16.241 47.8172V50.6444V74.9685M65.4699 51.2218L18.4819 47.9391M65.4699 51.2218V58.584M65.4699 51.2218L68.4337 51.2795M63.0843 53.315V53L58.3855 52.6745L18.4819 50.6444M63.0843 53.315L54.1928 55.0472M63.0843 53.315V71.5M18.4819 50.6444V47.9391M18.4819 50.6444V52.0879V53.5315M54.1928 55.0472L52.8916 54.992H52M54.1928 55.0472V71.5M18.4819 53.5315L52 54.992M18.4819 53.5315V74.752M54.1928 73.3655V71.5M54.1928 73.3655L54.6988 73.5M54.1928 73.3655L50.1446 72.6866M52 54.992V71.5L50.1446 72.6588V72.6866M3.59036 39.2402L2 37.6522L8.07229 23M3.59036 39.2402L9.87952 26.0315M8.07229 23L9.87952 26.0315M8.07229 23L55.5663 28.9186M9.87952 26.0315L56.3614 31.7336M56.3614 31.7336L60.9879 29.2073M56.3614 31.7336L55.5663 28.9186M56.3614 31.7336V45.664M56.3614 31.7336L44.6506 30.297M60.9879 29.2073L60.3373 26.1037M60.9879 29.2073L96.4819 34.0433M60.9879 29.2073L65.6145 29.8377M60.9879 29.2073V46.2415M60.3373 26.1037L55.5663 28.9186M60.3373 26.1037L68.6506 27.3464M96.4819 34.0433L98 31.7336L74.2892 28.1892L71.8313 27.8218M96.4819 34.0433L90.7711 35.7034M71.8313 27.8218L68.6506 27.3464M71.8313 27.8218V23.7218M74.5783 28.2325V24.1549L71.8313 23.7218M71.8313 23.7218L68.6506 25.4541V27.1142V27.3464M90.7711 35.7034V33.2652L87.3735 32.8023V50.7887M90.7711 35.7034V73.3084H87.3735M77.0361 31.3939L84.3373 32.3886V34.0433V50.7887M77.0361 31.3939L76.0964 31.2658M77.0361 31.3939V58.9449M76.0964 31.2658L68.4337 30.2218M76.0964 31.2658V37.3635M65.6145 29.8377V47.0213M65.6145 29.8377L68.4337 30.2218M22.1687 27.539L14 26.537M22.1687 27.539L26.2892 28.0445M22.1687 27.539V33.6824M14 26.537L13.7108 32.8885M13.7108 32.8885L7.20482 42.0551M13.7108 32.8885L22.1687 33.8268M22.1687 33.8268V38.8071M22.1687 33.8268V33.6824M87.3735 73.3084V55.4803M87.3735 73.3084H84.3373M84.3373 55.4803H86.3614H87.3735M84.3373 55.4803V73.3084M84.3373 55.4803V50.7887M87.3735 55.4803V50.7887M87.3735 50.7887H86.3614H84.3373M84.3373 73.3084H77.0361M69.2289 73.3084V75.5M69.2289 73.3084V73.0919M69.2289 73.3084H77.0361M69.2289 75.5H65.4699M69.2289 75.5L69.4458 76H70.241V77.5H65.4699M65.4699 75.5V77.5M65.4699 75.5V73.0919M65.4699 77.5V79.0157H63.8795L63.0843 78.4383V77.5M69.2289 73.0919H65.4699M69.2289 73.0919L65.4699 72.6588M65.4699 73.0919V72.6588M71.5764 50.0669L68.4337 51.2795M71.5764 50.0669L73.494 48.0459L68.4337 47.3879M71.5764 50.0669L76.0964 50.2835M10.3133 43.4265L12.4819 47.6129L2.72289 55.9134M10.3133 43.4265H22.1687M36.9879 29.357L39.3012 29.6408M36.9879 29.357L26.2892 28.0445M36.9879 29.357V35.2703M36.9879 44.1483L56.3614 45.664M36.9879 44.1483L26.2892 43.6272M36.9879 44.1483V35.2703M22.1687 43.4265V38.8071M22.1687 43.4265L26.2892 43.6272M56.3614 45.664L60.9879 46.2415M65.6145 47.0213L60.9879 46.2415M65.6145 47.0213L68.4337 47.3879M39.3012 29.6408L44.6506 30.297M39.3012 29.6408V35.5591M44.6506 30.297V36.0643M22.1687 38.8071L26.2892 39.168M26.2892 39.168V43.6272M26.2892 39.168V34.1239M26.2892 28.0445V34.1239M22.1687 33.6824L26.2892 34.1239M36.9879 35.2703L26.2892 34.1239M39.3012 35.5591V39.5289L44.6506 40.1063V36.0643M39.3012 35.5591L44.6506 36.0643M65.4699 58.584L68.4337 58.6765M65.4699 58.584V72.6588M77.0361 58.9449V73.3084M77.0361 58.9449L76.0964 58.9156M76.0964 58.9156L68.4337 58.6765M76.0964 58.9156V54.9675M68.4337 30.2218V36.5277M68.4337 47.3879V45.664M68.4337 51.2795V54.6142M68.4337 58.6765V54.6142M68.4337 54.6142L76.0964 54.9675M76.0964 54.9675V50.2835M76.0964 50.2835V46.2415M76.0964 46.2415L68.4337 45.664M76.0964 46.2415V41.7664M68.4337 45.664V41.0446M68.4337 41.0446L76.0964 41.7664M68.4337 41.0446V36.5277M76.0964 41.7664V37.3635M68.4337 36.5277L76.0964 37.3635M63.0843 75.5H54.6988M63.0843 75.5V73.5M63.0843 75.5V77.5M54.6988 75.5V73.5M54.6988 75.5L50.1446 74.5M54.6988 73.5H63.0843M63.0843 73.5V71.5M63.0843 77.5H54.6988L49.494 76.5V74.5M50.1446 74.5H49.494M50.1446 74.5V72.6866M49.494 74.5L18.4819 74.752M54.1928 71.5H63.0843M16.241 74.9685V78H18.4819V74.752" stroke="#FFD9A1" stroke-width="1.5"/>
</svg>
