<svg width="101" height="100" viewBox="0 0 101 100" fill="none" xmlns="http://www.w3.org/2000/svg">
<path d="M7.66675 62.987L14.2017 58.052C14.6951 58.4944 15.2811 59.0599 15.9382 59.7403M24.919 90C27.2716 88.7013 30.2777 85.4545 31.3233 83.8961C30.8507 82.6981 30.3499 81.5284 29.8275 80.3896M29.8275 80.3896L33.1531 77.6623M29.8275 80.3896C25.4689 70.8881 19.5998 63.5313 15.9382 59.7403M33.1531 77.6623C31.8025 73.3333 27.4546 63.1169 20.8674 56.8831M33.1531 77.6623L35.5057 77.2727M20.8674 56.8831C18.8807 57.2987 16.7535 58.961 15.9382 59.7403M20.8674 56.8831C23.7427 56.1039 27.533 54.5455 29.2321 49.7403C30.9312 44.9351 32.4996 35.8442 41.1257 37.2727M41.1257 37.2727C39.871 39.3507 38.5117 42.2078 37.9889 43.3766C37.7275 44.1558 37.3616 46.3117 37.9889 48.7013C38.6163 51.0909 39.5573 54.1125 39.9494 55.3247C40.4722 56.5368 41.9622 58.9091 43.7397 58.7013C45.9616 58.4415 47.1379 57.4026 47.2686 53.7662C47.3993 50.1299 46.223 46.8831 48.837 44.6753C49.8826 43.8441 50.5796 43.2034 50.7974 42.987C52.0609 43.0303 55.5288 43.0389 59.2929 42.7273C63.9981 42.3376 70.7944 43.2467 77.4601 46.2338C77.6886 46.3473 77.8999 46.4781 78.0937 46.6234M41.1257 37.2727L42.302 35.1948C43.0862 34.1558 45.1774 31.8961 47.2686 31.1688C49.8826 30.2597 57.5938 27.7922 61.9069 24.026M76.9373 53.3766C73.8005 53.1169 65.305 52.7273 63.8674 52.4675M76.9373 53.3766C78.369 54.6807 78.7116 59.2314 74.5847 60.4098M76.9373 53.3766C80.209 52.6542 80.5597 48.4711 78.0937 46.6234M73.2777 60.6493C70.1409 60.5454 65.3486 59.7402 63.3446 59.3506M73.2777 60.6493C73.756 60.6041 74.1907 60.5223 74.5847 60.4098M73.2777 60.6493L74.5847 60.4098M74.5847 60.4098C75.0203 61.8316 75.1336 64.987 72.1014 66.2337M72.1014 66.2337C69.7488 66.2337 64.9129 65.5844 64.1288 65.3247M72.1014 66.2337C72.0578 68.2684 70.5069 72.3117 64.6515 72.2078M64.6515 72.2078C64.5208 70.2597 61.7762 65.4545 58.2473 67.6623M64.6515 72.2078C64.6515 74.1558 64.6515 75.1948 63.3446 76.3636C62.0376 77.5324 59.2929 77.4026 58.2473 76.3636M58.2473 67.6623C57.8552 69.4805 57.8552 74.6753 58.2473 76.3636M58.2473 67.6623C55.5026 64.1558 51.9737 64.935 50.2746 66.7532C49.895 67.1595 49.6328 67.7474 49.4589 68.4415M58.2473 76.3636C57.8552 77.2294 56.4436 78.935 53.9342 78.8311C51.4248 78.7272 50.0133 77.1428 49.6212 76.3636M35.5057 77.2727C34.8522 75.4545 33.9373 71.4026 35.5057 69.7402C37.4661 67.6623 39.5573 68.3117 40.3415 70.6493C40.5332 71.2207 40.6546 71.8541 40.7572 72.4984M35.5057 77.2727C35.8978 79.7402 41.5128 79.8701 41.7114 76.3636M49.6212 76.3636C47.9221 78.5714 44.6546 78.1818 42.6941 77.2727C42.267 77.0747 41.9516 76.7596 41.7114 76.3636M49.6212 76.3636C49.3167 74.5483 48.8546 70.8536 49.4589 68.4415M40.7572 72.4984C40.7336 69.7402 41.9099 65.3247 45.5695 65.3247C48.4971 65.3247 49.3823 67.4026 49.4589 68.4415M40.7572 72.4984C40.9831 73.9159 41.1182 75.3861 41.7114 76.3636M61.9069 24.026C63.8674 24.6753 76.1531 32.3377 80.4661 40.7792M61.9069 24.026C62.5578 23.2948 63.7419 21.99 64.7784 20.9091M80.4661 40.7792C79.1069 42.8571 78.3182 45.5411 78.0937 46.6234M80.4661 40.7792L84.5178 35.5844C83.5593 32.8138 78.5579 25.7143 66.2199 19.4805C65.8536 19.8082 65.3374 20.3261 64.7784 20.9091M64.7784 20.9091C63.9519 20.2597 62.2205 18.6493 61.9069 17.4026C61.5932 16.1558 66.1328 11.9481 68.4418 10M82.2959 38.8312C83.2544 39.697 85.4588 41.4286 86.609 41.4286C88.0467 41.4286 91.4449 36.3636 93.6667 35.5844" stroke="#FFD9A1" stroke-width="1.5" stroke-linecap="round"/>
</svg>
