<svg width="101" height="100" viewBox="0 0 101 100" fill="none" xmlns="http://www.w3.org/2000/svg">
<path d="M9.27456 93H28.8818M93.3333 93H73.5319M73.5319 93V82.3708M73.5319 93H67.3197M73.5319 82.3708H80.2971C80.8494 82.3708 81.2971 81.9231 81.2971 81.3708V80.8247M73.5319 82.3708H67.3197M71.9789 74.6404H80.2971C80.8494 74.6404 81.2971 75.0882 81.2971 75.6404V80.8247M71.9789 74.6404V69.6157M71.9789 74.6404H50.4303M71.9789 51.2562V54.9281M30.2407 51.2562V54.9281M30.2407 74.6404H21.5342C20.9819 74.6404 20.5342 75.0882 20.5342 75.6404V80.8247M30.2407 74.6404V69.5191M30.2407 74.6404H47.7125M20.5342 80.8247V81.3708C20.5342 81.9231 20.9819 82.3708 21.5342 82.3708H28.8818M20.5342 80.8247H12.3291C10.0653 80.8247 8.61716 78.4131 9.68101 76.4149L17.6222 61.4989H16.0717C13.7953 61.4989 12.3483 59.0631 13.437 57.064L19.7576 45.4584H18.5931C16.3173 45.4584 14.8702 43.0236 15.9579 41.0246L26.118 22.3519C27.2405 20.2889 30.1911 20.2575 31.3572 22.2962L42.0383 40.9689C43.1823 42.9688 41.7383 45.4584 39.4342 45.4584H38.0059L43.4416 54.9281M43.4416 54.9281H54.7012M43.4416 54.9281H30.2407M71.9789 54.9281V60.1461M71.9789 54.9281H74.6673C75.2196 54.9281 75.6673 55.3758 75.6673 55.9281V59.1461C75.6673 59.6983 75.2196 60.1461 74.6673 60.1461H71.9789M71.9789 54.9281H54.7012M71.9789 60.1461H30.2407M71.9789 60.1461V64.3978M54.7012 54.9281L60.1369 45.4584H58.8403C56.5503 45.4584 55.1046 42.9962 56.2206 40.9965L67.3197 21.1079M81.2971 80.8247H86.7544C89.0691 80.8247 90.5118 78.3145 89.3466 76.3145L80.7147 61.4989H82.8248C85.1498 61.4989 86.5911 58.9684 85.4052 56.9686L78.5793 45.4584H80.1703C82.4814 45.4584 83.9246 42.9552 82.7666 40.9552L76.0866 29.418M30.2407 54.9281V60.1461M30.2407 54.9281H26.1933C25.641 54.9281 25.1933 55.3758 25.1933 55.9281V59.1461C25.1933 59.6983 25.641 60.1461 26.1933 60.1461H30.2407M30.2407 60.1461V64.3978M30.2407 64.3978H26.1933C25.641 64.3978 25.1933 64.8455 25.1933 65.3978V68.5191C25.1933 69.0714 25.641 69.5191 26.1933 69.5191H30.2407M30.2407 64.3978H71.9789M30.2407 64.3978V69.5191M71.9789 64.3978H74.6673C75.2196 64.3978 75.6673 64.8455 75.6673 65.3978V68.6157C75.6673 69.168 75.2196 69.6157 74.6673 69.6157H71.9789M71.9789 64.3978V69.5191M71.9789 69.6157V69.5191M30.2407 69.5191H44.6064M71.9789 69.5191H53.3924M44.6064 69.5191L47.7125 74.6404M44.6064 69.5191H53.3924M47.7125 74.6404H50.4303M50.4303 74.6404L53.3924 69.5191M28.8818 82.3708V93M28.8818 82.3708H34.8998M28.8818 93H34.8998M34.8998 93V82.3708M34.8998 93H67.3197M34.8998 82.3708H67.3197M67.3197 82.3708V93M67.3197 21.1079V21.1079C68.1758 19.5738 70.3768 19.5564 71.2571 21.0767L76.0866 29.418M67.3197 21.1079C66.7373 17.1139 67.9409 9.12584 77.4145 9.12584C89.2565 9.12584 89.8332 23.2749 84.7915 27.0989C80.7147 30.191 77.2824 29.418 76.0866 29.418M8.10978 23.6202C9.85695 23.6202 11.6041 24.5865 11.6041 26.9056C11.6041 24.5865 13.3513 23.6202 15.0985 23.6202M15.4868 7C17.2339 7 18.9811 7.96629 18.9811 10.2854C18.9811 7.96629 20.7283 7 22.4755 7M42.0827 16.2764C43.8299 16.2764 45.577 17.2427 45.577 19.5618C45.577 17.2427 47.3242 16.2764 49.0714 16.2764" stroke="#FFD9A1" stroke-width="1.5" stroke-linecap="round"/>
</svg>
