<svg width="100" height="101" viewBox="0 0 100 101" fill="none" xmlns="http://www.w3.org/2000/svg">
<path fill-rule="evenodd" clip-rule="evenodd" d="M36.8405 15.2189L36.3242 14.7412L35.8144 15.2259L24.1757 26.2912L23.9424 26.513V26.8348V52.9258L23.4813 54.4967H19.8203C19.4061 54.4967 19.0703 54.8325 19.0703 55.2467C19.0703 55.6609 19.4061 55.9967 19.8203 55.9967H23.041L21.6949 60.5826H17.3843C16.9701 60.5826 16.6343 60.9184 16.6343 61.3326C16.6343 61.7468 16.9701 62.0826 17.3843 62.0826H21.2546L19.9085 66.6686H15.8277C15.4135 66.6686 15.0777 67.0044 15.0777 67.4186C15.0777 67.8328 15.4135 68.1686 15.8277 68.1686H19.4682L18.0408 73.0311H14.1191C13.7049 73.0311 13.3691 73.3669 13.3691 73.7811C13.3691 74.1954 13.7049 74.5311 14.1191 74.5311H17.6005L16.0108 79.947H12.4107C11.9965 79.947 11.6607 80.2828 11.6607 80.697C11.6607 81.1112 11.9965 81.447 12.4107 81.447H16.5723H21.4444H42.0155H48.2915H72.1616H80.2818H87.59C88.0042 81.447 88.34 81.1112 88.34 80.697C88.34 80.2828 88.0042 79.947 87.59 79.947H84.9823C86.1088 78.9105 86.6312 77.4078 86.6312 75.5718C86.6312 74.188 86.1473 72.6991 85.0937 71.5485C84.0266 70.383 82.4199 69.6139 80.2818 69.6139H75.7459L49.0415 39.6485V26.8348V26.5069L48.8009 26.2842L36.8405 15.2189ZM24.7625 55.4579L25.2539 53.7836H47.5415V79.947H42.7655V68.5251C42.7655 67.9217 42.6928 66.8173 42.3679 65.6C42.0441 64.3863 41.4553 63.0073 40.3862 61.9146C38.5695 60.058 36.8024 59.2687 35.1612 59.4313C33.5255 59.5934 32.2544 60.6774 31.3724 62.0294L31.3614 62.0463L31.3513 62.0638L21.0117 79.947H17.5741L19.3219 73.9924L21.1896 67.6298L22.976 61.5439L24.7625 55.4579ZM25.4424 52.2836H47.5415V39.9342V27.5848H25.4424V52.2836ZM26.5698 26.0848H46.3765L36.3382 16.7976L26.5698 26.0848ZM49.0415 79.947V55.0508L70.5239 79.947H49.0415ZM80.2818 79.947H72.5051L49.0415 52.7548V41.9031L74.8498 70.8629L75.0735 71.1139H75.4097H80.2818C82.0345 71.1139 83.2275 71.7315 83.9874 72.5614C84.7608 73.4061 85.1312 74.5211 85.1312 75.5718C85.1312 77.1383 84.6893 78.1889 83.9483 78.8599C83.1939 79.5432 82.005 79.947 80.2818 79.947ZM41.2655 68.5251V79.947H22.7443L32.6395 62.8325C33.3798 61.7046 34.2971 61.0243 35.3091 60.924C36.3204 60.8238 37.6661 61.2795 39.314 62.9637C40.1396 63.8074 40.6335 64.9182 40.9187 65.9867C41.2028 67.0517 41.2655 68.022 41.2655 68.5251ZM41.6658 39.6908C41.6658 42.637 39.2775 45.0253 36.3313 45.0253C33.3852 45.0253 30.9969 42.637 30.9969 39.6908C30.9969 36.7447 33.3852 34.3563 36.3313 34.3563C39.2775 34.3563 41.6658 36.7447 41.6658 39.6908ZM43.1658 39.6908C43.1658 43.4654 40.1059 46.5253 36.3313 46.5253C32.5568 46.5253 29.4969 43.4654 29.4969 39.6908C29.4969 35.9162 32.5568 32.8563 36.3313 32.8563C40.1059 32.8563 43.1658 35.9162 43.1658 39.6908Z" fill="#FFD9A1"/>
</svg>
