<svg width="101" height="101" viewBox="0 0 101 101" fill="none" xmlns="http://www.w3.org/2000/svg">
<path fill-rule="evenodd" clip-rule="evenodd" d="M67.1652 9.53761C72.6041 8.4495 79.3069 9.5115 86.0417 16.2483C91.4758 21.6842 92.4856 27.5539 91.494 32.6658C90.5788 37.3842 87.9692 41.4244 85.6679 43.9041C86.6188 45.0182 87.0113 46.0646 87.0154 46.9958C87.0201 48.0439 86.53 48.8324 86.0152 49.2615L80.7951 54.4832L80.2647 53.953L80.7951 54.4832C80.3238 54.9547 79.4836 55.4658 78.4284 55.5429C77.5086 55.61 76.4918 55.3424 75.4853 54.5465L55.0086 75.0296C55.3162 75.5348 55.5974 76.1884 55.7033 76.9148C55.8601 77.9899 55.6272 79.2216 54.5625 80.2867L54.5523 80.2969L54.542 80.3072L54.5215 80.3277L54.5112 80.338L54.5009 80.3483L54.4905 80.3587L54.4802 80.369L54.4389 80.4104L54.4285 80.4207L54.4181 80.4311L54.4077 80.4415L54.3973 80.4519L54.3765 80.4727L54.3661 80.4831L54.3557 80.4936L54.3139 80.5354L54.2299 80.6194L54.2194 80.6299L54.2088 80.6404L54.1877 80.6615L54.1772 80.6721L54.1666 80.6827L54.1455 80.7038L54.1031 80.7462L54.0606 80.7888L53.9753 80.8741L53.9539 80.8955L53.9325 80.9169L53.8896 80.9598L53.8682 80.9812L53.8467 81.0027L53.8036 81.0458L53.7821 81.0673L53.7713 81.0781L53.7606 81.0889L53.7498 81.0997L53.739 81.1104L53.7282 81.1212L53.7174 81.132L53.6742 81.1753L53.6309 81.2186L53.6092 81.2402L53.5876 81.2619L53.5767 81.2727L53.5659 81.2836L53.5551 81.2944L53.5442 81.3053L53.1962 81.6534L53.1853 81.6643L53.1745 81.6751L53.1527 81.6969L53.1091 81.7405L53.0983 81.7514L53.0874 81.7623L53.0656 81.784L53.0221 81.8276L53.0112 81.8384L53.0003 81.8493L52.9895 81.8602L52.9786 81.8711L52.9568 81.8928L52.9351 81.9146L52.8917 81.958L52.87 81.9797L52.8483 82.0014L52.7616 82.0882L52.6751 82.1747L52.5888 82.261L52.5673 82.2825L52.5458 82.304L52.5028 82.347L52.4814 82.3684L52.4707 82.3791L52.46 82.3899L52.4493 82.4006L52.4386 82.4113L52.4279 82.422L52.4172 82.4326L52.3745 82.4754L52.3319 82.518L52.247 82.6029L52.2258 82.6241L52.2153 82.6346L52.2047 82.6452L52.1942 82.6557L52.1836 82.6663L52.1731 82.6768L52.1626 82.6874L52.1415 82.7084L52.131 82.7189L52.1205 82.7294L52.11 82.7399L52.0995 82.7504L52.0786 82.7714L52.0681 82.7818L52.0577 82.7923L52.0368 82.8132L52.0159 82.834L52.0055 82.8444L51.9951 82.8548L51.9847 82.8652L51.9744 82.8756L51.964 82.886L51.9536 82.8964L51.9329 82.9171L51.9122 82.9378L51.9019 82.9481L51.8916 82.9584L51.871 82.979L51.8299 83.0201L50.6276 84.2228L50.5945 84.2559L50.578 84.2724L50.5698 84.2806L50.5617 84.2887L50.5292 84.3213L50.5211 84.3293L50.5131 84.3374L50.505 84.3454L50.497 84.3534L50.4811 84.3694L50.4731 84.3773L50.4652 84.3852L50.4338 84.4167L50.3719 84.4786L50.3642 84.4862L50.3566 84.4939L50.349 84.5014L50.3415 84.509L50.3339 84.5166L50.3264 84.5241L50.3114 84.5391L50.2818 84.5687L50.2525 84.598L50.238 84.6125L50.2236 84.6269L50.1951 84.6555L50.1669 84.6836L50.1599 84.6906L50.153 84.6975L50.1392 84.7114L50.0323 84.8183L49.9813 84.8693L49.9565 84.8941L49.9504 84.9002L49.9442 84.9064L49.9382 84.9124L49.9321 84.9185L49.9081 84.9425L49.8846 84.966L49.8616 84.9891L49.8502 85.0004L49.8446 85.0061L49.839 85.0117L49.7532 85.0975C49.304 85.5468 48.5116 86.0786 47.5398 86.2368C46.698 86.3739 45.7633 86.2216 44.873 85.5728C42.3135 87.8805 38.1049 90.4638 33.1535 91.2557C27.8198 92.1088 21.6737 90.8714 15.9016 85.0975C10.1325 79.3266 8.89139 73.2522 9.74572 68.0025C10.5351 63.1518 13.1025 59.0555 15.4047 56.5642C14.4459 55.4099 14.1189 54.2775 14.2803 53.1971C14.4585 52.0038 15.2114 51.0518 15.9016 50.3613L20.2737 45.9879L20.2796 45.9819L20.2857 45.9762C20.8206 45.4644 21.7592 44.8586 22.8921 44.6788C23.8884 44.5208 25.0014 44.7004 26.0539 45.4934L46.0928 25.4482C45.3628 24.3076 45.2487 23.1731 45.4792 22.1818C45.7341 21.0864 46.3941 20.2232 46.9628 19.7278L51.3157 15.3736L51.3397 15.3496L51.3658 15.3278C51.8855 14.8945 52.7755 14.3839 53.8145 14.2324C54.7054 14.1024 55.7038 14.2402 56.6257 14.8974C58.4791 13.2127 62.278 10.5154 67.1652 9.53761ZM57.7685 15.8869C58.3394 16.4502 58.9304 17.2021 59.2832 18.0556C59.5333 18.6608 59.6756 19.3471 59.5745 20.0637C59.5022 20.5756 59.3096 21.074 58.9821 21.544L62.5577 25.1207L62.6011 25.0773L64.4319 23.2459C65.4792 22.1983 66.6332 21.9407 67.6515 22.1065C68.6233 22.2647 69.4157 22.7965 69.8649 23.2459L69.9028 23.2838L69.9124 23.2935L69.9221 23.3031L69.9318 23.3128L69.9416 23.3226L69.981 23.3621L69.991 23.3721L70.0011 23.3821L70.0213 23.4023L70.0314 23.4125L70.0417 23.4227L70.0519 23.433L70.0622 23.4433L70.0726 23.4537L70.083 23.4641L70.0934 23.4745L70.1039 23.485L70.1463 23.5274L70.1571 23.5382L70.1678 23.5489L70.1786 23.5597L70.1895 23.5706L70.5584 23.9396L70.6569 24.0382L70.7578 24.1391L70.9662 24.3476L70.9795 24.3609L70.9929 24.3742L71.0063 24.3876L71.0197 24.401L71.0466 24.428L71.0601 24.4415L71.0736 24.455L71.0872 24.4686L71.1008 24.4822L71.1281 24.5095L71.183 24.5644L71.2106 24.5921L71.2245 24.6059L71.2384 24.6198L71.2523 24.6338L71.2663 24.6477L71.2803 24.6617L71.2943 24.6757L71.4074 24.7889L71.4217 24.8031L71.4359 24.8174L71.4646 24.8461L71.479 24.8605L71.4934 24.8749L71.5223 24.9038L71.5512 24.9328L71.5658 24.9473L71.5803 24.9618L71.5949 24.9764L71.6095 24.991L71.6241 25.0057L71.6388 25.0203L71.6534 25.035L71.6681 25.0497L71.6829 25.0644L71.6976 25.0792L71.7272 25.1088L71.7568 25.1384L71.7717 25.1533L71.7866 25.1682L71.8015 25.1831L71.8164 25.198L71.8764 25.258L71.8914 25.2731L71.9065 25.2881L71.9367 25.3183L71.967 25.3486L71.9822 25.3638L71.9973 25.379L72.0278 25.4095L72.043 25.4247L72.0583 25.44L72.1196 25.5013L72.135 25.5167L72.1504 25.5321L72.1812 25.5629L72.2431 25.6248L72.3053 25.687L72.3209 25.7026L72.3365 25.7182L72.3521 25.7339L72.3677 25.7495L72.3834 25.7652L72.399 25.7808L72.4304 25.8122L72.4462 25.828L72.4619 25.8437L72.4776 25.8594L72.4934 25.8752L72.5092 25.891L72.525 25.9068L72.5408 25.9226L72.5566 25.9384L72.5724 25.9543L72.5883 25.9701L72.62 26.0019L72.7476 26.1295L72.7796 26.1615L72.8116 26.1935L72.8437 26.2257L72.8759 26.2578L72.892 26.2739L72.9081 26.29L72.9403 26.3223L72.9564 26.3384L72.9726 26.3545L72.9887 26.3707L73.0049 26.3869L73.0696 26.4516L73.0858 26.4679L73.1021 26.4841L73.1345 26.5166L73.1996 26.5816L73.2158 26.5979L73.2321 26.6142L73.2484 26.6305L73.2647 26.6468L73.2973 26.6794L73.33 26.7121L73.3463 26.7284L73.3626 26.7447L73.379 26.7611L73.3953 26.7774L73.4608 26.8429L73.4772 26.8593L73.4935 26.8757L73.5263 26.9085L73.6576 27.0398L73.9206 27.3029L73.9371 27.3193L73.9535 27.3358L73.9864 27.3687L74.0028 27.3851L74.0193 27.4016L74.0357 27.418L74.0522 27.4345L74.0851 27.4674L74.1015 27.4838L74.118 27.5003L74.1344 27.5167L74.1508 27.5332L74.1837 27.566L74.2166 27.5989L74.233 27.6153L74.2494 27.6318L74.3151 27.6974L74.3315 27.7139L74.3479 27.7303L74.3807 27.7631L74.397 27.7795L74.4134 27.7958L74.4298 27.8122L74.4462 27.8286L74.4625 27.845L74.4789 27.8613L74.5116 27.8941L74.5443 27.9268L74.5606 27.9431L74.577 27.9594L74.5933 27.9758L74.6096 27.9921L74.6259 28.0084L74.6422 28.0247L74.6585 28.041L74.6748 28.0573L74.7074 28.0899L74.7724 28.1549L74.8372 28.2198L74.8534 28.236L74.8696 28.2522L74.902 28.2845L74.9181 28.3007L74.9343 28.3169L74.9504 28.333L74.9665 28.3491L74.9827 28.3653L74.9988 28.3814L75.0309 28.4136L75.0952 28.4778L75.1112 28.4938L75.1272 28.5099L75.1432 28.5259L75.1592 28.5419L75.223 28.6057L75.3501 28.7328L75.3659 28.7486L75.3817 28.7644L75.3975 28.7802L75.4133 28.796L75.429 28.8117L75.4447 28.8275L75.4605 28.8432L75.4762 28.8589L75.5076 28.8903L75.5389 28.9216L75.5545 28.9373L75.5701 28.9529L75.5857 28.9685L75.6013 28.9841L75.6634 29.0462L75.6789 29.0617L75.6944 29.0772L75.7253 29.1081L75.7407 29.1235L75.7561 29.1389L75.7715 29.1543L75.7868 29.1697L75.8022 29.185L75.8175 29.2003L75.8481 29.2309L75.8633 29.2462L75.8786 29.2614L75.8938 29.2767L75.909 29.2919L75.9242 29.3071L75.9393 29.3222L75.9696 29.3525L75.9847 29.3676L75.9998 29.3827L76.0148 29.3977L76.0299 29.4128L76.0898 29.4727L76.2085 29.5915L76.2673 29.6503L76.2966 29.6796L76.3257 29.7087L76.3402 29.7233L76.3548 29.7378L76.3692 29.7523L76.3837 29.7667L76.3981 29.7812L76.4126 29.7956L76.4413 29.8243L76.5552 29.9383L76.5693 29.9524L76.5834 29.9665L76.5974 29.9805L76.6114 29.9945L76.6394 30.0225L76.6673 30.0504L76.695 30.0781L76.7088 30.092L76.7226 30.1057L76.7775 30.1606L76.7911 30.1743L76.8047 30.1879L76.8183 30.2015L76.8319 30.215L76.8589 30.242L76.8857 30.2689L77.096 30.4793L77.1217 30.505L77.1472 30.5305L77.1726 30.5559L77.1979 30.5812L77.2974 30.6808C78.5018 31.8854 78.8211 33.1475 78.62 34.2633C78.4318 35.3081 77.8064 36.1218 77.2749 36.5746L75.6415 38.2085L79.3413 41.9095C79.9269 41.6456 80.6729 41.4665 81.5165 41.5264C82.491 41.5957 83.5499 41.9807 84.6014 42.8482C86.7474 40.5246 89.1751 36.7436 90.0215 32.3802C90.9245 27.7247 90.0397 22.3692 84.9808 17.3088C78.5992 10.9252 72.4044 10.0192 67.4595 11.0085C63.0206 11.8965 59.5222 14.3283 57.7685 15.8869ZM78.1112 42.8006L74.0506 38.7388L62.0273 26.7118L57.967 22.6502L57.7181 22.8992L57.6941 22.9232L57.6701 22.9472L57.6461 22.9712L57.6221 22.9952L57.5266 23.0908L57.4789 23.1384L57.4314 23.186L57.384 23.2334L57.3367 23.2807L57.1488 23.4686L56.9631 23.6544L56.917 23.7005L56.8711 23.7465L56.8482 23.7694L56.8367 23.7808L56.8253 23.7923L56.8139 23.8037L56.8025 23.8151L56.7911 23.8265L56.7797 23.8379L56.5988 24.0188L56.4207 24.197L56.3328 24.2849L56.2891 24.3286L56.2456 24.3721L56.2239 24.3938L56.2023 24.4154L56.1807 24.437L56.17 24.4478L56.1592 24.4585L56.0737 24.5441L56.063 24.5548L56.0524 24.5654L56.0312 24.5866L55.989 24.6289L55.9469 24.6709L55.926 24.6918L55.9156 24.7023L55.9051 24.7127L55.7402 24.8777L55.6591 24.9588L55.639 24.9789L55.629 24.989L55.6189 24.999L55.6089 25.009L55.599 25.019L55.579 25.0389L55.269 25.3491L54.9767 25.6415L54.9678 25.6503L54.959 25.6591L54.9415 25.6767L54.9327 25.6854L54.924 25.6942L54.9066 25.7116L54.872 25.7462L54.8634 25.7548L54.8548 25.7634L54.8462 25.772L54.8377 25.7805L54.7037 25.9145L54.5751 26.0432L54.5437 26.0745L54.5282 26.0901L54.5128 26.1055L54.4974 26.1209L54.4821 26.1362L54.4519 26.1665L54.3343 26.284L54.2227 26.3957L54.2182 26.4002L54.2255 26.4075L54.2498 26.4319L54.3003 26.4823L54.3133 26.4954C54.3533 26.5354 54.2864 26.4684 54.3265 26.5085L54.3398 26.5218L54.3465 26.5286L54.3533 26.5353L54.4088 26.5909L54.4669 26.649L54.497 26.6791L54.5122 26.6943L54.5199 26.702L54.5277 26.7098L54.6573 26.8395L54.6743 26.8564L54.6914 26.8736L54.7263 26.9084L54.7351 26.9173L54.744 26.9261L54.7618 26.944L54.7799 26.962L54.7889 26.9711L54.7981 26.9803L54.835 27.0172L54.8727 27.0549L54.9503 27.1326L54.9902 27.1725L55.0003 27.1826L55.0104 27.1927L55.0309 27.2131L55.1144 27.2967L55.1251 27.3074L55.1358 27.3181L55.1573 27.3396L55.1682 27.3505L55.1791 27.3614L55.19 27.3724L55.201 27.3834L55.2908 27.4731L55.3022 27.4845L55.3137 27.496L55.3368 27.5191L55.3601 27.5425L55.3718 27.5542L55.3836 27.566L55.3955 27.5778L55.4073 27.5897L55.4193 27.6017L55.4313 27.6136L55.4797 27.6621L55.5042 27.6866L55.5165 27.699L55.5289 27.7113L55.5414 27.7238L55.5539 27.7363L55.5664 27.7488L55.579 27.7614L55.6816 27.864L55.7341 27.9166L55.7875 27.97L55.8968 28.0793L55.9247 28.1072L55.9527 28.1353L55.9668 28.1494L55.981 28.1636L55.9952 28.1778L56.0095 28.1921L56.0239 28.2064L56.0382 28.2208L56.0527 28.2353L56.0672 28.2498L56.0817 28.2643L56.0963 28.2789L56.111 28.2936L56.1257 28.3083L56.1553 28.3379L56.1851 28.3678L56.2152 28.3978L56.2303 28.4129L56.2454 28.4281L56.2759 28.4586L56.2912 28.4739L56.3066 28.4893L56.3376 28.5202L56.3531 28.5358L56.3687 28.5514L56.3844 28.5671L56.4001 28.5828L56.4159 28.5986L56.4317 28.6144L56.4476 28.6303L56.4635 28.6462L56.4956 28.6783L56.5279 28.7106L56.5441 28.7269L56.5604 28.7431L56.5932 28.7759L56.6096 28.7924L56.6261 28.8089L56.7604 28.9432L56.7945 28.9773L56.8289 29.0117L56.8984 29.0812L56.9159 29.0987L56.9335 29.1163L56.9688 29.1517L57.0044 29.1872L57.0402 29.223L57.0582 29.241L57.0762 29.2591L57.0943 29.2772L57.1125 29.2954L57.1307 29.3136L57.149 29.3319L57.1674 29.3503L57.1858 29.3687C58.2527 30.436 58.7179 31.3801 58.8155 32.3302C58.8874 33.0299 58.7422 33.7148 58.6218 34.2829C58.592 34.4237 58.5636 34.5574 58.5405 34.6823C58.4165 35.3518 58.3654 36.0137 58.6551 36.8489C58.9529 37.7075 59.6352 38.8165 61.1207 40.3024C62.3783 41.5604 63.3046 42.0661 64.0182 42.2528C64.7215 42.4368 65.309 42.3378 65.996 42.1792C66.0598 42.1645 66.1253 42.1489 66.1925 42.133C66.8208 41.9839 67.5923 41.8007 68.4541 41.9368C69.4397 42.0925 70.4509 42.6379 71.6137 43.8011L71.626 43.8135L71.6384 43.8258L71.6508 43.8382L71.657 43.8445L71.6633 43.8507L71.7136 43.901L71.739 43.9265L71.7646 43.952L71.7774 43.9649L71.7903 43.9778L71.8033 43.9908L71.8097 43.9972L71.8162 44.0037L71.8686 44.0561L71.8949 44.0825L71.9082 44.0957L71.9215 44.109L72.029 44.2165L72.0562 44.2437L72.0835 44.2711L72.0972 44.2848L72.1041 44.2916L72.1109 44.2985L72.1247 44.3123L72.1316 44.3192L72.1385 44.3261L72.1662 44.3538L72.1939 44.3815L72.2218 44.4094L72.2358 44.4234L72.2498 44.4374L72.3625 44.5502L72.3909 44.5786L72.4194 44.6071L72.4765 44.6642L72.5339 44.7216L72.5411 44.7288L72.5483 44.736L72.5554 44.7432L72.5626 44.7504L72.577 44.7648L72.5915 44.7792L72.7071 44.8949L72.7143 44.9021L72.7216 44.9094L72.7361 44.9239L72.7651 44.9529L72.7941 44.9819L72.8014 44.9892L72.8087 44.9965L72.8232 45.011L72.8377 45.0255L72.8522 45.04L72.8813 45.0691L72.8958 45.0837C72.9088 45.0967 72.9119 45.0998 72.9108 45.0986L72.9249 45.1127L72.9322 45.12L72.9394 45.1273L72.9975 45.1854L73.0048 45.1926L73.012 45.1999L73.0193 45.2072L73.0266 45.2144L73.0338 45.2217L73.0411 45.2289L73.0483 45.2362L73.0556 45.2434L73.1135 45.3014L73.1425 45.3304L73.1714 45.3593L73.229 45.417L73.2362 45.4242L73.2434 45.4314L73.2506 45.4386L73.2578 45.4457L73.2865 45.4745L73.2937 45.4816L73.3009 45.4888L73.3152 45.5031L73.3295 45.5175L73.3438 45.5318L73.4008 45.5888L73.4292 45.6172L73.4575 45.6455L73.4716 45.6597L73.4858 45.6738L73.4998 45.6879L73.5139 45.7019L73.6256 45.8137L73.8437 46.0318L73.8704 46.0585L73.8837 46.0718L73.8903 46.0785L73.897 46.0851L73.9496 46.1377L74.053 46.2412L74.0657 46.2539L74.0721 46.2603L74.0784 46.2666L74.1037 46.2919L74.1162 46.3044L74.1225 46.3107L74.1288 46.317L74.1536 46.3419L74.2029 46.3911L74.215 46.4033L74.2211 46.4094L74.2272 46.4154L74.2513 46.4395L74.3624 46.5506L78.1112 42.8006ZM73.317 47.6266L73.2849 47.5945L73.2616 47.5712L73.2557 47.5653L73.2499 47.5595L73.2381 47.5477L73.2144 47.524L73.1905 47.5L73.142 47.4516L73.1298 47.4394L73.1175 47.4271L73.1052 47.4147L73.099 47.4086L73.0928 47.4024L73.0804 47.3899L73.0679 47.3775L73.0554 47.3649L73.0429 47.3524L73.0366 47.3461L73.0302 47.3398L73.0239 47.3334L73.0176 47.3271L72.9922 47.3017L72.9408 47.2503L72.9149 47.2243L72.8888 47.1982L72.7829 47.0923L72.5648 46.8742L72.4531 46.7624L72.439 46.7484L72.4249 46.7343L72.4108 46.7201L72.4038 46.7131L72.3967 46.706L72.3684 46.6777L72.34 46.6493L72.3115 46.6208L72.2972 46.6065L72.2901 46.5994L72.283 46.5922L72.2544 46.5636L72.24 46.5493C72.2284 46.5377 72.225 46.5342 72.2254 46.5347L72.1682 46.4775L72.1538 46.4631L72.1466 46.4558L72.1394 46.4486L72.1105 46.4198L72.0816 46.3909L72.0527 46.3619L71.9947 46.3039L71.9875 46.2967L71.9802 46.2894L71.9657 46.2749L71.9367 46.2459L71.8786 46.1878L71.8495 46.1587L71.835 46.1441L71.8277 46.1369L71.8205 46.1296L71.8132 46.1223L71.8059 46.1151L71.7914 46.1005L71.7624 46.0715L71.7551 46.0642L71.7478 46.0569L71.7333 46.0424L71.7043 46.0134L71.6753 45.9844L71.668 45.9771L71.6608 45.9699L71.6463 45.9554L71.639 45.9481L71.6318 45.9409L71.6245 45.9336L71.6173 45.9264L71.5884 45.8975L71.5595 45.8685L71.5451 45.8541L71.5306 45.8397L71.5018 45.8109L71.4731 45.7821L71.4443 45.7534L71.4157 45.7247L71.4085 45.7175L71.4014 45.7104L71.3942 45.7032L71.3871 45.6961L71.3799 45.689L71.3728 45.6818L71.3586 45.6676L71.3443 45.6533L71.3372 45.6462L71.3301 45.6391L71.323 45.632L71.3159 45.6249L71.3017 45.6107L71.1889 45.4979L71.1749 45.4839L71.161 45.4699L71.1331 45.442L71.1053 45.4142L71.0777 45.3866L71.0501 45.359L71.0227 45.3316L70.9953 45.3042L70.9817 45.2906L70.9749 45.2838L70.9681 45.277L70.8606 45.1695L70.854 45.1628L70.8474 45.1562L70.8341 45.1429L70.8077 45.1166L70.8012 45.11L70.7946 45.1034L70.788 45.0969L70.7815 45.0903L70.775 45.0838L70.7684 45.0773L70.7619 45.0707L70.7554 45.0642L70.7037 45.0125L70.6782 44.9869L70.6654 44.9742L70.6591 44.9679L70.6527 44.9615L70.5529 44.8616C69.5297 43.8381 68.792 43.5088 68.2201 43.4185C67.6641 43.3307 67.1767 43.4443 66.5096 43.5998C66.4522 43.6132 66.3935 43.6269 66.3334 43.6408C65.5994 43.8102 64.7113 43.9846 63.6385 43.7039C62.5759 43.4259 61.4254 42.7289 60.0598 41.3629C58.4848 39.7873 57.6369 38.4909 57.2379 37.3404C56.8308 36.1665 56.9163 35.2157 57.0656 34.4092C57.1041 34.2009 57.143 34.0142 57.1787 33.8424C57.2884 33.3153 57.3691 32.9279 57.3234 32.4835C57.2707 31.9713 57.0254 31.33 56.125 30.4292L55.9793 30.2835L55.9435 30.2477L55.908 30.2121L55.8726 30.1768L55.8551 30.1592L55.8376 30.1417L55.5653 29.8694L55.5488 29.8529L55.5323 29.8364L55.5159 29.82L55.4996 29.8036L55.4671 29.7711L55.4348 29.7388L55.4027 29.7067L55.3868 29.6908L55.3709 29.6749L55.3393 29.6433L55.3236 29.6276L55.3079 29.6119L55.2767 29.5807L55.2458 29.5498L55.2304 29.5344L55.2151 29.5191L55.1846 29.4886L55.1243 29.4283L55.0649 29.3688L54.836 29.1398L54.8221 29.126L54.8083 29.1122L54.7946 29.0984L54.7809 29.0847L54.7673 29.0711L54.7537 29.0575L54.7267 29.0305L54.6208 28.9245L54.5182 28.8219L54.5056 28.8093L54.493 28.7968L54.4805 28.7843L54.4681 28.7718L54.4189 28.7226L54.4067 28.7104L54.3945 28.6983L54.3704 28.6741L54.3465 28.6502L54.3346 28.6383L54.3228 28.6265L54.311 28.6147L54.2993 28.603L54.276 28.5796L54.2644 28.5681L54.2528 28.5565L54.2299 28.5336L54.1402 28.4438L54.0536 28.3572L53.97 28.2736L53.9294 28.233L53.9093 28.2129L53.8895 28.193L53.8119 28.1154L53.793 28.0965L53.7742 28.0777L53.7372 28.0408L53.7281 28.0316L53.719 28.0225L53.71 28.0135L53.701 28.0045L53.6831 27.9866L53.6655 27.9689L53.6306 27.9341L53.5965 27.9L53.4669 27.7703L53.4591 27.7625L53.4514 27.7548L53.4361 27.7396L53.4061 27.7095L53.3767 27.6801L53.348 27.6514L53.2925 27.5958L53.2395 27.5428L53.141 27.4443L53.1052 27.4085C52.5578 27.7806 51.8249 28.1009 50.971 28.1751C49.7581 28.2806 48.3872 27.8819 47.0575 26.6048L27.1768 46.4917C27.7213 47.0504 28.2698 47.8026 28.5802 48.6771C28.9716 49.7795 28.974 51.0647 28.1602 52.3113L28.2083 52.3595L28.2609 52.4121L28.315 52.4661L28.3425 52.4937L28.3704 52.5216L28.3775 52.5286L28.3845 52.5357L28.3916 52.5428L28.3987 52.5499L28.413 52.5641L28.4201 52.5713L28.4273 52.5785L28.4563 52.6075L28.4855 52.6368L28.5003 52.6515L28.5152 52.6664L28.5226 52.6739L28.5301 52.6814L28.5452 52.6964L28.6061 52.7573L28.6683 52.8196L28.7318 52.8831L28.7641 52.9153L28.7966 52.9479L28.8294 52.9808L28.8626 53.0139L28.896 53.0474L28.9129 53.0642L28.9298 53.0812L28.9982 53.1496L29.0328 53.1842L29.0503 53.2016L29.059 53.2104L29.0677 53.2191L29.2102 53.3617L29.2465 53.398L29.2831 53.4346L29.2923 53.4438L29.3015 53.453L29.3107 53.4622L29.32 53.4714L29.3292 53.4807L29.3385 53.49L29.3478 53.4992L29.3571 53.5086L29.3664 53.5179L29.3757 53.5272L29.3944 53.5459L29.4038 53.5553L29.4132 53.5647L29.4226 53.5741L29.4321 53.5836L29.5081 53.6596L29.5851 53.7366L29.5947 53.7463L29.6045 53.756L29.6239 53.7755L29.663 53.8146L29.6827 53.8342L29.6925 53.8441L29.7024 53.8539L29.7419 53.8935L29.7817 53.9333L29.7917 53.9433L29.8017 53.9533L29.8117 53.9633L29.8217 53.9734L29.9025 54.0541L29.9432 54.0948L29.9636 54.1152L29.9841 54.1357L30.0046 54.1563L30.0252 54.1769L30.0355 54.1872L30.0458 54.1975L30.0561 54.2078L30.0665 54.2182L30.0769 54.2286L30.0872 54.2389L30.0976 54.2493L30.108 54.2597L30.1184 54.2701L30.1289 54.2806L30.1393 54.291L30.1497 54.3015L30.1917 54.3434L30.2127 54.3645L30.2232 54.375L30.2338 54.3856L30.2761 54.4279L30.2867 54.4385L30.2973 54.4491L30.3186 54.4704L30.4905 54.6423L30.6652 54.8171L30.7093 54.8612L30.7203 54.8722L30.7314 54.8833L30.7424 54.8944L30.7535 54.9054L30.8425 54.9944L30.9321 55.084L30.9545 55.1065L30.9658 55.1178L30.9771 55.129L30.9883 55.1403L30.9996 55.1516L31.0222 55.1742L31.0448 55.1968L31.0675 55.2195L31.1129 55.2649L31.2041 55.3562L31.25 55.402L31.2959 55.448L31.3189 55.471L31.3419 55.494L31.3535 55.5056L31.365 55.5171L31.3881 55.5402L31.4344 55.5865L31.446 55.5981L31.4576 55.6097L31.4692 55.6213L31.4808 55.633L31.5739 55.7261L31.6675 55.8197L31.6909 55.8431L31.7027 55.8549L31.7144 55.8666L31.7614 55.9136L31.8085 55.9608L31.8557 56.008L31.8793 56.0316L31.903 56.0552L31.9148 56.0671L31.9266 56.0789L31.9385 56.0908L31.9503 56.1026L31.9978 56.1501L32.0215 56.1738L32.0453 56.1976L32.1405 56.2929L32.1524 56.3048L32.1644 56.3167L32.1882 56.3406L32.2002 56.3525L32.2121 56.3645L32.2241 56.3764L32.236 56.3884L32.2599 56.4123L32.2839 56.4362L32.3318 56.4842C32.8194 56.972 33.1926 57.0427 33.564 57.011C33.7837 56.9923 34.0254 56.9337 34.3237 56.8436C34.4176 56.8152 34.5252 56.781 34.6403 56.7444C34.853 56.6768 35.0911 56.6011 35.3144 56.5396C36.0593 56.3343 36.9544 56.1867 38.0124 56.464C39.0601 56.7387 40.1828 57.4072 41.4462 58.6709C42.7141 59.9392 43.4174 61.1048 43.7685 62.2054C44.1201 63.3072 44.0991 64.2842 44.0118 65.1278C43.9867 65.3708 43.9523 65.6309 43.9206 65.8703C43.9011 66.0181 43.8826 66.1581 43.8679 66.2812C43.8259 66.6347 43.8028 66.939 43.8168 67.2208C43.8426 67.743 43.9945 68.2175 44.5067 68.7299L44.5558 68.779L44.568 68.7912L44.5803 68.8035L44.6047 68.828L44.7022 68.9254L44.799 69.0223L44.8472 69.0705L44.8712 69.0945L44.8832 69.1065L44.8952 69.1185L44.943 69.1664L44.955 69.1783L44.9669 69.1902L44.9907 69.2141L45.0856 69.3089L45.2732 69.4966L45.3659 69.5893L45.4578 69.6813L45.4693 69.6928L45.4807 69.7042L45.5035 69.727L45.549 69.7726L45.5604 69.7839L45.5717 69.7952L45.5831 69.8066L45.5944 69.8179L45.617 69.8405L45.6282 69.8518L45.6395 69.863L45.7291 69.9527L45.7514 69.975L45.7625 69.9861L45.7737 69.9972L45.818 70.0416L45.8401 70.0637L45.8621 70.0857L45.906 70.1296L45.9279 70.1515L45.9497 70.1733L45.9606 70.1842L45.9715 70.1951L45.9932 70.2168L46.0795 70.3032L46.165 70.3887L46.1756 70.3993L46.1862 70.4099L46.2074 70.4311L46.2285 70.4522L46.239 70.4627L46.2495 70.4733L46.2915 70.5152L46.3124 70.5361L46.3228 70.5466L46.3332 70.557L46.354 70.5778L46.3747 70.5985L46.385 70.6088L46.3954 70.6191L46.4057 70.6295L46.416 70.6398L46.4365 70.6603L46.457 70.6808L46.4978 70.7216L46.5181 70.7419L46.5282 70.752L46.5383 70.7622L46.5585 70.7824L46.5686 70.7924L46.5787 70.8025L46.5887 70.8125L46.5987 70.8226L46.6187 70.8426L46.6287 70.8526L46.6387 70.8625L46.6486 70.8725L46.6586 70.8824L46.6981 70.922L46.7178 70.9417L46.7375 70.9614L46.8154 71.0393L46.8251 71.049L46.8347 71.0586L46.8444 71.0683L46.854 71.0779L46.8636 71.0875L46.8732 71.0971L46.8923 71.1162L46.9114 71.1353L46.9209 71.1448L46.9304 71.1543L46.9493 71.1733L46.9588 71.1827L46.9682 71.1922L46.987 71.211L46.9964 71.2203L47.0057 71.2297L47.0151 71.2391L47.0244 71.2484L47.043 71.267L47.1168 71.3408L47.1895 71.4135L47.2611 71.4851L48.2448 72.4692L48.3445 72.5689L48.3923 72.6167L48.3993 72.6237C49.1158 72.1458 49.9648 71.9587 50.9078 72.143C51.9015 72.3373 52.9404 72.9316 54.0182 73.8987L74.3602 53.5503C73.7838 52.9851 73.1841 52.2263 72.8276 51.3639C72.5775 50.7587 72.4351 50.0723 72.5363 49.3558C72.6214 48.7525 72.8738 48.1679 73.317 47.6266ZM53.4764 75.4505C52.3126 74.2925 51.3566 73.7592 50.6201 73.6152C49.931 73.4805 49.3706 73.6718 48.8788 74.1638L47.182 75.8611L44.0944 78.9497L44.0819 78.9622L44.0695 78.9746C43.5507 79.4935 43.3207 79.983 43.2451 80.419C43.1686 80.8599 43.2394 81.3084 43.4237 81.7559C43.8024 82.6755 44.6221 83.4915 45.2809 83.9529L45.3347 83.9905L45.3811 84.037C46.0827 84.7388 46.7504 84.8456 47.2987 84.7563C47.8937 84.6594 48.4129 84.3165 48.6924 84.037L48.6975 84.0318L48.7027 84.0267L48.7131 84.0162L48.7343 83.995L48.7781 83.9512L48.7838 83.9456L48.7894 83.9399L48.8008 83.9286L48.8065 83.9228L48.8122 83.9171L48.818 83.9113L48.8238 83.9055L48.8713 83.858L48.9715 83.7578L49.0784 83.6509L49.0853 83.644L49.0922 83.637L49.0991 83.6301L49.1061 83.6231L49.1131 83.6161L49.1201 83.6091L49.1342 83.595L49.1484 83.5808L49.1628 83.5665L49.1699 83.5593L49.1772 83.552L49.1844 83.5448L49.1917 83.5375L49.2506 83.4786L49.2806 83.4485L49.3111 83.4181L49.3729 83.3562L49.3886 83.3405L49.4044 83.3247L49.4123 83.3168L49.4203 83.3089L49.4362 83.2929L49.4684 83.2607L49.5008 83.2283L49.5668 83.1623L50.7691 81.9596L50.7794 81.9493L50.7896 81.9391L50.7999 81.9288L50.8102 81.9185L50.8514 81.8773L50.8617 81.8669L50.8721 81.8566L50.8928 81.8359L50.9135 81.8151L50.9239 81.8047L50.9343 81.7943L51.0178 81.7109L51.0597 81.6689L51.0702 81.6584L51.0807 81.6479L51.1017 81.6269L51.442 81.2865L51.4635 81.265L51.4742 81.2543L51.485 81.2435L51.5065 81.222L51.5172 81.2112L51.528 81.2005L51.6142 81.1142L51.6575 81.071L51.7007 81.0277L51.7441 80.9843L51.7549 80.9735L51.7657 80.9627L51.7766 80.9518L51.7874 80.941L51.8743 80.8541L51.9613 80.7671L52.0048 80.7235L52.0265 80.7018L52.0483 80.68L52.0919 80.6364L52.1027 80.6255L52.1136 80.6147L52.1354 80.5929L52.4834 80.2448L52.5701 80.1581L52.6133 80.1148L52.6566 80.0715L52.6997 80.0284L52.7213 80.0068L52.7321 79.996L52.7428 79.9853L52.7858 79.9422L52.8288 79.8993L52.9145 79.8136L52.9358 79.7922L52.9571 79.7709L52.9785 79.7496L52.9997 79.7283L53.1691 79.5589L53.2531 79.4749L53.274 79.4539L53.2844 79.4435L53.2949 79.4331L53.3053 79.4226L53.3157 79.4122L53.3261 79.4018L53.3365 79.3914L53.3469 79.381L53.3573 79.3706L53.378 79.3499L53.4194 79.3085L53.4606 79.2672L53.4709 79.257L53.4812 79.2467L53.4914 79.2364L53.5017 79.2262C54.1859 78.5418 54.3173 77.8055 54.219 77.1312C54.1179 76.4374 53.7681 75.8099 53.4764 75.4505ZM47.2879 73.6336L47.2837 73.6294L47.184 73.5297L46.7318 73.0773L46.7163 73.0618L46.7085 73.0541L46.7008 73.0463L46.6852 73.0307C46.6431 72.9886 46.7116 73.0571 46.6695 73.015L46.606 72.9515L46.5413 72.8868L46.4754 72.8209L46.4083 72.7538L46.3744 72.7198L46.3573 72.7027L46.3401 72.6855L46.2003 72.5456L46.1287 72.474L46.0925 72.4378L46.0742 72.4196L46.0651 72.4104L46.056 72.4013L45.9822 72.3275L45.9449 72.2902L45.9356 72.2808L45.9262 72.2715L45.9168 72.2621L45.9074 72.2526L45.8979 72.2432L45.8885 72.2338L45.8696 72.2148L45.8506 72.1958L45.841 72.1863L45.8315 72.1767L45.8219 72.1672L45.8124 72.1576L45.7932 72.1384L45.7835 72.1288L45.7739 72.1191L45.7546 72.0998L45.7157 72.061L45.6767 72.0219L45.6373 71.9825L45.6274 71.9726L45.6176 71.9627L45.5977 71.9429L45.5779 71.923L45.5679 71.9131L45.5579 71.9031L45.5178 71.863L45.5078 71.8529L45.4977 71.8429L45.4775 71.8227L45.437 71.7821L45.2724 71.6175L45.1041 71.4492L44.9324 71.2773L43.4458 69.7904C42.6464 68.9907 42.3611 68.1532 42.3186 67.295C42.2984 66.8866 42.3333 66.4836 42.3784 66.1042C42.3986 65.9344 42.4192 65.7799 42.4394 65.6288C42.4679 65.4148 42.4955 65.2077 42.5198 64.9735C42.5965 64.2317 42.6028 63.4866 42.3395 62.6614C42.0758 61.835 41.5221 60.8685 40.3854 59.7314C39.2441 58.5897 38.3448 58.1018 37.632 57.915C36.9296 57.7308 36.3259 57.8167 35.713 57.9857C35.51 58.0416 35.3329 58.0982 35.1456 58.158C35.0238 58.1969 34.8977 58.2371 34.7573 58.2795C34.432 58.3778 34.0701 58.4734 33.6912 58.5056C32.8655 58.576 32.0614 58.3354 31.2709 57.5447L31.247 57.5207L31.235 57.5087L31.223 57.4967L31.2111 57.4848L31.1991 57.4728L31.1752 57.4489L31.1632 57.4369L31.1513 57.425L31.1393 57.413L31.1274 57.4011L31.1155 57.3891L31.1035 57.3772L31.0916 57.3653L31.0797 57.3534L31.0678 57.3414L31.0559 57.3295L31.032 57.3057L30.9845 57.2581L30.9607 57.2343L30.9488 57.2224L30.9369 57.2106L30.9132 57.1868L30.9014 57.175L30.8895 57.1631L30.7006 56.9741L30.6536 56.9271L30.6418 56.9154L30.6301 56.9036L30.6067 56.8802L30.5598 56.8333L30.5131 56.7866L30.4665 56.74L30.4549 56.7283L30.4432 56.7167L30.4316 56.7051L30.42 56.6935L30.3736 56.647L30.362 56.6354L30.3504 56.6239L30.3273 56.6007L30.2351 56.5085L30.1891 56.4625L30.1433 56.4167L29.7817 56.0549L29.6927 55.9659L29.6706 55.9438L29.6595 55.9327L29.6484 55.9217L29.6044 55.8776L29.4297 55.7028L29.3434 55.6165L29.2578 55.5309L29.2365 55.5096L29.2153 55.4884L29.1941 55.4672L29.173 55.446L29.1624 55.4355L29.1519 55.425L29.1308 55.4039L29.1203 55.3934L29.1099 55.3829L29.0994 55.3724L29.0889 55.362L29.0057 55.2787L28.9953 55.2683L28.985 55.258L28.9747 55.2477L28.9643 55.2374L28.9438 55.2168L28.9232 55.1962L28.8416 55.1146L28.8012 55.0741L28.7911 55.064L28.781 55.054L28.7609 55.0339L28.7509 55.0238L28.7409 55.0138L28.7309 55.0038L28.7209 54.9938L28.7109 54.9839L28.701 54.9739L28.691 54.964L28.6811 54.954L28.6415 54.9144L28.6022 54.8751L28.5924 54.8653L28.5826 54.8555L28.5631 54.836L28.5242 54.7971L28.4472 54.7201L28.4377 54.7105L28.4281 54.701L28.4186 54.6915L28.4091 54.6819L28.3901 54.663L28.3712 54.6441L28.3618 54.6346L28.3524 54.6252L28.3336 54.6064L28.3149 54.5877L28.3056 54.5784L28.2962 54.569L28.2869 54.5597L28.2777 54.5505L28.2684 54.5412L28.2591 54.5319L28.2499 54.5227L28.2407 54.5135L28.2315 54.5043L28.2223 54.4951L28.1494 54.4222L28.0069 54.2796L27.972 54.2447L27.9633 54.236L27.9547 54.2273L27.946 54.2187L27.9374 54.2101L27.903 54.1757L27.8945 54.1672L27.886 54.1586L27.8775 54.1501L27.869 54.1416L27.8352 54.1079L27.8268 54.0995L27.8185 54.0911L27.8018 54.0744L27.7358 54.0084L27.7195 53.9921L27.7113 53.984L27.7032 53.9758L27.671 53.9436L27.6075 53.8801L27.5996 53.8722L27.5918 53.8644L27.584 53.8566L27.5762 53.8488L27.5684 53.841L27.5607 53.8333L27.553 53.8255L27.5453 53.8178L27.5376 53.8101L27.5299 53.8025L27.5222 53.7948L27.5146 53.7872L27.4843 53.7569L27.4247 53.6973L27.3954 53.668L27.3809 53.6534L27.3737 53.6462L27.3665 53.639L27.1772 53.4496L23.4198 57.2081L27.699 61.4887L39.31 73.1033L43.564 77.3586L46.1212 74.8006L47.2879 73.6336ZM42.5366 78.4525L38.7796 74.6944L36.6868 76.7879L36.6808 76.7938C36.1782 77.2853 35.2807 77.7665 34.1438 77.7621C32.9844 77.7575 31.6654 77.2495 30.3295 75.9132L30.3008 75.8845L30.2721 75.8557L30.2577 75.8413L30.2433 75.8269L30.2288 75.8125L30.2144 75.798L30.1855 75.7691L30.1711 75.7547L30.1566 75.7402L30.1276 75.7112L30.0986 75.6822L30.0405 75.6241L30.0114 75.5949L29.9822 75.5658L29.9676 75.5512L29.953 75.5365L29.9384 75.5219L29.9238 75.5073L29.9091 75.4927L29.8945 75.478L29.8799 75.4634L29.8652 75.4487L29.8359 75.4194L29.8065 75.39L29.7918 75.3753L29.7771 75.3606L29.7624 75.3459L29.7477 75.3312L29.6297 75.2132L29.5706 75.154L29.5114 75.0948L29.452 75.0354L29.4372 75.0206L29.4223 75.0057L29.4075 74.9908L29.3926 74.976L29.3777 74.9611L29.3629 74.9462L29.348 74.9314L29.3331 74.9165L29.3033 74.8867L29.2736 74.8569L29.2139 74.7972L29.199 74.7823L29.1841 74.7674L29.1692 74.7525L29.1542 74.7375L29.1393 74.7226L29.1244 74.7077L29.1094 74.6927L29.0945 74.6778L29.0796 74.6628L29.0646 74.6479L29.0497 74.6329L29.0347 74.618L29.0048 74.5881L28.9899 74.5731L28.9749 74.5581L28.915 74.4983L28.8851 74.4683L28.8701 74.4533L28.8552 74.4384L28.7953 74.3785L28.6755 74.2586L28.6605 74.2436L28.6455 74.2286L28.6155 74.1987L28.6006 74.1837L28.5856 74.1687L28.5556 74.1387L28.4957 74.0788L28.4359 74.0189L28.1967 73.7797L28.0774 73.6604L28.0476 73.6306L28.0328 73.6157L28.0179 73.6008L27.9881 73.5711L27.9733 73.5562L27.9584 73.5413L27.899 73.4819L27.8842 73.4671L27.8693 73.4522L27.8545 73.4374L27.8397 73.4226L27.8249 73.4078L27.8101 73.3929L27.7805 73.3633L27.7657 73.3485L27.7509 73.3337L27.7213 73.3042L27.6623 73.2452L27.6329 73.2157L27.6034 73.1862L27.5446 73.1274L27.5299 73.1127L27.5153 73.0981L27.5006 73.0834L27.486 73.0687L27.4567 73.0394L27.442 73.0248L27.4274 73.0102L27.4128 72.9956L27.3982 72.981L27.369 72.9518L27.3545 72.9372L27.3399 72.9226L27.3108 72.8935L27.2962 72.879L27.2817 72.8644L27.2527 72.8354L27.0219 72.6045L27.0076 72.5902L26.9932 72.5759L26.9646 72.5473L26.9504 72.533L26.9361 72.5187L26.9218 72.5044L26.9076 72.4902L26.8507 72.4333L26.8365 72.4191L26.8223 72.4049L26.794 72.3766L26.7658 72.3483L26.7376 72.3201L26.6813 72.2639L26.6253 72.2078L26.5695 72.152L26.3488 71.9312L26.3351 71.9175L26.3215 71.9039L26.2942 71.8766L26.2399 71.8223L26.1322 71.7145L26.1188 71.7012L26.1054 71.6878L26.0921 71.6744L26.0787 71.6611L26.0654 71.6478L26.0521 71.6345L26.0388 71.6212L26.0256 71.6079L25.9991 71.5814L25.9859 71.5682L25.9727 71.555L25.9596 71.5419L25.9464 71.5287L25.9202 71.5025L25.894 71.4763L25.881 71.4633L25.868 71.4502L25.842 71.4242L25.816 71.3983L25.8031 71.3854L25.7902 71.3725L25.7645 71.3467L25.7132 71.2954L25.6877 71.2699L25.6623 71.2445L25.6496 71.2318L25.637 71.2192L25.6117 71.1939L25.5991 71.1813L25.5866 71.1688L25.574 71.1562L25.5615 71.1437L25.549 71.1312L25.5365 71.1187L25.5241 71.1062L25.5116 71.0938L25.413 70.9952L25.3643 70.9464L25.3522 70.9343L25.34 70.9222L25.3159 70.898L25.3039 70.886L25.2919 70.874L25.268 70.85L25.2441 70.8262L25.2204 70.8025L25.1967 70.7788L25.185 70.767L25.1732 70.7553L25.1615 70.7435L25.1498 70.7318L25.1264 70.7085L25.1148 70.6969L25.1032 70.6853L25.0917 70.6737L25.0801 70.6621L25.0686 70.6506L25.0571 70.6391L25.0456 70.6277L25.0342 70.6162L25.0228 70.6048L25.0114 70.5934L24.9887 70.5707L24.9436 70.5256L24.899 70.481L24.888 70.4699L24.8769 70.4589L24.8659 70.4478L24.8549 70.4368L24.833 70.4149L24.8112 70.3931L24.7679 70.3499L24.7252 70.3071L24.7145 70.2965L24.704 70.2859L24.6829 70.2648L24.6724 70.2543L24.6619 70.2438L24.6411 70.223L24.6203 70.2022L24.61 70.1919L24.5997 70.1816L24.5589 70.1408L24.5186 70.1004L24.5086 70.0904L24.4986 70.0804L24.4887 70.0705L24.4788 70.0606L24.459 70.0409L24.4394 70.0213L24.2875 69.8693L24.2783 69.8601L24.2691 69.8509L24.26 69.8417L24.2509 69.8326L24.2418 69.8236L24.2327 69.8145L24.2237 69.8055L24.2148 69.7965L24.1443 69.726L24.0761 69.6578L24.0103 69.592L23.9942 69.5759L23.9782 69.5599L23.9468 69.5285L23.9391 69.5207L23.9313 69.513L23.916 69.4977L23.9008 69.4825L23.8933 69.475L23.8858 69.4675L23.8563 69.4379L23.849 69.4306L23.8417 69.4234L23.8273 69.409L23.8202 69.4018L23.8131 69.3947L23.806 69.3877L23.799 69.3807L23.7921 69.3737L23.7851 69.3668L23.7714 69.353L23.742 69.3236L23.7161 69.2912C23.3391 68.8199 22.9415 68.0155 22.8968 67.0536C22.8505 66.0591 23.1851 64.9429 24.2086 63.9191L26.1081 62.0189L22.3226 58.2322C21.7429 58.6223 20.8818 58.9599 19.8614 58.9562C18.8091 58.9524 17.6354 58.586 16.4683 57.6235C14.3342 59.947 11.9549 63.7663 11.2262 68.2435C10.4483 73.0236 11.539 78.6118 16.9624 84.037C22.3829 89.4591 28.0415 90.5542 32.9166 89.7745C37.4223 89.0539 41.3004 86.7219 43.7034 84.6059C43.0686 84.0291 42.4142 83.2437 42.0367 82.3271C41.7692 81.6776 41.6323 80.9399 41.7672 80.1626C41.869 79.5757 42.1198 79.001 42.5366 78.4525ZM27.1686 63.0798L25.2694 64.9795C24.544 65.7052 24.3685 66.4112 24.3952 66.9839C24.4223 67.5668 24.6628 68.0593 24.8646 68.3249L24.8882 68.3485L24.9466 68.407L24.9541 68.4145L24.9617 68.422L24.9768 68.4372L24.9845 68.4448L24.9922 68.4525L24.9999 68.4602L25.0076 68.468L25.0391 68.4994L25.047 68.5074L25.055 68.5154L25.0711 68.5315L25.3483 68.8088L25.3668 68.8273L25.3762 68.8366L25.3855 68.846L25.3949 68.8554L25.4043 68.8648L25.4137 68.8742L25.4232 68.8837L25.4615 68.922L25.4711 68.9316L25.4808 68.9413L25.5003 68.9608L25.6606 69.1211L25.7437 69.2043L25.786 69.2466L25.8073 69.2679L25.818 69.2786L25.8288 69.2894L26.0045 69.4651L26.0269 69.4876L26.0495 69.5102L26.095 69.5557L26.1065 69.5672L26.1179 69.5786L26.1294 69.5901L26.1409 69.6016L26.1525 69.6132L26.164 69.6248L26.1873 69.648L26.1989 69.6597L26.2106 69.6713L26.2223 69.683L26.234 69.6948L26.2812 69.742L26.3767 69.8375L26.5725 70.0333L26.5849 70.0457L26.5974 70.0582L26.6098 70.0707L26.6223 70.0832L26.6348 70.0957L26.6474 70.1083L26.6725 70.1334L26.774 70.2349L26.7996 70.2605L26.8124 70.2734L26.8253 70.2862L26.8769 70.3378L26.9028 70.3637L26.9288 70.3897L26.981 70.442L27.0336 70.4946L27.0468 70.5077L27.06 70.521L27.0732 70.5342L27.0864 70.5474L27.113 70.574L27.1396 70.6006L27.1529 70.6139L27.1663 70.6273L27.1796 70.6407L27.193 70.6541L27.4096 70.8707L27.5195 70.9806L27.5748 71.0359L27.6025 71.0637L27.6164 71.0776L27.6304 71.0915L27.6582 71.1194L27.6722 71.1334L27.6861 71.1473L27.7422 71.2034L27.8549 71.3161L27.8832 71.3444L27.8973 71.3586L27.9115 71.3728L27.9257 71.387L27.9399 71.4012L27.9684 71.4297L27.9969 71.4582L28.0112 71.4725L28.0255 71.4868L28.0827 71.544L28.3135 71.7749L28.3716 71.833L28.4299 71.8913L28.5468 72.0082L28.6642 72.1257L28.679 72.1405L28.6937 72.1552L28.7231 72.1847L28.7526 72.2142L28.7822 72.2437L28.8117 72.2733L28.8265 72.288L28.8413 72.3028L28.8709 72.3324L28.8857 72.3473L28.9005 72.3621L28.9598 72.4214L29.0192 72.4808L29.049 72.5106L29.0638 72.5254L29.0787 72.5403L29.0936 72.5552L29.1085 72.5701L29.1382 72.5999L29.2575 72.7192L29.4967 72.9584L29.5117 72.9734L29.5266 72.9884L29.5416 73.0034L29.5566 73.0183L29.5715 73.0333L29.5865 73.0483L29.6165 73.0782L29.6464 73.1082L29.6764 73.1382L29.7063 73.1681L29.7213 73.1831L29.7363 73.1981L29.7962 73.258L29.8261 73.288L29.8561 73.318L29.9759 73.4378L30.2151 73.677L30.4534 73.9155L30.4683 73.9303L30.4831 73.9452L30.498 73.9601L30.5128 73.9749L30.5277 73.9898L30.5425 74.0046L30.5722 74.0343L30.587 74.0491L30.6018 74.0639L30.6314 74.0935L30.661 74.1231L30.6758 74.1379L30.6906 74.1527L30.7496 74.2117L30.8085 74.2707L30.8673 74.3295L30.882 74.3442L30.8967 74.3589L30.926 74.3882L30.9553 74.4175L30.97 74.4322L30.9846 74.4468L30.9992 74.4614L31.0138 74.4761L31.0284 74.4907L31.043 74.5053L31.0576 74.5198L31.0722 74.5344L31.0868 74.549L31.1013 74.5636L31.1594 74.6217L31.3904 74.8527C32.5028 75.9655 33.4594 76.2593 34.1498 76.2621C34.8602 76.2649 35.3854 75.9611 35.6293 75.724C35.6302 75.7231 35.6311 75.7223 35.632 75.7214L37.7191 73.6336L27.1686 63.0798ZM21.6118 56.8951L21.8289 56.6779L26.3947 52.1107C26.4695 52.0359 26.5387 51.9616 26.6027 51.888C27.4366 50.9294 27.4587 50.0015 27.1667 49.1789C26.8562 48.3045 26.1775 47.5408 25.6265 47.1078L25.5912 47.0801L25.5595 47.0484C24.7031 46.1917 23.8508 46.0455 23.1271 46.1603C22.363 46.2815 21.6952 46.7058 21.3283 47.0546L16.9624 51.4218L16.432 50.8916L16.9624 51.4218C16.3411 52.0434 15.8697 52.7095 15.7638 53.4187C15.6662 54.0718 15.8555 54.9395 16.9624 56.0468C18.0609 57.1457 19.0786 57.4534 19.8669 57.4562C20.662 57.4591 21.2911 57.1521 21.6118 56.8951ZM53.6686 25.8505L53.6688 25.8506L53.6692 25.8511M53.6686 25.8505L53.6674 25.8493L53.6686 25.8505ZM79.4571 43.576L74.8928 48.1417L74.6742 48.3604C74.2542 48.7805 74.0747 49.1887 74.0216 49.5654C73.967 49.9522 74.0377 50.3647 74.2139 50.7909C74.574 51.6624 75.3226 52.462 75.916 52.9237L75.9528 52.9523L75.9858 52.9854C76.8995 53.8993 77.7124 54.0911 78.3192 54.0468C78.9618 53.9999 79.477 53.6801 79.7343 53.4227L84.9808 48.1746L85.0102 48.1452L85.0426 48.1192C85.2439 47.9582 85.518 47.5778 85.5154 47.0025C85.5129 46.4356 85.239 45.5572 84.1064 44.4242C83.0986 43.4161 82.1605 43.076 81.4102 43.0227C80.6439 42.9682 80.0063 43.2085 79.6138 43.4633C79.554 43.5022 79.5018 43.5402 79.4571 43.576ZM74.581 37.1477L76.2366 35.4916L76.2607 35.4675L76.2868 35.4457C76.6239 35.1647 77.0293 34.6327 77.1438 33.9973C77.2488 33.4147 77.1309 32.6358 76.2366 31.7412L75.3805 30.8848L75.2649 30.7692L75.2065 30.7108L75.1771 30.6814L75.1477 30.652L75.029 30.5332L74.969 30.4733L74.9389 30.4432L74.9088 30.413L74.8785 30.3827L74.8634 30.3676L74.8482 30.3524L74.7872 30.2914L74.6644 30.1686L74.4154 29.9194L74.3839 29.888L74.3682 29.8722L74.3524 29.8565L74.3209 29.8249L74.2893 29.7933L74.2258 29.7299L74.1622 29.6662L74.1463 29.6503L74.1303 29.6343L74.0984 29.6024L74.0824 29.5864L74.0664 29.5703L74.0504 29.5543L74.0343 29.5383L73.9057 29.4096L73.3854 28.8891L73.369 28.8727L73.3526 28.8563L73.3362 28.84L73.3198 28.8236L73.287 28.7908L73.2542 28.7579L73.2214 28.7251L73.1886 28.6923L73.1722 28.6758L73.1557 28.6594L73.1229 28.6265L73.1064 28.6101L73.09 28.5937L73.0736 28.5772L73.0571 28.5608L73.0407 28.5443L73.0243 28.5279L73.0078 28.5114L72.9914 28.495L72.9749 28.4785L72.9585 28.4621L72.942 28.4456L72.9256 28.4292L72.8598 28.3634L72.5968 28.1003L72.4655 27.969L72.4327 27.9362L72.4163 27.9198L72.4 27.9034L72.3345 27.8379L72.3018 27.8052L72.2855 27.7889L72.2691 27.7725L72.2528 27.7562L72.2365 27.7399L72.2202 27.7236L72.2039 27.7073L72.1876 27.691L72.1713 27.6747L72.155 27.6584L72.1387 27.6421L72.0737 27.577L72.0412 27.5446L72.025 27.5284L72.0088 27.5121L71.9764 27.4797L71.9602 27.4635L71.9441 27.4474L71.8795 27.3828L71.8633 27.3666L71.8472 27.3505L71.815 27.3183L71.5592 27.0624L71.5433 27.0465L71.5275 27.0306L71.4958 26.9989L71.4326 26.9357L71.3069 26.81L71.2913 26.7944L71.2756 26.7787L71.26 26.7631L71.2444 26.7475L71.1823 26.6853L71.1668 26.6698L71.1513 26.6543L71.1204 26.6234L71.0588 26.5618L70.9975 26.5005L70.9365 26.4395L70.8759 26.3788L70.8156 26.3185L70.7855 26.2885L70.7556 26.2585L70.7407 26.2436L70.7258 26.2287L70.696 26.1989L70.6368 26.1397L70.622 26.1249L70.6073 26.1102L70.5779 26.0808L70.5487 26.0515L70.5195 26.0223L70.4614 25.9643L70.447 25.9498L70.4326 25.9354L70.4182 25.921L70.4038 25.9066L70.3466 25.8494L69.9054 25.4081L69.8001 25.3028L69.697 25.1996L69.6463 25.1489L69.6211 25.1237L69.6086 25.1112L69.5961 25.0987L69.5466 25.0491L69.5343 25.0368L69.522 25.0246L69.4976 25.0001L69.1286 24.6311L69.1178 24.6202L69.107 24.6094L69.0962 24.5987L69.0855 24.5879L69.0431 24.5455L69.0326 24.535L69.0222 24.5246L69.0118 24.5142L69.0014 24.5038L68.9808 24.4832L68.9604 24.4628L68.8807 24.3831L68.842 24.3443L68.804 24.3064C68.5245 24.0268 68.0053 23.6839 67.4104 23.587C66.8621 23.4977 66.1944 23.6046 65.4928 24.3064L63.6619 26.1377L63.6182 26.1815L74.581 37.1477ZM52.3509 16.4598L48.0044 20.8076L47.984 20.828L47.9621 20.8467C47.5767 21.1772 47.1115 21.7854 46.9402 22.5216C46.7786 23.2163 46.8619 24.0841 47.6554 25.0492C47.7586 25.1748 47.8745 25.3027 48.0044 25.4326C49.0876 26.5162 50.0775 26.7472 50.8411 26.6808C51.6427 26.6111 52.2933 26.204 52.6273 25.8699L52.6992 25.798L52.7379 25.7593L52.7428 25.7543L52.7478 25.7493L52.7579 25.7393L52.7783 25.7189L52.7992 25.698L52.8205 25.6767L52.8643 25.6328L52.9099 25.5873L52.9215 25.5756L52.9274 25.5698L52.9333 25.5639L52.9571 25.5401L52.9691 25.528L52.9813 25.5158L53.0059 25.4912L53.0309 25.4662L53.0563 25.4408L53.1619 25.3352L53.2735 25.2235L53.391 25.106L53.5142 24.9827L53.6429 24.854L53.6511 24.8458L53.6594 24.8375L53.6676 24.8293L53.6759 24.821L53.6925 24.8044L53.7009 24.796L53.7092 24.7876L53.7769 24.72L53.8457 24.6511L53.9158 24.581L54.5182 23.9784L54.5581 23.9385L54.5983 23.8983L54.6794 23.8172L54.6896 23.807L54.6998 23.7968L54.71 23.7866L54.7202 23.7763L54.7305 23.7661L54.7408 23.7558L54.7614 23.7352L54.782 23.7145L54.8027 23.6938L54.8443 23.6522L54.9281 23.5684L54.9704 23.5261L54.981 23.5155L54.9916 23.5049L55.0128 23.4836L55.0555 23.4409L55.0662 23.4302L55.0769 23.4195L55.0984 23.398L55.1848 23.3116L55.1956 23.3008L55.2065 23.2899L55.2174 23.279L55.2283 23.2681L55.2501 23.2463L55.272 23.2244L55.3599 23.1365L55.4486 23.0478L55.538 22.9583L55.7188 22.7774L55.7416 22.7546L55.7645 22.7318L55.7759 22.7203L55.7873 22.7089L55.8102 22.686L55.8562 22.64L55.8677 22.6285L55.8792 22.617L55.8907 22.6055L55.9023 22.5939L55.9138 22.5824L55.9254 22.5708L55.9485 22.5477L55.9716 22.5245L55.9832 22.5129L55.9949 22.5013L56.0414 22.4548L56.088 22.4081L56.1817 22.3144L56.2287 22.2674L56.2523 22.2438L56.2641 22.232L56.2759 22.2202L56.4657 22.0303L56.4896 22.0064L56.5135 21.9825L56.5254 21.9706L56.5374 21.9586L56.5613 21.9347L56.5733 21.9227L56.5853 21.9107L56.5973 21.8987L56.6093 21.8867L56.6333 21.8627L56.6573 21.8387L57.0447 21.4511L57.0935 21.4023L57.1424 21.3535L57.1668 21.329L57.179 21.3168L57.1913 21.3045L57.2402 21.2556L57.2892 21.2065L57.3383 21.1575L57.4366 21.0591C57.8566 20.639 58.036 20.2308 58.0892 19.8541C58.1438 19.4673 58.073 19.0548 57.8969 18.6286C57.5367 17.7571 56.7882 16.9575 56.1948 16.4958L56.158 16.4671L56.125 16.4341C55.4408 15.7498 54.7049 15.6183 54.0311 15.7166C53.3374 15.8178 52.7101 16.1679 52.3509 16.4598ZM62.246 34.1794C62.539 33.8865 63.0139 33.8866 63.3067 34.1795L66.3672 37.2409C66.66 37.5339 66.66 38.0088 66.367 38.3016C66.0741 38.5944 65.5992 38.5944 65.3064 38.3014L62.2459 35.24C61.953 34.9471 61.9531 34.4722 62.246 34.1794ZM34.2646 61.7322C34.5575 61.4393 35.0324 61.4394 35.3253 61.7323L38.8229 65.2311C39.1158 65.524 39.1157 65.9989 38.8228 66.2917C38.5298 66.5846 38.055 66.5845 37.7621 66.2916L34.2644 62.7928C33.9716 62.4999 33.9717 62.025 34.2646 61.7322Z" fill="#FFD9A1"/>
</svg>
