<svg width="101" height="101" viewBox="0 0 101 101" fill="none" xmlns="http://www.w3.org/2000/svg">
<path d="M41.9812 50.4692C39.4502 52.8038 23.6572 63.5632 23.151 76.6572C22.8167 85.3043 26.1028 90.6756 30.0352 93.3267M41.9812 50.4692C44.8279 48.1346 46.4356 46.003 48.5616 41.1308C50.6876 36.2586 53.5222 32.909 55.4138 31.894M41.9812 50.4692C42.0673 48.6566 41.9337 39.4305 34.1102 34.8376M38.3366 69.0444C43.2541 66.6069 48.5334 65.923 52.6111 67.3227M52.6111 67.3227C56.0048 68.4877 58.5663 71.0959 59.394 75.3377C60.1755 79.3423 59.4597 82.8259 58.3103 85.4881M52.6111 67.3227C57.2859 67.3524 67.3817 65.824 73.3647 59.7745M70.1252 51.7887C66.0757 53.2098 60.4064 55.8489 54.6358 51.7887M70.1252 51.7887C67.2168 51.7887 62.9066 50.5707 61.115 49.9617M70.1252 51.7887C71.286 51.3814 72.4136 51.3661 73.3647 51.6495M73.3647 51.6495C74.9543 52.1232 76.0513 53.4312 75.9881 55.1384M73.3647 51.6495C74.3835 51.3543 75.8371 50.6246 76.9081 49.3919M57.3692 36.1571C56.3398 34.5493 55.7246 33.1356 55.4138 31.894M55.4138 31.894C54.1355 26.7861 58.0095 24.5902 59.394 23.7736C60.3051 24.0781 62.8361 29.1533 63.0385 31.894C72.8586 33.4165 76.7056 38.0857 78.1229 43.9729C78.3689 44.9946 78.3811 45.9062 78.2284 46.7135M75.9881 55.1384C75.9572 55.9734 75.6487 56.9039 74.9845 57.879C74.4893 58.5554 73.9465 59.1863 73.3647 59.7745M75.9881 55.1384C79.1353 55.0369 81.3625 54.8339 85.2095 56.1534M85.2095 56.1534C85.412 53.8188 85.7157 48.8221 76.9081 49.3919M85.2095 56.1534C85.0745 58.8602 83.5897 64.294 78.7303 64.3752C76.6149 64.4106 75.2797 63.8403 74.4657 63.0557M76.9081 49.3919C77.5316 48.6742 78.0255 47.7859 78.2284 46.7135M73.3647 59.7745C73.2314 60.6596 73.41 62.038 74.4657 63.0557M74.4657 63.0557C72.8839 64.5444 68.4851 67.9279 63.5447 69.552C64.1521 71.8865 66.4393 80.6159 58.3103 85.4881M58.3103 85.4881C57.3155 87.7923 55.9958 89.4812 55.0408 90.3603C58.0442 90.3603 64.9823 90.3603 68.7078 90.3603C73.3647 90.3603 72.9598 95.334 70.8338 95.334C68.7078 95.334 41.9812 95.334 36.2106 95.334C34.2509 95.334 32.0575 94.6901 30.0352 93.3267M30.0352 93.3267C14.8496 92.4359 13.0273 85.4881 14.1409 75.3377C15.2545 65.1873 26.7956 57.067 21.8349 51.7887C17.3863 47.0553 11.6349 50.8117 8.15859 54.7855C7.64777 55.3694 6.68118 55.2423 6.43569 54.5064C4.75817 49.4772 5.05448 44.4887 8.06667 39.9128C10.1164 36.799 12.852 33.7234 17.583 32.5145M17.583 32.5145C20.563 31.753 24.3347 31.7322 29.2253 32.909C31.1188 33.3646 32.7335 34.0294 34.1102 34.8376M17.583 32.5145C17.2767 31.7432 17.0352 30.4899 17.0942 29.1533M34.1102 34.8376C37.185 34.8376 43.7178 34.8376 46.9996 34.8376C47.4464 34.8376 47.8426 34.5409 47.9336 34.1036C48.5707 31.0434 47.1944 29.8363 45.5245 29.3606M45.5245 29.3606C44.4882 29.0654 43.3389 29.0518 42.4874 29.0518C43.196 22.4541 42.0824 17.9879 34.8946 16.6683C27.7067 15.3488 25.3782 22.2511 25.1758 23.4691C18.9623 22.5488 17.2301 26.0722 17.0942 29.1533M45.5245 29.3606C48.0554 29.3606 52.1049 29.0518 52.1049 25.0932C52.1049 21.1345 48.1172 20.018 44.8158 20.3225C44.4109 17.7849 43.2973 13.1157 35.6032 12.7097C35.7045 9.76606 32.8698 4.69086 25.682 5.40139C18.4941 6.11192 17.583 11.2886 17.583 15.4503C14.9508 15.7548 13.4322 17.3789 13.0273 19.4089C11.4075 19.1044 5.33325 18.5969 5.33325 24.5857C5.33325 28.2398 8.67408 29.1533 11.4075 29.1533C13.5942 29.1533 16.1098 29.1533 17.0942 29.1533M10.2939 23.8751C11.61 22.8601 12.9261 22.3526 15.2545 23.8751M23.7584 15.1458C25.1758 13.9277 27.0993 13.8262 29.0228 15.1458M33.4772 26.9202C34.8946 25.6007 37.0205 25.7022 38.7416 26.9202M76.9081 46.7135H78.2284M77.4142 81.5257L83.0835 76.958L91.9924 77.77L95.3333 84.0633L91.9924 89.037H80.7551L77.4142 81.5257Z" stroke="#FFD9A1" stroke-width="1.5" stroke-linecap="round"/>
<circle cx="69.3333" cy="40.334" r="1" fill="#FFD9A1"/>
</svg>
