<svg width="66" height="100" viewBox="0 0 66 100" fill="none" xmlns="http://www.w3.org/2000/svg">
<g clip-path="url(#clip0_90_633)">
<path d="M24.7316 6.55744C24.7316 11.4755 28.83 13.9345 32.9284 13.9345M32.9284 13.9345V1.6394M32.9284 13.9345V22.1312M32.9284 13.9345C37.0267 13.9345 41.1251 11.4755 41.1251 6.55744M32.9284 70.4919V57.3771M18.9939 14.7542C20.6333 17.2132 25.7152 22.1312 32.9284 22.1312M32.9284 22.1312V30.3279M32.9284 22.1312C40.1415 22.1312 45.2234 17.2132 46.8628 14.7542M15.7152 22.9509C17.901 25.4099 24.4038 30.3279 32.9284 30.3279M32.9284 30.3279V40.164M32.9284 30.3279C41.4529 30.3279 47.9557 25.4099 50.1415 22.9509M12.4366 30.3279C15.1688 33.6066 23.0923 40.164 32.9284 40.164M32.9284 40.164V49.1804M32.9284 40.164C42.7644 40.164 50.6879 33.6066 53.4202 30.3279M9.15787 39.3443C12.4366 42.623 21.7808 49.1804 32.9284 49.1804M32.9284 49.1804V57.3771M32.9284 49.1804C44.0759 49.1804 53.4202 42.623 56.6989 39.3443M6.69885 46.7214C9.70432 50.2733 19.1579 57.3771 32.9284 57.3771M32.9284 57.3771C46.6989 57.3771 56.1524 50.2733 59.1579 46.7214" stroke="#FFD9A1" stroke-width="2.5" stroke-linecap="round"/>
<path d="M0.961182 65.5739C14.8956 61.4755 44.4038 66.3935 49.3218 100" stroke="#FFD9A1" stroke-width="2.5" stroke-linecap="round"/>
<path d="M64.6504 66.7997C65.3274 66.9351 65.9859 66.496 66.1213 65.8191C66.2567 65.1421 65.8177 64.4836 65.1407 64.3482L64.6504 66.7997ZM33.6217 72.3517C38.3737 69.1837 48.6919 63.608 64.6504 66.7997L65.1407 64.3482C48.3123 60.9825 37.319 66.8822 32.235 70.2716L33.6217 72.3517Z" fill="#FFD9A1"/>
<path d="M64.4032 77.3785C65.0378 77.6504 65.7726 77.3565 66.0445 76.722C66.3165 76.0874 66.0225 75.3526 65.388 75.0806L64.4032 77.3785ZM65.388 75.0806C62.2861 73.7513 57.7651 73.126 53.202 73.5505C48.6345 73.9754 43.8428 75.4693 40.302 78.5675L41.9483 80.449C44.9648 77.8095 49.1895 76.4346 53.4335 76.0398C57.6818 75.6446 61.7674 76.2489 64.4032 77.3785L65.388 75.0806Z" fill="#FFD9A1"/>
<path d="M64.3134 87.1718C64.9243 87.4933 65.6802 87.2587 66.0017 86.6477C66.3232 86.0368 66.0886 85.2809 65.4777 84.9594L64.3134 87.1718ZM65.4777 84.9594C62.839 83.5708 58.9035 82.9452 55.1529 83.1634C51.4264 83.3803 47.5283 84.452 45.1592 86.8211L46.927 88.5888C48.6562 86.8596 51.8101 85.8622 55.2982 85.6592C58.7621 85.4576 62.2037 86.0615 64.3134 87.1718L65.4777 84.9594Z" fill="#FFD9A1"/>
<path d="M0.961182 74.5902C12.4366 71.3115 34.5677 77.0492 38.6661 100" stroke="#FFD9A1" stroke-width="2.5" stroke-linecap="round"/>
<path d="M0.961182 82.5867C8.51884 80.5137 24.7317 83.6066 28.0104 100" stroke="#FFD9A1" stroke-width="2.5" stroke-linecap="round"/>
</g>
<defs>
<clipPath id="clip0_90_633">
<rect width="64.0777" height="100" fill="white" transform="translate(0.961182)"/>
</clipPath>
</defs>
</svg>
