<svg width="132" height="206" viewBox="0 0 132 206" fill="none" xmlns="http://www.w3.org/2000/svg">
<g clip-path="url(#clip0_90_613)">
<path d="M48.9671 13.5081C48.9671 23.6392 57.4097 28.7048 65.8524 28.7048M65.8524 28.7048V3.37695M65.8524 28.7048V45.5901M65.8524 28.7048C74.295 28.7048 82.7376 23.6392 82.7376 13.5081M65.8524 145.213V118.197M37.1474 30.3933C40.5245 35.4589 50.9934 45.5901 65.8524 45.5901M65.8524 45.5901V62.4753M65.8524 45.5901C80.7114 45.5901 91.1802 35.4589 94.5573 30.3933M30.3934 47.2786C34.8961 52.3442 48.2917 62.4753 65.8524 62.4753M65.8524 62.4753V82.7376M65.8524 62.4753C83.413 62.4753 96.8087 52.3442 101.311 47.2786M23.6393 62.4753C29.2677 69.2294 45.5901 82.7376 65.8524 82.7376M65.8524 82.7376V101.311M65.8524 82.7376C86.1147 82.7376 102.437 69.2294 108.065 62.4753M16.8852 81.0491C23.6393 87.8032 42.8884 101.311 65.8524 101.311M65.8524 101.311V118.197M65.8524 101.311C88.8163 101.311 108.065 87.8032 114.82 81.0491M11.8196 96.2458C18.0108 103.563 37.4852 118.197 65.8524 118.197M65.8524 118.197C94.2196 118.197 113.694 103.563 119.885 96.2458" stroke="#282B31" stroke-width="5" stroke-linecap="round"/>
<path d="M-0.00012207 135.082C28.7048 126.639 89.4917 136.771 99.6228 206" stroke="#282B31" stroke-width="5" stroke-linecap="round"/>
<path d="M131.215 137.534C132.568 137.804 133.886 136.926 134.156 135.572C134.427 134.219 133.549 132.901 132.195 132.631L131.215 137.534ZM67.2392 148.982C77.0383 142.449 98.314 130.953 131.215 137.534L132.195 132.631C97.5548 125.703 74.9288 137.846 64.4657 144.822L67.2392 148.982Z" fill="#282B31"/>
<path d="M130.72 159.331C131.989 159.875 133.459 159.287 134.003 158.018C134.547 156.748 133.959 155.279 132.69 154.735L130.72 159.331ZM132.69 154.735C126.314 152.002 117.014 150.715 107.623 151.589C98.2236 152.463 88.3698 155.537 81.0914 161.905L84.3839 165.668C90.6137 160.217 99.3337 157.381 108.086 156.567C116.847 155.752 125.276 156.998 130.72 159.331L132.69 154.735Z" fill="#282B31"/>
<path d="M130.541 179.508C131.762 180.151 133.274 179.681 133.917 178.459C134.56 177.238 134.091 175.726 132.869 175.083L130.541 179.508ZM132.869 175.083C127.449 172.231 119.357 170.942 111.639 171.392C103.97 171.838 95.9622 174.043 91.101 178.904L94.6365 182.44C98.218 178.859 104.737 176.802 111.93 176.383C119.074 175.967 126.179 177.212 130.541 179.508L132.869 175.083Z" fill="#282B31"/>
<path d="M-0.00012207 153.656C23.6392 146.902 69.2294 158.721 77.672 206" stroke="#282B31" stroke-width="5" stroke-linecap="round"/>
<path d="M-0.00012207 170.129C15.5686 165.858 48.9671 172.23 55.7212 206" stroke="#282B31" stroke-width="5" stroke-linecap="round"/>
</g>
<defs>
<clipPath id="clip0_90_613">
<rect width="132" height="206" fill="white"/>
</clipPath>
</defs>
</svg>
